ply
format ascii 1.0
comment VCGLIB generated
comment TextureFile dummy.png
element vertex 410
property float x
property float y
property float z
property float nx
property float ny
property float nz
property float texture_u
property float texture_v
element face 156
property list uchar int vertex_indices
end_header
0.143914 1.58059 0.06447901 0 -0.04696321 -0.9988967 0.44704 0.28749
0.153748 2.03772 0.042987 0 -0.0469632 -0.9988967 0.44704 0.28749
0.178719 1.58059 0.06447901 0 -0.04696321 -0.9988967 0.44704 0.28749
0.143914 3.0473 0.06447901 0 1 0 0.44704 0.28749
0.178719 3.0473 0.099284 0 1 0 0.44704 0.28749
0.178719 3.0473 0.06447901 0 1 0 0.44704 0.28749
0.153748 2.03772 0.07780001 0 0.04694576 0.9988975 0.44704 0.28749
0.143914 1.58059 0.099284 0 0.04694576 0.9988975 0.44704 0.28749
0.178719 1.58059 0.099284 0 0.04694576 0.9988975 0.44704 0.28749
0.152092 4.005432e-05 0.009043001 0 -1 0 0.44704 0.28749
0.150391 4.005432e-05 4.800409e-05 0 -1 0 0.44704 0.28749
0.155739 4.005432e-05 0.003695004 0 -1 0 0.44704 0.28749
0.143914 1.58059 0.06447901 -0.9985104 -0.0545617 0 0.44704 0.28749
0.118935 2.03772 0.07780001 -0.9985104 -0.05456169 0 0.44704 0.28749
0.118935 2.03772 0.042987 -0.9985104 -0.05456169 0 0.44704 0.28749
0.178719 1.58059 0.06447901 0.9985114 0.05454437 0 0.44704 0.28749
0.153748 2.03772 0.07780001 0.9985114 0.05454437 0 0.44704 0.28749
0.178719 1.58059 0.099284 0.9985114 0.05454437 0 0.44704 0.28749
0.240677 0.46999 0.08086701 0.9852127 0.1713357 0 0.44704 0.28749
0.178719 0.8262601 0.06447901 0.9852127 0.1713357 0 0.44704 0.28749
0.178719 0.8262601 0.099284 0.9852127 0.1713357 0 0.44704 0.28749
0.20591 0.4638102 0.046267 0.003968872 0.05048024 -0.9987172 0.44704 0.28749
0.178719 0.8262601 0.06447901 0.003968872 0.05048024 -0.9987172 0.44704 0.28749
0.240723 0.4631901 0.046374 0.003968872 0.05048024 -0.9987172 0.44704 0.28749
0.205864 0.4706101 0.08076701 -0.9849031 -0.1700833 0.03221058 0.44704 0.28749
0.143914 0.8262601 0.06447901 -0.9849031 -0.1700833 0.03221058 0.44704 0.28749
0.20591 0.4638102 0.046267 -0.9849032 -0.1700833 0.03221058 0.44704 0.28749
0.178719 0.8262601 0.099284 -0.003799817 -0.05228366 0.998625 0.44704 0.28749
0.205864 0.4706101 0.08076701 -0.003799817 -0.05228366 0.998625 0.44704 0.28749
0.240677 0.46999 0.08086701 -0.003799816 -0.05228366 0.998625 0.44704 0.28749
0.150391 4.005432e-05 4.800409e-05 0.004814856 0.09859615 -0.9951159 0.44704 0.28749
0.20591 0.4638102 0.046267 0.004814856 0.09859614 -0.9951159 0.44704 0.28749
0.240723 0.4631901 0.046374 0.004814856 0.09859616 -0.9951159 0.44704 0.28749
0.152092 4.005432e-05 0.009043001 -0.5631946 -0.0009682836 0.8263237 0.44704 0.28749
0.20591 0.4638102 0.046267 -0.5631946 -0.0009682836 0.8263237 0.44704 0.28749
0.146744 4.005432e-05 0.005398005 -0.5631946 -0.0009682836 0.8263237 0.44704 0.28749
0.205864 0.4706101 0.08076701 -0.005703504 -0.1610364 0.986932 0.44704 0.28749
0.155739 4.005432e-05 0.003695004 -0.005703504 -0.1610364 0.986932 0.44704 0.28749
0.240677 0.46999 0.08086701 -0.005703504 -0.1610364 0.986932 0.44704 0.28749
0.155739 4.005432e-05 0.003695004 0.9822668 -0.1836952 0.03752402 0.44704 0.28749
0.240723 0.4631901 0.046374 0.9822668 -0.1836952 0.03752401 0.44704 0.28749
0.240677 0.46999 0.08086701 0.9822668 -0.1836952 0.03752401 0.44704 0.28749
0.153748 2.03772 0.042987 0 0.05120573 -0.9986882 0.44704 0.28749
0.143914 2.456888 0.06447901 0 0.05120574 -0.9986882 0.44704 0.28749
0.178719 2.456888 0.06447901 0 0.05120573 -0.9986882 0.44704 0.28749
0.153748 2.03772 0.07780001 0.9982302 -0.05946744 0 0.44704 0.28749
0.178719 2.456888 0.06447901 0.9982302 -0.05946743 0 0.44704 0.28749
0.178719 2.456888 0.099284 0.9982302 -0.05946743 0 0.44704 0.28749
0.143914 2.456888 0.099284 0 -0.05118672 0.9986891 0.44704 0.28749
0.153748 2.03772 0.07780001 0 -0.05118673 0.9986891 0.44704 0.28749
0.178719 2.456888 0.099284 0 -0.05118672 0.9986891 0.44704 0.28749
0.118935 2.03772 0.07780001 -0.9982291 0.05948633 0 0.44704 0.28749
0.143914 2.456888 0.06447901 -0.9982291 0.05948632 0 0.44704 0.28749
0.118935 2.03772 0.042987 -0.9982291 0.05948633 0 0.44704 0.28749
0.178719 0.8262601 0.06447901 1 0 0 0.44704 0.28749
0.178719 1.58059 0.099284 1 0 0 0.44704 0.28749
0.178719 0.8262601 0.099284 1 0 0 0.44704 0.28749
0.143914 0.8262601 0.06447901 0 0 -1 0.44704 0.28749
0.178719 1.58059 0.06447901 0 0 -1 0.44704 0.28749
0.178719 0.8262601 0.06447901 0 0 -1 0.44704 0.28749
0.143914 0.8262601 0.099284 -1 0 0 0.44704 0.28749
0.143914 1.58059 0.06447901 -1 0 0 0.44704 0.28749
0.143914 0.8262601 0.06447901 -1 0 0 0.44704 0.28749
0.143914 1.58059 0.099284 0 0 1 0.44704 0.28749
0.178719 0.8262601 0.099284 0 0 1 0.44704 0.28749
0.178719 1.58059 0.099284 0 0 1 0.44704 0.28749
0.143914 2.456888 0.06447901 0 0 -1 0.44704 0.28749
0.178719 3.0473 0.06447901 0 0 -1 0.44704 0.28749
0.178719 2.456888 0.06447901 0 0 -1 0.44704 0.28749
0.178719 2.456888 0.06447901 1 0 0 0.44704 0.28749
0.178719 3.0473 0.099284 1 0 0 0.44704 0.28749
0.178719 2.456888 0.099284 1 0 0 0.44704 0.28749
0.143914 3.0473 0.099284 0 0 1 0.44704 0.28749
0.178719 2.456888 0.099284 0 0 1 0.44704 0.28749
0.178719 3.0473 0.099284 0 0 1 0.44704 0.28749
0.143914 2.456888 0.099284 -1 0 0 0.44704 0.28749
0.143914 3.0473 0.06447901 -1 0 0 0.44704 0.28749
0.143914 2.456888 0.06447901 -1 0 0 0.44704 0.28749
0.326439 1.58059 0.119426 0.9691104 -0.04697153 -0.2421132 0.44704 0.28749
0.349678 2.03772 0.123759 0.9691104 -0.04697153 -0.2421132 0.44704 0.28749
0.334877 1.58059 0.153201 0.9691104 -0.04697153 -0.2421132 0.44704 0.28749
0.326439 3.0473 0.119426 0 1 0 0.44704 0.28749
0.30111 3.0473 0.161631 0 1 0 0.44704 0.28749
0.334877 3.0473 0.153201 0 1 0 0.44704 0.28749
0.315895 2.03772 0.132197 -0.9690987 0.04693644 0.2421668 0.44704 0.28749
0.292672 1.58059 0.127864 -0.9690987 0.04693644 0.2421668 0.44704 0.28749
0.30111 1.58059 0.161631 -0.9690987 0.04693644 0.2421668 0.44704 0.28749
0.413338 0.2567501 0.109912 -0.08181355 -0.9964303 0.02081201 0.44704 0.28749
0.409516 0.2568901 0.101588 -0.08181355 -0.9964303 0.02081201 0.44704 0.28749
0.415566 0.2564402 0.103831 -0.08181355 -0.9964304 0.02081201 0.44704 0.28749
0.326439 1.58059 0.119426 -0.2420124 -0.05456052 -0.9687379 0.44704 0.28749
0.307457 2.03772 0.09842201 -0.2420124 -0.05456052 -0.968738 0.44704 0.28749
0.341233 2.03772 0.089984 -0.2420124 -0.05456052 -0.9687379 0.44704 0.28749
0.334877 1.58059 0.153201 0.241857 0.05455588 0.968777 0.44704 0.28749
0.315895 2.03772 0.132197 0.2418571 0.05455589 0.968777 0.44704 0.28749
0.30111 1.58059 0.161631 0.2418571 0.05455589 0.968777 0.44704 0.28749
0.398331 0.73158 0.201205 0.253039 0.1707133 0.9522753 0.44704 0.28749
0.428719 1.08514 0.129748 0.253039 0.1707133 0.9522753 0.44704 0.28749
0.395073 1.08811 0.138156 0.253039 0.1707133 0.9522753 0.44704 0.28749
0.422837 0.72246 0.159251 0.9705582 -0.03512503 -0.238292 0.44704 0.28749
0.428719 1.08514 0.129748 0.9705582 -0.03512503 -0.2382921 0.44704 0.28749
0.431115 0.7218502 0.193057 0.9705582 -0.03512503 -0.2382921 0.44704 0.28749
0.390046 0.7321801 0.167392 -0.283854 -0.1667305 -0.9442605 0.44704 0.28749
0.420281 1.08514 0.09598 -0.283854 -0.1667305 -0.9442605 0.44704 0.28749
0.422837 0.72246 0.159251 -0.283854 -0.1667305 -0.9442605 0.44704 0.28749
0.395073 1.08811 0.138156 -0.9705938 0.03329119 0.2384102 0.44704 0.28749
0.390046 0.7321801 0.167392 -0.9705938 0.03329119 0.2384102 0.44704 0.28749
0.398331 0.73158 0.201205 -0.9705938 0.03329119 0.2384102 0.44704 0.28749
0.415566 0.2564402 0.103831 0.9712753 0.01310139 -0.2375976 0.44704 0.28749
0.422837 0.72246 0.159251 0.9712754 0.01310139 -0.2375976 0.44704 0.28749
0.431115 0.7218502 0.193057 0.9712753 0.01310139 -0.2375975 0.44704 0.28749
0.40728 0.25721 0.107661 -0.9349239 0.06984025 -0.3479078 0.44704 0.28749
0.422837 0.72246 0.159251 -0.9349238 0.06984025 -0.3479078 0.44704 0.28749
0.409516 0.2568901 0.101588 -0.9349238 0.06984025 -0.3479078 0.44704 0.28749
0.390046 0.7321801 0.167392 -0.968771 -0.07599705 0.236024 0.44704 0.28749
0.413338 0.2567501 0.109912 -0.968771 -0.07599705 0.2360239 0.44704 0.28749
0.398331 0.73158 0.201205 -0.968771 -0.07599705 0.2360239 0.44704 0.28749
0.413338 0.2567501 0.109912 0.1866823 -0.1797945 0.965828 0.44704 0.28749
0.431115 0.7218502 0.193057 0.1866823 -0.1797945 0.965828 0.44704 0.28749
0.398331 0.73158 0.201205 0.1866823 -0.1797945 0.965828 0.44704 0.28749
0.349678 2.03772 0.123759 0.968908 0.05121482 -0.2420627 0.44704 0.28749
0.326439 2.456888 0.119426 0.968908 0.05121482 -0.2420627 0.44704 0.28749
0.334877 2.456888 0.153201 0.968908 0.05121482 -0.2420627 0.44704 0.28749
0.315895 2.03772 0.132197 0.241789 -0.05947997 0.9685041 0.44704 0.28749
0.334877 2.456888 0.153201 0.241789 -0.05947997 0.9685042 0.44704 0.28749
0.30111 2.456888 0.161631 0.241789 -0.05947997 0.9685041 0.44704 0.28749
0.292672 2.456888 0.127864 -0.9688966 -0.05117657 0.2421163 0.44704 0.28749
0.315895 2.03772 0.132197 -0.9688966 -0.05117657 0.2421163 0.44704 0.28749
0.30111 2.456888 0.161631 -0.9688966 -0.05117657 0.2421163 0.44704 0.28749
0.307457 2.03772 0.09842201 -0.2419441 0.05948503 -0.9684651 0.44704 0.28749
0.326439 2.456888 0.119426 -0.2419441 0.05948503 -0.9684651 0.44704 0.28749
0.341233 2.03772 0.089984 -0.2419441 0.05948503 -0.9684651 0.44704 0.28749
0.395073 1.08811 0.138156 0.2422178 -3.340323e-05 0.9702219 0.44704 0.28749
0.334877 1.58059 0.153201 0.2422178 -3.340323e-05 0.9702219 0.44704 0.28749
0.30111 1.58059 0.161631 0.2422178 -3.340323e-05 0.9702219 0.44704 0.28749
0.428719 1.08514 0.129748 0.9522038 0.1916155 -0.2378895 0.44704 0.28749
0.326439 1.58059 0.119426 0.9522038 0.1916155 -0.2378895 0.44704 0.28749
0.334877 1.58059 0.153201 0.9522038 0.1916155 -0.2378895 0.44704 0.28749
0.386635 1.08811 0.104388 -0.2424414 -9.439868e-06 -0.9701661 0.44704 0.28749
0.326439 1.58059 0.119426 -0.2424414 -9.439868e-06 -0.9701661 0.44704 0.28749
0.420281 1.08514 0.09598 -0.2424414 -9.439868e-06 -0.9701661 0.44704 0.28749
0.30111 1.58059 0.161631 -0.9519361 -0.1929637 0.237871 0.44704 0.28749
0.386635 1.08811 0.104388 -0.9519361 -0.1929637 0.237871 0.44704 0.28749
0.395073 1.08811 0.138156 -0.9519361 -0.1929637 0.237871 0.44704 0.28749
0.326439 2.456888 0.119426 0.9701812 0 -0.2423808 0.44704 0.28749
0.334877 3.0473 0.153201 0.9701812 0 -0.2423808 0.44704 0.28749
0.334877 2.456888 0.153201 0.9701812 0 -0.2423808 0.44704 0.28749
0.334877 2.456888 0.153201 0.2422178 0 0.9702219 0.44704 0.28749
0.30111 3.0473 0.161631 0.2422178 0 0.9702219 0.44704 0.28749
0.30111 2.456888 0.161631 0.2422178 0 0.9702219 0.44704 0.28749
0.292672 3.0473 0.127864 -0.9701679 0 0.242434 0.44704 0.28749
0.30111 2.456888 0.161631 -0.9701679 0 0.242434 0.44704 0.28749
0.30111 3.0473 0.161631 -0.9701679 0 0.242434 0.44704 0.28749
0.292672 2.456888 0.127864 -0.2424343 0 -0.9701678 0.44704 0.28749
0.326439 3.0473 0.119426 -0.2424343 0 -0.9701678 0.44704 0.28749
0.326439 2.456888 0.119426 -0.2424343 0 -0.9701679 0.44704 0.28749
0.06140202 1.87187 0.307475 0.5987941 0.01926638 -0.8006713 0.44704 0.28749
0.032143 2.03772 0.289584 0.5987941 0.01926638 -0.8006713 0.44704 0.28749
0.08927202 1.87187 0.328318 0.5987941 0.01926638 -0.8006713 0.44704 0.28749
0.03131902 3.0473 0.313212 0 1 0 0.44704 0.28749
0.076828 3.0473 0.331965 0 1 0 0.44704 0.28749
0.06346202 3.0473 0.29983 0 1 0 0.44704 0.28749
0.04551703 2.03772 0.321734 -0.5970811 0.0832839 0.7978458 0.44704 0.28749
0.04055101 1.87187 0.33533 -0.5970811 0.0832839 0.7978458 0.44704 0.28749
0.06841302 1.87187 0.356181 -0.5970811 0.0832839 0.7978458 0.44704 0.28749
0.03231901 0.81197 0.434634 -0.4351242 -0.8096707 0.3938276 0.44704 0.28749
0.034325 0.8059301 0.424433 -0.4351242 -0.8096707 0.3938277 0.44704 0.28749
0.03865099 0.8071201 0.431659 -0.4351242 -0.8096707 0.3938277 0.44704 0.28749
0.04055101 1.87187 0.33533 -0.7640831 -0.2983967 -0.5719585 0.44704 0.28749
7.987022e-06 2.03772 0.302966 -0.7640831 -0.2983967 -0.5719585 0.44704 0.28749
0.06140202 1.87187 0.307475 -0.7640831 -0.2983967 -0.5719585 0.44704 0.28749
0.08927202 1.87187 0.328318 0.7793001 0.2287573 0.5834051 0.44704 0.28749
0.04551703 2.03772 0.321734 0.7793001 0.2287573 0.5834051 0.44704 0.28749
0.06841302 1.87187 0.356181 0.7793001 0.2287573 0.5834051 0.44704 0.28749
0.168786 1.02286 0.32548 0.7974002 0.170723 0.5787976 0.44704 0.28749
0.147232 1.37642 0.250888 0.7974002 0.170723 0.5787976 0.44704 0.28749
0.12645 1.37939 0.278643 0.7974002 0.170723 0.5787976 0.44704 0.28749
0.161301 1.01374 0.277476 0.6021996 -0.03510949 -0.7975732 0.44704 0.28749
0.147232 1.37642 0.250888 0.6021996 -0.03510949 -0.7975733 0.44704 0.28749
0.189064 1.01313 0.298465 0.6021996 -0.03510949 -0.7975732 0.44704 0.28749
0.141015 1.02346 0.304492 -0.8163353 -0.1667243 -0.5529916 0.44704 0.28749
0.11937 1.37642 0.230029 -0.8163353 -0.1667243 -0.5529916 0.44704 0.28749
0.161301 1.01374 0.277476 -0.8163353 -0.1667243 -0.5529916 0.44704 0.28749
0.12645 1.37939 0.278643 -0.602141 0.03329152 0.7976954 0.44704 0.28749
0.141015 1.02346 0.304492 -0.602141 0.03329151 0.7976953 0.44704 0.28749
0.168786 1.02286 0.32548 -0.602141 0.03329152 0.7976954 0.44704 0.28749
0.034325 0.8059301 0.424433 0.4316957 -0.681589 -0.5908259 0.44704 0.28749
0.161301 1.01374 0.277476 0.4316958 -0.681589 -0.590826 0.44704 0.28749
0.189064 1.01313 0.298465 0.4316958 -0.681589 -0.590826 0.44704 0.28749
0.02800798 0.81077 0.427401 -0.7869512 0.0634556 -0.6137437 0.44704 0.28749
0.141015 1.02346 0.304492 -0.7869511 0.06345559 -0.6137437 0.44704 0.28749
0.161301 1.01374 0.277476 -0.7869511 0.06345559 -0.6137437 0.44704 0.28749
0.141015 1.02346 0.304492 -0.4731303 0.6019771 0.6432506 0.44704 0.28749
0.03865099 0.8071201 0.431659 -0.4731303 0.6019771 0.6432506 0.44704 0.28749
0.168786 1.02286 0.32548 -0.4731302 0.6019771 0.6432506 0.44704 0.28749
0.034325 0.8059301 0.424433 0.7248784 -0.602035 -0.3348211 0.44704 0.28749
0.168786 1.02286 0.32548 0.7248784 -0.602035 -0.3348211 0.44704 0.28749
0.03865099 0.8071201 0.431659 0.7248784 -0.602035 -0.334821 0.44704 0.28749
0.032143 2.03772 0.289584 -0.3838439 0.05121617 -0.9219766 0.44704 0.28749
0.03131902 2.456888 0.313212 -0.3838439 0.05121617 -0.9219766 0.44704 0.28749
0.06346202 2.456888 0.29983 -0.3838439 0.05121617 -0.9219766 0.44704 0.28749
0.04551703 2.03772 0.321734 0.9216821 -0.0594908 -0.3833575 0.44704 0.28749
0.06346202 2.456888 0.29983 0.9216822 -0.0594908 -0.3833574 0.44704 0.28749
0.076828 2.456888 0.331965 0.9216821 -0.0594908 -0.3833574 0.44704 0.28749
0.04469299 2.456888 0.34534 0.3837548 -0.05117016 0.9220162 0.44704 0.28749
0.04551703 2.03772 0.321734 0.3837551 -0.05117014 0.922016 0.44704 0.28749
0.076828 2.456888 0.331965 0.3837548 -0.05117015 0.9220162 0.44704 0.28749
0.01338202 2.03772 0.335109 -0.9216353 0.05947087 0.383473 0.44704 0.28749
0.03131902 2.456888 0.313212 -0.9216354 0.05947087 0.383473 0.44704 0.28749
7.987022e-06 2.03772 0.302966 -0.9216353 0.05947087 0.383473 0.44704 0.28749
0.12645 1.37939 0.278643 0.8005272 -1.636767e-05 0.5992965 0.44704 0.28749
0.08927202 1.87187 0.328318 0.8005272 -1.636767e-05 0.5992964 0.44704 0.28749
0.06841302 1.87187 0.356181 0.8005272 -1.636767e-05 0.5992965 0.44704 0.28749
0.11937 1.37642 0.230029 0.5882068 0.1915998 -0.7856859 0.44704 0.28749
0.08927202 1.87187 0.328318 0.5882068 0.1915998 -0.7856859 0.44704 0.28749
0.147232 1.37642 0.250888 0.5882068 0.1915998 -0.7856859 0.44704 0.28749
0.09858698 1.37939 0.257792 -0.8005424 1.158296e-05 -0.5992762 0.44704 0.28749
0.06140202 1.87187 0.307475 -0.8005424 1.158296e-05 -0.5992762 0.44704 0.28749
0.11937 1.37642 0.230029 -0.8005424 1.158296e-05 -0.5992762 0.44704 0.28749
0.06841302 1.87187 0.356181 -0.5878877 -0.1929669 0.7855902 0.44704 0.28749
0.09858698 1.37939 0.257792 -0.5878877 -0.1929669 0.7855902 0.44704 0.28749
0.12645 1.37939 0.278643 -0.5878877 -0.1929669 0.7855902 0.44704 0.28749
0.03131902 2.456888 0.313212 -0.3843483 0 -0.9231881 0.44704 0.28749
0.06346202 3.0473 0.29983 -0.3843483 0 -0.9231881 0.44704 0.28749
0.06346202 2.456888 0.29983 -0.3843483 0 -0.9231882 0.44704 0.28749
0.06346202 2.456888 0.29983 0.9233174 0 -0.3840376 0.44704 0.28749
0.076828 3.0473 0.331965 0.9233174 0 -0.3840376 0.44704 0.28749
0.076828 2.456888 0.331965 0.9233174 0 -0.3840376 0.44704 0.28749
0.04469299 3.0473 0.34534 0.3842582 0 0.9232256 0.44704 0.28749
0.076828 2.456888 0.331965 0.3842582 0 0.9232256 0.44704 0.28749
0.076828 3.0473 0.331965 0.3842582 0 0.9232256 0.44704 0.28749
0.04469299 2.456888 0.34534 -0.9232063 0 0.3843046 0.44704 0.28749
0.03131902 3.0473 0.313212 -0.9232063 0 0.3843046 0.44704 0.28749
0.03131902 2.456888 0.313212 -0.9232064 0 0.3843046 0.44704 0.28749
0.118935 2.03772 0.042987 0 -0.0469632 -0.9988967 0.44704 0.28749
0.143914 3.0473 0.099284 0 1 0 0.44704 0.28749
0.118935 2.03772 0.07780001 0 0.04694576 0.9988975 0.44704 0.28749
0.146744 4.005432e-05 0.005398005 0 -1 0 0.44704 0.28749
0.143914 1.58059 0.099284 -0.9985104 -0.0545617 0 0.44704 0.28749
0.153748 2.03772 0.042987 0.9985114 0.05454437 0 0.44704 0.28749
0.240677 0.46999 0.08086701 0.9849517 0.1698109 -0.03216249 0.44704 0.28749
0.240723 0.4631901 0.046374 0.9849517 0.1698109 -0.0321625 0.44704 0.28749
0.178719 0.8262601 0.06447901 0.9849517 0.1698109 -0.0321625 0.44704 0.28749
0.20591 0.4638102 0.046267 0 0.05018364 -0.99874 0.44704 0.28749
0.143914 0.8262601 0.06447901 0 0.05018364 -0.99874 0.44704 0.28749
0.178719 0.8262601 0.06447901 0 0.05018364 -0.99874 0.44704 0.28749
0.205864 0.4706101 0.08076701 -0.985166 -0.1716043 0 0.44704 0.28749
0.143914 0.8262601 0.099284 -0.985166 -0.1716043 0 0.44704 0.28749
0.143914 0.8262601 0.06447901 -0.985166 -0.1716043 0 0.44704 0.28749
0.178719 0.8262601 0.099284 0 -0.05199482 0.9986473 0.44704 0.28749
0.143914 0.8262601 0.099284 0 -0.05199482 0.9986474 0.44704 0.28749
0.205864 0.4706101 0.08076701 0 -0.05199482 0.9986474 0.44704 0.28749
0.150391 4.005432e-05 4.800409e-05 -0.8165253 0.1532191 -0.5566061 0.44704 0.28749
0.146744 4.005432e-05 0.005398005 -0.8165253 0.1532191 -0.5566061 0.44704 0.28749
0.20591 0.4638102 0.046267 -0.8165253 0.1532191 -0.5566061 0.44704 0.28749
0.152092 4.005432e-05 0.009043001 -0.9928116 0.1171703 -0.02441749 0.44704 0.28749
0.205864 0.4706101 0.08076701 -0.9928116 0.1171703 -0.02441749 0.44704 0.28749
0.20591 0.4638102 0.046267 -0.9928116 0.1171703 -0.02441749 0.44704 0.28749
0.205864 0.4706101 0.08076701 0.8130723 -0.1774216 0.5544683 0.44704 0.28749
0.152092 4.005432e-05 0.009043001 0.8130723 -0.1774216 0.5544683 0.44704 0.28749
0.155739 4.005432e-05 0.003695004 0.8130723 -0.1774216 0.5544683 0.44704 0.28749
0.155739 4.005432e-05 0.003695004 0.563193 -0.027237 -0.8258765 0.44704 0.28749
0.150391 4.005432e-05 4.800409e-05 0.563193 -0.027237 -0.8258764 0.44704 0.28749
0.240723 0.4631901 0.046374 0.563193 -0.02723699 -0.8258764 0.44704 0.28749
0.118935 2.03772 0.042987 0 0.05120574 -0.9986882 0.44704 0.28749
0.153748 2.03772 0.042987 0.9982303 -0.05946744 0 0.44704 0.28749
0.118935 2.03772 0.07780001 0 -0.05118673 0.9986891 0.44704 0.28749
0.143914 2.456888 0.099284 -0.9982291 0.05948632 0 0.44704 0.28749
0.178719 1.58059 0.06447901 1 0 0 0.44704 0.28749
0.143914 1.58059 0.06447901 0 0 -1 0.44704 0.28749
0.143914 1.58059 0.099284 -1 0 0 0.44704 0.28749
0.143914 0.8262601 0.099284 0 0 1 0.44704 0.28749
0.143914 3.0473 0.06447901 0 0 -1 0.44704 0.28749
0.178719 3.0473 0.06447901 1 0 0 0.44704 0.28749
0.143914 2.456888 0.099284 0 0 1 0.44704 0.28749
0.143914 3.0473 0.099284 -1 0 0 0.44704 0.28749
0.326439 1.58059 0.119426 0.9690635 -0.04696736 -0.2423016 0.44704 0.28749
0.341233 2.03772 0.089984 0.9690635 -0.04696736 -0.2423016 0.44704 0.28749
0.349678 2.03772 0.123759 0.9690635 -0.04696737 -0.2423015 0.44704 0.28749
0.292672 3.0473 0.127864 0 1 0 0.44704 0.28749
0.315895 2.03772 0.132197 -0.9691121 0.04693764 0.2421128 0.44704 0.28749
0.307457 2.03772 0.09842201 -0.9691121 0.04693763 0.2421127 0.44704 0.28749
0.292672 1.58059 0.127864 -0.9691121 0.04693764 0.2421128 0.44704 0.28749
0.413338 0.2567501 0.109912 -0.08368738 -0.9962563 0.02167531 0.44704 0.28749
0.40728 0.25721 0.107661 -0.08368738 -0.9962563 0.02167531 0.44704 0.28749
0.409516 0.2568901 0.101588 -0.08368738 -0.9962563 0.02167531 0.44704 0.28749
0.326439 1.58059 0.119426 -0.2420732 -0.05456234 -0.9687226 0.44704 0.28749
0.292672 1.58059 0.127864 -0.2420732 -0.05456234 -0.9687226 0.44704 0.28749
0.307457 2.03772 0.09842201 -0.2420732 -0.05456234 -0.9687226 0.44704 0.28749
0.334877 1.58059 0.153201 0.2419651 0.05455912 0.9687498 0.44704 0.28749
0.349678 2.03772 0.123759 0.2419651 0.05455912 0.9687498 0.44704 0.28749
0.315895 2.03772 0.132197 0.2419651 0.05455912 0.9687498 0.44704 0.28749
0.398331 0.73158 0.201205 0.2840723 0.1664238 0.944249 0.44704 0.28749
0.431115 0.7218502 0.193057 0.2840723 0.1664238 0.9442489 0.44704 0.28749
0.428719 1.08514 0.129748 0.2840723 0.1664238 0.944249 0.44704 0.28749
0.422837 0.72246 0.159251 0.9695604 -0.03543285 -0.242275 0.44704 0.28749
0.420281 1.08514 0.09598 0.9695604 -0.03543285 -0.242275 0.44704 0.28749
0.428719 1.08514 0.129748 0.9695604 -0.03543285 -0.242275 0.44704 0.28749
0.390046 0.7321801 0.167392 -0.2530497 -0.1709806 -0.9522245 0.44704 0.28749
0.386635 1.08811 0.104388 -0.2530497 -0.1709806 -0.9522245 0.44704 0.28749
0.420281 1.08514 0.09598 -0.2530497 -0.1709806 -0.9522245 0.44704 0.28749
0.395073 1.08811 0.138156 -0.969622 0.03359618 0.2422904 0.44704 0.28749
0.386635 1.08811 0.104388 -0.969622 0.03359618 0.2422904 0.44704 0.28749
0.390046 0.7321801 0.167392 -0.969622 0.03359618 0.2422904 0.44704 0.28749
0.415566 0.2564402 0.103831 0.3525586 0.1050814 -0.9298711 0.44704 0.28749
0.409516 0.2568901 0.101588 0.3525586 0.1050814 -0.9298711 0.44704 0.28749
0.422837 0.72246 0.159251 0.3525586 0.1050814 -0.9298711 0.44704 0.28749
0.40728 0.25721 0.107661 -0.2072181 0.1146611 -0.9715521 0.44704 0.28749
0.390046 0.7321801 0.167392 -0.2072181 0.1146611 -0.9715521 0.44704 0.28749
0.422837 0.72246 0.159251 -0.2072181 0.1146611 -0.9715521 0.44704 0.28749
0.390046 0.7321801 0.167392 -0.3539938 -0.1293288 0.9262627 0.44704 0.28749
0.40728 0.25721 0.107661 -0.3539938 -0.1293288 0.9262627 0.44704 0.28749
0.413338 0.2567501 0.109912 -0.3539938 -0.1293288 0.9262626 0.44704 0.28749
0.413338 0.2567501 0.109912 0.9328566 -0.09764551 0.3467622 0.44704 0.28749
0.415566 0.2564402 0.103831 0.9328566 -0.09764551 0.3467622 0.44704 0.28749
0.431115 0.7218502 0.193057 0.9328566 -0.09764552 0.3467623 0.44704 0.28749
0.349678 2.03772 0.123759 0.9688612 0.05121028 -0.242251 0.44704 0.28749
0.341233 2.03772 0.089984 0.9688612 0.05121028 -0.242251 0.44704 0.28749
0.326439 2.456888 0.119426 0.9688612 0.05121028 -0.242251 0.44704 0.28749
0.315895 2.03772 0.132197 0.2418969 -0.05948351 0.968477 0.44704 0.28749
0.349678 2.03772 0.123759 0.2418969 -0.05948351 0.968477 0.44704 0.28749
0.334877 2.456888 0.153201 0.2418969 -0.05948351 0.968477 0.44704 0.28749
0.292672 2.456888 0.127864 -0.96891 -0.05117787 0.2420624 0.44704 0.28749
0.307457 2.03772 0.09842201 -0.96891 -0.05117787 0.2420623 0.44704 0.28749
0.315895 2.03772 0.132197 -0.96891 -0.05117786 0.2420623 0.44704 0.28749
0.307457 2.03772 0.09842201 -0.242005 0.05948702 -0.9684498 0.44704 0.28749
0.292672 2.456888 0.127864 -0.242005 0.05948702 -0.9684498 0.44704 0.28749
0.326439 2.456888 0.119426 -0.242005 0.05948702 -0.9684498 0.44704 0.28749
0.395073 1.08811 0.138156 0.2424402 -4.509777e-06 0.9701663 0.44704 0.28749
0.428719 1.08514 0.129748 0.2424402 -4.509778e-06 0.9701663 0.44704 0.28749
0.334877 1.58059 0.153201 0.2424402 -4.509777e-06 0.9701663 0.44704 0.28749
0.428719 1.08514 0.129748 0.9521931 0.1916124 -0.2379352 0.44704 0.28749
0.420281 1.08514 0.09598 0.9521931 0.1916124 -0.2379352 0.44704 0.28749
0.326439 1.58059 0.119426 0.9521931 0.1916124 -0.2379352 0.44704 0.28749
0.386635 1.08811 0.104388 -0.2424343 -8.509954e-06 -0.9701679 0.44704 0.28749
0.292672 1.58059 0.127864 -0.2424343 -8.509954e-06 -0.9701679 0.44704 0.28749
0.326439 1.58059 0.119426 -0.2424343 -8.509954e-06 -0.9701679 0.44704 0.28749
0.30111 1.58059 0.161631 -0.9519344 -0.1929642 0.2378776 0.44704 0.28749
0.292672 1.58059 0.127864 -0.9519343 -0.1929642 0.2378776 0.44704 0.28749
0.386635 1.08811 0.104388 -0.9519344 -0.1929642 0.2378776 0.44704 0.28749
0.326439 3.0473 0.119426 0.9701812 0 -0.2423808 0.44704 0.28749
0.334877 3.0473 0.153201 0.2422178 0 0.9702219 0.44704 0.28749
0.292672 2.456888 0.127864 -0.9701679 0 0.242434 0.44704 0.28749
0.292672 3.0473 0.127864 -0.2424343 0 -0.9701679 0.44704 0.28749
0.06140202 1.87187 0.307475 -0.3791532 -0.1651077 -0.9104846 0.44704 0.28749
7.987022e-06 2.03772 0.302966 -0.3791533 -0.1651078 -0.9104846 0.44704 0.28749
0.032143 2.03772 0.289584 -0.3791533 -0.1651078 -0.9104847 0.44704 0.28749
0.04469299 3.0473 0.34534 0 1 0 0.44704 0.28749
0.04551703 2.03772 0.321734 0.3834697 0.06404639 0.92133 0.44704 0.28749
0.01338202 2.03772 0.335109 0.3834697 0.06404639 0.92133 0.44704 0.28749
0.04055101 1.87187 0.33533 0.3834697 0.06404639 0.92133 0.44704 0.28749
0.03231901 0.81197 0.434634 -0.4352934 -0.8096127 0.3937601 0.44704 0.28749
0.02800798 0.81077 0.427401 -0.4352934 -0.8096127 0.3937601 0.44704 0.28749
0.034325 0.8059301 0.424433 -0.4352934 -0.8096127 0.3937601 0.44704 0.28749
0.04055101 1.87187 0.33533 -0.9129561 -0.1490512 0.3798618 0.44704 0.28749
0.01338202 2.03772 0.335109 -0.9129561 -0.1490512 0.3798618 0.44704 0.28749
7.987022e-06 2.03772 0.302966 -0.9129561 -0.1490512 0.3798618 0.44704 0.28749
0.08927202 1.87187 0.328318 0.9001312 0.2226101 -0.3744445 0.44704 0.28749
0.032143 2.03772 0.289584 0.9001312 0.2226101 -0.3744444 0.44704 0.28749
0.04551703 2.03772 0.321734 0.9001312 0.2226101 -0.3744444 0.44704 0.28749
0.168786 1.02286 0.32548 0.816454 0.1664224 0.5529074 0.44704 0.28749
0.189064 1.01313 0.298465 0.816454 0.1664224 0.5529073 0.44704 0.28749
0.147232 1.37642 0.250888 0.8164539 0.1664224 0.5529073 0.44704 0.28749
0.161301 1.01374 0.277476 0.5989342 -0.03541515 -0.8000148 0.44704 0.28749
0.11937 1.37642 0.230029 0.5989342 -0.03541515 -0.8000148 0.44704 0.28749
0.147232 1.37642 0.250888 0.5989342 -0.03541515 -0.8000147 0.44704 0.28749
0.141015 1.02346 0.304492 -0.7974422 -0.1709816 -0.5786633 0.44704 0.28749
0.09858698 1.37939 0.257792 -0.7974422 -0.1709816 -0.5786633 0.44704 0.28749
0.11937 1.37642 0.230029 -0.7974422 -0.1709816 -0.5786633 0.44704 0.28749
0.12645 1.37939 0.278643 -0.59881 0.03360867 0.8001856 0.44704 0.28749
0.09858698 1.37939 0.257792 -0.59881 0.03360868 0.8001857 0.44704 0.28749
0.141015 1.02346 0.304492 -0.59881 0.03360868 0.8001856 0.44704 0.28749
0.034325 0.8059301 0.424433 -0.5522842 -0.2293341 -0.8014912 0.44704 0.28749
0.02800798 0.81077 0.427401 -0.5522842 -0.2293341 -0.8014912 0.44704 0.28749
0.161301 1.01374 0.277476 -0.5522842 -0.2293341 -0.8014911 0.44704 0.28749
0.02800798 0.81077 0.427401 -0.7345398 0.5869979 0.3404185 0.44704 0.28749
0.03231901 0.81197 0.434634 -0.7345398 0.5869979 0.3404185 0.44704 0.28749
0.141015 1.02346 0.304492 -0.7345398 0.5869979 0.3404185 0.44704 0.28749
0.141015 1.02346 0.304492 0.5463149 0.2170283 0.808974 0.44704 0.28749
0.03231901 0.81197 0.434634 0.5463148 0.2170282 0.808974 0.44704 0.28749
0.03865099 0.8071201 0.431659 0.5463149 0.2170283 0.808974 0.44704 0.28749
0.034325 0.8059301 0.424433 0.754546 -0.1798012 0.6311354 0.44704 0.28749
0.189064 1.01313 0.298465 0.754546 -0.1798012 0.6311354 0.44704 0.28749
0.168786 1.02286 0.32548 0.754546 -0.1798012 0.6311354 0.44704 0.28749
0.032143 2.03772 0.289584 -0.3839248 0.05121412 -0.9219429 0.44704 0.28749
7.987022e-06 2.03772 0.302966 -0.3839249 0.05121412 -0.9219429 0.44704 0.28749
0.03131902 2.456888 0.313212 -0.3839249 0.05121413 -0.9219429 0.44704 0.28749
0.04551703 2.03772 0.321734 0.9216636 -0.05949231 -0.3834017 0.44704 0.28749
0.032143 2.03772 0.289584 0.9216636 -0.05949231 -0.3834016 0.44704 0.28749
0.06346202 2.456888 0.29983 0.9216636 -0.05949231 -0.3834017 0.44704 0.28749
0.01338202 2.03772 0.335109 0.3837552 -0.05117014 0.922016 0.44704 0.28749
0.01338202 2.03772 0.335109 -0.921572 0.05947607 0.3836243 0.44704 0.28749
0.04469299 2.456888 0.34534 -0.921572 0.05947606 0.3836243 0.44704 0.28749
0.03131902 2.456888 0.313212 -0.921572 0.05947606 0.3836243 0.44704 0.28749
0.12645 1.37939 0.278643 0.8004725 -2.788469e-05 0.5993696 0.44704 0.28749
0.147232 1.37642 0.250888 0.8004725 -2.788469e-05 0.5993696 0.44704 0.28749
0.08927202 1.87187 0.328318 0.8004724 -2.788469e-05 0.5993695 0.44704 0.28749
0.11937 1.37642 0.230029 0.5878054 0.1916334 -0.785978 0.44704 0.28749
0.06140202 1.87187 0.307475 0.5878054 0.1916334 -0.785978 0.44704 0.28749
0.08927202 1.87187 0.328318 0.5878054 0.1916334 -0.7859781 0.44704 0.28749
0.09858698 1.37939 0.257792 -0.8005548 8.967747e-06 -0.5992596 0.44704 0.28749
0.04055101 1.87187 0.33533 -0.8005548 8.967747e-06 -0.5992596 0.44704 0.28749
0.06140202 1.87187 0.307475 -0.8005548 8.967748e-06 -0.5992596 0.44704 0.28749
0.06841302 1.87187 0.356181 -0.5879018 -0.1929657 0.7855799 0.44704 0.28749
0.04055101 1.87187 0.33533 -0.5879018 -0.1929657 0.7855799 0.44704 0.28749
0.09858698 1.37939 0.257792 -0.5879018 -0.1929657 0.7855799 0.44704 0.28749
0.03131902 3.0473 0.313212 -0.3843483 0 -0.9231882 0.44704 0.28749
0.06346202 3.0473 0.29983 0.9233174 0 -0.3840376 0.44704 0.28749
0.04469299 2.456888 0.34534 0.3842582 0 0.9232256 0.44704 0.28749
0.04469299 3.0473 0.34534 -0.9232064 0 0.3843046 0.44704 0.28749
3 0 1 2 
3 3 4 5 
3 6 7 8 
3 9 10 11 
3 12 13 14 
3 15 16 17 
3 18 19 20 
3 21 22 23 
3 24 25 26 
3 27 28 29 
3 30 31 32 
3 33 34 35 
3 36 37 38 
3 39 40 41 
3 42 43 44 
3 45 46 47 
3 48 49 50 
3 51 52 53 
3 54 55 56 
3 57 58 59 
3 60 61 62 
3 63 64 65 
3 66 67 68 
3 69 70 71 
3 72 73 74 
3 75 76 77 
3 78 79 80 
3 81 82 83 
3 84 85 86 
3 87 88 89 
3 90 91 92 
3 93 94 95 
3 96 97 98 
3 99 100 101 
3 102 103 104 
3 105 106 107 
3 108 109 110 
3 111 112 113 
3 114 115 116 
3 117 118 119 
3 120 121 122 
3 123 124 125 
3 126 127 128 
3 129 130 131 
3 132 133 134 
3 135 136 137 
3 138 139 140 
3 141 142 143 
3 144 145 146 
3 147 148 149 
3 150 151 152 
3 153 154 155 
3 156 157 158 
3 159 160 161 
3 162 163 164 
3 165 166 167 
3 168 169 170 
3 171 172 173 
3 174 175 176 
3 177 178 179 
3 180 181 182 
3 183 184 185 
3 186 187 188 
3 189 190 191 
3 192 193 194 
3 195 196 197 
3 198 199 200 
3 201 202 203 
3 204 205 206 
3 207 208 209 
3 210 211 212 
3 213 214 215 
3 216 217 218 
3 219 220 221 
3 222 223 224 
3 225 226 227 
3 228 229 230 
3 231 232 233 
3 0 234 1 
3 3 235 4 
3 6 236 7 
3 9 237 10 
3 12 238 13 
3 15 239 16 
3 240 241 242 
3 243 244 245 
3 246 247 248 
3 249 250 251 
3 252 253 254 
3 255 256 257 
3 258 259 260 
3 261 262 263 
3 42 264 43 
3 45 265 46 
3 48 266 49 
3 51 267 52 
3 54 268 55 
3 57 269 58 
3 60 270 61 
3 63 271 64 
3 66 272 67 
3 69 273 70 
3 72 274 73 
3 75 275 76 
3 276 277 278 
3 81 279 82 
3 280 281 282 
3 283 284 285 
3 286 287 288 
3 289 290 291 
3 292 293 294 
3 295 296 297 
3 298 299 300 
3 301 302 303 
3 304 305 306 
3 307 308 309 
3 310 311 312 
3 313 314 315 
3 316 317 318 
3 319 320 321 
3 322 323 324 
3 325 326 327 
3 328 329 330 
3 331 332 333 
3 334 335 336 
3 337 338 339 
3 144 340 145 
3 147 341 148 
3 150 342 151 
3 153 343 154 
3 344 345 346 
3 159 347 160 
3 348 349 350 
3 351 352 353 
3 354 355 356 
3 357 358 359 
3 360 361 362 
3 363 364 365 
3 366 367 368 
3 369 370 371 
3 372 373 374 
3 375 376 377 
3 378 379 380 
3 381 382 383 
3 384 385 386 
3 387 388 389 
3 204 390 205 
3 391 392 393 
3 394 395 396 
3 397 398 399 
3 400 401 402 
3 403 404 405 
3 222 406 223 
3 225 407 226 
3 228 408 229 
3 231 409 232 
