ply
format ascii 1.0
comment VCGLIB generated
comment TextureFile dummy.png
element vertex 452
property float x
property float y
property float z
property float nx
property float ny
property float nz
property float texture_u
property float texture_v
element face 153
property list uchar int vertex_indices
end_header
0.293698 1.796324 0.091802 0.236636 0.03831 -0.9708428 0.483345 0.280273
0.281495 1.871701 0.091802 0.236636 0.03831 -0.9708428 0.483345 0.280273
0.366288 1.834202 0.11099 0.236636 0.03831 -0.9708428 0.483345 0.280273
0.258893 1.816736 0.11099 -0.5183852 -0.08392302 -0.8510193 0.483345 0.280273
0.281495 1.871701 0.091802 -0.5183852 -0.08392302 -0.8510193 0.483345 0.280273
0.293698 1.796324 0.091802 -0.5183852 -0.08392302 -0.8510193 0.483345 0.280273
0.652169 1.52925 0.091802 -0.1927371 -0.1425391 -0.9708425 0.483345 0.280273
0.697297 1.46823 0.091802 -0.1927371 -0.1425391 -0.9708425 0.483345 0.280273
0.605104 1.4622 0.11099 -0.1927371 -0.1425391 -0.9708425 0.483345 0.280273
0.692582 1.5269 0.11099 0.422253 0.312277 -0.8509909 0.483345 0.280273
0.697297 1.46823 0.091802 0.422253 0.312277 -0.8509909 0.483345 0.280273
0.652169 1.52925 0.091802 0.422253 0.312277 -0.8509909 0.483345 0.280273
0.590371 2.563832 0.11099 0.318424 -0.462763 -0.827319 0.483345 0.280273
0.426873 2.45133 0.11099 0.318424 -0.462763 -0.827319 0.483345 0.280273
0.533567 2.571816 0.08466101 0.318424 -0.462763 -0.827319 0.483345 0.280273
0.534318 2.465329 0.11099 -0 -0 -1 0.483345 0.280273
0.426873 2.45133 0.11099 -0 -0 -1 0.483345 0.280273
0.590371 2.563832 0.11099 -0 -0 -1 0.483345 0.280273
0.426873 2.45133 0.11099 -0.237407 -0.002045 -0.9714081 0.483345 0.280273
0.425924 2.561525 0.11099 -0.237407 -0.002045 -0.9714081 0.483345 0.280273
0.533567 2.571816 0.08466101 -0.237407 -0.002045 -0.9714081 0.483345 0.280273
0.533567 2.571816 0.08466101 -0.2540029 0.3524469 -0.9007018 0.483345 0.280273
0.425924 2.561525 0.11099 -0.2540029 0.3524469 -0.9007018 0.483345 0.280273
0.518113 2.627964 0.11099 -0.2540029 0.3524469 -0.9007018 0.483345 0.280273
0.211381 1.41337 0.07697101 -0.2490631 0.2932781 -0.9230143 0.483345 0.280273
0.09650502 1.31355 0.076253 -0.2490631 0.2932781 -0.9230143 0.483345 0.280273
0.151742 1.41257 0.09280901 -0.2490631 0.2932781 -0.9230143 0.483345 0.280273
0.211381 1.41337 0.07697101 -0.2164221 0.2558501 -0.9421795 0.483345 0.280273
0.158029 1.30221 0.05904101 -0.2164221 0.2558501 -0.9421795 0.483345 0.280273
0.09650502 1.31355 0.076253 -0.2164221 0.2558501 -0.9421795 0.483345 0.280273
0.158029 1.30221 0.05904101 0.3559991 -0.268544 -0.8950692 0.483345 0.280273
0.263463 1.36559 0.08196001 0.3559991 -0.268544 -0.8950692 0.483345 0.280273
0.174634 1.24188 0.083745 0.3559991 -0.268544 -0.8950692 0.483345 0.280273
0.268926 1.30506 0.10404 0.38106 -0.286309 -0.8791021 0.483345 0.280273
0.174634 1.24188 0.083745 0.38106 -0.286309 -0.8791021 0.483345 0.280273
0.263463 1.36559 0.08196001 0.38106 -0.286309 -0.8791021 0.483345 0.280273
0.158029 1.30221 0.05904101 0.166354 0.07870302 -0.9829202 0.483345 0.280273
0.211381 1.41337 0.07697101 0.166354 0.07870302 -0.9829202 0.483345 0.280273
0.263463 1.36559 0.08196001 0.166354 0.07870302 -0.9829202 0.483345 0.280273
0.329728 1.63432 0.102926 -0.179215 0.252708 -0.9508 0.483345 0.280273
0.302705 1.5423 0.083562 -0.179215 0.252708 -0.9508 0.483345 0.280273
0.222219 1.56981 0.106046 -0.179215 0.252708 -0.9508 0.483345 0.280273
0.222219 1.56981 0.106046 -0.3565301 -0.3280571 -0.8747942 0.483345 0.280273
0.302705 1.5423 0.083562 -0.3565301 -0.3280571 -0.8747942 0.483345 0.280273
0.260682 1.51363 0.11144 -0.3565301 -0.3280571 -0.8747942 0.483345 0.280273
0.329728 1.63432 0.102926 -0.705121 0.338216 -0.623229 0.483345 0.280273
0.326078 1.58538 0.08049501 -0.705121 0.338216 -0.623229 0.483345 0.280273
0.302705 1.5423 0.083562 -0.705121 0.338216 -0.623229 0.483345 0.280273
0.302705 1.5423 0.083562 0.4314368 -0.2947969 -0.8526177 0.483345 0.280273
0.326078 1.58538 0.08049501 0.4314368 -0.2947969 -0.8526177 0.483345 0.280273
0.354329 1.5374 0.111379 0.4314368 -0.2947969 -0.8526177 0.483345 0.280273
0.397374 1.26984 0.03871701 -0.1843651 -0.08660904 -0.9790344 0.483345 0.280273
0.325231 1.27646 0.05171701 -0.1843651 -0.08660904 -0.9790344 0.483345 0.280273
0.42526 1.3784 0.023862 -0.1843651 -0.08660904 -0.9790344 0.483345 0.280273
0.317044 1.38833 0.043363 -0.4494212 -0.09918705 -0.8877965 0.483345 0.280273
0.395837 1.41967 -2.498925e-05 -0.4494212 -0.09918705 -0.8877965 0.483345 0.280273
0.325231 1.27646 0.05171701 -0.4494212 -0.09918705 -0.8877965 0.483345 0.280273
0.325231 1.27646 0.05171701 0.162301 -0.405103 -0.89975 0.483345 0.280273
0.395837 1.41967 -2.498925e-05 0.162301 -0.405103 -0.89975 0.483345 0.280273
0.42526 1.3784 0.023862 0.162301 -0.405103 -0.89975 0.483345 0.280273
0.442044 0.8788799 0.091253 -0.163381 -0.194498 -0.9672008 0.483345 0.280273
0.407235 0.9816899 0.07645901 -0.163381 -0.194498 -0.9672008 0.483345 0.280273
0.5248 0.90482 0.07205701 -0.163381 -0.194498 -0.9672008 0.483345 0.280273
0.407235 0.9816899 0.07645901 -0.01633101 0.03225301 -0.9993463 0.483345 0.280273
0.522191 1.00138 0.07521601 -0.01633101 0.03225301 -0.9993463 0.483345 0.280273
0.5248 0.90482 0.07205701 -0.01633101 0.03225301 -0.9993463 0.483345 0.280273
0.438134 1.02372 0.095991 -0.09062501 0.473698 -0.8760121 0.483345 0.280273
0.522191 1.00138 0.07521601 -0.09062501 0.473698 -0.8760121 0.483345 0.280273
0.407235 0.9816899 0.07645901 -0.09062501 0.473698 -0.8760121 0.483345 0.280273
0.336271 0.8541299 0.110044 0.06972502 -0.4972861 -0.8647802 0.483345 0.280273
0.310151 0.9012799 0.080823 0.06972502 -0.4972861 -0.8647802 0.483345 0.280273
0.40653 0.90493 0.086492 0.06972502 -0.4972861 -0.8647802 0.483345 0.280273
0.260034 0.9133599 0.116079 -0.489103 0.328749 -0.8079 0.483345 0.280273
0.385614 0.99893 0.074872 -0.489103 0.328749 -0.8079 0.483345 0.280273
0.310151 0.9012799 0.080823 -0.489103 0.328749 -0.8079 0.483345 0.280273
0.292173 0.9937799 0.095541 -0.2043719 -0.1647449 -0.9649307 0.483345 0.280273
0.385614 0.99893 0.074872 -0.2043719 -0.1647449 -0.9649307 0.483345 0.280273
0.260034 0.9133599 0.116079 -0.2043719 -0.1647449 -0.9649307 0.483345 0.280273
0.310151 0.9012799 0.080823 0.062479 -0.108748 -0.992104 0.483345 0.280273
0.385614 0.99893 0.074872 0.062479 -0.108748 -0.992104 0.483345 0.280273
0.40653 0.90493 0.086492 0.062479 -0.108748 -0.992104 0.483345 0.280273
0.574277 1.56985 0.11099 0 0 -1 0.483345 0.280273
0.407636 1.51633 0.11099 0 0 -1 0.483345 0.280273
0.475404 1.58949 0.11099 0 0 -1 0.483345 0.280273
0.574277 1.56985 0.11099 -0.172803 0.5380451 -0.8250131 0.483345 0.280273
0.457185 1.49187 0.08466101 -0.172803 0.5380451 -0.8250131 0.483345 0.280273
0.407636 1.51633 0.11099 -0.172803 0.5380451 -0.8250131 0.483345 0.280273
0.457185 1.49187 0.08466101 0.4264511 -0.360218 -0.8296881 0.483345 0.280273
0.574277 1.56985 0.11099 0.4264511 -0.360218 -0.8296881 0.483345 0.280273
0.461087 1.43584 0.11099 0.4264511 -0.360218 -0.8296881 0.483345 0.280273
0.555581 1.46877 0.11099 0 0 -1 0.483345 0.280273
0.461087 1.43584 0.11099 0 0 -1 0.483345 0.280273
0.25892 1.1082 0.11099 -0 -0 -1 0.483345 0.280273
0.08756801 1.07253 0.11099 -0 -0 -1 0.483345 0.280273
0.162664 1.13816 0.11099 -0 -0 -1 0.483345 0.280273
0.25892 1.1082 0.11099 -0.115174 0.5532439 -0.8250189 0.483345 0.280273
0.134267 1.04299 0.08466101 -0.115174 0.5532439 -0.8250189 0.483345 0.280273
0.08756801 1.07253 0.11099 -0.115174 0.5532439 -0.8250189 0.483345 0.280273
0.134267 1.04299 0.08466101 0.3861459 -0.4031349 -0.8296828 0.483345 0.280273
0.25892 1.1082 0.11099 0.3861459 -0.4031349 -0.8296828 0.483345 0.280273
0.132245 0.9868699 0.11099 0.3861459 -0.4031349 -0.8296828 0.483345 0.280273
0.22968 1.00966 0.11099 0 0 -1 0.483345 0.280273
0.132245 0.9868699 0.11099 0 0 -1 0.483345 0.280273
0.444123 0.11077 0.091802 0.2153979 0.105197 -0.9708436 0.483345 0.280273
0.410817 0.1789699 0.091802 0.2153979 0.105197 -0.9708436 0.483345 0.280273
0.502576 0.16817 0.11099 0.2153979 0.105197 -0.9708436 0.483345 0.280273
0.404805 0.12042 0.11099 -0.4718742 -0.2304581 -0.8510134 0.483345 0.280273
0.410817 0.1789699 0.091802 -0.4718742 -0.2304581 -0.8510134 0.483345 0.280273
0.444123 0.11077 0.091802 -0.4718742 -0.2304581 -0.8510134 0.483345 0.280273
0.456365 0.0710299 0.091802 -0.138267 0.195813 -0.9708447 0.483345 0.280273
0.393987 0.02698994 0.091802 -0.138267 0.195813 -0.9708447 0.483345 0.280273
0.39047 0.1196399 0.11099 -0.138267 0.195813 -0.9708447 0.483345 0.280273
0.453294 0.03079987 0.11099 0.3029369 -0.4290178 -0.8509836 0.483345 0.280273
0.393987 0.02698994 0.091802 0.3029369 -0.4290178 -0.8509836 0.483345 0.280273
0.456365 0.0710299 0.091802 0.3029369 -0.4290178 -0.8509836 0.483345 0.280273
0.462442 2.082736 0.125387 0.126232 -0.128349 -0.9836626 0.483345 0.280273
0.402787 2.041493 0.123113 0.126232 -0.128349 -0.9836626 0.483345 0.280273
0.430879 2.161503 0.111059 0.126232 -0.128349 -0.9836626 0.483345 0.280273
0.341397 2.099637 0.107641 0.126295 -0.128401 -0.9836478 0.483345 0.280273
0.350679 2.180249 0.09831001 0.126295 -0.128401 -0.9836478 0.483345 0.280273
0.402787 2.041493 0.123113 0.126295 -0.128401 -0.9836478 0.483345 0.280273
0.350679 2.180249 0.09831001 0.126358 -0.128377 -0.9836428 0.483345 0.280273
0.430879 2.161503 0.111059 0.126358 -0.128377 -0.9836428 0.483345 0.280273
0.402787 2.041493 0.123113 0.126358 -0.128377 -0.9836428 0.483345 0.280273
0.05611199 0.6234601 0.08917001 -0.312409 -0.3304309 -0.8906268 0.483345 0.280273
0.125634 0.5807199 0.08064 -0.312409 -0.3304309 -0.8906268 0.483345 0.280273
0.07940799 0.53793 0.11273 -0.312409 -0.3304309 -0.8906268 0.483345 0.280273
0.236627 0.1467199 0.11099 0.2760951 0.4892042 -0.8273154 0.483345 0.280273
0.409467 0.04918003 0.11099 0.2760951 0.4892042 -0.8273154 0.483345 0.280273
0.254384 0.09217 0.08466101 0.2760951 0.4892042 -0.8273154 0.483345 0.280273
0.34974 0.13958 0.11099 0 0 -1 0.483345 0.280273
0.409467 0.04918003 0.11099 0 0 -1 0.483345 0.280273
0.236627 0.1467199 0.11099 0 0 -1 0.483345 0.280273
0.409467 0.04918003 0.11099 0.106022 -0.2124249 -0.9714088 0.483345 0.280273
0.310868 -4.005432e-05 0.11099 0.106022 -0.2124249 -0.9714088 0.483345 0.280273
0.254384 0.09217 0.08466101 0.106022 -0.2124249 -0.9714088 0.483345 0.280273
0.254384 0.09217 0.08466101 -0.2052361 -0.3828991 -0.9007033 0.483345 0.280273
0.310868 -4.005432e-05 0.11099 -0.2052361 -0.3828991 -0.9007033 0.483345 0.280273
0.210714 0.0536499 0.11099 -0.2052361 -0.3828991 -0.9007033 0.483345 0.280273
0.410451 0.67662 0.116994 0.574196 -0.129744 -0.8083721 0.483345 0.280273
0.35933 0.6853399 0.079282 0.574196 -0.129744 -0.8083721 0.483345 0.280273
0.41279 0.7641599 0.104604 0.574196 -0.129744 -0.8083721 0.483345 0.280273
0.31772 0.6509099 0.102972 -0.4291461 -0.09909903 -0.8977823 0.483345 0.280273
0.326036 0.80422 0.08207501 -0.4291461 -0.09909903 -0.8977823 0.483345 0.280273
0.35933 0.6853399 0.079282 -0.4291461 -0.09909903 -0.8977823 0.483345 0.280273
0.273694 0.72561 0.083562 0.186569 -0.14262 -0.9720348 0.483345 0.280273
0.326036 0.80422 0.08207501 0.186569 -0.14262 -0.9720348 0.483345 0.280273
0.31772 0.6509099 0.102972 0.186569 -0.14262 -0.9720348 0.483345 0.280273
0.35933 0.6853399 0.079282 0.2950789 0.104957 -0.9496908 0.483345 0.280273
0.326036 0.80422 0.08207501 0.2950789 0.104957 -0.9496908 0.483345 0.280273
0.41279 0.7641599 0.104604 0.2950789 0.104957 -0.9496908 0.483345 0.280273
0.58682 1.750902 0.07697101 0.268917 -0.275165 -0.9230211 0.483345 0.280273
0.694448 1.858495 0.076253 0.268917 -0.275165 -0.9230211 0.483345 0.280273
0.64626 1.755865 0.09280901 0.268917 -0.275165 -0.9230211 0.483345 0.280273
0.58682 1.750902 0.07697101 0.2337579 -0.2401219 -0.9421777 0.483345 0.280273
0.632283 1.865513 0.05904101 0.2337579 -0.2401219 -0.9421777 0.483345 0.280273
0.694448 1.858495 0.076253 0.2337579 -0.2401219 -0.9421777 0.483345 0.280273
0.632283 1.865513 0.05904101 -0.3738752 0.2430431 -0.8950684 0.483345 0.280273
0.53153 1.794929 0.08196001 -0.3738752 0.2430431 -0.8950684 0.483345 0.280273
0.611509 1.924535 0.083745 -0.3738752 0.2430431 -0.8950684 0.483345 0.280273
0.521856 1.854924 0.10404 -0.4001181 0.2590171 -0.8790993 0.483345 0.280273
0.611509 1.924535 0.083745 -0.4001181 0.2590171 -0.8790993 0.483345 0.280273
0.53153 1.794929 0.08196001 -0.4001181 0.2590171 -0.8790993 0.483345 0.280273
0.632283 1.865513 0.05904101 -0.160456 -0.09012201 -0.9829201 0.483345 0.280273
0.58682 1.750902 0.07697101 -0.160456 -0.09012201 -0.9829201 0.483345 0.280273
0.53153 1.794929 0.08196001 -0.160456 -0.09012201 -0.9829201 0.483345 0.280273
0.346662 0.3364999 0.08946 -0.1972431 -0.5747462 -0.7942052 0.483345 0.280273
0.435239 0.3157098 0.08250901 -0.1972431 -0.5747462 -0.7942052 0.483345 0.280273
0.397458 0.28212 0.116201 -0.1972431 -0.5747462 -0.7942052 0.483345 0.280273
0.346662 0.3364999 0.08946 -0.115718 -0.165548 -0.9793892 0.483345 0.280273
0.380235 0.4297099 0.06973801 -0.115718 -0.165548 -0.9793892 0.483345 0.280273
0.435239 0.3157098 0.08250901 -0.115718 -0.165548 -0.9793892 0.483345 0.280273
0.483743 0.3255899 0.116201 0.100057 -0.320803 -0.9418461 0.483345 0.280273
0.380235 0.4297099 0.06973801 0.100057 -0.320803 -0.9418461 0.483345 0.280273
0.476087 0.40171 0.08946 0.100057 -0.320803 -0.9418461 0.483345 0.280273
0.435239 0.3157098 0.08250901 0.5391632 0.1676791 -0.8253404 0.483345 0.280273
0.380235 0.4297099 0.06973801 0.5391632 0.1676791 -0.8253404 0.483345 0.280273
0.483743 0.3255899 0.116201 0.5391632 0.1676791 -0.8253404 0.483345 0.280273
0.200586 2.128288 0.08762901 -0.036738 0.640744 -0.7668751 0.483345 0.280273
0.168092 2.169168 0.123342 -0.036738 0.640744 -0.7668751 0.483345 0.280273
0.330068 2.151143 0.100522 -0.036738 0.640744 -0.7668751 0.483345 0.280273
0.252305 2.208642 0.117574 -0.125029 0.122876 -0.9845148 0.483345 0.280273
0.330068 2.151143 0.100522 -0.125029 0.122876 -0.9845148 0.483345 0.280273
0.168092 2.169168 0.123342 -0.125029 0.122876 -0.9845148 0.483345 0.280273
0.185208 2.074472 0.109365 -0.125119 0.122847 -0.9845069 0.483345 0.280273
0.330068 2.151143 0.100522 -0.125119 0.122847 -0.9845069 0.483345 0.280273
0.277974 2.066598 0.09659301 -0.125119 0.122847 -0.9845069 0.483345 0.280273
0.200586 2.128288 0.08762901 0.161613 -0.408935 -0.8981389 0.483345 0.280273
0.330068 2.151143 0.100522 0.161613 -0.408935 -0.8981389 0.483345 0.280273
0.185208 2.074472 0.109365 0.161613 -0.408935 -0.8981389 0.483345 0.280273
0.274221 2.338407 0.104375 0.400207 0.124008 -0.9079959 0.483345 0.280273
0.278165 2.187584 0.08551501 0.400207 0.124008 -0.9079959 0.483345 0.280273
0.248082 2.288807 0.08608001 0.400207 0.124008 -0.9079959 0.483345 0.280273
0.346078 2.273919 0.091985 -0.06107002 0.122277 -0.9906154 0.483345 0.280273
0.278165 2.187584 0.08551501 -0.06107002 0.122277 -0.9906154 0.483345 0.280273
0.274221 2.338407 0.104375 -0.06107002 0.122277 -0.9906154 0.483345 0.280273
0.195272 2.28411 0.124464 -0.5882441 -0.18777 -0.7865821 0.483345 0.280273
0.278165 2.187584 0.08551501 -0.5882441 -0.18777 -0.7865821 0.483345 0.280273
0.227655 2.192476 0.122121 -0.5882441 -0.18777 -0.7865821 0.483345 0.280273
0.248082 2.288807 0.08608001 -0.5702388 -0.1649809 -0.8047417 0.483345 0.280273
0.278165 2.187584 0.08551501 -0.5702388 -0.1649809 -0.8047417 0.483345 0.280273
0.195272 2.28411 0.124464 -0.5702388 -0.1649809 -0.8047417 0.483345 0.280273
0.392232 1.934891 0.03871701 0.177866 0.09927998 -0.9790338 0.483345 0.280273
0.464662 1.933326 0.05171701 0.177866 0.09927998 -0.9790338 0.483345 0.280273
0.371999 1.824649 0.023862 0.177866 0.09927998 -0.9790338 0.483345 0.280273
0.480642 1.8223 0.043363 0.4413829 0.13033 -0.8878037 0.483345 0.280273
0.404226 1.785537 -2.498925e-05 0.4413829 0.13033 -0.8878037 0.483345 0.280273
0.464662 1.933326 0.05171701 0.4413829 0.13033 -0.8878037 0.483345 0.280273
0.464662 1.933326 0.05171701 -0.1902 0.3927869 -0.8997458 0.483345 0.280273
0.404226 1.785537 -2.498925e-05 -0.1902 0.3927869 -0.8997458 0.483345 0.280273
0.371999 1.824649 0.023862 -0.1902 0.3927869 -0.8997458 0.483345 0.280273
0.410451 0.67662 0.116994 0.574196 -0.129744 -0.8083721 0.483345 0.280273
0.35933 0.6853399 0.079282 0.574196 -0.129744 -0.8083721 0.483345 0.280273
0.41279 0.7641599 0.104604 0.574196 -0.129744 -0.8083721 0.483345 0.280273
0.31772 0.6509099 0.102972 -0.4291461 -0.09909903 -0.8977823 0.483345 0.280273
0.326036 0.80422 0.08207501 -0.4291461 -0.09909903 -0.8977823 0.483345 0.280273
0.35933 0.6853399 0.079282 -0.4291461 -0.09909903 -0.8977823 0.483345 0.280273
0.273694 0.72561 0.083562 0.186569 -0.14262 -0.9720348 0.483345 0.280273
0.326036 0.80422 0.08207501 0.186569 -0.14262 -0.9720348 0.483345 0.280273
0.31772 0.6509099 0.102972 0.186569 -0.14262 -0.9720348 0.483345 0.280273
0.35933 0.6853399 0.079282 0.2950789 0.104957 -0.9496908 0.483345 0.280273
0.326036 0.80422 0.08207501 0.2950789 0.104957 -0.9496908 0.483345 0.280273
0.41279 0.7641599 0.104604 0.2950789 0.104957 -0.9496908 0.483345 0.280273
0.131948 0.74567 0.091253 0.288743 0.3497339 -0.8912428 0.483345 0.280273
0.140351 0.6956599 0.07435401 0.288743 0.3497339 -0.8912428 0.483345 0.280273
0.047712 0.7663 0.07205701 0.288743 0.3497339 -0.8912428 0.483345 0.280273
0.047712 0.7663 0.07205701 0.186578 -0.142642 -0.9720299 0.483345 0.280273
0.060334 0.61971 0.095991 0.186578 -0.142642 -0.9720299 0.483345 0.280273
-2.899766e-05 0.6823199 0.07521601 0.186578 -0.142642 -0.9720299 0.483345 0.280273
0.047712 0.7663 0.07205701 -0.104564 -0.16902 -0.9800503 0.483345 0.280273
0.140351 0.6956599 0.07435401 -0.104564 -0.16902 -0.9800503 0.483345 0.280273
0.060334 0.61971 0.095991 -0.104564 -0.16902 -0.9800503 0.483345 0.280273
0.236398 0.7140999 0.110044 0.197687 0.4615801 -0.8647912 0.483345 0.280273
0.234346 0.6602299 0.080823 0.197687 0.4615801 -0.8647912 0.483345 0.280273
0.149984 0.70699 0.086492 0.197687 0.4615801 -0.8647912 0.483345 0.280273
0.270978 0.62397 0.116079 0.2483841 -0.5344392 -0.8078862 0.483345 0.280273
0.119241 0.6157398 0.074872 0.2483841 -0.5344392 -0.8078862 0.483345 0.280273
0.234346 0.6602299 0.080823 0.2483841 -0.5344392 -0.8078862 0.483345 0.280273
0.201856 0.57178 0.095541 0.2601361 0.03519501 -0.9649304 0.483345 0.280273
0.119241 0.6157398 0.074872 0.2601361 0.03519501 -0.9649304 0.483345 0.280273
0.270978 0.62397 0.116079 0.2601361 0.03519501 -0.9649304 0.483345 0.280273
0.234346 0.6602299 0.080823 0.002818001 0.125385 -0.9921042 0.483345 0.280273
0.119241 0.6157398 0.074872 0.002818001 0.125385 -0.9921042 0.483345 0.280273
0.149984 0.70699 0.086492 0.002818001 0.125385 -0.9921042 0.483345 0.280273
0.176065 0.4809 0.11099 -0 -0 -1 0.483345 0.280273
0.006211013 0.4386599 0.11099 -0 -0 -1 0.483345 0.280273
0.07872501 0.5071199 0.11099 -0 -0 -1 0.483345 0.280273
0.176065 0.4809 0.11099 -0.1363791 0.5484132 -0.8250114 0.483345 0.280273
0.05401301 0.4109299 0.08466101 -0.1363791 0.5484132 -0.8250114 0.483345 0.280273
0.006211013 0.4386599 0.11099 -0.1363791 0.5484132 -0.8250114 0.483345 0.280273
0.05401301 0.4109299 0.08466101 0.4013709 -0.3879859 -0.8296797 0.483345 0.280273
0.176065 0.4809 0.11099 0.4013709 -0.3879859 -0.8296797 0.483345 0.280273
0.054151 0.35478 0.11099 0.4013709 -0.3879859 -0.8296797 0.483345 0.280273
0.15064 0.3813 0.11099 0 0 -1 0.483345 0.280273
0.054151 0.35478 0.11099 0 0 -1 0.483345 0.280273
0.08979499 0.48932 0.113218 -0.471394 -0.544508 -0.693757 0.445969 0.30488
0.094354 0.45647 0.1359 -0.471394 -0.544508 -0.693757 0.445969 0.30488
0.07074499 0.4769099 0.1359 -0.471394 -0.544508 -0.693757 0.445969 0.30488
0.427488 2.733101 0.1359 0.7218758 0 -0.6920227 0.445969 0.30488
0.405744 2.416385 0.113218 0.7218758 0 -0.6920227 0.445969 0.30488
0.405744 2.733101 0.113218 0.7218758 0 -0.6920227 0.445969 0.30488
0.405744 2.733101 0.113218 -0.7218758 -0 -0.6920227 0.445969 0.30488
0.384 2.416385 0.1359 -0.7218758 -0 -0.6920227 0.445969 0.30488
0.384 2.733101 0.1359 -0.7218758 -0 -0.6920227 0.445969 0.30488
0.405744 2.416385 0.113218 0.6092991 -0.2364781 -0.7568572 0.445969 0.30488
0.313085 2.105049 0.1359 0.6092991 -0.2364781 -0.7568572 0.445969 0.30488
0.283902 2.102452 0.113218 0.6092991 -0.2364781 -0.7568572 0.445969 0.30488
0.384 2.416385 0.1359 -0.6720068 0.2642529 -0.6917928 0.445969 0.30488
0.283902 2.102452 0.113218 -0.6720068 0.2642529 -0.6917928 0.445969 0.30488
0.263967 2.111136 0.1359 -0.6720068 0.2642529 -0.6917928 0.445969 0.30488
0.313085 2.105049 0.1359 0.5821922 0.2406711 -0.7766142 0.445969 0.30488
0.402085 1.816563 0.113218 0.5821922 0.2406711 -0.7766142 0.445969 0.30488
0.283902 2.102452 0.113218 0.5821922 0.2406711 -0.7766142 0.445969 0.30488
0.283902 2.102452 0.113218 -0.770671 -0.298112 -0.563201 0.445969 0.30488
0.374551 1.825257 0.1359 -0.770671 -0.298112 -0.563201 0.445969 0.30488
0.263967 2.111136 0.1359 -0.770671 -0.298112 -0.563201 0.445969 0.30488
0.405999 1.781493 0.1359 0.8791091 -0.185769 -0.4389271 0.445969 0.30488
0.346204 1.55212 0.113218 0.8791091 -0.185769 -0.4389271 0.445969 0.30488
0.402085 1.816563 0.113218 0.8791091 -0.185769 -0.4389271 0.445969 0.30488
0.402085 1.816563 0.113218 -0.6117461 0.107316 -0.7837411 0.445969 0.30488
0.328958 1.56536 0.1359 -0.6117461 0.107316 -0.7837411 0.445969 0.30488
0.374551 1.825257 0.1359 -0.6117461 0.107316 -0.7837411 0.445969 0.30488
0.346204 1.55212 0.113218 0.5236881 -0.4972931 -0.6917011 0.445969 0.30488
0.202604 1.36935 0.1359 0.5236881 -0.4972931 -0.6917011 0.445969 0.30488
0.18625 1.38368 0.113218 0.5236881 -0.4972931 -0.6917011 0.445969 0.30488
0.328958 1.56536 0.1359 -0.5234839 0.4975389 -0.6916789 0.445969 0.30488
0.18625 1.38368 0.113218 -0.5234839 0.4975389 -0.6916789 0.445969 0.30488
0.1699 1.398 0.1359 -0.5234839 0.4975389 -0.6916789 0.445969 0.30488
0.202604 1.36935 0.1359 0.847066 0.169316 -0.503797 0.445969 0.30488
0.234784 1.14087 0.113218 0.847066 0.169316 -0.503797 0.445969 0.30488
0.18625 1.38368 0.113218 0.847066 0.169316 -0.503797 0.445969 0.30488
0.18625 1.38368 0.113218 -0.8435411 -0.143094 -0.5176511 0.445969 0.30488
0.215078 1.13168 0.1359 -0.8435411 -0.143094 -0.5176511 0.445969 0.30488
0.1699 1.398 0.1359 -0.8435411 -0.143094 -0.5176511 0.445969 0.30488
0.254491 1.15006 0.1359 0.5039668 0.5541968 -0.6624827 0.445969 0.30488
0.40146 0.9892999 0.113218 0.5039668 0.5541968 -0.6624827 0.445969 0.30488
0.234784 1.14087 0.113218 0.5039668 0.5541968 -0.6624827 0.445969 0.30488
0.234784 1.14087 0.113218 -0.5019228 -0.5570278 -0.6616597 0.445969 0.30488
0.380887 0.9822699 0.1359 -0.5019228 -0.5570278 -0.6616597 0.445969 0.30488
0.215078 1.13168 0.1359 -0.5019228 -0.5570278 -0.6616597 0.445969 0.30488
0.40146 0.9892999 0.113218 0.7108579 -0.146444 -0.6879209 0.445969 0.30488
0.364747 0.70454 0.1359 0.7108579 -0.146444 -0.6879209 0.445969 0.30488
0.34435 0.71208 0.113218 0.7108579 -0.146444 -0.6879209 0.445969 0.30488
0.380887 0.9822699 0.1359 -0.7089241 0.153648 -0.6883451 0.445969 0.30488
0.34435 0.71208 0.113218 -0.7089241 0.153648 -0.6883451 0.445969 0.30488
0.32396 0.71962 0.1359 -0.7089241 0.153648 -0.6883451 0.445969 0.30488
0.388612 0.1121099 0.113218 -0.09875397 -0.8460817 -0.5238258 0.445969 0.30488
0.421899 0.09418988 0.1359 -0.09875397 -0.8460817 -0.5238258 0.445969 0.30488
0.377561 0.09935999 0.1359 -0.09875397 -0.8460817 -0.5238258 0.445969 0.30488
0.314153 0.6664 0.1359 0.2202689 -0.5467168 -0.8078257 0.445969 0.30488
0.168363 0.64117 0.113218 0.2202689 -0.5467168 -0.8078257 0.445969 0.30488
0.34435 0.71208 0.113218 0.2202689 -0.5467168 -0.8078257 0.445969 0.30488
0.32396 0.71962 0.1359 -0.266097 0.71483 -0.646692 0.445969 0.30488
0.168363 0.64117 0.113218 -0.266097 0.71483 -0.646692 0.445969 0.30488
0.148721 0.6543798 0.1359 -0.266097 0.71483 -0.646692 0.445969 0.30488
0.184968 0.6271598 0.1359 0.6490502 -0.3358091 -0.6826172 0.445969 0.30488
0.08979499 0.48932 0.113218 0.6490502 -0.3358091 -0.6826172 0.445969 0.30488
0.168363 0.64117 0.113218 0.6490502 -0.3358091 -0.6826172 0.445969 0.30488
0.148721 0.6543798 0.1359 -0.8025745 0.3526292 -0.4811723 0.445969 0.30488
0.08979499 0.48932 0.113218 -0.8025745 0.3526292 -0.4811723 0.445969 0.30488
0.07074499 0.4769099 0.1359 -0.8025745 0.3526292 -0.4811723 0.445969 0.30488
0.364747 0.70454 0.1359 0.7575551 0.118001 -0.6420171 0.445969 0.30488
0.380674 0.4788799 0.113218 0.7575551 0.118001 -0.6420171 0.445969 0.30488
0.34435 0.71208 0.113218 0.7575551 0.118001 -0.6420171 0.445969 0.30488
0.314153 0.6664 0.1359 -0.5467513 -0.09331104 -0.8320794 0.445969 0.30488
0.380674 0.4788799 0.113218 -0.5467513 -0.09331104 -0.8320794 0.445969 0.30488
0.349202 0.46103 0.1359 -0.5467513 -0.09331104 -0.8320794 0.445969 0.30488
0.380674 0.4788799 0.113218 0.504718 -0.21757 -0.835418 0.445969 0.30488
0.327199 0.26774 0.1359 0.504718 -0.21757 -0.835418 0.445969 0.30488
0.29128 0.2714999 0.113218 0.504718 -0.21757 -0.835418 0.445969 0.30488
0.349202 0.46103 0.1359 -0.6634637 0.2855358 -0.6915817 0.445969 0.30488
0.29128 0.2714999 0.113218 -0.6634637 0.2855358 -0.6915817 0.445969 0.30488
0.264013 0.2630799 0.1359 -0.6634637 0.2855358 -0.6915817 0.445969 0.30488
0.327199 0.26774 0.1359 0.5292869 0.323209 -0.7844689 0.445969 0.30488
0.388612 0.1121099 0.113218 0.5292869 0.323209 -0.7844689 0.445969 0.30488
0.29128 0.2714999 0.113218 0.5292869 0.323209 -0.7844689 0.445969 0.30488
0.29128 0.2714999 0.113218 -0.5262133 -0.3649462 -0.7680585 0.445969 0.30488
0.377561 0.09935999 0.1359 -0.5262133 -0.3649462 -0.7680585 0.445969 0.30488
0.264013 0.2630799 0.1359 -0.5262133 -0.3649462 -0.7680585 0.445969 0.30488
0.427858 1.831672 0.1359 0.324512 0.5745031 -0.7514241 0.445969 0.30488
0.516999 1.751653 0.113218 0.324512 0.5745031 -0.7514241 0.445969 0.30488
0.402085 1.816563 0.113218 0.324512 0.5745031 -0.7514241 0.445969 0.30488
0.405999 1.781493 0.1359 -0.3167192 -0.6612204 -0.6800563 0.445969 0.30488
0.516999 1.751653 0.113218 -0.3167192 -0.6612204 -0.6800563 0.445969 0.30488
0.504796 1.73417 0.1359 -0.3167192 -0.6612204 -0.6800563 0.445969 0.30488
0.516999 1.751653 0.113218 0.5231933 0.009101005 -0.8521655 0.445969 0.30488
0.556031 1.63162 0.1359 0.5231933 0.009101005 -0.8521655 0.445969 0.30488
0.519124 1.62949 0.113218 0.5231933 0.009101005 -0.8521655 0.445969 0.30488
0.504796 1.73417 0.1359 -0.8438752 0.0007520001 -0.5365391 0.445969 0.30488
0.519124 1.62949 0.113218 -0.8438752 0.0007520001 -0.5365391 0.445969 0.30488
0.504689 1.61412 0.1359 -0.8438752 0.0007520001 -0.5365391 0.445969 0.30488
0.556031 1.63162 0.1359 0.480953 0.327622 -0.8132331 0.444845 0.305913
0.613774 1.49055 0.113218 0.480953 0.327622 -0.8132331 0.444845 0.305913
0.519124 1.62949 0.113218 0.480953 0.327622 -0.8132331 0.444845 0.305913
0.504689 1.61412 0.1359 -0.6880999 -0.5133039 -0.5128719 0.445969 0.30488
0.613774 1.49055 0.113218 -0.6880999 -0.5133039 -0.5128719 0.445969 0.30488
0.609143 1.47409 0.1359 -0.6880999 -0.5133039 -0.5128719 0.445969 0.30488
0.613774 1.49055 0.113218 0.6548849 -0.668959 -0.351596 0.444845 0.305913
0.639138 1.50346 0.1359 0.6548849 -0.668959 -0.351596 0.444845 0.305913
0.609143 1.47409 0.1359 0.6548849 -0.668959 -0.351596 0.444845 0.305913
0.427488 2.416385 0.1359 0.7218758 0 -0.6920227 0.445969 0.30488
0.405744 2.416385 0.113218 -0.7218758 -0 -0.6920227 0.445969 0.30488
0.405744 2.416385 0.113218 0.6977454 -0.2563922 -0.6688904 0.445969 0.30488
0.427488 2.416385 0.1359 0.6977454 -0.2563922 -0.6688904 0.445969 0.30488
0.313085 2.105049 0.1359 0.6977454 -0.2563922 -0.6688904 0.445969 0.30488
0.384 2.416385 0.1359 -0.6951091 0.269782 -0.6663641 0.445969 0.30488
0.405744 2.416385 0.113218 -0.6951091 0.269782 -0.6663641 0.445969 0.30488
0.283902 2.102452 0.113218 -0.6951091 0.269782 -0.6663641 0.445969 0.30488
0.313085 2.105049 0.1359 0.560672 0.235389 -0.793876 0.445969 0.30488
0.427858 1.831672 0.1359 0.560672 0.235389 -0.793876 0.445969 0.30488
0.402085 1.816563 0.113218 0.560672 0.235389 -0.793876 0.445969 0.30488
0.283902 2.102452 0.113218 -0.6615568 -0.2734799 -0.6982487 0.445969 0.30488
0.402085 1.816563 0.113218 -0.6615568 -0.2734799 -0.6982487 0.445969 0.30488
0.374551 1.825257 0.1359 -0.6615568 -0.2734799 -0.6982487 0.445969 0.30488
0.405999 1.781493 0.1359 0.7505324 -0.1316161 -0.6475943 0.445969 0.30488
0.363454 1.53888 0.1359 0.7505324 -0.1316161 -0.6475943 0.445969 0.30488
0.346204 1.55212 0.113218 0.7505324 -0.1316161 -0.6475943 0.445969 0.30488
0.402085 1.816563 0.113218 -0.740126 0.1564 -0.654028 0.445969 0.30488
0.346204 1.55212 0.113218 -0.740126 0.1564 -0.654028 0.445969 0.30488
0.328958 1.56536 0.1359 -0.740126 0.1564 -0.654028 0.445969 0.30488
0.346204 1.55212 0.113218 0.525067 -0.4981681 -0.6900241 0.445969 0.30488
0.363454 1.53888 0.1359 0.525067 -0.4981681 -0.6900241 0.445969 0.30488
0.202604 1.36935 0.1359 0.525067 -0.4981681 -0.6900241 0.445969 0.30488
0.328958 1.56536 0.1359 -0.5248779 0.4984229 -0.6899839 0.445969 0.30488
0.346204 1.55212 0.113218 -0.5248779 0.4984229 -0.6899839 0.445969 0.30488
0.18625 1.38368 0.113218 -0.5248779 0.4984229 -0.6899839 0.445969 0.30488
0.202604 1.36935 0.1359 0.709468 0.167871 -0.684452 0.445969 0.30488
0.254491 1.15006 0.1359 0.709468 0.167871 -0.684452 0.445969 0.30488
0.234784 1.14087 0.113218 0.709468 0.167871 -0.684452 0.445969 0.30488
0.18625 1.38368 0.113218 -0.7175931 -0.143437 -0.6815321 0.445969 0.30488
0.234784 1.14087 0.113218 -0.7175931 -0.143437 -0.6815321 0.445969 0.30488
0.215078 1.13168 0.1359 -0.7175931 -0.143437 -0.6815321 0.445969 0.30488
0.254491 1.15006 0.1359 0.5172703 0.5637403 -0.6439164 0.445969 0.30488
0.422036 0.9963199 0.1359 0.5172703 0.5637403 -0.6439164 0.445969 0.30488
0.40146 0.9892999 0.113218 0.5172703 0.5637403 -0.6439164 0.445969 0.30488
0.234784 1.14087 0.113218 -0.5153299 -0.5666939 -0.6428788 0.445969 0.30488
0.40146 0.9892999 0.113218 -0.5153299 -0.5666939 -0.6428788 0.445969 0.30488
0.380887 0.9822699 0.1359 -0.5153299 -0.5666939 -0.6428788 0.445969 0.30488
0.40146 0.9892999 0.113218 0.7548944 -0.1482151 -0.6388793 0.445969 0.30488
0.422036 0.9963199 0.1359 0.7548944 -0.1482151 -0.6388793 0.445969 0.30488
0.364747 0.70454 0.1359 0.7548944 -0.1482151 -0.6388793 0.445969 0.30488
0.380887 0.9822699 0.1359 -0.7551781 0.155574 -0.6367911 0.445969 0.30488
0.40146 0.9892999 0.113218 -0.7551781 0.155574 -0.6367911 0.445969 0.30488
0.34435 0.71208 0.113218 -0.7551781 0.155574 -0.6367911 0.445969 0.30488
0.314153 0.6664 0.1359 0.2264989 -0.7457538 -0.6265378 0.445969 0.30488
0.184968 0.6271598 0.1359 0.2264989 -0.7457538 -0.6265378 0.445969 0.30488
0.168363 0.64117 0.113218 0.2264989 -0.7457538 -0.6265378 0.445969 0.30488
0.32396 0.71962 0.1359 -0.314165 0.7797709 -0.5415329 0.445969 0.30488
0.34435 0.71208 0.113218 -0.314165 0.7797709 -0.5415329 0.445969 0.30488
0.168363 0.64117 0.113218 -0.314165 0.7797709 -0.5415329 0.445969 0.30488
0.184968 0.6271598 0.1359 0.670816 -0.356117 -0.650528 0.445969 0.30488
0.094354 0.45647 0.1359 0.670816 -0.356117 -0.650528 0.445969 0.30488
0.08979499 0.48932 0.113218 0.670816 -0.356117 -0.650528 0.445969 0.30488
0.148721 0.6543798 0.1359 -0.616606 0.319023 -0.719737 0.445969 0.30488
0.168363 0.64117 0.113218 -0.616606 0.319023 -0.719737 0.445969 0.30488
0.08979499 0.48932 0.113218 -0.616606 0.319023 -0.719737 0.445969 0.30488
0.364747 0.70454 0.1359 0.6104259 0.121753 -0.7826598 0.445969 0.30488
0.412389 0.4656799 0.1359 0.6104259 0.121753 -0.7826598 0.445969 0.30488
0.380674 0.4788799 0.113218 0.6104259 0.121753 -0.7826598 0.445969 0.30488
0.314153 0.6664 0.1359 -0.517754 -0.08064799 -0.8517199 0.445969 0.30488
0.34435 0.71208 0.113218 -0.517754 -0.08064799 -0.8517199 0.445969 0.30488
0.380674 0.4788799 0.113218 -0.517754 -0.08064799 -0.8517199 0.445969 0.30488
0.380674 0.4788799 0.113218 0.5061371 -0.21783 -0.8344911 0.445969 0.30488
0.412389 0.4656799 0.1359 0.5061371 -0.21783 -0.8344911 0.445969 0.30488
0.327199 0.26774 0.1359 0.5061371 -0.21783 -0.8344911 0.445969 0.30488
0.349202 0.46103 0.1359 -0.6615962 0.2851961 -0.6935083 0.445969 0.30488
0.380674 0.4788799 0.113218 -0.6615962 0.2851961 -0.6935083 0.445969 0.30488
0.29128 0.2714999 0.113218 -0.6615962 0.2851961 -0.6935083 0.445969 0.30488
0.327199 0.26774 0.1359 0.649355 0.354329 -0.672896 0.445969 0.30488
0.421899 0.09418988 0.1359 0.649355 0.354329 -0.672896 0.445969 0.30488
0.388612 0.1121099 0.113218 0.649355 0.354329 -0.672896 0.445969 0.30488
0.29128 0.2714999 0.113218 -0.6962747 -0.4251798 -0.5782937 0.445969 0.30488
0.388612 0.1121099 0.113218 -0.6962747 -0.4251798 -0.5782937 0.445969 0.30488
0.377561 0.09935999 0.1359 -0.6962747 -0.4251798 -0.5782937 0.445969 0.30488
0.427858 1.831672 0.1359 0.4039899 0.636326 -0.6571769 0.445969 0.30488
0.546498 1.75635 0.1359 0.4039899 0.636326 -0.6571769 0.445969 0.30488
0.516999 1.751653 0.113218 0.4039899 0.636326 -0.6571769 0.445969 0.30488
0.405999 1.781493 0.1359 -0.3055401 -0.5409152 -0.7836173 0.445969 0.30488
0.402085 1.816563 0.113218 -0.3055401 -0.5409152 -0.7836173 0.445969 0.30488
0.516999 1.751653 0.113218 -0.3055401 -0.5409152 -0.7836173 0.445969 0.30488
0.516999 1.751653 0.113218 0.6042679 0.04618199 -0.7954418 0.445969 0.30488
0.546498 1.75635 0.1359 0.6042679 0.04618199 -0.7954418 0.445969 0.30488
0.556031 1.63162 0.1359 0.6042679 0.04618199 -0.7954418 0.445969 0.30488
0.504796 1.73417 0.1359 -0.8755917 -0.01523099 -0.4828118 0.445969 0.30488
0.516999 1.751653 0.113218 -0.8755917 -0.01523099 -0.4828118 0.445969 0.30488
0.519124 1.62949 0.113218 -0.8755917 -0.01523099 -0.4828118 0.445969 0.30488
0.556031 1.63162 0.1359 0.5246773 0.3402342 -0.7803554 0.444845 0.305913
0.639138 1.50346 0.1359 0.5246773 0.3402342 -0.7803554 0.444845 0.305913
0.613774 1.49055 0.113218 0.5246773 0.3402342 -0.7803554 0.444845 0.305913
0.504689 1.61412 0.1359 -0.6119703 -0.4168712 -0.6720943 0.445969 0.30488
0.519124 1.62949 0.113218 -0.6119703 -0.4168712 -0.6720943 0.445969 0.30488
0.613774 1.49055 0.113218 -0.6119703 -0.4168712 -0.6720943 0.445969 0.30488
3 0 1 2 
3 3 4 5 
3 6 7 8 
3 9 10 11 
3 12 13 14 
3 15 16 17 
3 18 19 20 
3 21 22 23 
3 24 25 26 
3 27 28 29 
3 30 31 32 
3 33 34 35 
3 36 37 38 
3 39 40 41 
3 42 43 44 
3 45 46 47 
3 48 49 50 
3 51 52 53 
3 54 55 56 
3 57 58 59 
3 60 61 62 
3 63 64 65 
3 66 67 68 
3 69 70 71 
3 72 73 74 
3 75 76 77 
3 78 79 80 
3 81 82 83 
3 84 85 86 
3 87 88 89 
3 90 91 81 
3 92 93 94 
3 95 96 97 
3 98 99 100 
3 101 102 92 
3 103 104 105 
3 106 107 108 
3 109 110 111 
3 112 113 114 
3 115 116 117 
3 118 119 120 
3 121 122 123 
3 124 125 126 
3 127 128 129 
3 130 131 132 
3 133 134 135 
3 136 137 138 
3 139 140 141 
3 142 143 144 
3 145 146 147 
3 148 149 150 
3 151 152 153 
3 154 155 156 
3 157 158 159 
3 160 161 162 
3 163 164 165 
3 166 167 168 
3 169 170 171 
3 172 173 174 
3 175 176 177 
3 178 179 180 
3 181 182 183 
3 184 185 186 
3 187 188 189 
3 190 191 192 
3 193 194 195 
3 196 197 198 
3 199 200 201 
3 202 203 204 
3 205 206 207 
3 208 209 210 
3 211 212 213 
3 214 215 216 
3 217 218 219 
3 220 221 222 
3 223 224 225 
3 226 227 228 
3 229 230 231 
3 232 233 234 
3 235 236 237 
3 238 239 240 
3 241 242 243 
3 244 245 246 
3 247 248 249 
3 250 251 252 
3 253 254 244 
3 255 256 257 
3 258 259 260 
3 261 262 263 
3 264 265 266 
3 267 268 269 
3 270 271 272 
3 273 274 275 
3 276 277 278 
3 279 280 281 
3 282 283 284 
3 285 286 287 
3 288 289 290 
3 291 292 293 
3 294 295 296 
3 297 298 299 
3 300 301 302 
3 303 304 305 
3 306 307 308 
3 309 310 311 
3 312 313 314 
3 315 316 317 
3 318 319 320 
3 321 322 323 
3 324 325 326 
3 327 328 329 
3 330 331 332 
3 333 334 335 
3 336 337 338 
3 339 340 341 
3 342 343 344 
3 345 346 347 
3 348 349 350 
3 351 352 353 
3 354 355 356 
3 357 358 359 
3 258 360 259 
3 261 361 262 
3 362 363 364 
3 365 366 367 
3 368 369 370 
3 371 372 373 
3 374 375 376 
3 377 378 379 
3 380 381 382 
3 383 384 385 
3 386 387 388 
3 389 390 391 
3 392 393 394 
3 395 396 397 
3 398 399 400 
3 401 402 403 
3 404 405 406 
3 407 408 409 
3 410 411 412 
3 413 414 415 
3 416 417 418 
3 419 420 421 
3 422 423 424 
3 425 426 427 
3 428 429 430 
3 431 432 433 
3 434 435 436 
3 437 438 439 
3 440 441 442 
3 443 444 445 
3 446 447 448 
3 449 450 451 
