ply
format ascii 1.0
comment VCGLIB generated
element vertex 91
property float x
property float y
property float z
property float nx
property float ny
property float nz
property uchar red
property uchar green
property uchar blue
property uchar alpha
property float texture_u
property float texture_v
element face 126
property list uchar int vertex_indices
end_header
0.214075 0.597172 0.214097 -0.716289 -0.1704525 -0.6766653 255 11 11 255 0.676777 0.073223
0.730992 0.597172 -1.698732e-05 -0.02802076 -0.1704523 -0.9849675 255 11 11 255 0.5 0
1.247909 0.597172 0.214097 0.6766653 -0.1704522 -0.7162891 255 11 11 255 0.323223 0.073223
1.462023 0.597172 0.731014 0.9849675 -0.170452 -0.02802086 255 11 11 255 0.25 0.25
1.247909 0.597172 1.247931 0.7162894 -0.1704521 0.6766651 255 11 11 255 0.323223 0.426777
0.730992 0.597172 1.462045 0.02801948 -0.1704521 0.9849675 255 11 11 255 0.5 0.5
0.214075 0.597172 1.247931 -0.6766644 -0.1704521 0.7162901 255 11 11 255 0.676777 0.426777
-3.898144e-05 0.597172 0.731014 -0.9849675 -0.1704522 0.02802083 255 11 11 255 0.75 0.25
0.730992 -3.200769e-05 0.731014 0 -1 9.620719e-09 255 11 11 255 0.5 1
0.2694 0.793429 0.922211 -0.5574777 0.7974315 0.2309149 255 11 11 255 0.625 0.301777
0.922189 0.793429 0.269422 0.2309144 0.7974322 -0.5574769 255 11 11 255 0.448223 0.125
0.460598 0.852169 0.46062 -0.1486701 0.9776474 -0.1486701 255 11 11 255 0.573223 0.176777
0.92219 0.793429 1.192605 0.2309152 0.7974318 0.5574771 255 11 11 255 0.448223 0.375
1.113387 0.852169 0.731014 0.2102514 0.9776474 -5.131321e-07 255 11 11 255 0.396447 0.25
0.2694 0.793429 0.539816 -0.5574772 0.797432 -0.2309145 255 11 11 255 0.625 0.198223
0.348597 0.852169 0.731014 -0.2102513 0.9776474 0 255 11 11 255 0.603553 0.25
0.460598 0.852169 1.001408 -0.22079 0.9500018 0.22079 255 11 11 255 0.573223 0.323223
0.730991 0.852169 0.348619 0 0.9776474 -0.2102513 255 11 11 255 0.5 0.146447
0.539794 0.793429 0.269422 -0.2309151 0.7974313 -0.557478 255 11 11 255 0.551777 0.125
1.001386 0.852169 0.46062 0.1486701 0.9776474 -0.1486701 255 11 11 255 0.426777 0.176777
1.192583 0.793429 0.539816 0.5574771 0.7974318 -0.2309152 255 11 11 255 0.375 0.198223
1.001386 0.852169 1.001408 0.2207901 0.9500018 0.2207901 255 11 11 255 0.426777 0.323223
1.192584 0.793429 0.922211 0.557477 0.7974322 0.2309141 255 11 11 255 0.375 0.301777
0.539795 0.793429 1.192606 -0.2309145 0.7974315 0.5574778 255 11 11 255 0.551777 0.375
0.730992 0.852169 1.113409 2.193855e-07 0.9959516 0.08989128 255 11 11 255 0.5 0.353553
0.382274 0.30832 0.58657 -0.5756675 -0.7878828 -0.218741 255 11 11 255 0.370919 0.741837
0.586548 0.30832 0.382296 -0.2523851 -0.7878824 -0.5617323 255 11 11 255 0.403189 0.741837
0.875436 0.30832 0.382296 0.218741 -0.7878828 -0.5756675 255 11 11 255 0.435459 0.741837
1.07971 0.30832 0.58657 0.5617322 -0.7878824 -0.252385 255 11 11 255 0.46773 0.741837
1.07971 0.30832 0.875458 0.5756675 -0.7878829 0.2187411 255 11 11 255 0.5 0.741837
0.875436 0.30832 1.079732 0.2523853 -0.7878824 0.5617321 255 11 11 255 0.53227 0.741837
0.586548 0.30832 1.079732 -0.2187416 -0.7878824 0.5756679 255 11 11 255 0.564541 0.741837
0.382274 0.30832 0.875458 -0.5617323 -0.7878824 0.2523851 255 11 11 255 0.596811 0.741837
0.104608 0.553844 0.990471 -0.7557485 -0.5898314 0.2845054 255 11 11 255 0.642156 0.620919
0.047261 0.597172 0.968804 -0.951993 0.1696784 0.2547912 255 11 11 255 0.703125 0.5
0.087677 0.62661 0.997484 -0.8804637 0.3029507 0.364698 255 11 11 255 0.677985 0.323724
0.07937801 0.597172 1.046342 -0.8574901 -0.07543382 0.5089407 255 11 11 255 0.703874 0.386224
0.104607 0.553844 0.471557 -0.7355707 -0.5898324 -0.333217 255 11 11 255 0.689541 0.620919
0.079377 0.597172 0.415686 -0.8533251 0.1696789 -0.4929964 255 11 11 255 0.265625 0.5
0.08767599 0.62661 0.464544 -0.8804636 0.302951 -0.364698 255 11 11 255 0.677985 0.176276
0.04725999 0.597172 0.493224 -0.9662135 -0.07543424 -0.2464575 255 11 11 255 0.740485 0.202165
0.99045 0.553844 1.357398 0.2550653 -0.6659744 0.7010134 255 11 11 255 0.547385 0.620919
0.997463 0.62661 1.374329 0.3334473 0.4906842 0.8050105 255 11 11 255 0.426276 0.427985
1.357377 0.553844 0.990471 0.735571 -0.5898322 0.3332168 255 11 11 255 0.5 0.620919
1.04632 0.597172 1.382628 0.4806978 -0.1129686 0.8695791 255 11 11 255 0.363776 0.453874
1.382607 0.597172 1.046342 0.8533251 0.1696797 0.4929961 255 11 11 255 0.515625 0.5
1.374308 0.62661 0.997484 0.8804635 0.3029518 0.3646975 255 11 11 255 0.322015 0.323724
1.357376 0.553844 0.471557 0.7557466 -0.5898331 -0.2845066 255 11 11 255 0.452615 0.620919
1.414724 0.597172 0.968804 0.9662135 -0.07543391 0.2464574 255 11 11 255 0.259515 0.297835
1.414723 0.597172 0.493223 0.9519929 0.169678 -0.2547921 255 11 11 255 0.453125 0.5
1.374307 0.62661 0.464543 0.880463 0.3029491 -0.3647009 255 11 11 255 0.322015 0.176276
0.990449 0.553844 0.104629 0.3332171 -0.5898322 -0.7355708 255 11 11 255 0.40523 0.620919
1.382606 0.597172 0.415686 0.8574889 -0.07543502 -0.5089424 255 11 11 255 0.296126 0.113776
1.04632 0.597172 0.07939899 0.4929964 0.1696797 -0.8533249 255 11 11 255 0.390625 0.5
0.997462 0.62661 0.08769798 0.3646978 0.3029518 -0.8804634 255 11 11 255 0.426276 0.072015
0.471535 0.553844 0.10463 -0.2845066 -0.5898331 -0.7557466 255 11 11 255 0.357845 0.620919
0.968782 0.597172 0.04728198 0.2464574 -0.07543388 -0.9662135 255 11 11 255 0.452165 0.009515
0.493201 0.597172 0.04728299 -0.2547923 0.1696768 -0.951993 255 11 11 255 0.328125 0.5
0.464521 0.62661 0.087699 -0.364701 0.302948 -0.8804633 255 11 11 255 0.573724 0.072015
0.415664 0.597172 0.0794 -0.5089422 -0.07543566 -0.8574889 255 11 11 255 0.636224 0.046126
0.968783 0.597172 1.414745 0.2894417 0.06603048 0.9549154 255 11 11 255 0.578125 0.5
0.493202 0.597172 1.414745 -0.2464602 -0.07543413 0.9662127 255 11 11 255 0.547835 0.490485
0.471535 0.553844 1.357398 -0.3332168 -0.5898315 0.7355714 255 11 11 255 0.59477 0.620919
0.415664 0.597172 1.382628 -0.4929945 0.1696789 0.8533261 255 11 11 255 0.640625 0.5
0.464522 0.62661 1.374329 -0.3646981 0.3029506 0.8804637 255 11 11 255 0.573724 0.427985
1.247909 0.597172 1.247931 0.7162894 -0.1704521 0.6766651 255 11 11 255 0.53125 0.5
1.462023 0.597172 0.731014 0.9849675 -0.170452 -0.02802086 255 11 11 255 0.46875 0.5
1.247909 0.597172 0.214097 0.6766653 -0.1704522 -0.7162891 255 11 11 255 0.40625 0.5
0.730992 0.597172 -1.698732e-05 -0.02802076 -0.1704523 -0.9849675 255 11 11 255 0.34375 0.5
0.214075 0.597172 0.214097 -0.716289 -0.1704525 -0.6766653 255 11 11 255 0.28125 0.5
-3.898144e-05 0.597172 0.731014 -0.9849675 -0.1704522 0.02802083 255 11 11 255 0.71875 0.5
0.382274 0.30832 0.58657 -0.5756675 -0.7878828 -0.218741 255 11 11 255 0.629081 0.741837
0.730992 0.597172 1.462045 0.02801948 -0.1704521 0.9849675 255 11 11 255 0.59375 0.5
0.214075 0.597172 1.247931 -0.6766644 -0.1704521 0.7162901 255 11 11 255 0.65625 0.5
0.047261 0.597172 0.968804 -0.951993 0.1696784 0.2547912 255 11 11 255 0.740485 0.297835
0.07937801 0.597172 1.046342 -0.8574901 -0.07543382 0.5089407 255 11 11 255 0.671875 0.5
0.079377 0.597172 0.415686 -0.8533251 0.1696789 -0.4929964 255 11 11 255 0.703874 0.113776
0.104607 0.553844 0.471557 -0.7355707 -0.5898324 -0.333217 255 11 11 255 0.310459 0.620919
0.04725999 0.597172 0.493224 -0.9662135 -0.07543424 -0.2464575 255 11 11 255 0.734375 0.5
0.493201 0.597172 0.04728299 -0.2547923 0.1696768 -0.951993 255 11 11 255 0.547835 0.009515
0.415664 0.597172 0.0794 -0.5089422 -0.07543566 -0.8574889 255 11 11 255 0.296875 0.5
1.04632 0.597172 0.07939899 0.4929964 0.1696797 -0.8533249 255 11 11 255 0.363776 0.046126
0.968782 0.597172 0.04728198 0.2464574 -0.07543388 -0.9662135 255 11 11 255 0.359375 0.5
1.414723 0.597172 0.493223 0.9519929 0.169678 -0.2547921 255 11 11 255 0.259515 0.202165
1.382606 0.597172 0.415686 0.8574889 -0.07543502 -0.5089424 255 11 11 255 0.421875 0.5
1.382607 0.597172 1.046342 0.8533251 0.1696797 0.4929961 255 11 11 255 0.296126 0.386224
1.414724 0.597172 0.968804 0.9662135 -0.07543391 0.2464574 255 11 11 255 0.484375 0.5
0.968783 0.597172 1.414745 0.2894417 0.06603048 0.9549154 255 11 11 255 0.452165 0.490485
1.04632 0.597172 1.382628 0.4806978 -0.1129686 0.8695791 255 11 11 255 0.546875 0.5
0.415664 0.597172 1.382628 -0.4929945 0.1696789 0.8533261 255 11 11 255 0.636224 0.453874
0.493202 0.597172 1.414745 -0.2464602 -0.07543413 0.9662127 255 11 11 255 0.609375 0.5
3 24 21 13 
3 24 13 19 
3 24 19 17 
3 24 17 11 
3 24 11 15 
3 24 15 16 
3 21 24 12 
3 21 22 13 
3 22 21 12 
3 22 12 4 
3 60 41 44 
3 60 44 42 
3 29 65 30 
3 29 30 8 
3 20 19 13 
3 22 3 20 
3 22 20 13 
3 46 45 43 
3 46 43 48 
3 28 66 29 
3 28 29 8 
3 17 19 10 
3 10 19 20 
3 10 20 2 
3 50 49 47 
3 50 47 52 
3 27 67 28 
3 27 28 8 
3 17 18 11 
3 18 17 10 
3 18 10 1 
3 54 53 51 
3 54 51 56 
3 26 68 27 
3 26 27 8 
3 14 15 11 
3 18 0 14 
3 18 14 11 
3 58 57 55 
3 58 55 59 
3 25 69 26 
3 25 26 8 
3 16 15 9 
3 9 15 14 
3 9 14 7 
3 32 70 71 
3 32 71 8 
3 39 38 37 
3 39 37 40 
3 23 24 16 
3 12 24 23 
3 12 23 5 
3 64 63 62 
3 64 62 61 
3 30 72 31 
3 30 31 8 
3 9 6 23 
3 9 23 16 
3 35 34 33 
3 35 33 36 
3 31 73 32 
3 31 32 8 
3 9 35 36 
3 9 36 6 
3 74 35 9 
3 74 9 7 
3 70 32 33 
3 70 33 34 
3 32 73 75 
3 32 75 33 
3 14 39 40 
3 14 40 7 
3 76 39 14 
3 76 14 0 
3 69 25 77 
3 69 77 38 
3 71 70 78 
3 71 78 37 
3 18 58 59 
3 18 59 0 
3 79 58 18 
3 79 18 1 
3 68 26 55 
3 68 55 57 
3 26 69 80 
3 26 80 55 
3 10 54 56 
3 10 56 1 
3 81 54 10 
3 81 10 2 
3 67 27 51 
3 67 51 53 
3 27 68 82 
3 27 82 51 
3 20 50 52 
3 20 52 2 
3 83 50 20 
3 83 20 3 
3 66 28 47 
3 66 47 49 
3 28 67 84 
3 28 84 47 
3 22 46 48 
3 22 48 3 
3 85 46 22 
3 85 22 4 
3 65 29 43 
3 65 43 45 
3 29 66 86 
3 29 86 43 
3 12 42 44 
3 12 44 4 
3 87 42 12 
3 87 12 5 
3 72 30 41 
3 72 41 60 
3 30 65 88 
3 30 88 41 
3 23 64 61 
3 23 61 5 
3 89 64 23 
3 89 23 6 
3 73 31 62 
3 73 62 63 
3 31 72 90 
3 31 90 62 
