ply
format ascii 1.0
comment VCGLIB generated
comment TextureFile dummy.png
element vertex 483
property float x
property float y
property float z
property float nx
property float ny
property float nz
property float texture_u
property float texture_v
element face 248
property list uchar int vertex_indices
end_header
10.42834 33.7742 22.2558 0 -0.5000002 -0.8660253 0.079792 0.281112
14.25206 50.8308 12.4082 0 -0.5000002 -0.8660253 0.079824 0.280692
14.25206 33.7742 22.2558 0 -0.5000002 -0.8660253 0.079829 0.281151
10.42834 66.107 0 0 0.7802138 -0.6255128 0.079698 0.28016
14.25206 67.2836 1.467598 0 0.7802138 -0.6255128 0.079802 0.280159
14.25206 66.107 0 0 0.7802138 -0.6255128 0.079736 0.280169
10.42834 51.7687 14.0326 0 0.5000002 0.8660253 0.079846 0.280662
14.25206 34.71204 23.8802 0 0.5000002 0.8660253 0.07989 0.281142
14.25206 51.7687 14.0326 0 0.5000002 0.8660253 0.079887 0.280687
10.42834 34.71204 23.8802 0 -0.8660249 0.500001 0.07985 0.281104
14.25206 33.7742 22.2558 0 -0.8660249 0.500001 0.079829 0.281151
14.25206 34.71204 23.8802 0 -0.8660249 0.500001 0.07989 0.281142
10.42834 34.71204 23.8802 -1 0 0 0.07985 0.281104
10.42834 50.8308 12.4082 -1 0 0 0.079785 0.280667
10.42834 33.7742 22.2558 -1 0 0 0.079792 0.281112
14.25206 33.7742 22.2558 1 0 0 0.079829 0.281151
14.25206 51.7687 14.0326 1 0 0 0.079887 0.280687
14.25206 34.71204 23.8802 1 0 0 0.07989 0.281142
10.42834 50.8308 12.4082 0 -0.6304798 -0.7762057 0.079785 0.280667
14.25206 66.107 0 0 -0.6304798 -0.7762057 0.079736 0.280169
14.25206 50.8308 12.4082 0 -0.6304798 -0.7762057 0.079824 0.280692
10.42834 67.2836 1.467598 -1 0 0 0.079762 0.280151
10.42834 66.107 0 -1 0 0 0.079698 0.28016
14.25206 51.7687 14.0326 0 0.6293572 0.7771162 0.079887 0.280687
10.42834 67.2836 1.467598 0 0.6293572 0.7771162 0.079762 0.280151
10.42834 51.7687 14.0326 0 0.6293572 0.7771162 0.079846 0.280662
14.25206 50.8308 12.4082 1 0 0 0.079824 0.280692
14.25206 67.2836 1.467598 1 0 0 0.079802 0.280159
21.48248 66.8667 13.8106 -0.8631322 0.3198951 0.3907301 0.080182 0.278844
17.05145 65.3512 5.2631 -0.8631322 0.3198951 0.3907301 0.080304 0.278689
16.91134 62.9079 6.953899 -0.8631322 0.3198951 0.3907301 0.080304 0.278803
16.91134 70.8254 20.6673 -0.863132 -0.178434 -0.472403 0.080277 0.278891
21.76269 69.4312 12.3299 -0.863132 -0.178434 -0.472403 0.080181 0.278728
21.48248 66.8667 13.8106 -0.863132 -0.178434 -0.472403 0.080182 0.278844
7.628951 73.5113 19.3968 0 -0.4275988 -0.9039686 0.080502 0.278775
16.91134 70.8254 20.6673 0 -0.4275988 -0.9039686 0.080277 0.278891
7.769061 70.8254 20.6673 0 -0.4275988 -0.9039686 0.080501 0.278895
2.91771 69.4312 12.3299 0.8631324 -0.1784341 -0.4724022 0.08062 0.278734
7.769061 70.8254 20.6673 0.8631324 -0.1784341 -0.4724022 0.080501 0.278895
3.197921 66.8667 13.8106 0.8631324 -0.1784341 -0.4724022 0.080619 0.27885
7.769061 62.9079 6.953899 0.8631322 0.3198951 0.3907301 0.080518 0.278806
2.91771 69.4312 12.3299 0.8631322 0.3198951 0.3907301 0.08062 0.278734
3.197921 66.8667 13.8106 0.8631322 0.3198951 0.3907301 0.080619 0.27885
17.05145 65.3512 5.2631 0 0.5690606 0.8222955 0.080304 0.278689
7.769061 62.9079 6.953899 0 0.5690606 0.8222955 0.080518 0.278806
16.91134 62.9079 6.953899 0 0.5690606 0.8222955 0.080304 0.278803
17.86826 62.0792 5.518497 0.8618039 -0.334187 -0.3815929 0.080304 0.278803
23.7352 69.4312 12.3299 0.8618039 -0.334187 -0.3815929 0.080181 0.278728
23.3963 66.8667 13.8106 0.8618039 -0.334187 -0.3815929 0.080182 0.278844
23.3963 66.8667 13.8106 0.8618038 0.163376 0.4802109 0.080182 0.278844
18.03768 74.3654 20.8762 0.8618038 0.163376 0.4802109 0.080276 0.278772
17.86825 71.6541 22.1027 0.8618038 0.163376 0.4802109 0.080277 0.278891
17.86825 71.6541 22.1027 0 0.4121569 0.9111129 0.080277 0.278891
6.64271 74.3654 20.8762 0 0.4121569 0.9111129 0.080502 0.278775
6.81215 71.6541 22.1027 0 0.4121569 0.9111129 0.080501 0.278895
6.81215 71.6541 22.1027 -0.8618038 0.163376 0.4802109 0.080501 0.278895
0.9452 69.4312 12.3299 -0.8618038 0.163376 0.4802109 0.08062 0.278734
1.284101 66.8667 13.8106 -0.8618038 0.163376 0.4802109 0.080619 0.27885
1.284101 66.8667 13.8106 -0.8618039 -0.334187 -0.3815929 0.080619 0.27885
6.64272 64.497 3.783699 -0.8618039 -0.334187 -0.3815929 0.080518 0.278692
6.81215 62.0792 5.518497 -0.8618039 -0.334187 -0.3815929 0.080518 0.278806
6.81215 62.0792 5.518497 0 -0.5829681 -0.8124951 0.080518 0.278806
18.03769 64.497 3.783699 0 -0.5829681 -0.8124951 0.080304 0.278689
17.86826 62.0792 5.518497 0 -0.5829681 -0.8124951 0.080304 0.278803
21.48248 66.8667 13.8106 0 -0.8660253 0.5000002 0.080182 0.278844
17.86826 62.0792 5.518497 0 -0.8660253 0.5000002 0.080304 0.278803
23.3963 66.8667 13.8106 0 -0.8660253 0.5000002 0.080182 0.278844
18.03769 64.497 3.783699 -9.999995e-07 0.8660256 -0.4999998 0.080304 0.278689
21.76269 69.4312 12.3299 -9.999995e-07 0.8660256 -0.4999998 0.080181 0.278728
23.7352 69.4312 12.3299 -9.999995e-07 0.8660256 -0.4999998 0.080181 0.278728
17.86825 71.6541 22.1027 0 -0.8660249 0.500001 0.080277 0.278891
21.48248 66.8667 13.8106 0 -0.8660249 0.500001 0.080182 0.278844
23.3963 66.8667 13.8106 0 -0.8660249 0.500001 0.080182 0.278844
21.76269 69.4312 12.3299 -9.999999e-07 0.8660249 -0.500001 0.080181 0.278728
18.03768 74.3654 20.8762 -9.999999e-07 0.8660249 -0.500001 0.080276 0.278772
23.7352 69.4312 12.3299 -9.999999e-07 0.8660249 -0.500001 0.080181 0.278728
6.81215 71.6541 22.1027 0 -0.866026 0.499999 0.080501 0.278895
16.91134 70.8254 20.6673 0 -0.866026 0.499999 0.080277 0.278891
17.86825 71.6541 22.1027 0 -0.866026 0.499999 0.080277 0.278891
17.05145 73.5113 19.3968 0 0.8660249 -0.500001 0.080276 0.278772
6.64271 74.3654 20.8762 0 0.8660249 -0.500001 0.080502 0.278775
18.03768 74.3654 20.8762 0 0.8660249 -0.500001 0.080276 0.278772
3.197921 66.8667 13.8106 0 -0.8660253 0.5000002 0.080619 0.27885
6.81215 71.6541 22.1027 0 -0.8660253 0.5000002 0.080501 0.278895
1.284101 66.8667 13.8106 0 -0.8660253 0.5000002 0.080619 0.27885
6.64271 74.3654 20.8762 0 0.8660253 -0.5000002 0.080502 0.278775
2.91771 69.4312 12.3299 0 0.8660253 -0.5000002 0.08062 0.278734
0.9452 69.4312 12.3299 0 0.8660253 -0.5000002 0.08062 0.278734
6.81215 62.0792 5.518497 0 -0.8660253 0.5000002 0.080518 0.278806
6.64272 64.497 3.783699 0 0.8660253 -0.5000002 0.080518 0.278692
17.86826 62.0792 5.518497 0 -0.866026 0.499999 0.080304 0.278803
7.769061 62.9079 6.953899 0 -0.866026 0.499999 0.080518 0.278806
6.81215 62.0792 5.518497 0 -0.866026 0.499999 0.080518 0.278806
7.628961 65.3512 5.2631 0 0.8660249 -0.500001 0.080518 0.278692
18.03769 64.497 3.783699 0 0.8660249 -0.500001 0.080304 0.278689
6.64272 64.497 3.783699 0 0.8660249 -0.500001 0.080518 0.278692
21.57264 37.4345 28.5956 1 0 0 0.079792 0.281112
21.57264 56.403 22.0594 1 0 0 0.079824 0.280692
21.57264 39.3464 31.9071 1 0 0 0.079829 0.281151
24.6804 73.233 12.3426 0.151603 0.8560152 -0.4942211 0.079736 0.280169
22.8211 71.5682 8.888599 0.151603 0.8560152 -0.4942211 0.079762 0.280151
22.8211 73.48 12.2 0.151603 0.8560152 -0.4942211 0.079802 0.280159
19.69695 56.403 22.0594 -1 0 0 0.079887 0.280687
19.69695 37.4345 28.5956 -1 0 0 0.07985 0.281104
19.69695 39.3464 31.9071 -1 0 0 0.07989 0.281142
19.69695 37.4345 28.5956 0 -0.8660256 0.4999998 0.07985 0.281104
21.57264 39.3464 31.9071 0 -0.8660256 0.4999998 0.079829 0.281151
19.69695 39.3464 31.9071 0 -0.8660256 0.4999998 0.07989 0.281142
19.69695 37.4345 28.5956 0 -0.5000002 -0.8660253 0.07985 0.281104
21.57264 54.4911 18.748 0 -0.5000002 -0.8660253 0.079785 0.280667
21.57264 37.4345 28.5956 0 -0.5000002 -0.8660253 0.079792 0.281112
21.57264 39.3464 31.9071 0 0.5000002 0.8660253 0.079829 0.281151
19.69695 56.403 22.0594 0 0.5000002 0.8660253 0.079887 0.280687
19.69695 39.3464 31.9071 0 0.5000002 0.8660253 0.07989 0.281142
21.57264 56.403 22.0594 0.9874538 -0.136753 0.07895397 0.079824 0.280692
24.6804 71.3212 9.031097 0.9874538 -0.136753 0.07895397 0.079698 0.28016
24.6804 73.233 12.3426 0.9874538 -0.136753 0.07895397 0.079736 0.280169
22.8211 71.5682 8.888599 -0 -0.5000002 -0.8660253 0.079762 0.280151
24.6804 71.3212 9.031097 -0 -0.5000002 -0.8660253 0.079698 0.28016
19.69695 56.403 22.0594 -0.9876811 0.135516 -0.07824001 0.079887 0.280687
22.8211 71.5682 8.888599 -0.9876811 0.135516 -0.07824001 0.079762 0.280151
19.69695 54.4911 18.748 -0.9876811 0.135516 -0.07824001 0.079846 0.280662
21.57264 56.403 22.0594 0 0.5000002 0.8660253 0.079824 0.280692
22.8211 73.48 12.2 0 0.5000002 0.8660253 0.079802 0.280159
14.25206 43.0066 38.2469 0 0.5000002 0.8660253 0.079792 0.281112
10.42834 60.0633 28.3992 0 0.5000002 0.8660253 0.079824 0.280692
10.42834 43.0066 38.2469 0 0.5000002 0.8660253 0.079829 0.281151
14.25206 78.4472 21.3738 0 0.9318169 -0.362929 0.079698 0.28016
10.42834 77.7645 19.621 0 0.9318169 -0.362929 0.079802 0.280159
10.42834 78.4472 21.3738 0 0.9318169 -0.362929 0.079736 0.280169
14.25206 59.1254 26.7749 0 -0.5000002 -0.8660253 0.079846 0.280662
10.42834 42.0688 36.6225 0 -0.5000002 -0.8660253 0.07989 0.281142
10.42834 59.1254 26.7749 0 -0.5000002 -0.8660253 0.079887 0.280687
14.25206 42.0688 36.6225 0 -0.8660256 0.4999998 0.07985 0.281104
10.42834 43.0066 38.2469 0 -0.8660256 0.4999998 0.079829 0.281151
10.42834 42.0688 36.6225 0 -0.8660256 0.4999998 0.07989 0.281142
14.25206 43.0066 38.2469 1 0 0 0.079792 0.281112
14.25206 59.1254 26.7749 1 0 0 0.079846 0.280662
14.25206 60.0633 28.3992 1 0 0 0.079785 0.280667
10.42834 43.0066 38.2469 -1 0 0 0.079829 0.281151
10.42834 59.1254 26.7749 -1 0 0 0.079887 0.280687
10.42834 42.0688 36.6225 -1 0 0 0.07989 0.281142
14.25206 60.0633 28.3992 0 0.3569741 0.9341143 0.079785 0.280667
10.42834 78.4472 21.3738 0 0.3569741 0.9341143 0.079736 0.280169
10.42834 60.0633 28.3992 0 0.3569741 0.9341143 0.079824 0.280692
14.25206 77.7645 19.621 1 0 0 0.079762 0.280151
14.25206 78.4472 21.3738 1 0 0 0.079698 0.28016
10.42834 59.1254 26.7749 0 -0.3583241 -0.9335973 0.079887 0.280687
14.25206 77.7645 19.621 0 -0.3583241 -0.9335973 0.079762 0.280151
14.25206 59.1254 26.7749 0 -0.3583241 -0.9335973 0.079846 0.280662
10.42834 60.0633 28.3992 -1 0 0 0.079824 0.280692
10.42834 77.7645 19.621 -1 0 0 0.079802 0.280159
9.148201 27.46606 31.8486 0 1 0 0.080518 0.278692
18.72421 27.46606 37.3773 0 1 0 0.080181 0.278728
15.5322 27.46606 31.8486 0 1 0 0.080304 0.278689
15.5322 24.62992 31.8486 0.8660253 0 -0.5000002 0.080304 0.278803
18.72421 27.46606 37.3773 0.8660253 0 -0.5000002 0.080181 0.278728
18.72421 24.62993 37.3773 0.8660253 0 -0.5000002 0.080182 0.278844
18.72421 24.62993 37.3773 0.8474089 0 0.5309409 0.080182 0.278844
15.26021 27.46606 42.906 0.8474089 0 0.5309409 0.080276 0.278772
15.26021 24.62993 42.906 0.8474089 0 0.5309409 0.080277 0.278891
15.26021 24.62993 56.71024 0 0 1 0.080277 0.278891
9.42018 27.46606 56.71024 0 0 1 0.080502 0.278775
9.42018 24.62993 56.71024 0 0 1 0.080501 0.278895
9.42018 24.62993 42.906 -0.8474089 0 0.5309409 0.080501 0.278895
5.956191 27.46606 37.3773 -0.8474089 0 0.5309409 0.08062 0.278734
5.956191 24.62993 37.3773 -0.8474089 0 0.5309409 0.080619 0.27885
5.956191 24.62993 37.3773 -0.8660253 0 -0.5000002 0.080619 0.27885
9.148201 27.46606 31.8486 -0.8660253 0 -0.5000002 0.080518 0.278692
9.148201 24.62992 31.8486 -0.8660253 0 -0.5000002 0.080518 0.278806
9.148201 24.62992 31.8486 0 0 -1 0.080518 0.278806
15.5322 27.46606 31.8486 0 0 -1 0.080304 0.278689
15.5322 24.62992 31.8486 0 0 -1 0.080304 0.278803
9.148201 24.62992 31.8486 0 -1 0 0.080518 0.278806
18.72421 24.62993 37.3773 0 -1 0 0.080182 0.278844
5.956191 24.62993 37.3773 0 -1 0 0.080619 0.27885
9.42018 24.62993 42.906 0 -1 0 0.080501 0.278895
15.26021 24.62993 42.906 0 -1 0 0.080277 0.278891
9.42018 27.46606 42.906 0 1 0 0.080502 0.278775
15.26021 27.46606 42.906 0 1 0 0.080276 0.278772
9.42018 24.62993 56.71024 0 -1 0 0.080501 0.278895
15.26021 27.46606 42.906 1 0 0 0.080276 0.278772
15.26021 24.62993 56.71024 1 0 0 0.080277 0.278891
15.26021 24.62993 42.906 1 0 0 0.080277 0.278891
15.26021 27.46606 56.71024 0 1 0 0.080276 0.278772
9.42018 24.62993 42.906 -1 0 0 0.080501 0.278895
9.42018 27.46606 56.71024 -1 0 0 0.080502 0.278775
9.42018 27.46606 42.906 -1 0 0 0.080502 0.278775
3.10776 39.3464 31.9071 -1 0 0 0.079792 0.281112
3.10776 54.4911 18.748 -1 0 0 0.079824 0.280692
3.10776 37.4345 28.5956 -1 0 0 0.079829 0.281151
0 73.233 12.3426 -0.151603 0.8560152 -0.4942211 0.079698 0.28016
1.859301 71.5682 8.888599 -0.151603 0.8560152 -0.4942211 0.079802 0.280159
0 71.3212 9.031097 -0.151603 0.8560152 -0.4942211 0.079736 0.280169
4.98345 56.403 22.0594 1 0 0 0.079846 0.280662
4.98345 37.4345 28.5956 1 0 0 0.07989 0.281142
4.98345 54.4911 18.748 1 0 0 0.079887 0.280687
4.98345 39.3464 31.9071 0 -0.8660256 0.4999998 0.07985 0.281104
3.10776 37.4345 28.5956 0 -0.8660256 0.4999998 0.079829 0.281151
4.98345 37.4345 28.5956 0 -0.8660256 0.4999998 0.07989 0.281142
4.98345 39.3464 31.9071 0 0.5000002 0.8660253 0.07985 0.281104
3.10776 56.403 22.0594 0 0.5000002 0.8660253 0.079785 0.280667
3.10776 39.3464 31.9071 0 0.5000002 0.8660253 0.079792 0.281112
3.10776 37.4345 28.5956 0 -0.5000002 -0.8660253 0.079829 0.281151
4.98345 54.4911 18.748 0 -0.5000002 -0.8660253 0.079887 0.280687
4.98345 37.4345 28.5956 0 -0.5000002 -0.8660253 0.07989 0.281142
3.10776 56.403 22.0594 -0.9874538 -0.136753 0.07895397 0.079785 0.280667
0 71.3212 9.031097 -0.9874538 -0.136753 0.07895397 0.079736 0.280169
3.10776 54.4911 18.748 -0.9874538 -0.136753 0.07895397 0.079824 0.280692
1.859301 73.48 12.2 0 0.5000002 0.8660253 0.079762 0.280151
0 73.233 12.3426 0 0.5000002 0.8660253 0.079698 0.28016
4.98345 54.4911 18.748 0.9876811 0.135516 -0.07824001 0.079887 0.280687
1.859301 73.48 12.2 0.9876811 0.135516 -0.07824001 0.079762 0.280151
4.98345 56.403 22.0594 0.9876811 0.135516 -0.07824001 0.079846 0.280662
3.10776 54.4911 18.748 0 -0.5000002 -0.8660253 0.079824 0.280692
1.859301 71.5682 8.888599 0 -0.5000002 -0.8660253 0.079802 0.280159
18.98753 55.0454 20.6356 -0.8660252 0.2500001 0.4330131 0.080181 0.278728
15.66387 49.6025 17.1307 -0.8660252 0.2500001 0.4330131 0.080304 0.278803
18.98753 52.4809 22.1162 -0.8660252 0.2500001 0.4330131 0.080182 0.278844
15.66387 55.3592 27.1017 -0.8660252 -0.2500001 -0.4330131 0.080277 0.278891
18.98753 55.0454 20.6356 -0.8660252 -0.2500001 -0.4330131 0.080181 0.278728
18.98753 52.4809 22.1162 -0.8660252 -0.2500001 -0.4330131 0.080182 0.278844
9.016531 57.9238 25.6211 0 -0.5000002 -0.8660253 0.080502 0.278775
15.66387 55.3592 27.1017 0 -0.5000002 -0.8660253 0.080277 0.278891
9.016531 55.3592 27.1017 0 -0.5000002 -0.8660253 0.080501 0.278895
5.692871 52.4809 22.1162 0.8660252 -0.2500001 -0.4330131 0.080619 0.27885
9.016531 57.9238 25.6211 0.8660252 -0.2500001 -0.4330131 0.080502 0.278775
9.016531 55.3592 27.1017 0.8660252 -0.2500001 -0.4330131 0.080501 0.278895
9.016541 49.6025 17.1307 0.8660252 0.2500001 0.4330131 0.080518 0.278806
5.692871 55.0454 20.6356 0.8660252 0.2500001 0.4330131 0.08062 0.278734
5.692871 52.4809 22.1162 0.8660252 0.2500001 0.4330131 0.080619 0.27885
15.66387 52.167 15.6501 0 0.500001 0.8660249 0.080304 0.278689
9.016541 49.6025 17.1307 0 0.500001 0.8660249 0.080518 0.278806
15.66387 49.6025 17.1307 0 0.500001 0.8660249 0.080304 0.278803
16.58763 48.8025 15.7451 0.8660252 -0.2500001 -0.4330131 0.080304 0.278803
20.83505 55.0454 20.6356 0.8660252 -0.2500001 -0.4330131 0.080181 0.278728
20.83505 52.4809 22.1162 0.8660252 -0.2500001 -0.4330131 0.080182 0.278844
20.83505 52.4809 22.1162 0.8660252 0.2500001 0.4330131 0.080182 0.278844
16.58763 58.7238 27.0067 0.8660252 0.2500001 0.4330131 0.080276 0.278772
16.58763 56.1592 28.4874 0.8660252 0.2500001 0.4330131 0.080277 0.278891
16.58763 56.1592 28.4874 0 0.500001 0.8660249 0.080277 0.278891
8.092771 58.7238 27.0067 0 0.500001 0.8660249 0.080502 0.278775
8.092771 56.1592 28.4874 0 0.500001 0.8660249 0.080501 0.278895
3.84535 52.4809 22.1162 -0.8660252 0.2500001 0.4330131 0.080619 0.27885
8.092771 58.7238 27.0067 -0.8660252 0.2500001 0.4330131 0.080502 0.278775
3.84535 55.0454 20.6356 -0.8660252 0.2500001 0.4330131 0.08062 0.278734
3.84535 52.4809 22.1162 -0.8660252 -0.2500001 -0.4330131 0.080619 0.27885
8.092771 51.367 14.2645 -0.8660252 -0.2500001 -0.4330131 0.080518 0.278692
8.092771 48.8025 15.7451 -0.8660252 -0.2500001 -0.4330131 0.080518 0.278806
8.092771 48.8025 15.7451 0 -0.5000002 -0.8660253 0.080518 0.278806
16.58763 51.367 14.2645 0 -0.5000002 -0.8660253 0.080304 0.278689
16.58763 48.8025 15.7451 0 -0.5000002 -0.8660253 0.080304 0.278803
20.83505 52.4809 22.1162 0 -0.8660253 0.5000002 0.080182 0.278844
15.66387 49.6025 17.1307 0 -0.8660253 0.5000002 0.080304 0.278803
16.58763 48.8025 15.7451 0 -0.8660253 0.5000002 0.080304 0.278803
15.66387 52.167 15.6501 0 0.8660253 -0.5000002 0.080304 0.278689
20.83505 55.0454 20.6356 0 0.8660253 -0.5000002 0.080181 0.278728
16.58763 51.367 14.2645 0 0.8660253 -0.5000002 0.080304 0.278689
16.58763 56.1592 28.4874 0 -0.8660253 0.5000002 0.080277 0.278891
18.98753 52.4809 22.1162 0 -0.8660253 0.5000002 0.080182 0.278844
18.98753 55.0454 20.6356 -1e-06 0.8660253 -0.5000002 0.080181 0.278728
16.58763 58.7238 27.0067 -1e-06 0.8660253 -0.5000002 0.080276 0.278772
20.83505 55.0454 20.6356 -1e-06 0.8660253 -0.5000002 0.080181 0.278728
8.092771 56.1592 28.4874 0 -0.8660253 0.5000002 0.080501 0.278895
15.66387 55.3592 27.1017 0 -0.8660253 0.5000002 0.080277 0.278891
15.66387 57.9238 25.6211 0 0.8660256 -0.4999998 0.080276 0.278772
8.092771 58.7238 27.0067 0 0.8660256 -0.4999998 0.080502 0.278775
16.58763 58.7238 27.0067 0 0.8660256 -0.4999998 0.080276 0.278772
5.692871 52.4809 22.1162 0 -0.8660253 0.5000002 0.080619 0.27885
3.84535 52.4809 22.1162 0 -0.8660253 0.5000002 0.080619 0.27885
8.092771 58.7238 27.0067 -9.999995e-07 0.8660256 -0.4999998 0.080502 0.278775
5.692871 55.0454 20.6356 -9.999995e-07 0.8660256 -0.4999998 0.08062 0.278734
3.84535 55.0454 20.6356 -9.999995e-07 0.8660256 -0.4999998 0.08062 0.278734
8.092771 48.8025 15.7451 0 -0.8660256 0.4999998 0.080518 0.278806
5.692871 52.4809 22.1162 0 -0.8660256 0.4999998 0.080619 0.27885
3.84535 52.4809 22.1162 0 -0.8660256 0.4999998 0.080619 0.27885
5.692871 55.0454 20.6356 -1e-06 0.8660253 -0.5000002 0.08062 0.278734
8.092771 51.367 14.2645 -1e-06 0.8660253 -0.5000002 0.080518 0.278692
3.84535 55.0454 20.6356 -1e-06 0.8660253 -0.5000002 0.08062 0.278734
8.092771 48.8025 15.7451 0 -0.8660253 0.5000002 0.080518 0.278806
9.016541 52.167 15.6501 0 0.8660253 -0.5000002 0.080518 0.278692
8.092771 51.367 14.2645 0 0.8660253 -0.5000002 0.080518 0.278692
10.63606 0 49.00782 0 -0.5000002 -0.8660253 0.080457 0.279627
14.04434 38.1674 26.9718 0 -0.5000002 -0.8660253 0.080353 0.278825
14.04434 0 49.00782 0 -0.5000002 -0.8660253 0.080354 0.279625
8.931921 1.475801 51.56403 -0.8660252 -0.2500001 -0.4330131 0.080504 0.279659
10.63606 38.1674 26.9718 -0.8660252 -0.2500001 -0.4330131 0.080458 0.278827
10.63606 0 49.00782 -0.8660252 -0.2500001 -0.4330131 0.080457 0.279627
10.63606 2.951601 54.12024 -0.8660252 0.2500001 0.4330131 0.080447 0.279689
8.931921 39.6433 29.528 -0.8660252 0.2500001 0.4330131 0.080507 0.278849
8.931921 1.475801 51.56403 -0.8660252 0.2500001 0.4330131 0.080504 0.279659
14.04434 2.951601 54.12024 0 0.5000002 0.8660253 0.080342 0.279687
10.63606 41.1191 32.0842 0 0.5000002 0.8660253 0.080449 0.27887
10.63606 2.951601 54.12024 0 0.5000002 0.8660253 0.080447 0.279689
15.74848 1.475801 51.56403 0.8660252 0.2500001 0.4330131 0.080297 0.279655
14.04434 41.1191 32.0842 0.8660252 0.2500001 0.4330131 0.08034 0.278869
14.04434 2.951601 54.12024 0.8660252 0.2500001 0.4330131 0.080342 0.279687
14.04434 0 49.00782 0.8660258 -0.2499999 -0.4330119 0.080354 0.279625
15.74848 39.6433 29.528 0.8660258 -0.2499999 -0.4330119 0.080293 0.278846
15.74848 1.475801 51.56403 0.8660258 -0.2499999 -0.4330119 0.080297 0.279655
14.04434 2.951601 54.12024 0 -0.8660253 0.5000002 0.080342 0.279687
10.63606 2.951601 54.12024 0 -0.8660253 0.5000002 0.080447 0.279689
10.63606 0 49.00782 0 -0.8660253 0.5000002 0.080457 0.279627
8.092771 39.2332 21.27 0 0.8660253 -0.5000002 0.080518 0.278692
20.83505 42.9115 27.6411 0 0.8660253 -0.5000002 0.080181 0.278728
16.58763 39.2332 21.27 0 0.8660253 -0.5000002 0.080304 0.278689
20.83505 39.6433 29.528 0.8660254 -0.2499999 -0.4330127 0.080182 0.278844
16.58763 39.2332 21.27 0.8660254 -0.2499999 -0.4330127 0.080304 0.278689
20.83505 42.9115 27.6411 0.8660254 -0.2499999 -0.4330127 0.080181 0.278728
16.58763 43.3216 35.8992 0.8660252 0.2500001 0.4330131 0.080277 0.278891
20.83505 42.9115 27.6411 0.8660252 0.2500001 0.4330131 0.080181 0.278728
16.58763 46.5899 34.0122 0.8660252 0.2500001 0.4330131 0.080276 0.278772
16.58763 43.3216 35.8992 0 0.5000002 0.8660253 0.080277 0.278891
8.092771 46.5899 34.0122 0 0.5000002 0.8660253 0.080502 0.278775
8.092771 43.3216 35.8992 0 0.5000002 0.8660253 0.080501 0.278895
8.092771 43.3216 35.8992 -0.8660252 0.2500001 0.4330131 0.080501 0.278895
3.84535 42.9115 27.6411 -0.8660252 0.2500001 0.4330131 0.08062 0.278734
3.84535 39.6433 29.528 -0.8660252 0.2500001 0.4330131 0.080619 0.27885
3.84535 39.6433 29.528 -0.8660252 -0.2500001 -0.4330131 0.080619 0.27885
8.092771 39.2332 21.27 -0.8660252 -0.2500001 -0.4330131 0.080518 0.278692
8.092771 35.96488 23.1569 -0.8660252 -0.2500001 -0.4330131 0.080518 0.278806
8.092771 35.96488 23.1569 0 -0.5000002 -0.8660253 0.080518 0.278806
16.58763 39.2332 21.27 0 -0.5000002 -0.8660253 0.080304 0.278689
16.58763 35.96488 23.1569 0 -0.5000002 -0.8660253 0.080304 0.278803
15.74848 39.6433 29.528 0 -0.8660253 0.5000002 0.080293 0.278846
16.58763 35.96488 23.1569 0 -0.8660253 0.5000002 0.080304 0.278803
20.83505 39.6433 29.528 0 -0.8660253 0.5000002 0.080182 0.278844
16.58763 43.3216 35.8992 0 -0.8660253 0.5000002 0.080277 0.278891
14.04434 41.1191 32.0842 0 -0.8660253 0.5000002 0.08034 0.278869
10.63606 41.1191 32.0842 0 -0.8660253 0.5000002 0.080449 0.27887
8.092771 43.3216 35.8992 0 -0.8660253 0.5000002 0.080501 0.278895
8.931921 39.6433 29.528 0 -0.8660253 0.5000002 0.080507 0.278849
3.84535 39.6433 29.528 0 -0.8660253 0.5000002 0.080619 0.27885
8.092771 35.96488 23.1569 0 -0.8660253 0.5000002 0.080518 0.278806
10.63606 38.1674 26.9718 0 -0.8660253 0.5000002 0.080458 0.278827
14.04434 38.1674 26.9718 0 -0.8660253 0.5000002 0.080353 0.278825
8.092771 46.5899 34.0122 0 0.8660253 -0.5000002 0.080502 0.278775
16.58763 46.5899 34.0122 0 0.8660253 -0.5000002 0.080276 0.278772
10.42834 50.8308 12.4082 -0 -0.5000002 -0.8660253 0.079785 0.280667
10.42834 67.2836 1.467598 0 0.7802138 -0.6255128 0.079762 0.280151
10.42834 34.71204 23.8802 0 0.5000002 0.8660253 0.07985 0.281104
10.42834 33.7742 22.2558 0 -0.8660249 0.500001 0.079792 0.281112
10.42834 51.7687 14.0326 -1 0 0 0.079846 0.280662
10.42834 66.107 0 -0 -0.6304798 -0.7762057 0.079698 0.28016
14.25206 67.2836 1.467598 0 0.6293572 0.7771162 0.079802 0.280159
14.25206 66.107 0 1 0 0 0.079736 0.280169
21.76269 69.4312 12.3299 -0.8631322 0.3198951 0.3907301 0.080181 0.278728
17.05145 73.5113 19.3968 -0.863132 -0.178434 -0.472403 0.080276 0.278772
7.628951 73.5113 19.3968 0 -0.427598 -0.903969 0.080502 0.278775
17.05145 73.5113 19.3968 0 -0.427598 -0.903969 0.080276 0.278772
16.91134 70.8254 20.6673 0 -0.427598 -0.903969 0.080277 0.278891
7.628951 73.5113 19.3968 0.8631324 -0.1784341 -0.4724022 0.080502 0.278775
7.769061 62.9079 6.953899 0.8631319 0.319896 0.3907299 0.080518 0.278806
7.628961 65.3512 5.2631 0.8631319 0.319896 0.3907299 0.080518 0.278692
2.91771 69.4312 12.3299 0.8631319 0.319896 0.3907299 0.08062 0.278734
7.628961 65.3512 5.2631 0 0.5690606 0.8222955 0.080518 0.278692
18.03769 64.497 3.783699 0.8618039 -0.334187 -0.3815929 0.080304 0.278689
23.7352 69.4312 12.3299 0.8618038 0.163376 0.4802109 0.080181 0.278728
18.03768 74.3654 20.8762 0 0.4121569 0.9111129 0.080276 0.278772
6.64271 74.3654 20.8762 -0.8618038 0.163376 0.4802109 0.080502 0.278775
0.9452 69.4312 12.3299 -0.8618039 -0.334187 -0.3815929 0.08062 0.278734
6.64272 64.497 3.783699 -0 -0.5829681 -0.8124951 0.080518 0.278692
21.48248 66.8667 13.8106 0 -0.8660256 0.4999998 0.080182 0.278844
16.91134 62.9079 6.953899 0 -0.8660256 0.4999998 0.080304 0.278803
17.86826 62.0792 5.518497 0 -0.8660256 0.4999998 0.080304 0.278803
18.03769 64.497 3.783699 1e-06 0.8660253 -0.5000002 0.080304 0.278689
17.05145 65.3512 5.2631 1e-06 0.8660253 -0.5000002 0.080304 0.278689
21.76269 69.4312 12.3299 1e-06 0.8660253 -0.5000002 0.080181 0.278728
17.86825 71.6541 22.1027 -1e-06 -0.8660253 0.5000002 0.080277 0.278891
16.91134 70.8254 20.6673 -1e-06 -0.8660253 0.5000002 0.080277 0.278891
21.48248 66.8667 13.8106 -1e-06 -0.8660253 0.5000002 0.080182 0.278844
17.05145 73.5113 19.3968 -9.999999e-07 0.8660249 -0.500001 0.080276 0.278772
6.81215 71.6541 22.1027 0 -0.8660256 0.4999998 0.080501 0.278895
7.769061 70.8254 20.6673 0 -0.8660256 0.4999998 0.080501 0.278895
16.91134 70.8254 20.6673 0 -0.8660256 0.4999998 0.080277 0.278891
17.05145 73.5113 19.3968 0 0.8660264 -0.4999982 0.080276 0.278772
7.628951 73.5113 19.3968 0 0.8660264 -0.4999982 0.080502 0.278775
6.64271 74.3654 20.8762 0 0.8660264 -0.4999982 0.080502 0.278775
3.197921 66.8667 13.8106 9.999995e-07 -0.8660256 0.4999998 0.080619 0.27885
7.769061 70.8254 20.6673 9.999995e-07 -0.8660256 0.4999998 0.080501 0.278895
6.81215 71.6541 22.1027 9.999995e-07 -0.8660256 0.4999998 0.080501 0.278895
6.64271 74.3654 20.8762 -2e-06 0.866026 -0.499999 0.080502 0.278775
7.628951 73.5113 19.3968 -2e-06 0.866026 -0.499999 0.080502 0.278775
2.91771 69.4312 12.3299 -2e-06 0.866026 -0.499999 0.08062 0.278734
6.81215 62.0792 5.518497 -9.999995e-07 -0.8660256 0.4999998 0.080518 0.278806
7.769061 62.9079 6.953899 -9.999995e-07 -0.8660256 0.4999998 0.080518 0.278806
3.197921 66.8667 13.8106 -9.999995e-07 -0.8660256 0.4999998 0.080619 0.27885
2.91771 69.4312 12.3299 -9.999999e-07 0.8660249 -0.500001 0.08062 0.278734
7.628961 65.3512 5.2631 -9.999999e-07 0.8660249 -0.500001 0.080518 0.278692
6.64272 64.497 3.783699 -9.999999e-07 0.8660249 -0.500001 0.080518 0.278692
16.91134 62.9079 6.953899 0 -0.866026 0.499999 0.080304 0.278803
17.05145 65.3512 5.2631 0 0.8660249 -0.500001 0.080304 0.278689
21.57264 54.4911 18.748 1 0 0 0.079785 0.280667
24.6804 71.3212 9.031097 0.151603 0.8560152 -0.4942211 0.079698 0.28016
19.69695 54.4911 18.748 -1 0 0 0.079846 0.280662
21.57264 37.4345 28.5956 0 -0.8660256 0.4999998 0.079792 0.281112
19.69695 54.4911 18.748 -0 -0.5000002 -0.8660253 0.079846 0.280662
21.57264 54.4911 18.748 0.9874538 -0.136753 0.07895397 0.079785 0.280667
22.8211 73.48 12.2 -0.9876811 0.135516 -0.07824001 0.079802 0.280159
24.6804 73.233 12.3426 0 0.5000002 0.8660253 0.079736 0.280169
14.25206 60.0633 28.3992 0 0.5000002 0.8660253 0.079785 0.280667
14.25206 77.7645 19.621 0 0.9318169 -0.362929 0.079762 0.280151
14.25206 42.0688 36.6225 0 -0.5000002 -0.8660253 0.07985 0.281104
14.25206 43.0066 38.2469 0 -0.8660256 0.4999998 0.079792 0.281112
14.25206 42.0688 36.6225 1 0 0 0.07985 0.281104
14.25206 78.4472 21.3738 0 0.3569741 0.9341143 0.079698 0.28016
10.42834 77.7645 19.621 -0 -0.3583241 -0.9335973 0.079802 0.280159
10.42834 78.4472 21.3738 -1 0 0 0.079736 0.280169
5.956191 27.46606 37.3773 0 1 0 0.08062 0.278734
15.5322 27.46606 31.8486 0.8660253 0 -0.5000002 0.080304 0.278689
18.72421 27.46606 37.3773 0.8474089 0 0.5309409 0.080181 0.278728
15.26021 27.46606 56.71024 0 0 1 0.080276 0.278772
9.42018 27.46606 42.906 -0.8474089 0 0.5309409 0.080502 0.278775
5.956191 27.46606 37.3773 -0.8660253 -0 -0.5000002 0.08062 0.278734
9.148201 27.46606 31.8486 -0 -0 -1 0.080518 0.278692
15.5322 24.62992 31.8486 0 -1 0 0.080304 0.278803
15.26021 24.62993 56.71024 0 -1 0 0.080277 0.278891
15.26021 27.46606 56.71024 1 0 0 0.080276 0.278772
9.42018 27.46606 56.71024 0 1 0 0.080502 0.278775
9.42018 24.62993 56.71024 -1 0 0 0.080501 0.278895
3.10776 56.403 22.0594 -1 0 0 0.079785 0.280667
1.859301 73.48 12.2 -0.151603 0.8560152 -0.4942211 0.079762 0.280151
4.98345 39.3464 31.9071 1 0 0 0.07985 0.281104
3.10776 39.3464 31.9071 0 -0.8660256 0.4999998 0.079792 0.281112
4.98345 56.403 22.0594 0 0.5000002 0.8660253 0.079846 0.280662
0 73.233 12.3426 -0.9874538 -0.136753 0.07895397 0.079698 0.28016
1.859301 71.5682 8.888599 0.9876811 0.135516 -0.07824001 0.079802 0.280159
0 71.3212 9.031097 0 -0.5000002 -0.8660253 0.079736 0.280169
18.98753 55.0454 20.6356 -0.8660258 0.2499999 0.4330119 0.080181 0.278728
15.66387 52.167 15.6501 -0.8660258 0.2499999 0.4330119 0.080304 0.278689
15.66387 49.6025 17.1307 -0.8660258 0.2499999 0.4330119 0.080304 0.278803
15.66387 55.3592 27.1017 -0.866025 -0.250001 -0.433013 0.080277 0.278891
15.66387 57.9238 25.6211 -0.866025 -0.250001 -0.433013 0.080276 0.278772
18.98753 55.0454 20.6356 -0.866025 -0.250001 -0.433013 0.080181 0.278728
9.016531 57.9238 25.6211 -0 -0.500001 -0.8660249 0.080502 0.278775
15.66387 57.9238 25.6211 -0 -0.500001 -0.8660249 0.080276 0.278772
15.66387 55.3592 27.1017 -0 -0.500001 -0.8660249 0.080277 0.278891
5.692871 55.0454 20.6356 0.8660252 -0.2500001 -0.4330131 0.08062 0.278734
9.016541 49.6025 17.1307 0.866025 0.250001 0.433013 0.080518 0.278806
9.016541 52.167 15.6501 0.866025 0.250001 0.433013 0.080518 0.278692
5.692871 55.0454 20.6356 0.866025 0.250001 0.433013 0.08062 0.278734
9.016541 52.167 15.6501 0 0.500001 0.8660249 0.080518 0.278692
16.58763 51.367 14.2645 0.8660252 -0.2500001 -0.4330131 0.080304 0.278689
20.83505 55.0454 20.6356 0.8660252 0.2500001 0.4330131 0.080181 0.278728
16.58763 56.1592 28.4874 0 0.5000002 0.8660253 0.080277 0.278891
16.58763 58.7238 27.0067 0 0.5000002 0.8660253 0.080276 0.278772
8.092771 58.7238 27.0067 0 0.5000002 0.8660253 0.080502 0.278775
8.092771 56.1592 28.4874 -0.8660252 0.2500001 0.4330131 0.080501 0.278895
3.84535 55.0454 20.6356 -0.8660252 -0.2500001 -0.4330131 0.08062 0.278734
8.092771 51.367 14.2645 -0 -0.5000002 -0.8660253 0.080518 0.278692
15.66387 52.167 15.6501 -9.999995e-07 0.8660256 -0.4999998 0.080304 0.278689
18.98753 55.0454 20.6356 -9.999995e-07 0.8660256 -0.4999998 0.080181 0.278728
20.83505 55.0454 20.6356 -9.999995e-07 0.8660256 -0.4999998 0.080181 0.278728
18.98753 55.0454 20.6356 1e-06 0.8660253 -0.5000002 0.080181 0.278728
15.66387 57.9238 25.6211 1e-06 0.8660253 -0.5000002 0.080276 0.278772
16.58763 58.7238 27.0067 1e-06 0.8660253 -0.5000002 0.080276 0.278772
9.016531 55.3592 27.1017 0 -0.8660253 0.5000002 0.080501 0.278895
15.66387 57.9238 25.6211 0 0.8660253 -0.5000002 0.080276 0.278772
9.016531 57.9238 25.6211 0 0.8660253 -0.5000002 0.080502 0.278775
8.092771 58.7238 27.0067 0 0.8660253 -0.5000002 0.080502 0.278775
5.692871 55.0454 20.6356 0 0.8660253 -0.5000002 0.08062 0.278734
9.016541 49.6025 17.1307 0 -0.8660253 0.5000002 0.080518 0.278806
10.63606 38.1674 26.9718 -0 -0.5000002 -0.8660253 0.080458 0.278827
8.931921 39.6433 29.528 -0.8660252 -0.2500001 -0.4330131 0.080507 0.278849
10.63606 41.1191 32.0842 -0.8660252 0.2500001 0.4330131 0.080449 0.27887
14.04434 41.1191 32.0842 0 0.5000002 0.8660253 0.08034 0.278869
15.74848 39.6433 29.528 0.8660252 0.2500001 0.4330131 0.080293 0.278846
14.04434 38.1674 26.9718 0.8660258 -0.2499999 -0.4330119 0.080353 0.278825
14.04434 0 49.00782 0 -0.8660253 0.5000002 0.080354 0.279625
15.74848 1.475801 51.56403 0 -0.8660253 0.5000002 0.080297 0.279655
8.931921 1.475801 51.56403 0 -0.8660253 0.5000002 0.080504 0.279659
3.84535 42.9115 27.6411 0 0.8660253 -0.5000002 0.08062 0.278734
20.83505 39.6433 29.528 0.8660252 -0.2500001 -0.4330131 0.080182 0.278844
16.58763 35.96488 23.1569 0.8660252 -0.2500001 -0.4330131 0.080304 0.278803
16.58763 39.2332 21.27 0.8660252 -0.2500001 -0.4330131 0.080304 0.278689
20.83505 39.6433 29.528 0.8660252 0.2500001 0.4330131 0.080182 0.278844
16.58763 46.5899 34.0122 0 0.5000002 0.8660253 0.080276 0.278772
8.092771 46.5899 34.0122 -0.8660252 0.2500001 0.4330131 0.080502 0.278775
3.84535 42.9115 27.6411 -0.8660252 -0.2500001 -0.4330131 0.08062 0.278734
8.092771 39.2332 21.27 -0 -0.5000002 -0.8660253 0.080518 0.278692
14.04434 38.1674 26.9718 0 -0.8660256 0.4999998 0.080353 0.278825
10.63606 38.1674 26.9718 0 -0.8660256 0.4999998 0.080458 0.278827
8.092771 35.96488 23.1569 0 -0.8660256 0.4999998 0.080518 0.278806
3 0 1 2 
3 3 4 5 
3 6 7 8 
3 9 10 11 
3 12 13 14 
3 15 16 17 
3 18 19 20 
3 13 21 22 
3 23 24 25 
3 26 27 16 
3 28 29 30 
3 31 32 33 
3 34 35 36 
3 37 38 39 
3 40 41 42 
3 43 44 45 
3 46 47 48 
3 49 50 51 
3 52 53 54 
3 55 56 57 
3 58 59 60 
3 61 62 63 
3 64 65 66 
3 67 68 69 
3 70 71 72 
3 73 74 75 
3 76 77 78 
3 79 80 81 
3 82 83 84 
3 85 86 87 
3 88 82 84 
3 86 89 87 
3 90 91 92 
3 93 94 95 
3 96 97 98 
3 99 100 101 
3 102 103 104 
3 105 106 107 
3 108 109 110 
3 111 112 113 
3 114 115 116 
3 109 117 118 
3 119 120 121 
3 122 123 112 
3 124 125 126 
3 127 128 129 
3 130 131 132 
3 133 134 135 
3 136 137 138 
3 139 140 141 
3 142 143 144 
3 138 145 146 
3 147 148 149 
3 150 151 140 
3 152 153 154 
3 155 156 157 
3 158 159 160 
3 161 162 163 
3 164 165 166 
3 167 168 169 
3 170 171 172 
3 173 174 175 
3 176 174 177 
3 153 178 179 
3 177 180 176 
3 181 182 183 
3 178 184 179 
3 185 186 187 
3 188 189 190 
3 191 192 193 
3 194 195 196 
3 197 198 199 
3 200 201 202 
3 203 204 205 
3 206 207 208 
3 201 209 210 
3 211 212 213 
3 214 215 204 
3 216 217 218 
3 219 220 221 
3 222 223 224 
3 225 226 227 
3 228 229 230 
3 231 232 233 
3 234 235 236 
3 237 238 239 
3 240 241 242 
3 243 244 245 
3 246 247 248 
3 249 250 251 
3 252 253 254 
3 255 256 257 
3 258 259 252 
3 260 261 262 
3 263 264 258 
3 265 266 267 
3 268 263 269 
3 270 271 272 
3 273 274 275 
3 276 277 278 
3 253 279 254 
3 280 257 281 
3 282 283 284 
3 285 286 287 
3 288 289 290 
3 291 292 293 
3 294 295 296 
3 297 298 299 
3 300 301 302 
3 303 304 305 
3 306 307 308 
3 309 310 311 
3 312 313 314 
3 315 316 317 
3 318 319 320 
3 321 322 323 
3 324 325 326 
3 324 327 328 
3 329 327 330 
3 331 330 332 
3 331 333 334 
3 335 333 325 
3 304 336 337 
3 0 338 1 
3 3 339 4 
3 6 340 7 
3 9 341 10 
3 12 342 13 
3 15 26 16 
3 18 343 19 
3 13 342 21 
3 23 344 24 
3 26 345 27 
3 28 346 29 
3 31 347 32 
3 348 349 350 
3 37 351 38 
3 352 353 354 
3 43 355 44 
3 46 356 47 
3 49 357 50 
3 52 358 53 
3 55 359 56 
3 58 360 59 
3 61 361 62 
3 362 363 364 
3 365 366 367 
3 368 369 370 
3 73 371 74 
3 372 373 374 
3 375 376 377 
3 378 379 380 
3 381 382 383 
3 384 385 386 
3 387 388 389 
3 90 390 91 
3 93 391 94 
3 96 392 97 
3 99 393 100 
3 102 394 103 
3 105 395 106 
3 108 396 109 
3 111 122 112 
3 114 397 115 
3 109 396 117 
3 119 398 120 
3 122 399 123 
3 124 400 125 
3 127 401 128 
3 130 402 131 
3 133 403 134 
3 136 404 137 
3 139 150 140 
3 142 405 143 
3 138 137 145 
3 147 406 148 
3 150 407 151 
3 152 408 153 
3 155 409 156 
3 158 410 159 
3 161 411 162 
3 164 412 165 
3 167 413 168 
3 170 414 171 
3 173 415 174 
3 176 175 174 
3 153 408 178 
3 177 416 180 
3 181 417 182 
3 178 418 184 
3 185 419 186 
3 188 420 189 
3 191 421 192 
3 194 422 195 
3 197 423 198 
3 200 424 201 
3 203 214 204 
3 206 425 207 
3 201 424 209 
3 211 426 212 
3 214 427 215 
3 428 429 430 
3 431 432 433 
3 434 435 436 
3 225 437 226 
3 438 439 440 
3 231 441 232 
3 234 442 235 
3 237 443 238 
3 444 445 446 
3 243 447 244 
3 246 448 247 
3 249 449 250 
3 252 259 253 
3 450 451 452 
3 258 264 259 
3 453 454 455 
3 263 456 264 
3 457 458 459 
3 268 456 263 
3 459 458 460 
3 279 461 268 
3 460 280 281 
3 253 461 279 
3 280 255 257 
3 282 462 283 
3 285 463 286 
3 288 464 289 
3 291 465 292 
3 294 466 295 
3 297 467 298 
3 302 468 469 
3 469 300 302 
3 301 470 302 
3 303 471 304 
3 472 473 474 
3 309 475 310 
3 312 476 313 
3 315 477 316 
3 318 478 319 
3 321 479 322 
3 324 335 325 
3 324 326 327 
3 329 328 327 
3 331 329 330 
3 331 332 333 
3 480 481 482 
3 304 471 336 
