ply
format ascii 1.0
comment VCGLIB generated
comment TextureFile NvF5e.jpg
element vertex 554
property float x
property float y
property float z
property float nx
property float ny
property float nz
property uchar red
property uchar green
property uchar blue
property uchar alpha
property float texture_u
property float texture_v
element face 1024
property list uchar int vertex_indices
end_header
-128 -0 128 0 1 0 200 200 200 255 1 0
-110.9375 -0 128 0 1 0 200 200 200 255 1 0.06665039
-116.8926 -0 120.5518 0 1 0 200 200 200 255 0.9709053 0.04338837
-104.8203 -0 124.9961 0 1 0 200 200 200 255 0.988266 0.09054565
-95.37498 -0 128 -0 1 0 200 200 200 255 1 0.1274415
-95.83592 -0 123.5156 -0 1 0 200 200 200 255 0.9824829 0.1256409
-83.48631 -0 122.4961 0 1 0 200 200 200 255 0.9785004 0.1738816
-84.43748 -0 128 0 1 0 200 200 200 255 1 0.1701661
-73.65623 -0 128 -0 1 0 200 200 200 255 1 0.2122804
-69.19139 -0 124.8984 -0 1 -0 200 200 200 255 0.9878845 0.2297211
-61.5 -0 128 -0 1 -0 200 200 200 255 1 0.2597656
-56.36816 0 120.4131 -0 1 -0 200 200 200 255 0.9703636 0.2798119
-48.71875 0 128 -0 1 -0 200 200 200 255 1 0.3096924
-47.76367 0 124.8867 -0 1 -0 200 200 200 255 0.9878387 0.3134232
-34.375 0 128 -0 1 -0 200 200 200 255 1 0.3657227
-32.92041 0 123.3643 -0 1 0 200 200 200 255 0.9818916 0.3714046
-21.4375 0 128 0 1 0 200 200 200 255 1 0.4162598
-21.10156 0 124.4531 0 1 0 200 200 200 255 0.986145 0.417572
-8.875 0 128 0 1 0 200 200 200 255 1 0.465332
-8.474609 0 122.249 0 1 0 200 200 200 255 0.9775352 0.4668961
2.230452 0 124.832 0 1 0 200 200 200 255 0.9876251 0.5087127
4.062481 0 128 0 1 0 200 200 200 255 1 0.5158691
12.49412 -0 121.5742 0 1 0 200 200 200 255 0.9748993 0.5488052
17.24998 -0 128 0 1 0 200 200 200 255 1 0.5673828
25.18064 -0 123.332 0 1 0 200 200 200 255 0.9817657 0.5983619
27.93748 -0 128 0 1 0 200 200 200 255 1 0.6091308
38.12498 -0 128 -0 1 0 200 200 200 255 1 0.6489257
40.78514 -0 123.2012 -0 1 0 200 200 200 255 0.9812546 0.659317
48.68748 0 128 -0 1 -0 200 200 200 255 1 0.6901855
50.16014 0 120.5127 -0 1 0 200 200 200 255 0.9707527 0.6959381
58.49998 0 128 -0 1 0 200 200 200 255 1 0.7285156
64.84397 0 121.5532 0 1 -0 200 200 200 255 0.9748173 0.7532967
69.12498 -0 128 0 1 0 200 200 200 255 1 0.7700194
77.02341 -0 122.9688 0 1 0 200 200 200 255 0.9803467 0.8008727
84.87498 -0 128 0 1 -0 200 200 200 255 1 0.8315428
87.61423 -0 119.0723 -0 1 0 200 200 200 255 0.965126 0.8422431
100.5039 -0 123.374 -0 1 0 200 200 200 255 0.9819298 0.8925934
100.5312 -0 128 -0 1 0 200 200 200 255 1 0.8927001
113.3789 -0 123.125 0 1 0 200 200 200 255 0.980957 0.9428864
115 -0 128 0 1 0 200 200 200 255 1 0.9492188
128 -0 128 0 1 0 200 200 200 255 1 1
-73.64256 -0 116.7188 -0 1 0 200 200 200 255 0.9559326 0.2123338
-88.40232 -0 112.9448 0 1 0 200 200 200 255 0.9411907 0.1546784
-23.70898 0 115.4209 0 1 0 200 200 200 255 0.9508629 0.4073868
1.371081 0 109.9961 0 1 0 200 200 200 255 0.9296722 0.5053558
32.88084 -0 116.5742 -0 1 0 200 200 200 255 0.955368 0.6284408
108.6592 -0 112.8535 0 1 0 200 200 200 255 0.940834 0.9244499
-128 -0 117.625 0 1 0 200 200 200 255 0.9594727 0
128 -0 118.6875 0 1 0 200 200 200 255 0.963623 1
121.0137 -0 115.1309 0 1 0 200 200 200 255 0.9497299 0.9727097
-102.3906 -0 115.2793 -0 1 0 200 200 200 255 0.9503098 0.1000367
-40.49902 0 114.3613 -0 1 0 200 200 200 255 0.9467239 0.3418007
19.70018 0 112.5918 0 1 0 200 200 200 255 0.9398117 0.5769538
-63.33007 0 111.8564 -0 1 0 200 200 200 255 0.9369392 0.2526169
40.70311 0 108.7988 -0 1 0 200 200 200 255 0.9249954 0.6589965
76.38865 0 109.1465 -0 1 0 200 200 200 255 0.9263535 0.7983931
-122.1543 0 110.6895 0 1 0 200 200 200 255 0.9323807 0.02283478
55.1992 0 109.0654 0 1 0 200 200 200 255 0.9260368 0.7156219
-128 0 108.875 0 1 0 200 200 200 255 0.925293 0
-110.7949 0 105.8281 0 1 0 200 200 200 255 0.9133911 0.06720734
-51.75195 0 106.9219 -0 1 -0 200 200 200 255 0.9176636 0.2978439
-9.458984 0 108.3438 0 1 0 200 200 200 255 0.9232178 0.4630508
67.77097 0 105.4229 0 1 0 200 200 200 255 0.911808 0.7647303
97.49608 -0 107.9014 -0 1 0 200 200 200 255 0.9214897 0.8808441
128 -0 109.1875 0 1 0 200 200 200 255 0.9265137 1
-97.49608 0 106.5898 -0 1 0 200 200 200 255 0.9163666 0.1191559
-35.61035 0 102.6602 -0 1 -0 200 200 200 255 0.9010162 0.3608971
-20.62451 0 104.9229 -0 1 -0 200 200 200 255 0.9098549 0.4194355
120.6074 -0 101.2412 0 1 -0 200 200 200 255 0.8954735 0.9711227
32.78318 0 102.0859 0 1 0 200 200 200 255 0.8987732 0.6280593
88.19334 0 104.2969 0 1 0 200 200 200 255 0.9074097 0.8445052
-73.83201 0 105.918 -0 1 0 200 200 200 255 0.9137421 0.2115937
11.41599 0 99.58301 0 1 0 200 200 200 255 0.8889961 0.5445938
-121.5625 0 99.77246 0 1 0 200 200 200 255 0.8897362 0.02514648
-103.8867 0 97.77734 0 1 0 200 200 200 255 0.8819427 0.0941925
-86.82029 0 100.0352 0 1 0 200 200 200 255 0.8907623 0.1608582
81.15818 0 96.71094 -0 1 -0 200 200 200 255 0.8777771 0.8170241
-66.52342 0 95.16016 -0 1 0 200 200 200 255 0.8717194 0.2401429
44.08885 0 98.76562 -0 1 0 200 200 200 255 0.8858032 0.6722221
109.5234 -0 95.54297 0 1 -0 200 200 200 255 0.8732147 0.9278259
-78.47654 0 94.93164 0 1 0 200 200 200 255 0.8708267 0.193451
-57.97656 0 96.84375 0 1 0 200 200 200 255 0.8782959 0.2735291
-11.74219 0 97.30859 0 1 0 200 200 200 255 0.8801117 0.4541321
56.49998 0 95.3833 0 1 0 200 200 200 255 0.872591 0.720703
128 -0 93.6875 0 1 -0 200 200 200 255 0.8659668 1
-128 0 96.25 -0 1 -0 200 200 200 255 0.8759766 0
27.44334 0 94.74609 -0 1 0 200 200 200 255 0.8701019 0.6072006
-48.75586 0 96.2207 0 1 -0 200 200 200 255 0.8758621 0.3095474
-2.718754 0 93.83693 -0 1 0 200 200 200 255 0.8665505 0.4893799
71.33006 0 91.00781 0 1 -0 200 200 200 255 0.8554993 0.778633
98.22069 -0 93.20508 0 1 -0 200 200 200 255 0.8640823 0.8836746
-22.86914 0 96.01172 -0 1 -0 200 200 200 255 0.8750458 0.4106674
-114.0762 0 89.89941 0 1 0 200 200 200 255 0.8511696 0.05438995
-40.86523 0 88.6543 -0 1 -0 200 200 200 255 0.8463058 0.3403702
-30.29297 0 88.41602 -0 1 -0 200 200 200 255 0.8453751 0.3816681
20.50193 0 88.06543 0 1 0 200 200 200 255 0.8440056 0.5800857
-124.4102 -0 86.28906 -0 1 -0 200 200 200 255 0.8370667 0.01402283
-89.33006 0 86.3252 0 1 0 200 200 200 255 0.8372078 0.1510545
-53.38379 0 86.21094 0 1 0 200 200 200 255 0.8367615 0.2914696
-15.75684 0 84.93359 -0 1 -0 200 200 200 255 0.8317719 0.4384499
10.12303 0 86.16406 0 1 0 200 200 200 255 0.8365784 0.5395431
92.43407 0 84.63672 0 1 0 200 200 200 255 0.8306122 0.8610706
36.8452 0 83.6543 -0 1 0 200 200 200 255 0.8267746 0.6439266
121.8555 -0 81.6499 0 1 -0 200 200 200 255 0.8189449 0.9759979
-67.55125 0 84.95117 -0 1 0 200 200 200 255 0.8318405 0.2361279
48.50779 0 84.5 0 1 0 200 200 200 255 0.8300781 0.6894836
-102.25 0 81.91016 -0 1 -0 200 200 200 255 0.8199615 0.100586
80.49412 -0 84.05469 0 1 -0 200 200 200 255 0.8283386 0.8144301
110.1016 -0 84.31543 0 1 -0 200 200 200 255 0.8293571 0.9300842
-128 -0 81.71875 -0 1 -0 200 200 200 255 0.8192139 0
-77.34373 0 79.49609 -0 1 0 200 200 200 255 0.8105316 0.1978761
62.00388 0 82.64258 0 1 -0 200 200 200 255 0.8228226 0.7422026
-29.09961 0 76.24609 -0 1 -0 200 200 200 255 0.7978363 0.3863297
-5.155273 0 80.44482 -0 1 -0 200 200 200 255 0.8142376 0.4798622
128 -0 80.5625 0 1 -0 200 200 200 255 0.8146973 1
-57.26221 0 75.20312 0 1 0 200 200 200 255 0.7937622 0.2763195
69.49998 -0 76.80469 0 1 -0 200 200 200 255 0.8000183 0.7714843
-115.3008 0 79.78125 -0 1 -0 200 200 200 255 0.8116455 0.04960632
-43.36401 0 70.77051 0 1 0 200 200 200 255 0.7764473 0.3306093
3.433575 0 74.50783 -0 1 -0 200 200 200 255 0.7910462 0.5134124
23.916 0 77.16699 0 1 0 200 200 200 255 0.8014336 0.5934219
-86.91599 0 74.34766 -0 1 -0 200 200 200 255 0.7904205 0.1604844
12.51365 0 75.20314 0 1 0 200 200 200 255 0.7937623 0.5488815
78.74607 -0 73.66016 -0 1 0 200 200 200 255 0.787735 0.8076018
111.0547 -0 74.21777 0 1 -0 200 200 200 255 0.7899132 0.9338074
-122.6738 -0 72.13867 -0 1 -0 200 200 200 255 0.7817917 0.02080536
45.78514 0 75.31445 0 1 -0 200 200 200 255 0.7941971 0.6788482
101.5293 -0 75.24609 0 1 -0 200 200 200 255 0.7939301 0.8965988
55.53709 -0 68.50781 0 1 -0 200 200 200 255 0.7676086 0.7169418
-108.709 -0 72.16602 -0 1 -0 200 200 200 255 0.7818985 0.07535553
33.63084 0 69.64746 0 1 -0 200 200 200 255 0.7720604 0.6313705
-20.42188 0 73.49609 -0 1 -0 200 200 200 255 0.7870941 0.4202271
-14.15137 0 67.36328 -0 1 -0 200 200 200 255 0.7631378 0.4447212
128 -0 69.65625 0 1 -0 200 200 200 255 0.7720947 1
-128 -0 70.6875 -0 1 -0 200 200 200 255 0.776123 0
-99.56639 -0 71.91016 -0 1 -0 200 200 200 255 0.780899 0.1110688
-76.68162 -0 66.68164 -0 1 -0 200 200 200 255 0.7604752 0.2004624
90.16209 0 70.05859 0 1 -0 200 200 200 255 0.7736664 0.8521956
42.8076 0 65.69141 0 1 -0 200 200 200 255 0.7566071 0.6672172
65.23826 -0 65.61328 -0 1 -0 200 200 200 255 0.7563019 0.7548369
108.5977 -0 65.73633 0 1 0 200 200 200 255 0.7567825 0.9242096
123.5806 -0 63.47339 -0 1 -0 200 200 200 255 0.7479429 0.9827366
-90.72263 -0 65.80859 -0 1 -0 200 200 200 255 0.7570648 0.1456147
-25.16406 0 64.61328 -0 1 0 200 200 200 255 0.7523956 0.4017029
22.1992 0 63.49415 0 1 0 200 200 200 255 0.748024 0.5867156
80.31272 -0 60.25098 -0 1 -0 200 200 200 255 0.7353554 0.8137215
-1.695316 0 64.75 -0 1 0 200 200 200 255 0.7529297 0.4933777
9.186502 0 63.93556 -0 1 0 200 200 200 255 0.7497483 0.5358848
99.36913 -0 61.42969 0 1 0 200 200 200 255 0.7399597 0.8881606
-111.3125 -0 63.54688 -0 1 -0 200 200 200 255 0.74823 0.06518555
-68.31248 0 64.24219 -0 1 -0 200 200 200 255 0.750946 0.2331544
-124.4648 -0 61.42188 -0 1 -0 200 200 200 255 0.7399292 0.0138092
-55.55859 0 65.0625 0 1 0 200 200 200 255 0.7541504 0.2829742
-35.22168 0 57.28223 0 1 0 200 200 200 255 0.7237587 0.3624153
-128 -0 59.8125 -0 1 -0 200 200 200 255 0.7336426 0
-98.14647 -0 59.31445 -0 1 -0 200 200 200 255 0.7316971 0.1166154
90.78513 -0 57.25879 -0 1 -0 200 200 200 255 0.7236671 0.8546294
-64.15624 -0 56.3418 -0 1 -0 200 200 200 255 0.7200851 0.2493897
-48.44727 0 56.0752 0 1 0 200 200 200 255 0.7190437 0.3107529
-2.630864 0 53.23828 -0 1 0 200 200 200 255 0.707962 0.4897232
30.48045 0 52.47363 0 1 -0 200 200 200 255 0.7049751 0.6190643
68.21482 -0 55.80273 0 1 -0 200 200 200 255 0.7179794 0.7664641
46.70115 0 55.15527 0 1 -0 200 200 200 255 0.7154503 0.6824264
-88.17869 -0 55.31055 -0 1 -0 200 200 200 255 0.7160568 0.155552
-21.68164 0 56.29297 -0 1 0 200 200 200 255 0.7198944 0.4153061
59.3906 -0 57.17969 0 1 -0 200 200 200 255 0.7233582 0.7319945
128 -0 56.5 0 1 -0 200 200 200 255 0.7207031 1
-74.99607 -0 52.99219 -0 1 -0 200 200 200 255 0.7070007 0.2070466
-13.60156 0 53.06934 -0 1 0 200 200 200 255 0.7073021 0.4468689
7.085915 0 53.19531 -0 1 0 200 200 200 255 0.7077942 0.5276794
-107.0176 -0 55.2207 -0 1 -0 200 200 200 255 0.7157059 0.08196259
19.00096 0 53.52148 0 1 0 200 200 200 255 0.7090683 0.5742225
109.9609 -0 51.64551 0 1 -0 200 200 200 255 0.7017403 0.9295349
-119.417 -0 48.33545 -0 1 -0 200 200 200 255 0.6888103 0.03352737
-52.80664 0 47.45312 -0 1 -0 200 200 200 255 0.6853638 0.2937241
122.7695 -0 48.08398 0 1 -0 200 200 200 255 0.6878281 0.9795685
75.17185 -0 49.77344 -0 1 -0 200 200 200 255 0.6944275 0.79364
-128 -0 45.53125 -0 1 -0 200 200 200 255 0.6778564 0
-95.57713 -0 47.1416 -0 1 -0 200 200 200 255 0.6841469 0.1266518
-28.69727 0 43.87109 0 1 0 200 200 200 255 0.6713715 0.3879013
38.90525 0 49.15039 0 1 -0 200 200 200 255 0.6919937 0.6519737
-61.34375 -0 45.0332 -0 1 -0 200 200 200 255 0.6759109 0.260376
61.26756 -0 46.83594 0 1 0 200 200 200 255 0.6829529 0.7393264
86.67576 -0 46.02734 -0 1 -0 200 200 200 255 0.6797943 0.8385772
-83.96873 -0 43.32227 -0 1 -0 200 200 200 255 0.6692276 0.1719972
49.30272 -0 45.52148 0 1 -0 200 200 200 255 0.6778183 0.6925887
2.43309 0 42.9707 -0 1 0 200 200 200 255 0.6678543 0.5095043
98.31639 -0 45.15625 0 1 -0 200 200 200 255 0.6763916 0.8840484
-41.10742 0 45.43945 0 1 0 200 200 200 255 0.6774979 0.3394241
128 -0 43.125 0 1 -0 200 200 200 255 0.668457 1
14.63572 0 38.54199 0 1 -0 200 200 200 255 0.6505547 0.5571708
39.49998 0 39.01953 0 1 -0 200 200 200 255 0.65242 0.6542968
67.7617 -0 39.95117 0 1 -0 200 200 200 255 0.6560593 0.7646941
-11.72021 0 39.69775 -0 1 0 200 200 200 255 0.6550694 0.4542179
55.03978 -0 36.84424 0 1 -0 200 200 200 255 0.6439228 0.7149991
76.6406 -0 39.73047 0 1 -0 200 200 200 255 0.6551971 0.7993773
110.3662 -0 38.70508 0 1 -0 200 200 200 255 0.6511917 0.931118
-70.9453 -0 38.54688 -0 1 -0 200 200 200 255 0.6505737 0.2228699
-50.91699 0 37.28174 -0 1 -0 200 200 200 255 0.6456318 0.3011055
-101.3408 -0 38.09375 -0 1 0 200 200 200 255 0.6488037 0.1041375
27.54686 0 39.50781 0 1 -0 200 200 200 255 0.6543274 0.6076049
95.7412 -0 34.66602 0 1 0 200 200 200 255 0.6354141 0.873989
85.45213 -0 34.7627 -0 1 -0 200 200 200 255 0.6357918 0.8337973
-92.93748 -0 35.38672 -0 1 0 200 200 200 255 0.6382294 0.136963
-37.92969 0 35.19531 -0 1 -0 200 200 200 255 0.6374817 0.3518372
122.6758 -0 34.36182 0 1 -0 200 200 200 255 0.6342258 0.9792023
-122.6445 -0 33.87891 -0 1 0 200 200 200 255 0.6323395 0.0209198
-112.9922 -0 33.42188 0 1 0 200 200 200 255 0.6305542 0.05862427
-128 -0 31.25 0 1 0 200 200 200 255 0.6220703 0
-61.62207 -0 34.15234 -0 1 -0 200 200 200 255 0.6334076 0.2592888
-26.21191 0 29.91797 -0 1 -0 200 200 200 255 0.6168671 0.3976097
-75.43748 -0 30.75195 -0 1 0 200 200 200 255 0.6201248 0.2053224
-3.947757 0 28.35547 0 1 -0 200 200 200 255 0.6107635 0.4845791
32.42674 0 26.8252 0 1 -0 200 200 200 255 0.6047859 0.626667
6.486305 0 26.78516 0 1 -0 200 200 200 255 0.6046295 0.5253371
74.04685 -0 31.07031 0 1 0 200 200 200 255 0.6213684 0.7892455
128 -0 30.6875 0 1 -0 200 200 200 255 0.619873 1
-100.9629 -0 27.83203 -0 1 0 200 200 200 255 0.6087189 0.1056137
-87.70896 -0 25.72559 0 1 0 200 200 200 255 0.6004906 0.1573869
-12.80859 0 30.08203 -0 1 -0 200 200 200 255 0.6175079 0.4499664
17.62303 0 28.13672 0 1 0 200 200 200 255 0.6099091 0.56884
42.14451 0 28.58984 0 1 -0 200 200 200 255 0.6116791 0.664627
64.1572 -0 22.88379 0 1 -0 200 200 200 255 0.5893898 0.750614
-50.49756 0 22.15039 -0 1 0 200 200 200 255 0.586525 0.3027439
-125.0859 -0 23.41406 -0 1 0 200 200 200 255 0.5914612 0.01138306
-41.87402 0 27.20312 -0 1 -0 200 200 200 255 0.6062622 0.3364296
107.2656 -0 28.64062 -0 1 0 200 200 200 255 0.6118774 0.9190063
-115.627 -0 23.33594 -0 1 0 200 200 200 255 0.591156 0.04833221
52.8535 -0 24.61133 0 1 0 200 200 200 255 0.596138 0.706459
74.78709 -0 19.98047 0 1 0 200 200 200 255 0.5780487 0.792137
-65.48241 0 21.67188 -0 1 0 200 200 200 255 0.5846558 0.2442093
89.35935 -0 23.88281 -0 1 0 200 200 200 255 0.5932922 0.8490599
-77.01267 0 16.84863 -0 1 0 200 200 200 255 0.565815 0.1991692
114.7578 -0 23.1875 0 1 -0 200 200 200 255 0.5905762 0.9482727
124.4697 -0 20.00391 0 1 -0 200 200 200 255 0.5781403 0.9862099
106.4219 -0 19.80273 -0 1 -0 200 200 200 255 0.5773544 0.9157104
-12.92383 0 20.125 -0 1 -0 200 200 200 255 0.5786133 0.4495163
-103.2344 0 18.49219 -0 1 0 200 200 200 255 0.5722351 0.09674075
-0.554696 0 18.74609 0 1 -0 200 200 200 255 0.5732269 0.4978332
42.57615 0 14.63086 0 1 0 200 200 200 255 0.5571518 0.6663131
96.92381 -0 17.33008 0 1 0 200 200 200 255 0.5676956 0.8786086
128 -0 18.5625 0 1 -0 200 200 200 255 0.5725098 1
-89.07908 0 16.15332 0 1 0 200 200 200 255 0.5630989 0.1520348
-36.00195 0 16.53613 -0 1 0 200 200 200 255 0.5645943 0.3593674
11.64451 0 17.46289 -0 1 -0 200 200 200 255 0.5682144 0.5454864
20.63279 0 20 0 1 0 200 200 200 255 0.578125 0.5805969
-128 -0 17.6875 0 1 0 200 200 200 255 0.5690918 0
-24.26855 0 16.96973 -0 1 -0 200 200 200 255 0.566288 0.405201
30.77537 0 15.7334 0 1 0 200 200 200 255 0.5614586 0.6202163
82.42283 -0 12.75781 -0 1 0 200 200 200 255 0.5498352 0.8219641
-112.2334 0 12.13867 -0 1 0 200 200 200 255 0.5474167 0.06158829
55.07615 -0 13.76172 0 1 -0 200 200 200 255 0.5537567 0.7151412
113.959 -0 13.03125 0 1 -0 200 200 200 255 0.5509033 0.9451523
-124.0859 -0 13.46289 0 1 0 200 200 200 255 0.5525894 0.01528931
-64.14745 0 12.32227 -0 1 0 200 200 200 255 0.5481339 0.249424
-45.67578 0 9.542969 -0 1 0 200 200 200 255 0.5372772 0.321579
-6.316406 0 11.19531 -0 1 0 200 200 200 255 0.5437317 0.4753265
105.6152 -0 7.695312 0 1 -0 200 200 200 255 0.5300598 0.9125595
-16.67383 0 7.416016 -0 1 0 200 200 200 255 0.5289688 0.4348679
4.113262 0 10.77539 -0 1 0 200 200 200 255 0.5420914 0.5160674
21.33885 0 6.210938 -0 1 -0 200 200 200 255 0.5242615 0.5833549
66.37888 -0 11.44531 0 1 0 200 200 200 255 0.5447083 0.7592925
122.8418 -0 4.283203 0 1 -0 200 200 200 255 0.5167313 0.9798508
-101.6933 0 5.453125 -0 1 0 200 200 200 255 0.5213013 0.1027604
97.37108 -0 4.412109 -0 1 0 200 200 200 255 0.5172348 0.8803558
-128 0 7.3125 -0 1 0 200 200 200 255 0.5285645 0
-70.80614 0 5.806641 -0 1 0 200 200 200 255 0.5226822 0.2234135
35.70604 0 4.467285 0 1 -0 200 200 200 255 0.5174503 0.6394767
50.04295 -0 5.941406 0 1 -0 200 200 200 255 0.5232086 0.6954803
59.07029 -0 4.771484 0 1 0 200 200 200 255 0.5186386 0.7307433
128 -0 5.125 0 1 -0 200 200 200 255 0.5200195 1
-120.3223 0 3.353516 -0 1 0 200 200 200 255 0.5130997 0.02999115
-36.7793 0 1.351562 -0 1 0 200 200 200 255 0.5052795 0.3563309
-1.228523 0 3.511719 -0 1 0 200 200 200 255 0.5137177 0.4952011
-90.16209 0 4.694824 -0 1 0 200 200 200 255 0.5183392 0.1478043
-54.73291 0 0.893555 -0 1 0 200 200 200 255 0.5034904 0.2861996
-78.14256 0 -1.036133 0 1 0 200 200 200 255 0.4959526 0.1947556
12.36033 0 -0.408203 0 1 0 200 200 200 255 0.4984055 0.5482826
86.65427 -0 -1.817383 0 1 0 200 200 200 255 0.4929008 0.8384932
115.2744 -0 -4.848633 0 1 -0 200 200 200 255 0.48106 0.9502907
72.83982 -0 1.34375 -0 1 0 200 200 200 255 0.505249 0.7845305
-28.77441 0 -5.362305 0 1 -0 200 200 200 255 0.4790535 0.3875999
-128 0 -3.6875 -0 1 0 200 200 200 255 0.4855957 0
57.93894 -0 -3.80957 0 1 0 200 200 200 255 0.4851189 0.726324
105.6992 -0 -5.164062 0 1 -0 200 200 200 255 0.4798279 0.9128876
-106.5781 0 -6.255859 -0 1 0 200 200 200 255 0.475563 0.0836792
-17.12012 0 -6.443359 0 1 -0 200 200 200 255 0.4748306 0.4331245
29.499 0 -8.929688 0 1 -0 200 200 200 255 0.4651184 0.6152305
45.43553 0 -7.464844 0 1 0 200 200 200 255 0.4708405 0.6774825
-63.82421 0 -5.896484 -0 1 -0 200 200 200 255 0.4769669 0.2506867
-118.5791 0 -5.421875 -0 1 0 200 200 200 255 0.4788208 0.03680038
-91.86424 0 -8.660156 -0 1 -0 200 200 200 255 0.4661713 0.1411553
-44.42969 0 -6.672852 -0 1 -0 200 200 200 255 0.4739342 0.3264465
-3.914066 0 -5.775391 -0 1 -0 200 200 200 255 0.4774399 0.4847107
93.93992 -0 -13.67383 0 1 -0 200 200 200 255 0.4465866 0.8669528
128 -0 -8.5625 0 1 -0 200 200 200 255 0.4665527 1
-80.72654 0 -11.06836 0 1 -0 200 200 200 255 0.4567642 0.184662
18.50486 0 -12.03223 0 1 -0 200 200 200 255 0.4529991 0.5722846
71.52341 -0 -7.255859 0 1 0 200 200 200 255 0.4716568 0.7793883
80.48826 -0 -16.22168 -0 1 -0 200 200 200 255 0.4366341 0.8144072
124.1875 -0 -10.92969 0 1 -0 200 200 200 255 0.4573059 0.9851074
-71.03416 0 -10.67969 0 1 -0 200 200 200 255 0.4582825 0.2225228
1.719714 0 -16.72314 0 1 -0 200 200 200 255 0.4346752 0.5067176
-112.4971 0 -18.55469 -0 1 0 200 200 200 255 0.4275208 0.06055832
-22.25879 0 -14.82275 -0 1 -0 200 200 200 255 0.4420986 0.4130516
61.96482 0 -11.51562 0 1 0 200 200 200 255 0.4550171 0.7420501
106.7158 -0 -17.1084 0 1 -0 200 200 200 255 0.4331703 0.9168587
-128 0 -16.65625 -0 1 0 200 200 200 255 0.4349365 0
-54.58594 0 -15.1748 -0 1 -0 200 200 200 255 0.4407234 0.2867737
116.418 -0 -19.50781 0 1 -0 200 200 200 255 0.4237976 0.9547577
-124.207 0 -17.26953 -0 1 0 200 200 200 255 0.4325409 0.01481628
-12.63281 0 -19.9541 -0 1 -0 200 200 200 255 0.4220543 0.4506531
-100.3066 0 -17.93164 0 1 -0 200 200 200 255 0.4299545 0.1081772
52.36717 0 -16.32031 0 1 0 200 200 200 255 0.4362488 0.7045593
-40.07178 0 -18.10156 -0 1 -0 200 200 200 255 0.4292908 0.3434696
42.81346 0 -20.35303 0 1 0 200 200 200 255 0.420496 0.6672401
69.40232 0 -18.96094 0 1 0 200 200 200 255 0.4259338 0.7711028
-64.80467 0 -18.74609 -0 1 -0 200 200 200 255 0.4267731 0.2468567
60.59763 0 -20.82812 -0 1 0 200 200 200 255 0.4186401 0.7367095
128 -0 -20.78125 0 1 -0 200 200 200 255 0.4188232 1
-90.44138 0 -18.20117 -0 1 -0 200 200 200 255 0.4289017 0.1467133
-76.11521 0 -20.78809 0 1 -0 200 200 200 255 0.4187965 0.202675
26.20506 0 -22.36719 0 1 -0 200 200 200 255 0.4126282 0.6023635
15.27342 0 -20.69141 0 1 -0 200 200 200 255 0.4191742 0.5596618
125.5859 -0 -21.02344 0 1 -0 200 200 200 255 0.4178772 0.9905701
-57.44531 0 -25.08984 -0 1 -0 200 200 200 255 0.4019928 0.2756042
52.38475 0 -26.12109 -0 1 0 200 200 200 255 0.3979645 0.7046279
90.72605 -0 -30.92822 0 1 -0 200 200 200 255 0.3791866 0.8543986
-83.81052 0 -27.34961 0 1 0 200 200 200 255 0.3931656 0.1726151
-24.8125 0 -24.50391 -0 1 -0 200 200 200 255 0.4042816 0.4030762
-98.04588 0 -28.38867 0 1 0 200 200 200 255 0.3891068 0.1170083
-47.5918 0 -29.85742 -0 1 -0 200 200 200 255 0.3833694 0.3140945
-5.671875 0 -29.20117 -0 1 -0 200 200 200 255 0.3859329 0.4778442
6.191384 0 -26.02344 0 1 -0 200 200 200 255 0.3983459 0.5241851
-120.7002 0 -29.04004 -0 1 0 200 200 200 255 0.3865623 0.02851486
33.73045 0 -29.46289 0 1 -0 200 200 200 255 0.3849106 0.6317596
99.72264 -0 -26.63281 0 1 -0 200 200 200 255 0.3959656 0.8895416
122.4473 -0 -33.43164 0 1 -0 200 200 200 255 0.3694077 0.9783096
-128 0 -31.03125 -0 1 0 200 200 200 255 0.3787842 0
-62.36327 -0 -32.7207 -0 1 -0 200 200 200 255 0.3721848 0.2563935
65.3867 -0 -31.3999 0 1 -0 200 200 200 255 0.3773441 0.7554168
79.04588 -0 -32.69336 0 1 -0 200 200 200 255 0.3722916 0.8087729
110.9688 -0 -31.68359 0 1 -0 200 200 200 255 0.376236 0.9334717
16.16209 0 -32.05859 0 1 -0 200 200 200 255 0.3747711 0.5631332
128 -0 -32.9375 0 1 -0 200 200 200 255 0.3713379 1
-33.01953 -0 -33.02539 -0 1 -0 200 200 200 255 0.3709946 0.3710175
-71.94724 0 -34.61035 0 1 0 200 200 200 255 0.3648033 0.2189561
-18.40625 0 -33.69531 -0 1 -0 200 200 200 255 0.3683777 0.4281006
-111.3047 0 -35.94336 0 1 0 200 200 200 255 0.3595963 0.06521606
7.0449 0 -35.64844 0 1 -0 200 200 200 255 0.3607483 0.5275192
46.14842 0 -36.75 -0 1 0 200 200 200 255 0.3564453 0.6802673
-84.69334 0 -39.33984 -0 1 0 200 200 200 255 0.3463287 0.1691667
-52.13867 -0 -39.92383 -0 1 -0 200 200 200 255 0.3440475 0.2963333
25.66014 0 -37.38281 -0 1 -0 200 200 200 255 0.3539734 0.6002349
36.29979 0 -39.50781 -0 1 0 200 200 200 255 0.3456726 0.6417961
57.46873 0 -43.10449 0 1 -0 200 200 200 255 0.3316231 0.7244872
102.0137 -0 -38.0957 0 1 -0 200 200 200 255 0.3511887 0.8984909
-99.20946 0 -41.00635 0 1 0 200 200 200 255 0.339819 0.1124631
-42.47461 -0 -42.87402 0 1 -0 200 200 200 255 0.3325233 0.3340836
-7.332031 0 -39.89844 -0 1 -0 200 200 200 255 0.3441467 0.4713593
1.930649 0 -48.25195 -0 1 -0 200 200 200 255 0.3115158 0.5075416
-19.91309 -0 -42.74609 -0 1 -0 200 200 200 255 0.3330231 0.4222145
113.7773 -0 -42.42578 0 1 0 200 200 200 255 0.3342743 0.9444427
-128 0 -43.875 -0 1 -0 200 200 200 255 0.3286133 0
-122.6758 0 -45.38086 0 1 -0 200 200 200 255 0.322731 0.02079773
-61.41601 0 -43.58594 0 1 0 200 200 200 255 0.3297424 0.2600937
15.05174 0 -43.89014 0 1 0 200 200 200 255 0.3285542 0.5587959
73.70115 -0 -44.22168 0 1 -0 200 200 200 255 0.3272591 0.7878951
92.15623 -0 -44.68164 0 1 -0 200 200 200 255 0.3254623 0.8599852
-93.59178 0 -50.10156 0 1 -0 200 200 200 255 0.3042908 0.1344071
-71.79491 0 -48.78613 0 1 0 200 200 200 255 0.3094292 0.2195511
26.67137 0 -50.39331 -0 1 0 200 200 200 255 0.3031511 0.604185
46.56541 0 -48.31445 0 1 0 200 200 200 255 0.3112717 0.6818962
-113.3418 0 -46.28125 0 1 -0 200 200 200 255 0.3192139 0.05725861
-32 -0 -45.92188 0 1 -0 200 200 200 255 0.3206177 0.375
105.0879 -0 -50.45312 0 1 0 200 200 200 255 0.3029175 0.9104996
128 -0 -48.46875 0 1 0 200 200 200 255 0.3106689 1
122.6016 -0 -50.42773 0 1 0 200 200 200 255 0.3030167 0.9789124
-49.20215 -0 -53.62109 0 1 -0 200 200 200 255 0.2905426 0.3078041
-37.75391 -0 -52.36133 0 1 -0 200 200 200 255 0.2954636 0.3525238
-12.7124 -0 -52.79004 -0 1 -0 200 200 200 255 0.2937889 0.4503422
-81.51951 0 -52.34375 -0 1 0 200 200 200 255 0.2955322 0.1815644
-24.85547 -0 -54.45215 -0 1 -0 200 200 200 255 0.2872963 0.4029083
70.91306 -0 -57.61523 0 1 -0 200 200 200 255 0.2749405 0.7770041
-58.24609 -0 -57.08105 0 1 -0 200 200 200 255 0.2770271 0.2724762
-105.1797 0 -54.29297 -0 1 -0 200 200 200 255 0.2879181 0.08914185
57.94627 -0 -56.16797 0 1 -0 200 200 200 255 0.2805939 0.7263526
79.67966 -0 -53.17578 0 1 -0 200 200 200 255 0.2922821 0.8112487
114.998 -0 -55.18359 0 1 0 200 200 200 255 0.2844391 0.9492111
-128 0 -54.9375 0 1 -0 200 200 200 255 0.2854004 0
10.499 0 -59.37695 -0 1 0 200 200 200 255 0.2680588 0.5410118
88.94138 -0 -54.92188 0 1 0 200 200 200 255 0.2854614 0.8474272
99.07225 -0 -57.09766 0 1 0 200 200 200 255 0.2769623 0.887001
-124.1875 0 -59.47461 -0 1 -0 200 200 200 255 0.2676773 0.01489258
-115.4863 0 -56.75293 0 1 -0 200 200 200 255 0.2783089 0.04888153
41.26561 0 -57.05078 -0 1 0 200 200 200 255 0.2771454 0.6611938
-71.36522 0 -59.82617 0 1 0 200 200 200 255 0.266304 0.2212296
-4.125001 0 -58.83398 -0 1 0 200 200 200 255 0.2701797 0.4838867
82.31931 -0 -65.01465 0 1 0 200 200 200 255 0.2460365 0.8215598
-99.99413 -0 -65.23242 -0 1 -0 200 200 200 255 0.2451859 0.1093979
-88.95896 0 -62.03711 -0 1 -0 200 200 200 255 0.2576675 0.1525041
-40.22363 -0 -63.04492 0 1 0 200 200 200 255 0.2537308 0.3428764
109.2344 -0 -65.69531 0 1 0 200 200 200 255 0.2433777 0.9266968
128 -0 -62.3125 0 1 0 200 200 200 255 0.2565918 1
-16.5918 0 -63.29883 -0 1 0 200 200 200 255 0.252739 0.4351883
23.70115 0 -64.69336 -0 1 0 200 200 200 255 0.2472916 0.5925826
36.49607 0 -64.68555 -0 1 0 200 200 200 255 0.2473221 0.6425628
124.0498 -0 -63.94141 0 1 0 200 200 200 255 0.2502289 0.9845695
-111.0918 -0 -64.99219 0 1 -0 200 200 200 255 0.2461243 0.06604767
48.07957 0 -65.38379 0 1 -0 200 200 200 255 0.2445946 0.6878108
63.95261 -0 -66.95312 0 1 0 200 200 200 255 0.2384644 0.7498149
95.1953 -0 -66.16211 0 1 0 200 200 200 255 0.2415543 0.8718566
-128 0 -66.4375 0 1 -0 200 200 200 255 0.2404785 0
-64.77538 0 -66.69336 0 1 0 200 200 200 255 0.2394791 0.2469712
-3.126958 0 -68.00195 -0 1 0 200 200 200 255 0.2343674 0.4877853
-24.42773 0 -70.33789 -0 1 0 200 200 200 255 0.2252426 0.4045792
-82.16404 0 -68.90527 -0 1 -0 200 200 200 255 0.2308388 0.1790467
-53.95312 -0 -67.66797 0 1 -0 200 200 200 255 0.235672 0.2892456
12.04685 0 -70.05273 -0 1 0 200 200 200 255 0.2263565 0.547058
31.58592 0 -72.42188 -0 1 0 200 200 200 255 0.2171021 0.6233825
-122.9277 -0 -74.47949 0 1 -0 200 200 200 255 0.2090645 0.01981354
-91.86131 0 -77.99121 -0 1 -0 200 200 200 255 0.1953468 0.1411668
-46.45508 -0 -73.51367 -0 1 0 200 200 200 255 0.2128372 0.3185349
56.30662 -0 -76.38184 0 1 -0 200 200 200 255 0.2016335 0.7199477
-15.11914 0 -78.72852 -0 1 0 200 200 200 255 0.1924667 0.4409409
117.0767 -0 -79.63013 0 1 0 200 200 200 255 0.1889448 0.9573307
-108.5332 -0 -75.96777 0 1 -0 200 200 200 255 0.2032509 0.07604218
-60.22656 0 -75.22656 0 1 -0 200 200 200 255 0.2061462 0.26474
39.56346 0 -77.87842 0 1 -0 200 200 200 255 0.1957874 0.6545448
76.1367 -0 -75.16797 0 1 0 200 200 200 255 0.2063751 0.7974089
90.95115 -0 -74.71484 0 1 0 200 200 200 255 0.2081451 0.8552779
128 -0 -75.0625 0 1 0 200 200 200 255 0.2067871 1
-34.1543 -0 -75.875 -0 1 0 200 200 200 255 0.2036133 0.3665848
5.640608 0 -78.16748 -0 1 0 200 200 200 255 0.1946583 0.5220336
-72.2031 0 -77.24609 0 1 -0 200 200 200 255 0.1982574 0.2179566
-128 -0 -80.8125 0 1 -0 200 200 200 255 0.1843262 0
-81.62302 0 -79.04688 -0 1 0 200 200 200 255 0.1912231 0.1811601
21.65159 0 -79.03223 -0 1 0 200 200 200 255 0.1912804 0.5845765
95.98241 -0 -82.25195 -0 1 0 200 200 200 255 0.1787033 0.8749313
107.2529 -0 -84.51953 0 1 0 200 200 200 255 0.1698456 0.9189568
85.25974 0 -84.1084 0 1 0 200 200 200 255 0.1714516 0.8330458
-28.33496 0 -85.04883 -0 1 0 200 200 200 255 0.167778 0.3893166
-4.164065 0 -85.35938 -0 1 0 200 200 200 255 0.1665649 0.4837341
70.65818 -0 -82.56055 0 1 0 200 200 200 255 0.1774979 0.7760085
-116.0703 -0 -82.32422 0 1 -0 200 200 200 255 0.178421 0.04660034
-53.66016 -0 -86.81348 0 1 -0 200 200 200 255 0.1608849 0.29039
49.13475 0 -85.2041 0 1 -0 200 200 200 255 0.1671715 0.6919326
-123.2754 -0 -89.48535 0 1 -0 200 200 200 255 0.1504478 0.01845551
-63.93554 -0 -86.3125 0 1 -0 200 200 200 255 0.1628418 0.2502518
62.08396 0 -90.51172 0 1 0 200 200 200 255 0.1464386 0.7425154
123.6641 -0 -86.84375 0 1 -0 200 200 200 255 0.1607666 0.9830627
-42.12402 -0 -86.84766 -0 1 -0 200 200 200 255 0.1607513 0.335453
128 -0 -84.5 0 1 0 200 200 200 255 0.1699219 1
-99.14061 0 -84.77344 -0 1 0 200 200 200 255 0.1688538 0.112732
-87.94529 0 -88.78125 -0 1 0 200 200 200 255 0.1531982 0.1564637
32.40232 0 -87.79688 0 1 -0 200 200 200 255 0.1570435 0.6265716
-110.5908 0 -89.74268 -0 1 0 200 200 200 255 0.1494427 0.06800461
-75.56638 0 -89.39551 0 1 -0 200 200 200 255 0.1507988 0.2048188
21.88279 0 -90.16797 0 1 0 200 200 200 255 0.1477814 0.5854797
9.066384 0 -90.01953 -0 1 0 200 200 200 255 0.1483612 0.5354156
73.9199 0 -92.79736 -0 1 0 200 200 200 255 0.1375103 0.7887496
-14.28027 0 -95.89648 -0 1 0 200 200 200 255 0.1254044 0.4442177
114.9707 -0 -93.66016 0 1 -0 200 200 200 255 0.13414 0.9491043
-102.394 0 -99.45801 -0 1 0 200 200 200 255 0.1114922 0.1000233
-35.57617 0 -94.07031 -0 1 0 200 200 200 255 0.1325378 0.3610306
-128 -0 -94.875 0 1 -0 200 200 200 255 0.1293945 0
95.44138 0 -91.83789 0 1 0 200 200 200 255 0.1412582 0.8728179
128 -0 -94.125 0 1 0 200 200 200 255 0.1323242 1
-1.177742 0 -97.27734 -0 1 -0 200 200 200 255 0.1200104 0.4953994
88.12888 0 -96.8418 -0 1 0 200 200 200 255 0.1217117 0.8442534
-60.52539 -0 -97.46875 0 1 -0 200 200 200 255 0.1192627 0.2635727
-24.47852 0 -97.91016 -0 1 0 200 200 200 255 0.1175385 0.4043808
51.36717 0 -95.89062 0 1 0 200 200 200 255 0.1254272 0.700653
105.0015 -0 -100.0015 0 1 -0 200 200 200 255 0.1093693 0.910162
123.127 -0 -99.17969 0 1 -0 200 200 200 255 0.1125793 0.9809647
37.2617 0 -100.9561 0 1 0 200 200 200 255 0.1056404 0.6455535
24.25145 0 -98.54199 0 1 -0 200 200 200 255 0.1150703 0.5947322
-50.85547 -0 -100.0537 0 1 -0 200 200 200 255 0.1091652 0.3013458
-42.13867 -0 -101.9629 -0 1 -0 200 200 200 255 0.1017075 0.3353958
-111.8223 0 -102.4688 -0 1 0 200 200 200 255 0.09973145 0.06319427
-92.60545 -0 -100.5234 0 1 -0 200 200 200 255 0.1073303 0.13826
-81.98826 -0 -100.5723 0 1 -0 200 200 200 255 0.1071396 0.1797334
-68.96385 -0 -101.5859 0 1 -0 200 200 200 255 0.1031799 0.23061
13.65818 0 -100.3379 -0 1 -0 200 200 200 255 0.1080551 0.5533523
-123.7227 -0 -100.6157 -0 1 -0 200 200 200 255 0.1069698 0.01670837
65.85154 0 -104.2803 -0 1 0 200 200 200 255 0.09265518 0.7572325
77.68748 0 -105.9219 0 1 0 200 200 200 255 0.08624268 0.8034667
128 -0 -105.25 0 1 -0 200 200 200 255 0.08886719 1
-28.81152 0 -106.5557 -0 1 -0 200 200 200 255 0.08376694 0.387455
54.89256 0 -104.4648 0 1 0 200 200 200 255 0.0919342 0.7144241
-128 -0 -104.6875 0 1 -0 200 200 200 255 0.09106445 0
-55.97363 -0 -108.5938 0 1 -0 200 200 200 255 0.07580566 0.281353
-6.332031 0 -108.2148 -0 1 -0 200 200 200 255 0.07728577 0.4752655
6.046853 0 -107.9492 -0 1 -0 200 200 200 255 0.07832336 0.5236205
88.59861 0 -109.0098 0 1 -0 200 200 200 255 0.0741806 0.8460883
-15.68945 0 -111.25 -0 1 -0 200 200 200 255 0.06542969 0.4387131
20.69139 0 -109.5078 -0 1 -0 200 200 200 255 0.07223511 0.5808257
110.2031 -0 -110.0703 0 1 -0 200 200 200 255 0.07003784 0.930481
-78.84373 -0 -109.0176 0 1 -0 200 200 200 255 0.07415009 0.1920167
45.52586 0 -113.6562 0 1 0 200 200 200 255 0.05603027 0.6778354
98.86131 -0 -113.832 0 1 -0 200 200 200 255 0.05534363 0.886177
-120.1816 0 -114.4106 -0 1 0 200 200 200 255 0.05308342 0.03054047
-47.28516 -0 -112.2852 -0 1 -0 200 200 200 255 0.06138611 0.3152924
-92.60935 -0 -111.1875 0 1 -0 200 200 200 255 0.06567383 0.1382447
34.21287 0 -109.9863 -0 1 0 200 200 200 255 0.07036591 0.633644
125.3271 -0 -111.4717 0 1 -0 200 200 200 255 0.06456375 0.9895592
-104.8696 -0 -114.8486 -0 1 -0 200 200 200 255 0.05137253 0.09035304
-65.56249 -0 -113.2129 0 1 -0 200 200 200 255 0.05776215 0.2438965
-37.42188 -0 -110.8984 -0 1 -0 200 200 200 255 0.06680298 0.3538208
-24.42285 0 -120.561 -0 1 -0 200 200 200 255 0.02905846 0.4045982
70.93357 0 -116.4766 -0 1 0 200 200 200 255 0.04501343 0.7770842
-128 0 -113.6875 -0 1 0 200 200 200 255 0.0559082 0
59.79295 0 -115.6445 0 1 0 200 200 200 255 0.04826355 0.7335662
-1.195322 0 -118.4141 -0 1 -0 200 200 200 255 0.03744507 0.4953308
-90.42967 -0 -121.376 0 1 -0 200 200 200 255 0.02587509 0.1467591
-73.6406 -0 -116.2695 0 1 -0 200 200 200 255 0.04582214 0.2123414
79.76267 0 -120.4102 0 1 0 200 200 200 255 0.02964783 0.8115729
116.6885 -0 -119.4834 0 1 0 200 200 200 255 0.03326797 0.9558144
-39.50391 -0 -121.0762 -0 1 -0 200 200 200 255 0.0270462 0.3456879
9.896463 0 -121.4043 0 1 -0 200 200 200 255 0.02576447 0.5386581
-53.67969 -0 -121.0254 -0 1 -0 200 200 200 255 0.02724457 0.2903137
28.50584 0 -121.0723 0 1 -0 200 200 200 255 0.02706146 0.611351
128 -0 -118.6875 -0 1 0 200 200 200 255 0.03637695 1
92.88084 0 -123.2148 0 1 0 200 200 200 255 0.01869202 0.8628157
-63.46288 -0 -124.168 -0 1 -0 200 200 200 255 0.01496887 0.2520981
-128 0 -128 -0 1 0 200 200 200 255 0 0
-11.85938 0 -123.9688 -0 1 0 200 200 200 255 0.01574707 0.4536743
66.27537 0 -123.9375 -0 1 0 200 200 200 255 0.01586914 0.7588881
105.8828 -0 -124.1006 0 1 0 200 200 200 255 0.01523209 0.9136047
-77.34763 -0 -124.582 0 1 -0 200 200 200 255 0.01335144 0.1978608
20.14842 0 -124.6328 -0 1 -0 200 200 200 255 0.01315308 0.5787048
43.13865 0 -124.6055 -0 1 0 200 200 200 255 0.01325989 0.6685104
55.33592 0 -124.4648 0 1 -0 200 200 200 255 0.0138092 0.7161559
-106.7139 -0 -124.2207 0 1 -0 200 200 200 255 0.01476288 0.08314896
128 -0 -128 0 1 0 200 200 200 255 0 1
-111.9375 -0 -128 0 1 -0 200 200 200 255 0 0.06274414
-97.31248 -0 -128 0 1 -0 200 200 200 255 0 0.1198731
-87.12498 -0 -128 0 1 -0 200 200 200 255 0 0.1596681
-75.53123 -0 -128 0 1 -0 200 200 200 255 0 0.2049561
-61.62499 -0 -128 -0 1 -0 200 200 200 255 0 0.2592774
-48.875 -0 -128 -0 1 -0 200 200 200 255 0 0.309082
-39.5 -0 -128 -0 1 -0 200 200 200 255 0 0.3457031
-28.875 -0 -128 -0 1 -0 200 200 200 255 0 0.387207
-15.84375 0 -128 -0 1 -0 200 200 200 255 0 0.4381104
-3.062504 0 -128 0 1 0 200 200 200 255 0 0.4880371
10.53123 0 -128 0 1 -0 200 200 200 255 0 0.5411376
24.49998 0 -128 -0 1 0 200 200 200 255 0 0.5957031
37.56248 0 -128 -0 1 -0 200 200 200 255 0 0.6467285
50.31248 0 -128 -0 1 0 200 200 200 255 0 0.6965331
61.84373 0 -128 0 1 0 200 200 200 255 0 0.741577
75.46873 0 -128 -0 1 -0 200 200 200 255 0 0.7947997
85.74998 0 -128 -0 1 0 200 200 200 255 0 0.8349608
99.62498 0 -128 0 1 0 200 200 200 255 0 0.8891601
114.0312 -0 -128 0 1 0 200 200 200 255 0 0.9454346
3 0 1 2 
3 1 3 2 
3 1 4 3 
3 4 5 3 
3 4 6 5 
3 4 7 6 
3 7 8 6 
3 8 9 6 
3 8 10 9 
3 10 11 9 
3 10 12 11 
3 12 13 11 
3 12 14 13 
3 14 15 13 
3 14 16 15 
3 16 17 15 
3 16 18 17 
3 18 19 17 
3 18 20 19 
3 18 21 20 
3 21 22 20 
3 21 23 22 
3 23 24 22 
3 23 25 24 
3 25 26 24 
3 26 27 24 
3 26 28 27 
3 28 29 27 
3 28 30 29 
3 30 31 29 
3 30 32 31 
3 32 33 31 
3 32 34 33 
3 34 35 33 
3 34 36 35 
3 34 37 36 
3 37 38 36 
3 37 39 38 
3 39 40 38 
3 9 41 6 
3 5 6 42 
3 15 17 43 
3 17 19 43 
3 20 44 19 
3 24 27 45 
3 36 38 46 
3 0 2 47 
3 40 48 49 
3 3 5 50 
3 13 15 51 
3 22 24 52 
3 3 50 2 
3 9 53 41 
3 9 11 53 
3 13 51 11 
3 38 40 49 
3 20 22 44 
3 52 24 45 
3 27 29 54 
3 33 35 55 
3 43 51 15 
3 27 54 45 
3 2 56 47 
3 5 42 50 
3 29 31 57 
3 38 49 46 
3 6 41 42 
3 33 55 31 
3 47 56 58 
3 2 50 59 
3 11 51 60 
3 19 61 43 
3 19 44 61 
3 31 55 62 
3 35 36 63 
3 46 63 36 
3 48 64 49 
3 11 60 53 
3 2 59 56 
3 50 42 65 
3 51 43 66 
3 22 52 44 
3 31 62 57 
3 50 65 59 
3 43 67 66 
3 49 64 68 
3 45 69 52 
3 45 54 69 
3 35 63 70 
3 42 41 71 
3 41 53 71 
3 43 61 67 
3 35 70 55 
3 44 52 72 
3 56 73 58 
3 29 57 54 
3 49 68 46 
3 51 66 60 
3 56 59 73 
3 65 74 59 
3 42 71 75 
3 55 70 76 
3 65 42 75 
3 53 77 71 
3 54 57 78 
3 46 79 63 
3 71 80 75 
3 53 60 81 
3 67 61 82 
3 57 62 83 
3 46 68 79 
3 64 84 68 
3 58 73 85 
3 53 81 77 
3 52 69 86 
3 54 78 69 
3 55 76 62 
3 57 83 78 
3 65 75 74 
3 71 77 80 
3 60 87 81 
3 60 66 87 
3 61 88 82 
3 61 44 88 
3 44 72 88 
3 52 86 72 
3 62 76 89 
3 70 63 90 
3 66 67 91 
3 67 82 91 
3 62 89 83 
3 70 90 76 
3 63 79 90 
3 59 92 73 
3 59 74 92 
3 87 66 93 
3 66 91 94 
3 86 95 72 
3 69 78 86 
3 73 96 85 
3 74 75 97 
3 77 81 98 
3 91 82 99 
3 72 100 88 
3 76 90 101 
3 81 87 98 
3 66 94 93 
3 82 88 99 
3 86 78 102 
3 68 103 79 
3 80 77 104 
3 91 99 94 
3 72 95 100 
3 78 83 105 
3 87 93 98 
3 78 105 102 
3 68 84 103 
3 92 74 106 
3 75 80 97 
3 89 76 107 
3 79 108 90 
3 79 103 108 
3 85 96 109 
3 73 92 96 
3 74 97 106 
3 80 104 110 
3 77 98 104 
3 83 89 111 
3 80 110 97 
3 86 102 95 
3 83 111 105 
3 76 101 107 
3 99 112 94 
3 88 113 99 
3 84 114 103 
3 98 115 104 
3 107 116 89 
3 90 108 101 
3 96 92 117 
3 92 106 117 
3 111 89 116 
3 93 118 98 
3 88 119 113 
3 95 120 100 
3 97 121 106 
3 94 112 93 
3 88 100 119 
3 100 120 122 
3 107 101 123 
3 108 103 124 
3 96 125 109 
3 95 102 120 
3 105 126 102 
3 101 108 127 
3 96 117 125 
3 97 110 121 
3 104 115 110 
3 111 128 105 
3 116 107 123 
3 106 129 117 
3 100 122 119 
3 120 102 130 
3 105 128 126 
3 108 124 127 
3 98 118 115 
3 93 112 118 
3 99 131 112 
3 99 113 132 
3 111 116 128 
3 99 132 131 
3 114 133 103 
3 109 125 134 
3 106 135 129 
3 106 121 135 
3 102 126 130 
3 110 115 136 
3 101 127 137 
3 117 129 125 
3 121 110 136 
3 113 119 132 
3 123 101 137 
3 126 138 130 
3 116 123 139 
3 127 124 140 
3 103 133 141 
3 121 142 135 
3 131 143 112 
3 120 144 122 
3 120 130 144 
3 126 128 138 
3 116 139 128 
3 123 137 145 
3 124 103 141 
3 132 119 146 
3 122 147 119 
3 123 145 139 
3 137 127 148 
3 124 141 140 
3 129 149 125 
3 129 135 149 
3 136 115 150 
3 131 132 143 
3 122 144 147 
3 125 151 134 
3 115 118 152 
3 118 112 153 
3 112 143 153 
3 127 140 148 
3 134 151 154 
3 135 155 149 
3 135 142 155 
3 137 148 156 
3 125 149 151 
3 121 136 142 
3 115 157 150 
3 115 152 157 
3 146 119 147 
3 152 118 158 
3 146 147 159 
3 144 130 160 
3 139 145 161 
3 137 156 145 
3 128 162 138 
3 136 163 142 
3 152 158 157 
3 118 153 158 
3 143 132 164 
3 128 139 165 
3 133 166 141 
3 136 150 167 
3 153 143 164 
3 132 159 168 
3 132 146 159 
3 147 169 159 
3 149 155 170 
3 142 163 155 
3 150 157 167 
3 132 168 164 
3 147 144 171 
3 130 138 160 
3 128 165 162 
3 139 161 165 
3 136 167 163 
3 138 162 160 
3 140 141 172 
3 151 149 173 
3 149 170 173 
3 147 171 169 
3 148 140 172 
3 151 173 154 
3 144 160 171 
3 157 158 174 
3 141 175 172 
3 141 166 175 
3 145 176 161 
3 154 173 177 
3 155 163 178 
3 164 179 153 
3 162 180 160 
3 148 172 156 
3 170 155 178 
3 157 174 181 
3 162 165 182 
3 145 156 183 
3 163 167 184 
3 162 182 185 
3 165 161 182 
3 164 168 179 
3 159 169 186 
3 145 183 176 
3 156 172 187 
3 157 181 167 
3 158 153 188 
3 180 162 185 
3 166 189 175 
3 170 178 173 
3 163 184 178 
3 158 188 174 
3 153 179 188 
3 169 171 186 
3 171 160 190 
3 160 180 191 
3 161 192 182 
3 161 176 192 
3 156 187 183 
3 179 168 193 
3 168 159 193 
3 185 182 194 
3 176 195 192 
3 176 183 195 
3 172 175 196 
3 167 181 197 
3 174 188 198 
3 171 190 186 
3 172 196 187 
3 178 199 173 
3 159 186 193 
3 180 185 191 
3 167 197 184 
3 174 198 181 
3 160 191 200 
3 183 187 201 
3 160 200 190 
3 183 201 202 
3 178 203 199 
3 178 184 203 
3 188 179 204 
3 185 194 191 
3 182 192 194 
3 183 202 195 
3 175 205 196 
3 175 189 205 
3 173 206 177 
3 173 199 207 
3 188 204 198 
3 187 196 201 
3 177 206 208 
3 173 207 206 
3 181 198 209 
3 179 210 204 
3 179 193 210 
3 184 197 211 
3 181 209 197 
3 193 186 212 
3 200 213 190 
3 191 213 200 
3 190 214 186 
3 195 215 192 
3 189 216 205 
3 199 217 207 
3 184 211 218 
3 193 212 219 
3 186 214 212 
3 190 213 220 
3 195 202 215 
3 191 221 213 
3 191 194 221 
3 192 222 194 
3 197 209 211 
3 198 223 209 
3 210 193 219 
3 192 215 222 
3 206 224 208 
3 184 218 203 
3 198 204 225 
3 204 210 225 
3 190 220 214 
3 196 226 201 
3 207 227 206 
3 199 203 217 
3 198 225 223 
3 196 205 226 
3 206 227 224 
3 194 228 221 
3 215 202 229 
3 209 230 211 
3 202 201 231 
3 207 217 227 
3 218 211 232 
3 194 222 228 
3 205 233 226 
3 205 216 234 
3 203 218 217 
3 209 223 230 
3 222 215 229 
3 201 226 235 
3 226 233 235 
3 219 236 210 
3 212 236 219 
3 202 231 229 
3 205 234 233 
3 227 217 237 
3 212 214 238 
3 221 228 239 
3 201 235 240 
3 216 241 234 
3 218 232 242 
3 210 243 225 
3 214 220 244 
3 220 213 245 
3 213 221 239 
3 201 240 231 
3 208 224 246 
3 217 218 237 
3 211 230 232 
3 210 236 247 
3 236 212 238 
3 213 248 245 
3 231 249 229 
3 218 242 237 
3 225 243 223 
3 214 244 238 
3 220 245 244 
3 213 239 248 
3 227 237 250 
3 210 247 243 
3 231 240 249 
3 228 251 239 
3 228 222 251 
3 233 234 252 
3 224 253 246 
3 227 253 224 
3 227 250 253 
3 235 233 252 
3 232 230 254 
3 223 243 255 
3 236 238 256 
3 235 257 240 
3 230 223 254 
3 236 258 247 
3 238 259 256 
3 238 244 259 
3 245 260 244 
3 222 261 251 
3 222 229 261 
3 234 262 252 
3 237 263 250 
3 236 256 258 
3 245 248 260 
3 249 240 264 
3 235 252 257 
3 234 241 262 
3 237 242 263 
3 223 255 254 
3 244 260 259 
3 246 253 265 
3 232 254 266 
3 248 239 267 
3 251 268 239 
3 251 261 269 
3 229 249 261 
3 264 240 257 
3 241 270 262 
3 253 271 265 
3 243 247 272 
3 256 259 273 
3 248 267 260 
3 242 274 263 
3 254 255 275 
3 253 250 271 
3 242 276 274 
3 242 232 276 
3 243 272 255 
3 232 266 276 
3 254 275 266 
3 247 258 272 
3 260 277 259 
3 249 264 278 
3 252 262 279 
3 239 268 267 
3 268 251 269 
3 261 249 280 
3 250 263 271 
3 256 273 258 
3 249 278 280 
3 252 279 257 
3 259 277 273 
3 269 261 280 
3 272 258 281 
3 265 271 282 
3 255 272 275 
3 269 283 268 
3 257 284 264 
3 257 279 284 
3 271 263 285 
3 258 286 281 
3 260 267 287 
3 267 268 288 
3 269 280 283 
3 266 275 289 
3 268 283 288 
3 271 290 282 
3 263 274 291 
3 275 272 292 
3 273 293 258 
3 264 294 278 
3 271 285 290 
3 276 291 274 
3 266 289 276 
3 273 277 293 
3 270 295 262 
3 263 291 285 
3 258 293 286 
3 264 284 294 
3 276 296 291 
3 277 260 297 
3 260 287 297 
3 280 298 283 
3 280 278 299 
3 279 262 300 
3 262 295 300 
3 276 289 301 
3 292 272 281 
3 277 302 293 
3 280 299 298 
3 277 297 302 
3 290 285 303 
3 276 301 296 
3 286 304 281 
3 267 288 287 
3 283 298 305 
3 284 279 306 
3 282 290 307 
3 289 275 308 
3 292 308 275 
3 279 300 309 
3 290 310 307 
3 289 308 301 
3 286 293 311 
3 291 312 285 
3 286 311 304 
3 288 283 313 
3 283 305 313 
3 290 303 310 
3 308 292 314 
3 292 281 314 
3 281 304 314 
3 288 313 315 
3 298 316 305 
3 298 299 316 
3 278 294 299 
3 284 306 294 
3 279 309 306 
3 301 308 317 
3 287 288 315 
3 305 318 313 
3 295 319 300 
3 285 312 303 
3 291 320 312 
3 291 296 320 
3 296 321 320 
3 293 302 311 
3 297 287 322 
3 287 315 322 
3 301 321 296 
3 297 323 302 
3 305 316 318 
3 300 319 324 
3 301 317 321 
3 300 324 309 
3 308 325 317 
3 297 322 323 
3 313 318 326 
3 294 327 299 
3 320 321 328 
3 311 329 304 
3 312 330 303 
3 320 330 312 
3 308 314 331 
3 311 302 332 
3 302 323 333 
3 313 326 315 
3 310 334 307 
3 314 304 329 
3 315 335 322 
3 294 306 336 
3 324 337 309 
3 307 334 338 
3 310 303 334 
3 320 328 330 
3 317 339 321 
3 317 325 339 
3 318 316 340 
3 299 341 316 
3 309 342 306 
3 308 331 325 
3 316 341 340 
3 299 327 341 
3 294 336 327 
3 323 322 343 
3 324 319 337 
3 319 344 337 
3 314 329 345 
3 302 333 332 
3 333 323 343 
3 318 340 326 
3 328 321 346 
3 329 311 347 
3 306 342 336 
3 309 337 342 
3 329 347 345 
3 311 332 347 
3 315 326 335 
3 334 303 348 
3 303 330 348 
3 321 339 346 
3 333 349 332 
3 333 343 349 
3 335 326 350 
3 314 345 331 
3 330 328 351 
3 325 352 339 
3 325 331 352 
3 322 353 343 
3 335 353 322 
3 335 350 354 
3 326 355 350 
3 336 356 327 
3 336 342 356 
3 330 357 348 
3 331 345 358 
3 335 354 353 
3 326 340 355 
3 330 351 357 
3 328 346 351 
3 347 332 359 
3 332 360 359 
3 332 349 360 
3 331 358 352 
3 345 347 361 
3 342 362 356 
3 338 334 363 
3 334 364 363 
3 334 348 364 
3 342 337 362 
3 346 339 365 
3 339 352 365 
3 347 359 361 
3 349 343 366 
3 343 353 366 
3 341 367 340 
3 327 368 341 
3 351 369 357 
3 346 370 351 
3 349 366 360 
3 346 365 370 
3 340 367 355 
3 327 356 368 
3 353 354 371 
3 350 355 372 
3 348 373 364 
3 348 357 373 
3 358 345 374 
3 345 361 374 
3 353 371 366 
3 354 350 372 
3 356 362 375 
3 344 376 337 
3 337 377 362 
3 337 376 377 
3 341 368 367 
3 356 375 368 
3 352 358 378 
3 358 374 379 
3 359 360 380 
3 351 381 369 
3 352 378 365 
3 374 361 382 
3 361 359 380 
3 355 367 383 
3 365 378 384 
3 361 380 382 
3 373 357 385 
3 351 370 381 
3 365 384 370 
3 354 372 371 
3 355 383 386 
3 367 368 387 
3 362 388 375 
3 362 377 388 
3 363 364 389 
3 357 369 385 
3 374 382 379 
3 371 390 366 
3 368 391 387 
3 368 375 392 
3 358 379 378 
3 368 392 391 
3 364 393 389 
3 364 373 394 
3 372 395 371 
3 355 386 372 
3 373 385 394 
3 366 390 360 
3 367 387 383 
3 372 386 395 
3 364 394 393 
3 370 384 396 
3 380 360 397 
3 391 398 387 
3 370 396 381 
3 369 399 385 
3 369 400 399 
3 369 381 400 
3 379 401 378 
3 360 390 397 
3 375 388 402 
3 376 403 377 
3 382 401 379 
3 382 380 404 
3 371 405 390 
3 371 395 406 
3 377 403 407 
3 394 385 408 
3 381 396 400 
3 371 406 405 
3 395 386 409 
3 386 383 410 
3 391 392 411 
3 375 402 392 
3 378 401 384 
3 387 398 383 
3 388 377 407 
3 389 393 412 
3 380 397 404 
3 391 411 398 
3 396 384 413 
3 397 390 414 
3 395 409 406 
3 394 408 393 
3 385 399 408 
3 382 415 401 
3 382 404 415 
3 388 407 402 
3 400 396 416 
3 384 401 417 
3 386 410 409 
3 392 402 411 
3 397 414 404 
3 405 418 390 
3 396 413 416 
3 413 384 417 
3 406 419 405 
3 393 408 420 
3 400 421 399 
3 401 422 417 
3 393 420 412 
3 409 410 423 
3 404 414 424 
3 407 403 425 
3 408 426 420 
3 400 416 421 
3 417 427 413 
3 390 418 414 
3 406 409 428 
3 383 429 410 
3 383 398 429 
3 411 430 398 
3 403 431 425 
3 408 399 426 
3 401 415 432 
3 404 424 415 
3 407 425 402 
3 401 432 422 
3 414 418 433 
3 406 428 419 
3 413 434 416 
3 413 427 434 
3 417 422 427 
3 412 420 435 
3 421 416 436 
3 405 437 418 
3 405 419 437 
3 430 411 438 
3 411 439 438 
3 411 402 439 
3 409 423 428 
3 398 430 440 
3 399 421 426 
3 415 441 432 
3 414 442 424 
3 414 433 442 
3 410 429 443 
3 398 440 429 
3 402 425 439 
3 420 426 444 
3 416 434 436 
3 427 422 445 
3 418 437 433 
3 419 428 437 
3 428 423 446 
3 410 443 423 
3 429 440 443 
3 420 447 435 
3 434 427 448 
3 423 443 449 
3 425 431 450 
3 422 432 451 
3 415 424 441 
3 431 452 450 
3 426 421 453 
3 421 436 454 
3 445 422 451 
3 437 428 455 
3 430 438 440 
3 426 456 444 
3 426 453 456 
3 423 449 446 
3 420 444 447 
3 436 434 457 
3 434 448 457 
3 427 445 448 
3 437 455 458 
3 432 441 451 
3 433 437 459 
3 436 457 454 
3 433 459 442 
3 428 446 455 
3 440 460 443 
3 453 421 454 
3 442 461 424 
3 425 450 462 
3 453 454 463 
3 441 464 451 
3 425 462 439 
3 435 447 465 
3 447 444 456 
3 441 424 461 
3 437 458 459 
3 449 443 460 
3 440 438 466 
3 438 439 466 
3 452 467 450 
3 453 463 456 
3 442 468 461 
3 440 469 460 
3 448 445 470 
3 441 461 471 
3 442 459 468 
3 446 449 472 
3 440 466 469 
3 439 473 466 
3 450 474 462 
3 441 471 464 
3 455 446 475 
3 455 475 476 
3 439 462 473 
3 450 467 474 
3 445 477 470 
3 445 451 477 
3 451 478 477 
3 451 464 478 
3 455 476 458 
3 446 472 475 
3 456 479 447 
3 456 463 479 
3 463 454 480 
3 454 457 481 
3 448 482 457 
3 448 470 482 
3 459 458 483 
3 458 476 483 
3 447 479 484 
3 454 481 480 
3 449 460 485 
3 447 484 465 
3 457 482 481 
3 459 483 468 
3 460 469 486 
3 466 473 469 
3 467 487 474 
3 464 488 478 
3 464 471 488 
3 449 489 472 
3 465 484 490 
3 449 485 489 
3 470 477 491 
3 468 492 461 
3 468 483 493 
3 472 489 475 
3 469 473 494 
3 471 495 488 
3 471 461 495 
3 476 496 483 
3 460 486 485 
3 462 497 473 
3 462 474 497 
3 470 491 482 
3 480 481 498 
3 481 482 498 
3 468 493 492 
3 476 475 496 
3 475 489 499 
3 469 494 486 
3 473 500 494 
3 484 479 501 
3 477 502 491 
3 477 478 502 
3 480 503 463 
3 475 504 496 
3 475 499 504 
3 473 497 500 
3 474 505 497 
3 474 487 505 
3 463 506 479 
3 483 496 493 
3 484 501 490 
3 479 506 501 
3 480 498 503 
3 498 482 507 
3 478 488 508 
3 495 509 488 
3 461 492 495 
3 486 510 485 
3 490 501 511 
3 463 503 506 
3 482 491 507 
3 478 508 502 
3 489 485 512 
3 492 493 513 
3 489 512 499 
3 503 498 514 
3 498 507 515 
3 486 494 516 
3 497 505 517 
3 502 508 518 
3 508 488 518 
3 513 493 519 
3 493 496 519 
3 503 514 506 
3 491 520 507 
3 491 502 520 
3 504 499 521 
3 485 510 512 
3 486 516 510 
3 487 522 505 
3 498 515 514 
3 488 509 518 
3 492 513 495 
3 496 504 521 
3 494 523 516 
3 494 500 523 
3 505 522 517 
3 507 524 515 
3 507 520 524 
3 501 525 511 
3 502 518 520 
3 495 513 526 
3 510 527 512 
3 497 528 500 
3 514 515 529 
3 496 521 530 
3 499 531 521 
3 499 512 532 
3 497 517 528 
3 501 506 533 
3 517 522 534 
3 506 514 533 
3 515 524 529 
3 495 526 509 
3 519 496 530 
3 500 528 523 
3 501 533 525 
3 499 532 531 
3 512 527 532 
3 510 516 527 
3 525 533 535 
3 533 514 535 
3 514 536 535 
3 514 537 536 
3 514 529 537 
3 529 538 537 
3 529 524 538 
3 524 539 538 
3 524 520 539 
3 520 540 539 
3 520 518 540 
3 518 541 540 
3 518 542 541 
3 518 509 542 
3 509 543 542 
3 509 526 543 
3 526 544 543 
3 526 513 544 
3 513 545 544 
3 513 519 545 
3 519 530 545 
3 530 546 545 
3 530 521 546 
3 521 547 546 
3 521 531 547 
3 531 548 547 
3 531 532 548 
3 532 549 548 
3 532 527 549 
3 527 550 549 
3 527 516 550 
3 516 551 550 
3 516 523 551 
3 523 552 551 
3 523 528 552 
3 528 553 552 
3 528 517 553 
3 517 534 553 
