ply
format ascii 1.0
comment VCGLIB generated
comment TextureFile dummy.png
element vertex 554
property float x
property float y
property float z
property float nx
property float ny
property float nz
property float texture_u
property float texture_v
element face 1024
property list uchar int vertex_indices
end_header
0 0 256 0 1 0 1 0
17.0625 0 256 0 1 0 1 0.06665039
11.1074 0 248.5518 0 1 0 0.9709053 0.04338837
23.1797 0 252.9961 0 1 0 0.988266 0.09054565
32.62502 0 256 0 1 0 1 0.1274415
32.16408 0 251.5156 0 1 0 0.9824829 0.1256409
44.51369 0 250.4961 0 1 0 0.9785004 0.1738816
43.56252 0 256 0 1 0 1 0.1701661
54.34377 0 256 0 1 0 1 0.2122804
58.80861 0 252.8984 0 1 0 0.9878845 0.2297211
66.5 0 256 0 1 0 1 0.2597656
71.63184 0 248.4131 0 1 0 0.9703636 0.2798119
79.28125 0 256 0 1 0 1 0.3096924
80.23633 0 252.8867 0 1 0 0.9878387 0.3134232
93.625 0 256 0 1 0 1 0.3657227
95.07959 0 251.3643 0 1 0 0.9818916 0.3714046
106.5625 0 256 0 1 0 1 0.4162598
106.8984 0 252.4531 0 1 0 0.986145 0.417572
119.125 0 256 0 1 0 1 0.465332
119.5254 0 250.249 0 1 0 0.9775352 0.4668961
130.2305 0 252.832 0 1 0 0.9876251 0.5087127
132.0625 0 256 0 1 0 1 0.5158691
140.4941 0 249.5742 0 1 0 0.9748993 0.5488052
145.25 0 256 0 1 0 1 0.5673828
153.1806 0 251.332 0 1 0 0.9817657 0.5983619
155.9375 0 256 0 1 0 1 0.6091308
166.125 0 256 0 1 0 1 0.6489257
168.7851 0 251.2012 0 1 0 0.9812546 0.659317
176.6875 0 256 0 1 0 1 0.6901855
178.1601 0 248.5127 0 1 0 0.9707527 0.6959381
186.5 0 256 0 1 0 1 0.7285156
192.844 0 249.5532 0 1 0 0.9748173 0.7532967
197.125 0 256 0 1 0 1 0.7700194
205.0234 0 250.9688 0 1 0 0.9803467 0.8008727
212.875 0 256 0 1 0 1 0.8315428
215.6142 0 247.0723 0 1 0 0.965126 0.8422431
228.5039 0 251.374 0 1 0 0.9819298 0.8925934
228.5312 0 256 0 1 0 1 0.8927001
241.3789 0 251.125 0 1 0 0.980957 0.9428864
243 0 256 0 1 0 1 0.9492188
256 0 256 0 1 0 1 1
54.35744 0 244.7188 0 1 0 0.9559326 0.2123338
39.59768 0 240.9448 0 1 0 0.9411907 0.1546784
104.291 0 243.4209 0 1 0 0.9508629 0.4073868
129.3711 0 237.9961 0 1 0 0.9296722 0.5053558
160.8808 0 244.5742 0 1 0 0.955368 0.6284408
236.6592 0 240.8535 0 1 0 0.940834 0.9244499
0 0 245.625 0 1 0 0.9594727 0
256 0 246.6875 0 1 0 0.963623 1
249.0137 0 243.1309 0 1 0 0.9497299 0.9727097
25.6094 0 243.2793 0 1 0 0.9503098 0.1000367
87.50098 0 242.3613 0 1 0 0.9467239 0.3418007
147.7002 0 240.5918 0 1 0 0.9398117 0.5769538
64.66993 0 239.8564 0 1 0 0.9369392 0.2526169
168.7031 0 236.7988 0 1 0 0.9249954 0.6589965
204.3886 0 237.1465 0 1 0 0.9263535 0.7983931
5.845703 0 238.6895 0 1 0 0.9323807 0.02283478
183.1992 0 237.0654 0 1 0 0.9260368 0.7156219
0 0 236.875 0 1 0 0.925293 0
17.2051 0 233.8281 0 1 0 0.9133911 0.06720734
76.24805 0 234.9219 0 1 0 0.9176636 0.2978439
118.541 0 236.3438 0 1 0 0.9232178 0.4630508
195.771 0 233.4229 0 1 0 0.911808 0.7647303
225.4961 0 235.9014 0 1 0 0.9214897 0.8808441
256 0 237.1875 0 1 0 0.9265137 1
30.50392 0 234.5898 0 1 0 0.9163666 0.1191559
92.38965 0 230.6602 0 1 0 0.9010162 0.3608971
107.3755 0 232.9229 0 1 0 0.9098549 0.4194355
248.6074 0 229.2412 0 1 0 0.8954735 0.9711227
160.7832 0 230.0859 0 1 0 0.8987732 0.6280593
216.1933 0 232.2969 0 1 0 0.9074097 0.8445052
54.16799 0 233.918 0 1 0 0.9137421 0.2115937
139.416 0 227.583 0 1 0 0.8889961 0.5445938
6.4375 0 227.7725 0 1 0 0.8897362 0.02514648
24.1133 0 225.7773 0 1 0 0.8819427 0.0941925
41.17971 0 228.0352 0 1 0 0.8907623 0.1608582
209.1582 0 224.7109 0 1 0 0.8777771 0.8170241
61.47658 0 223.1602 0 1 0 0.8717194 0.2401429
172.0889 0 226.7656 0 1 0 0.8858032 0.6722221
237.5234 0 223.543 0 1 0 0.8732147 0.9278259
49.52346 0 222.9316 0 1 0 0.8708267 0.193451
70.02344 0 224.8438 0 1 0 0.8782959 0.2735291
116.2578 0 225.3086 0 1 0 0.8801117 0.4541321
184.5 0 223.3833 0 1 0 0.872591 0.720703
256 0 221.6875 0 1 0 0.8659668 1
0 0 224.25 0 1 0 0.8759766 0
155.4433 0 222.7461 0 1 0 0.8701019 0.6072006
79.24414 0 224.2207 0 1 0 0.8758621 0.3095474
125.2812 0 221.8369 0 1 0 0.8665505 0.4893799
199.3301 0 219.0078 0 1 0 0.8554993 0.778633
226.2207 0 221.2051 0 1 0 0.8640823 0.8836746
105.1309 0 224.0117 0 1 0 0.8750458 0.4106674
13.9238 0 217.8994 0 1 0 0.8511696 0.05438995
87.13477 0 216.6543 0 1 0 0.8463058 0.3403702
97.70703 0 216.416 0 1 0 0.8453751 0.3816681
148.5019 0 216.0654 0 1 0 0.8440056 0.5800857
3.589798 0 214.2891 0 1 0 0.8370667 0.01402283
38.66994 0 214.3252 0 1 0 0.8372078 0.1510545
74.61621 0 214.2109 0 1 0 0.8367615 0.2914696
112.2432 0 212.9336 0 1 0 0.8317719 0.4384499
138.123 0 214.1641 0 1 0 0.8365784 0.5395431
220.4341 0 212.6367 0 1 0 0.8306122 0.8610706
164.8452 0 211.6543 0 1 0 0.8267746 0.6439266
249.8555 0 209.6499 0 1 0 0.8189449 0.9759979
60.44875 0 212.9512 0 1 0 0.8318405 0.2361279
176.5078 0 212.5 0 1 0 0.8300781 0.6894836
25.75 0 209.9102 0 1 0 0.8199615 0.100586
208.4941 0 212.0547 0 1 0 0.8283386 0.8144301
238.1016 0 212.3154 0 1 0 0.8293571 0.9300842
0 0 209.7188 0 1 0 0.8192139 0
50.65627 0 207.4961 0 1 0 0.8105316 0.1978761
190.0039 0 210.6426 0 1 0 0.8228226 0.7422026
98.90039 0 204.2461 0 1 0 0.7978363 0.3863297
122.8447 0 208.4448 0 1 0 0.8142376 0.4798622
256 0 208.5625 0 1 0 0.8146973 1
70.73779 0 203.2031 0 1 0 0.7937622 0.2763195
197.5 0 204.8047 0 1 0 0.8000183 0.7714843
12.6992 0 207.7812 0 1 0 0.8116455 0.04960632
84.63599 0 198.7705 0 1 0 0.7764473 0.3306093
131.4336 0 202.5078 0 1 0 0.7910462 0.5134124
151.916 0 205.167 0 1 0 0.8014336 0.5934219
41.08401 0 202.3477 0 1 0 0.7904205 0.1604844
140.5137 0 203.2031 0 1 0 0.7937623 0.5488815
206.7461 0 201.6602 0 1 0 0.787735 0.8076018
239.0547 0 202.2178 0 1 0 0.7899132 0.9338074
5.326202 0 200.1387 0 1 0 0.7817917 0.02080536
173.7851 0 203.3145 0 1 0 0.7941971 0.6788482
229.5293 0 203.2461 0 1 0 0.7939301 0.8965988
183.5371 0 196.5078 0 1 0 0.7676086 0.7169418
19.291 0 200.166 0 1 0 0.7818985 0.07535553
161.6308 0 197.6475 0 1 0 0.7720604 0.6313705
107.5781 0 201.4961 0 1 0 0.7870941 0.4202271
113.8486 0 195.3633 0 1 0 0.7631378 0.4447212
256 0 197.6562 0 1 0 0.7720947 1
0 0 198.6875 0 1 0 0.776123 0
28.43361 0 199.9102 0 1 0 0.780899 0.1110688
51.31838 0 194.6816 0 1 0 0.7604752 0.2004624
218.1621 0 198.0586 0 1 0 0.7736664 0.8521956
170.8076 0 193.6914 0 1 0 0.7566071 0.6672172
193.2383 0 193.6133 0 1 0 0.7563019 0.7548369
236.5977 0 193.7363 0 1 0 0.7567825 0.9242096
251.5806 0 191.4734 0 1 0 0.7479429 0.9827366
37.27737 0 193.8086 0 1 0 0.7570648 0.1456147
102.8359 0 192.6133 0 1 0 0.7523956 0.4017029
150.1992 0 191.4941 0 1 0 0.748024 0.5867156
208.3127 0 188.251 0 1 0 0.7353554 0.8137215
126.3047 0 192.75 0 1 0 0.7529297 0.4933777
137.1865 0 191.9356 0 1 0 0.7497483 0.5358848
227.3691 0 189.4297 0 1 0 0.7399597 0.8881606
16.6875 0 191.5469 0 1 0 0.74823 0.06518555
59.68752 0 192.2422 0 1 0 0.750946 0.2331544
3.535202 0 189.4219 0 1 0 0.7399292 0.0138092
72.44141 0 193.0625 0 1 0 0.7541504 0.2829742
92.77832 0 185.2822 0 1 0 0.7237587 0.3624153
0 0 187.8125 0 1 0 0.7336426 0
29.85353 0 187.3145 0 1 0 0.7316971 0.1166154
218.7851 0 185.2588 0 1 0 0.7236671 0.8546294
63.84376 0 184.3418 0 1 0 0.7200851 0.2493897
79.55273 0 184.0752 0 1 0 0.7190437 0.3107529
125.3691 0 181.2383 0 1 0 0.707962 0.4897232
158.4805 0 180.4736 0 1 0 0.7049751 0.6190643
196.2148 0 183.8027 0 1 0 0.7179794 0.7664641
174.7011 0 183.1553 0 1 0 0.7154503 0.6824264
39.82131 0 183.3105 0 1 0 0.7160568 0.155552
106.3184 0 184.293 0 1 0 0.7198944 0.4153061
187.3906 0 185.1797 0 1 0 0.7233582 0.7319945
256 0 184.5 0 1 0 0.7207031 1
53.00393 0 180.9922 0 1 0 0.7070007 0.2070466
114.3984 0 181.0693 0 1 0 0.7073021 0.4468689
135.0859 0 181.1953 0 1 0 0.7077942 0.5276794
20.9824 0 183.2207 0 1 0 0.7157059 0.08196259
147.001 0 181.5215 0 1 0 0.7090683 0.5742225
237.9609 0 179.6455 0 1 0 0.7017403 0.9295349
8.583 0 176.3354 0 1 0 0.6888103 0.03352737
75.19336 0 175.4531 0 1 0 0.6853638 0.2937241
250.7695 0 176.084 0 1 0 0.6878281 0.9795685
203.1718 0 177.7734 0 1 0 0.6944275 0.79364
0 0 173.5312 0 1 0 0.6778564 0
32.42287 0 175.1416 0 1 0 0.6841469 0.1266518
99.30273 0 171.8711 0 1 0 0.6713715 0.3879013
166.9052 0 177.1504 0 1 0 0.6919937 0.6519737
66.65625 0 173.0332 0 1 0 0.6759109 0.260376
189.2676 0 174.8359 0 1 0 0.6829529 0.7393264
214.6758 0 174.0273 0 1 0 0.6797943 0.8385772
44.03127 0 171.3223 0 1 0 0.6692276 0.1719972
177.3027 0 173.5215 0 1 0 0.6778183 0.6925887
130.4331 0 170.9707 0 1 0 0.6678543 0.5095043
226.3164 0 173.1562 0 1 0 0.6763916 0.8840484
86.89258 0 173.4395 0 1 0 0.6774979 0.3394241
256 0 171.125 0 1 0 0.668457 1
142.6357 0 166.542 0 1 0 0.6505547 0.5571708
167.5 0 167.0195 0 1 0 0.65242 0.6542968
195.7617 0 167.9512 0 1 0 0.6560593 0.7646941
116.2798 0 167.6978 0 1 0 0.6550694 0.4542179
183.0398 0 164.8442 0 1 0 0.6439228 0.7149991
204.6406 0 167.7305 0 1 0 0.6551971 0.7993773
238.3662 0 166.7051 0 1 0 0.6511917 0.931118
57.0547 0 166.5469 0 1 0 0.6505737 0.2228699
77.08301 0 165.2817 0 1 0 0.6456318 0.3011055
26.6592 0 166.0938 0 1 0 0.6488037 0.1041375
155.5469 0 167.5078 0 1 0 0.6543274 0.6076049
223.7412 0 162.666 0 1 0 0.6354141 0.873989
213.4521 0 162.7627 0 1 0 0.6357918 0.8337973
35.06252 0 163.3867 0 1 0 0.6382294 0.136963
90.07031 0 163.1953 0 1 0 0.6374817 0.3518372
250.6758 0 162.3618 0 1 0 0.6342258 0.9792023
5.355499 0 161.8789 0 1 0 0.6323395 0.0209198
15.0078 0 161.4219 0 1 0 0.6305542 0.05862427
0 0 159.25 0 1 0 0.6220703 0
66.37793 0 162.1523 0 1 0 0.6334076 0.2592888
101.7881 0 157.918 0 1 0 0.6168671 0.3976097
52.56252 0 158.752 0 1 0 0.6201248 0.2053224
124.0522 0 156.3555 0 1 0 0.6107635 0.4845791
160.4267 0 154.8252 0 1 0 0.6047859 0.626667
134.4863 0 154.7852 0 1 0 0.6046295 0.5253371
202.0468 0 159.0703 0 1 0 0.6213684 0.7892455
256 0 158.6875 0 1 0 0.619873 1
27.0371 0 155.832 0 1 0 0.6087189 0.1056137
40.29104 0 153.7256 0 1 0 0.6004906 0.1573869
115.1914 0 158.082 0 1 0 0.6175079 0.4499664
145.623 0 156.1367 0 1 0 0.6099091 0.56884
170.1445 0 156.5898 0 1 0 0.6116791 0.664627
192.1572 0 150.8838 0 1 0 0.5893898 0.750614
77.50244 0 150.1504 0 1 0 0.586525 0.3027439
2.914101 0 151.4141 0 1 0 0.5914612 0.01138306
86.12598 0 155.2031 0 1 0 0.6062622 0.3364296
235.2656 0 156.6406 0 1 0 0.6118774 0.9190063
12.373 0 151.3359 0 1 0 0.591156 0.04833221
180.8535 0 152.6113 0 1 0 0.596138 0.706459
202.7871 0 147.9805 0 1 0 0.5780487 0.792137
62.51759 0 149.6719 0 1 0 0.5846558 0.2442093
217.3593 0 151.8828 0 1 0 0.5932922 0.8490599
50.98733 0 144.8486 0 1 0 0.565815 0.1991692
242.7578 0 151.1875 0 1 0 0.5905762 0.9482727
252.4697 0 148.0039 0 1 0 0.5781403 0.9862099
234.4219 0 147.8027 0 1 0 0.5773544 0.9157104
115.0762 0 148.125 0 1 0 0.5786133 0.4495163
24.7656 0 146.4922 0 1 0 0.5722351 0.09674075
127.4453 0 146.7461 0 1 0 0.5732269 0.4978332
170.5761 0 142.6309 0 1 0 0.5571518 0.6663131
224.9238 0 145.3301 0 1 0 0.5676956 0.8786086
256 0 146.5625 0 1 0 0.5725098 1
38.92092 0 144.1533 0 1 0 0.5630989 0.1520348
91.99805 0 144.5361 0 1 0 0.5645943 0.3593674
139.6445 0 145.4629 0 1 0 0.5682144 0.5454864
148.6328 0 148 0 1 0 0.578125 0.5805969
0 0 145.6875 0 1 0 0.5690918 0
103.7314 0 144.9697 0 1 0 0.566288 0.405201
158.7754 0 143.7334 0 1 0 0.5614586 0.6202163
210.4228 0 140.7578 0 1 0 0.5498352 0.8219641
15.7666 0 140.1387 0 1 0 0.5474167 0.06158829
183.0761 0 141.7617 0 1 0 0.5537567 0.7151412
241.959 0 141.0312 0 1 0 0.5509033 0.9451523
3.914101 0 141.4629 0 1 0 0.5525894 0.01528931
63.85255 0 140.3223 0 1 0 0.5481339 0.249424
82.32422 0 137.543 0 1 0 0.5372772 0.321579
121.6836 0 139.1953 0 1 0 0.5437317 0.4753265
233.6152 0 135.6953 0 1 0 0.5300598 0.9125595
111.3262 0 135.416 0 1 0 0.5289688 0.4348679
132.1133 0 138.7754 0 1 0 0.5420914 0.5160674
149.3389 0 134.2109 0 1 0 0.5242615 0.5833549
194.3789 0 139.4453 0 1 0 0.5447083 0.7592925
250.8418 0 132.2832 0 1 0 0.5167313 0.9798508
26.3067 0 133.4531 0 1 0 0.5213013 0.1027604
225.3711 0 132.4121 0 1 0 0.5172348 0.8803558
0 0 135.3125 0 1 0 0.5285645 0
57.19386 0 133.8066 0 1 0 0.5226822 0.2234135
163.706 0 132.4673 0 1 0 0.5174503 0.6394767
178.043 0 133.9414 0 1 0 0.5232086 0.6954803
187.0703 0 132.7715 0 1 0 0.5186386 0.7307433
256 0 133.125 0 1 0 0.5200195 1
7.677696 0 131.3535 0 1 0 0.5130997 0.02999115
91.2207 0 129.3516 0 1 0 0.5052795 0.3563309
126.7715 0 131.5117 0 1 0 0.5137177 0.4952011
37.83791 0 132.6948 0 1 0 0.5183392 0.1478043
73.26709 0 128.8936 0 1 0 0.5034904 0.2861996
49.85744 0 126.9639 0 1 0 0.4959526 0.1947556
140.3603 0 127.5918 0 1 0 0.4984055 0.5482826
214.6543 0 126.1826 0 1 0 0.4929008 0.8384932
243.2744 0 123.1514 0 1 0 0.48106 0.9502907
200.8398 0 129.3438 0 1 0 0.505249 0.7845305
99.22559 0 122.6377 0 1 0 0.4790535 0.3875999
0 0 124.3125 0 1 0 0.4855957 0
185.9389 0 124.1904 0 1 0 0.4851189 0.726324
233.6992 0 122.8359 0 1 0 0.4798279 0.9128876
21.4219 0 121.7441 0 1 0 0.475563 0.0836792
110.8799 0 121.5566 0 1 0 0.4748306 0.4331245
157.499 0 119.0703 0 1 0 0.4651184 0.6152305
173.4355 0 120.5352 0 1 0 0.4708405 0.6774825
64.17579 0 122.1035 0 1 0 0.4769669 0.2506867
9.420898 0 122.5781 0 1 0 0.4788208 0.03680038
36.13576 0 119.3398 0 1 0 0.4661713 0.1411553
83.57031 0 121.3271 0 1 0 0.4739342 0.3264465
124.0859 0 122.2246 0 1 0 0.4774399 0.4847107
221.9399 0 114.3262 0 1 0 0.4465866 0.8669528
256 0 119.4375 0 1 0 0.4665527 1
47.27346 0 116.9316 0 1 0 0.4567642 0.184662
146.5049 0 115.9678 0 1 0 0.4529991 0.5722846
199.5234 0 120.7441 0 1 0 0.4716568 0.7793883
208.4883 0 111.7783 0 1 0 0.4366341 0.8144072
252.1875 0 117.0703 0 1 0 0.4573059 0.9851074
56.96584 0 117.3203 0 1 0 0.4582825 0.2225228
129.7197 0 111.2769 0 1 0 0.4346752 0.5067176
15.5029 0 109.4453 0 1 0 0.4275208 0.06055832
105.7412 0 113.1772 0 1 0 0.4420986 0.4130516
189.9648 0 116.4844 0 1 0 0.4550171 0.7420501
234.7158 0 110.8916 0 1 0 0.4331703 0.9168587
0 0 111.3438 0 1 0 0.4349365 0
73.41406 0 112.8252 0 1 0 0.4407234 0.2867737
244.418 0 108.4922 0 1 0 0.4237976 0.9547577
3.792999 0 110.7305 0 1 0 0.4325409 0.01481628
115.3672 0 108.0459 0 1 0 0.4220543 0.4506531
27.6934 0 110.0684 0 1 0 0.4299545 0.1081772
180.3672 0 111.6797 0 1 0 0.4362488 0.7045593
87.92822 0 109.8984 0 1 0 0.4292908 0.3434696
170.8135 0 107.647 0 1 0 0.420496 0.6672401
197.4023 0 109.0391 0 1 0 0.4259338 0.7711028
63.19533 0 109.2539 0 1 0 0.4267731 0.2468567
188.5976 0 107.1719 0 1 0 0.4186401 0.7367095
256 0 107.2188 0 1 0 0.4188232 1
37.55862 0 109.7988 0 1 0 0.4289017 0.1467133
51.88479 0 107.2119 0 1 0 0.4187965 0.202675
154.2051 0 105.6328 0 1 0 0.4126282 0.6023635
143.2734 0 107.3086 0 1 0 0.4191742 0.5596618
253.5859 0 106.9766 0 1 0 0.4178772 0.9905701
70.55469 0 102.9102 0 1 0 0.4019928 0.2756042
180.3848 0 101.8789 0 1 0 0.3979645 0.7046279
218.726 0 97.07178 0 1 0 0.3791866 0.8543986
44.18948 0 100.6504 0 1 0 0.3931656 0.1726151
103.1875 0 103.4961 0 1 0 0.4042816 0.4030762
29.95412 0 99.61133 0 1 0 0.3891068 0.1170083
80.4082 0 98.14258 0 1 0 0.3833694 0.3140945
122.3281 0 98.79883 0 1 0 0.3859329 0.4778442
134.1914 0 101.9766 0 1 0 0.3983459 0.5241851
7.299797 0 98.95996 0 1 0 0.3865623 0.02851486
161.7305 0 98.53711 0 1 0 0.3849106 0.6317596
227.7226 0 101.3672 0 1 0 0.3959656 0.8895416
250.4473 0 94.56836 0 1 0 0.3694077 0.9783096
0 0 96.96875 0 1 0 0.3787842 0
65.63673 0 95.2793 0 1 0 0.3721848 0.2563935
193.3867 0 96.6001 0 1 0 0.3773441 0.7554168
207.0459 0 95.30664 0 1 0 0.3722916 0.8087729
238.9688 0 96.31641 0 1 0 0.376236 0.9334717
144.1621 0 95.94141 0 1 0 0.3747711 0.5631332
256 0 95.0625 0 1 0 0.3713379 1
94.98047 0 94.97461 0 1 0 0.3709946 0.3710175
56.05276 0 93.38965 0 1 0 0.3648033 0.2189561
109.5938 0 94.30469 0 1 0 0.3683777 0.4281006
16.6953 0 92.05664 0 1 0 0.3595963 0.06521606
135.0449 0 92.35156 0 1 0 0.3607483 0.5275192
174.1484 0 91.25 0 1 0 0.3564453 0.6802673
43.30666 0 88.66016 0 1 0 0.3463287 0.1691667
75.86133 0 88.07617 0 1 0 0.3440475 0.2963333
153.6601 0 90.61719 0 1 0 0.3539734 0.6002349
164.2998 0 88.49219 0 1 0 0.3456726 0.6417961
185.4687 0 84.89551 0 1 0 0.3316231 0.7244872
230.0137 0 89.9043 0 1 0 0.3511887 0.8984909
28.79054 0 86.99365 0 1 0 0.339819 0.1124631
85.52539 0 85.12598 0 1 0 0.3325233 0.3340836
120.668 0 88.10156 0 1 0 0.3441467 0.4713593
129.9306 0 79.74805 0 1 0 0.3115158 0.5075416
108.0869 0 85.25391 0 1 0 0.3330231 0.4222145
241.7773 0 85.57422 0 1 0 0.3342743 0.9444427
0 0 84.125 0 1 0 0.3286133 0
5.324203 0 82.61914 0 1 0 0.322731 0.02079773
66.58398 0 84.41406 0 1 0 0.3297424 0.2600937
143.0517 0 84.10986 0 1 0 0.3285542 0.5587959
201.7011 0 83.77832 0 1 0 0.3272591 0.7878951
220.1562 0 83.31836 0 1 0 0.3254623 0.8599852
34.40822 0 77.89844 0 1 0 0.3042908 0.1344071
56.20509 0 79.21387 0 1 0 0.3094292 0.2195511
154.6714 0 77.60669 0 1 0 0.3031511 0.604185
174.5654 0 79.68555 0 1 0 0.3112717 0.6818962
14.6582 0 81.71875 0 1 0 0.3192139 0.05725861
96 0 82.07812 0 1 0 0.3206177 0.375
233.0879 0 77.54688 0 1 0 0.3029175 0.9104996
256 0 79.53125 0 1 0 0.3106689 1
250.6016 0 77.57227 0 1 0 0.3030167 0.9789124
78.79785 0 74.37891 0 1 0 0.2905426 0.3078041
90.24609 0 75.63867 0 1 0 0.2954636 0.3525238
115.2876 0 75.20996 0 1 0 0.2937889 0.4503422
46.48049 0 75.65625 0 1 0 0.2955322 0.1815644
103.1445 0 73.54785 0 1 0 0.2872963 0.4029083
198.9131 0 70.38477 0 1 0 0.2749405 0.7770041
69.75391 0 70.91895 0 1 0 0.2770271 0.2724762
22.8203 0 73.70703 0 1 0 0.2879181 0.08914185
185.9463 0 71.83203 0 1 0 0.2805939 0.7263526
207.6797 0 74.82422 0 1 0 0.2922821 0.8112487
242.998 0 72.81641 0 1 0 0.2844391 0.9492111
0 0 73.0625 0 1 0 0.2854004 0
138.499 0 68.62305 0 1 0 0.2680588 0.5410118
216.9414 0 73.07812 0 1 0 0.2854614 0.8474272
227.0723 0 70.90234 0 1 0 0.2769623 0.887001
3.8125 0 68.52539 0 1 0 0.2676773 0.01489258
12.5137 0 71.24707 0 1 0 0.2783089 0.04888153
169.2656 0 70.94922 0 1 0 0.2771454 0.6611938
56.63478 0 68.17383 0 1 0 0.266304 0.2212296
123.875 0 69.16602 0 1 0 0.2701797 0.4838867
210.3193 0 62.98535 0 1 0 0.2460365 0.8215598
28.00587 0 62.76758 0 1 0 0.2451859 0.1093979
39.04104 0 65.96289 0 1 0 0.2576675 0.1525041
87.77637 0 64.95508 0 1 0 0.2537308 0.3428764
237.2344 0 62.30469 0 1 0 0.2433777 0.9266968
256 0 65.6875 0 1 0 0.2565918 1
111.4082 0 64.70117 0 1 0 0.252739 0.4351883
151.7012 0 63.30664 0 1 0 0.2472916 0.5925826
164.4961 0 63.31445 0 1 0 0.2473221 0.6425628
252.0498 0 64.05859 0 1 0 0.2502289 0.9845695
16.9082 0 63.00781 0 1 0 0.2461243 0.06604767
176.0796 0 62.61621 0 1 0 0.2445946 0.6878108
191.9526 0 61.04688 0 1 0 0.2384644 0.7498149
223.1953 0 61.83789 0 1 0 0.2415543 0.8718566
0 0 61.5625 0 1 0 0.2404785 0
63.22462 0 61.30664 0 1 0 0.2394791 0.2469712
124.873 0 59.99805 0 1 0 0.2343674 0.4877853
103.5723 0 57.66211 0 1 0 0.2252426 0.4045792
45.83596 0 59.09473 0 1 0 0.2308388 0.1790467
74.04688 0 60.33203 0 1 0 0.235672 0.2892456
140.0468 0 57.94727 0 1 0 0.2263565 0.547058
159.5859 0 55.57812 0 1 0 0.2171021 0.6233825
5.072304 0 53.52051 0 1 0 0.2090645 0.01981354
36.13869 0 50.00879 0 1 0 0.1953468 0.1411668
81.54492 0 54.48633 0 1 0 0.2128372 0.3185349
184.3066 0 51.61816 0 1 0 0.2016335 0.7199477
112.8809 0 49.27148 0 1 0 0.1924667 0.4409409
245.0767 0 48.36987 0 1 0 0.1889448 0.9573307
19.4668 0 52.03223 0 1 0 0.2032509 0.07604218
67.77344 0 52.77344 0 1 0 0.2061462 0.26474
167.5635 0 50.12158 0 1 0 0.1957874 0.6545448
204.1367 0 52.83203 0 1 0 0.2063751 0.7974089
218.9511 0 53.28516 0 1 0 0.2081451 0.8552779
256 0 52.9375 0 1 0 0.2067871 1
93.8457 0 52.125 0 1 0 0.2036133 0.3665848
133.6406 0 49.83252 0 1 0 0.1946583 0.5220336
55.7969 0 50.75391 0 1 0 0.1982574 0.2179566
0 0 47.1875 0 1 0 0.1843262 0
46.37698 0 48.95312 0 1 0 0.1912231 0.1811601
149.6516 0 48.96777 0 1 0 0.1912804 0.5845765
223.9824 0 45.74805 0 1 0 0.1787033 0.8749313
235.2529 0 43.48047 0 1 0 0.1698456 0.9189568
213.2597 0 43.8916 0 1 0 0.1714516 0.8330458
99.66504 0 42.95117 0 1 0 0.167778 0.3893166
123.8359 0 42.64062 0 1 0 0.1665649 0.4837341
198.6582 0 45.43945 0 1 0 0.1774979 0.7760085
11.9297 0 45.67578 0 1 0 0.178421 0.04660034
74.33984 0 41.18652 0 1 0 0.1608849 0.29039
177.1348 0 42.7959 0 1 0 0.1671715 0.6919326
4.724602 0 38.51465 0 1 0 0.1504478 0.01845551
64.06446 0 41.6875 0 1 0 0.1628418 0.2502518
190.084 0 37.48828 0 1 0 0.1464386 0.7425154
251.6641 0 41.15625 0 1 0 0.1607666 0.9830627
85.87598 0 41.15234 0 1 0 0.1607513 0.335453
256 0 43.5 0 1 0 0.1699219 1
28.85939 0 43.22656 0 1 0 0.1688538 0.112732
40.05471 0 39.21875 0 1 0 0.1531982 0.1564637
160.4023 0 40.20312 0 1 0 0.1570435 0.6265716
17.4092 0 38.25732 0 1 0 0.1494427 0.06800461
52.43362 0 38.60449 0 1 0 0.1507988 0.2048188
149.8828 0 37.83203 0 1 0 0.1477814 0.5854797
137.0664 0 37.98047 0 1 0 0.1483612 0.5354156
201.9199 0 35.20264 0 1 0 0.1375103 0.7887496
113.7197 0 32.10352 0 1 0 0.1254044 0.4442177
242.9707 0 34.33984 0 1 0 0.13414 0.9491043
25.606 0 28.54199 0 1 0 0.1114922 0.1000233
92.42383 0 33.92969 0 1 0 0.1325378 0.3610306
0 0 33.125 0 1 0 0.1293945 0
223.4414 0 36.16211 0 1 0 0.1412582 0.8728179
256 0 33.875 0 1 0 0.1323242 1
126.8223 0 30.72266 0 1 0 0.1200104 0.4953994
216.1289 0 31.1582 0 1 0 0.1217117 0.8442534
67.47461 0 30.53125 0 1 0 0.1192627 0.2635727
103.5215 0 30.08984 0 1 0 0.1175385 0.4043808
179.3672 0 32.10938 0 1 0 0.1254272 0.700653
233.0015 0 27.9985 0 1 0 0.1093693 0.910162
251.127 0 28.82031 0 1 0 0.1125793 0.9809647
165.2617 0 27.0439 0 1 0 0.1056404 0.6455535
152.2514 0 29.45801 0 1 0 0.1150703 0.5947322
77.14453 0 27.9463 0 1 0 0.1091652 0.3013458
85.86133 0 26.0371 0 1 0 0.1017075 0.3353958
16.1777 0 25.5312 0 1 0 0.09973145 0.06319427
35.39455 0 27.4766 0 1 0 0.1073303 0.13826
46.01174 0 27.4277 0 1 0 0.1071396 0.1797334
59.03615 0 26.4141 0 1 0 0.1031799 0.23061
141.6582 0 27.6621 0 1 0 0.1080551 0.5533523
4.277298 0 27.3843 0 1 0 0.1069698 0.01670837
193.8515 0 23.7197 0 1 0 0.09265518 0.7572325
205.6875 0 22.0781 0 1 0 0.08624268 0.8034667
256 0 22.75 0 1 0 0.08886719 1
99.18848 0 21.4443 0 1 0 0.08376694 0.387455
182.8926 0 23.5352 0 1 0 0.0919342 0.7144241
0 0 23.3125 0 1 0 0.09106445 0
72.02637 0 19.4062 0 1 0 0.07580566 0.281353
121.668 0 19.7852 0 1 0 0.07728577 0.4752655
134.0469 0 20.0508 0 1 0 0.07832336 0.5236205
216.5986 0 18.9902 0 1 0 0.0741806 0.8460883
112.3105 0 16.75 0 1 0 0.06542969 0.4387131
148.6914 0 18.4922 0 1 0 0.07223511 0.5808257
238.2031 0 17.9297 0 1 0 0.07003784 0.930481
49.15627 0 18.9824 0 1 0 0.07415009 0.1920167
173.5259 0 14.3438 0 1 0 0.05603027 0.6778354
226.8613 0 14.168 0 1 0 0.05534363 0.886177
7.818398 0 13.5894 0 1 0 0.05308342 0.03054047
80.71484 0 15.7148 0 1 0 0.06138611 0.3152924
35.39065 0 16.8125 0 1 0 0.06567383 0.1382447
162.2129 0 18.0137 0 1 0 0.07036591 0.633644
253.3271 0 16.5283 0 1 0 0.06456375 0.9895592
23.1304 0 13.1514 0 1 0 0.05137253 0.09035304
62.43751 0 14.7871 0 1 0 0.05776215 0.2438965
90.57812 0 17.1016 0 1 0 0.06680298 0.3538208
103.5771 0 7.439003 0 1 0 0.02905846 0.4045982
198.9336 0 11.5234 0 1 0 0.04501343 0.7770842
0 0 14.3125 0 1 0 0.0559082 0
187.793 0 12.3555 0 1 0 0.04826355 0.7335662
126.8047 0 9.585899 0 1 0 0.03744507 0.4953308
37.57033 0 6.624001 0 1 0 0.02587509 0.1467591
54.3594 0 11.7305 0 1 0 0.04582214 0.2123414
207.7627 0 7.589798 0 1 0 0.02964783 0.8115729
244.6885 0 8.516602 0 1 0 0.03326797 0.9558144
88.49609 0 6.923798 0 1 0 0.0270462 0.3456879
137.8965 0 6.595703 0 1 0 0.02576447 0.5386581
74.32031 0 6.974602 0 1 0 0.02724457 0.2903137
156.5058 0 6.927696 0 1 0 0.02706146 0.611351
256 0 9.3125 0 1 0 0.03637695 1
220.8808 0 4.785202 0 1 0 0.01869202 0.8628157
64.53712 0 3.832001 0 1 0 0.01496887 0.2520981
0 0 0 0 1 0 0 0
116.1406 0 4.031197 0 1 0 0.01574707 0.4536743
194.2754 0 4.0625 0 1 0 0.01586914 0.7588881
233.8828 0 3.899399 0 1 0 0.01523209 0.9136047
50.65237 0 3.417999 0 1 0 0.01335144 0.1978608
148.1484 0 3.367203 0 1 0 0.01315308 0.5787048
171.1386 0 3.394501 0 1 0 0.01325989 0.6685104
183.3359 0 3.535202 0 1 0 0.0138092 0.7161559
21.2861 0 3.779297 0 1 0 0.01476288 0.08314896
256 0 0 0 1 0 0 1
16.0625 0 0 0 1 0 0 0.06274414
30.68752 0 0 0 1 0 0 0.1198731
40.87502 0 0 0 1 0 0 0.1596681
52.46877 0 0 0 1 0 0 0.2049561
66.37502 0 0 0 1 0 0 0.2592774
79.125 0 0 0 1 0 0 0.309082
88.5 0 0 0 1 0 0 0.3457031
99.125 0 0 0 1 0 0 0.387207
112.1562 0 0 0 1 0 0 0.4381104
124.9375 0 0 0 1 0 0 0.4880371
138.5312 0 0 0 1 0 0 0.5411376
152.5 0 0 0 1 0 0 0.5957031
165.5625 0 0 0 1 0 0 0.6467285
178.3125 0 0 0 1 0 0 0.6965331
189.8437 0 0 0 1 0 0 0.741577
203.4687 0 0 0 1 0 0 0.7947997
213.75 0 0 0 1 0 0 0.8349608
227.625 0 0 0 1 0 0 0.8891601
242.0312 0 0 0 1 0 0 0.9454346
3 0 1 2 
3 1 3 2 
3 1 4 3 
3 4 5 3 
3 4 6 5 
3 4 7 6 
3 7 8 6 
3 8 9 6 
3 8 10 9 
3 10 11 9 
3 10 12 11 
3 12 13 11 
3 12 14 13 
3 14 15 13 
3 14 16 15 
3 16 17 15 
3 16 18 17 
3 18 19 17 
3 18 20 19 
3 18 21 20 
3 21 22 20 
3 21 23 22 
3 23 24 22 
3 23 25 24 
3 25 26 24 
3 26 27 24 
3 26 28 27 
3 28 29 27 
3 28 30 29 
3 30 31 29 
3 30 32 31 
3 32 33 31 
3 32 34 33 
3 34 35 33 
3 34 36 35 
3 34 37 36 
3 37 38 36 
3 37 39 38 
3 39 40 38 
3 9 41 6 
3 5 6 42 
3 15 17 43 
3 17 19 43 
3 20 44 19 
3 24 27 45 
3 36 38 46 
3 0 2 47 
3 40 48 49 
3 3 5 50 
3 13 15 51 
3 22 24 52 
3 3 50 2 
3 9 53 41 
3 9 11 53 
3 13 51 11 
3 38 40 49 
3 20 22 44 
3 52 24 45 
3 27 29 54 
3 33 35 55 
3 43 51 15 
3 27 54 45 
3 2 56 47 
3 5 42 50 
3 29 31 57 
3 38 49 46 
3 6 41 42 
3 33 55 31 
3 47 56 58 
3 2 50 59 
3 11 51 60 
3 19 61 43 
3 19 44 61 
3 31 55 62 
3 35 36 63 
3 46 63 36 
3 48 64 49 
3 11 60 53 
3 2 59 56 
3 50 42 65 
3 51 43 66 
3 22 52 44 
3 31 62 57 
3 50 65 59 
3 43 67 66 
3 49 64 68 
3 45 69 52 
3 45 54 69 
3 35 63 70 
3 42 41 71 
3 41 53 71 
3 43 61 67 
3 35 70 55 
3 44 52 72 
3 56 73 58 
3 29 57 54 
3 49 68 46 
3 51 66 60 
3 56 59 73 
3 65 74 59 
3 42 71 75 
3 55 70 76 
3 65 42 75 
3 53 77 71 
3 54 57 78 
3 46 79 63 
3 71 80 75 
3 53 60 81 
3 67 61 82 
3 57 62 83 
3 46 68 79 
3 64 84 68 
3 58 73 85 
3 53 81 77 
3 52 69 86 
3 54 78 69 
3 55 76 62 
3 57 83 78 
3 65 75 74 
3 71 77 80 
3 60 87 81 
3 60 66 87 
3 61 88 82 
3 61 44 88 
3 44 72 88 
3 52 86 72 
3 62 76 89 
3 70 63 90 
3 66 67 91 
3 67 82 91 
3 62 89 83 
3 70 90 76 
3 63 79 90 
3 59 92 73 
3 59 74 92 
3 87 66 93 
3 66 91 94 
3 86 95 72 
3 69 78 86 
3 73 96 85 
3 74 75 97 
3 77 81 98 
3 91 82 99 
3 72 100 88 
3 76 90 101 
3 81 87 98 
3 66 94 93 
3 82 88 99 
3 86 78 102 
3 68 103 79 
3 80 77 104 
3 91 99 94 
3 72 95 100 
3 78 83 105 
3 87 93 98 
3 78 105 102 
3 68 84 103 
3 92 74 106 
3 75 80 97 
3 89 76 107 
3 79 108 90 
3 79 103 108 
3 85 96 109 
3 73 92 96 
3 74 97 106 
3 80 104 110 
3 77 98 104 
3 83 89 111 
3 80 110 97 
3 86 102 95 
3 83 111 105 
3 76 101 107 
3 99 112 94 
3 88 113 99 
3 84 114 103 
3 98 115 104 
3 107 116 89 
3 90 108 101 
3 96 92 117 
3 92 106 117 
3 111 89 116 
3 93 118 98 
3 88 119 113 
3 95 120 100 
3 97 121 106 
3 94 112 93 
3 88 100 119 
3 100 120 122 
3 107 101 123 
3 108 103 124 
3 96 125 109 
3 95 102 120 
3 105 126 102 
3 101 108 127 
3 96 117 125 
3 97 110 121 
3 104 115 110 
3 111 128 105 
3 116 107 123 
3 106 129 117 
3 100 122 119 
3 120 102 130 
3 105 128 126 
3 108 124 127 
3 98 118 115 
3 93 112 118 
3 99 131 112 
3 99 113 132 
3 111 116 128 
3 99 132 131 
3 114 133 103 
3 109 125 134 
3 106 135 129 
3 106 121 135 
3 102 126 130 
3 110 115 136 
3 101 127 137 
3 117 129 125 
3 121 110 136 
3 113 119 132 
3 123 101 137 
3 126 138 130 
3 116 123 139 
3 127 124 140 
3 103 133 141 
3 121 142 135 
3 131 143 112 
3 120 144 122 
3 120 130 144 
3 126 128 138 
3 116 139 128 
3 123 137 145 
3 124 103 141 
3 132 119 146 
3 122 147 119 
3 123 145 139 
3 137 127 148 
3 124 141 140 
3 129 149 125 
3 129 135 149 
3 136 115 150 
3 131 132 143 
3 122 144 147 
3 125 151 134 
3 115 118 152 
3 118 112 153 
3 112 143 153 
3 127 140 148 
3 134 151 154 
3 135 155 149 
3 135 142 155 
3 137 148 156 
3 125 149 151 
3 121 136 142 
3 115 157 150 
3 115 152 157 
3 146 119 147 
3 152 118 158 
3 146 147 159 
3 144 130 160 
3 139 145 161 
3 137 156 145 
3 128 162 138 
3 136 163 142 
3 152 158 157 
3 118 153 158 
3 143 132 164 
3 128 139 165 
3 133 166 141 
3 136 150 167 
3 153 143 164 
3 132 159 168 
3 132 146 159 
3 147 169 159 
3 149 155 170 
3 142 163 155 
3 150 157 167 
3 132 168 164 
3 147 144 171 
3 130 138 160 
3 128 165 162 
3 139 161 165 
3 136 167 163 
3 138 162 160 
3 140 141 172 
3 151 149 173 
3 149 170 173 
3 147 171 169 
3 148 140 172 
3 151 173 154 
3 144 160 171 
3 157 158 174 
3 141 175 172 
3 141 166 175 
3 145 176 161 
3 154 173 177 
3 155 163 178 
3 164 179 153 
3 162 180 160 
3 148 172 156 
3 170 155 178 
3 157 174 181 
3 162 165 182 
3 145 156 183 
3 163 167 184 
3 162 182 185 
3 165 161 182 
3 164 168 179 
3 159 169 186 
3 145 183 176 
3 156 172 187 
3 157 181 167 
3 158 153 188 
3 180 162 185 
3 166 189 175 
3 170 178 173 
3 163 184 178 
3 158 188 174 
3 153 179 188 
3 169 171 186 
3 171 160 190 
3 160 180 191 
3 161 192 182 
3 161 176 192 
3 156 187 183 
3 179 168 193 
3 168 159 193 
3 185 182 194 
3 176 195 192 
3 176 183 195 
3 172 175 196 
3 167 181 197 
3 174 188 198 
3 171 190 186 
3 172 196 187 
3 178 199 173 
3 159 186 193 
3 180 185 191 
3 167 197 184 
3 174 198 181 
3 160 191 200 
3 183 187 201 
3 160 200 190 
3 183 201 202 
3 178 203 199 
3 178 184 203 
3 188 179 204 
3 185 194 191 
3 182 192 194 
3 183 202 195 
3 175 205 196 
3 175 189 205 
3 173 206 177 
3 173 199 207 
3 188 204 198 
3 187 196 201 
3 177 206 208 
3 173 207 206 
3 181 198 209 
3 179 210 204 
3 179 193 210 
3 184 197 211 
3 181 209 197 
3 193 186 212 
3 200 213 190 
3 191 213 200 
3 190 214 186 
3 195 215 192 
3 189 216 205 
3 199 217 207 
3 184 211 218 
3 193 212 219 
3 186 214 212 
3 190 213 220 
3 195 202 215 
3 191 221 213 
3 191 194 221 
3 192 222 194 
3 197 209 211 
3 198 223 209 
3 210 193 219 
3 192 215 222 
3 206 224 208 
3 184 218 203 
3 198 204 225 
3 204 210 225 
3 190 220 214 
3 196 226 201 
3 207 227 206 
3 199 203 217 
3 198 225 223 
3 196 205 226 
3 206 227 224 
3 194 228 221 
3 215 202 229 
3 209 230 211 
3 202 201 231 
3 207 217 227 
3 218 211 232 
3 194 222 228 
3 205 233 226 
3 205 216 234 
3 203 218 217 
3 209 223 230 
3 222 215 229 
3 201 226 235 
3 226 233 235 
3 219 236 210 
3 212 236 219 
3 202 231 229 
3 205 234 233 
3 227 217 237 
3 212 214 238 
3 221 228 239 
3 201 235 240 
3 216 241 234 
3 218 232 242 
3 210 243 225 
3 214 220 244 
3 220 213 245 
3 213 221 239 
3 201 240 231 
3 208 224 246 
3 217 218 237 
3 211 230 232 
3 210 236 247 
3 236 212 238 
3 213 248 245 
3 231 249 229 
3 218 242 237 
3 225 243 223 
3 214 244 238 
3 220 245 244 
3 213 239 248 
3 227 237 250 
3 210 247 243 
3 231 240 249 
3 228 251 239 
3 228 222 251 
3 233 234 252 
3 224 253 246 
3 227 253 224 
3 227 250 253 
3 235 233 252 
3 232 230 254 
3 223 243 255 
3 236 238 256 
3 235 257 240 
3 230 223 254 
3 236 258 247 
3 238 259 256 
3 238 244 259 
3 245 260 244 
3 222 261 251 
3 222 229 261 
3 234 262 252 
3 237 263 250 
3 236 256 258 
3 245 248 260 
3 249 240 264 
3 235 252 257 
3 234 241 262 
3 237 242 263 
3 223 255 254 
3 244 260 259 
3 246 253 265 
3 232 254 266 
3 248 239 267 
3 251 268 239 
3 251 261 269 
3 229 249 261 
3 264 240 257 
3 241 270 262 
3 253 271 265 
3 243 247 272 
3 256 259 273 
3 248 267 260 
3 242 274 263 
3 254 255 275 
3 253 250 271 
3 242 276 274 
3 242 232 276 
3 243 272 255 
3 232 266 276 
3 254 275 266 
3 247 258 272 
3 260 277 259 
3 249 264 278 
3 252 262 279 
3 239 268 267 
3 268 251 269 
3 261 249 280 
3 250 263 271 
3 256 273 258 
3 249 278 280 
3 252 279 257 
3 259 277 273 
3 269 261 280 
3 272 258 281 
3 265 271 282 
3 255 272 275 
3 269 283 268 
3 257 284 264 
3 257 279 284 
3 271 263 285 
3 258 286 281 
3 260 267 287 
3 267 268 288 
3 269 280 283 
3 266 275 289 
3 268 283 288 
3 271 290 282 
3 263 274 291 
3 275 272 292 
3 273 293 258 
3 264 294 278 
3 271 285 290 
3 276 291 274 
3 266 289 276 
3 273 277 293 
3 270 295 262 
3 263 291 285 
3 258 293 286 
3 264 284 294 
3 276 296 291 
3 277 260 297 
3 260 287 297 
3 280 298 283 
3 280 278 299 
3 279 262 300 
3 262 295 300 
3 276 289 301 
3 292 272 281 
3 277 302 293 
3 280 299 298 
3 277 297 302 
3 290 285 303 
3 276 301 296 
3 286 304 281 
3 267 288 287 
3 283 298 305 
3 284 279 306 
3 282 290 307 
3 289 275 308 
3 292 308 275 
3 279 300 309 
3 290 310 307 
3 289 308 301 
3 286 293 311 
3 291 312 285 
3 286 311 304 
3 288 283 313 
3 283 305 313 
3 290 303 310 
3 308 292 314 
3 292 281 314 
3 281 304 314 
3 288 313 315 
3 298 316 305 
3 298 299 316 
3 278 294 299 
3 284 306 294 
3 279 309 306 
3 301 308 317 
3 287 288 315 
3 305 318 313 
3 295 319 300 
3 285 312 303 
3 291 320 312 
3 291 296 320 
3 296 321 320 
3 293 302 311 
3 297 287 322 
3 287 315 322 
3 301 321 296 
3 297 323 302 
3 305 316 318 
3 300 319 324 
3 301 317 321 
3 300 324 309 
3 308 325 317 
3 297 322 323 
3 313 318 326 
3 294 327 299 
3 320 321 328 
3 311 329 304 
3 312 330 303 
3 320 330 312 
3 308 314 331 
3 311 302 332 
3 302 323 333 
3 313 326 315 
3 310 334 307 
3 314 304 329 
3 315 335 322 
3 294 306 336 
3 324 337 309 
3 307 334 338 
3 310 303 334 
3 320 328 330 
3 317 339 321 
3 317 325 339 
3 318 316 340 
3 299 341 316 
3 309 342 306 
3 308 331 325 
3 316 341 340 
3 299 327 341 
3 294 336 327 
3 323 322 343 
3 324 319 337 
3 319 344 337 
3 314 329 345 
3 302 333 332 
3 333 323 343 
3 318 340 326 
3 328 321 346 
3 329 311 347 
3 306 342 336 
3 309 337 342 
3 329 347 345 
3 311 332 347 
3 315 326 335 
3 334 303 348 
3 303 330 348 
3 321 339 346 
3 333 349 332 
3 333 343 349 
3 335 326 350 
3 314 345 331 
3 330 328 351 
3 325 352 339 
3 325 331 352 
3 322 353 343 
3 335 353 322 
3 335 350 354 
3 326 355 350 
3 336 356 327 
3 336 342 356 
3 330 357 348 
3 331 345 358 
3 335 354 353 
3 326 340 355 
3 330 351 357 
3 328 346 351 
3 347 332 359 
3 332 360 359 
3 332 349 360 
3 331 358 352 
3 345 347 361 
3 342 362 356 
3 338 334 363 
3 334 364 363 
3 334 348 364 
3 342 337 362 
3 346 339 365 
3 339 352 365 
3 347 359 361 
3 349 343 366 
3 343 353 366 
3 341 367 340 
3 327 368 341 
3 351 369 357 
3 346 370 351 
3 349 366 360 
3 346 365 370 
3 340 367 355 
3 327 356 368 
3 353 354 371 
3 350 355 372 
3 348 373 364 
3 348 357 373 
3 358 345 374 
3 345 361 374 
3 353 371 366 
3 354 350 372 
3 356 362 375 
3 344 376 337 
3 337 377 362 
3 337 376 377 
3 341 368 367 
3 356 375 368 
3 352 358 378 
3 358 374 379 
3 359 360 380 
3 351 381 369 
3 352 378 365 
3 374 361 382 
3 361 359 380 
3 355 367 383 
3 365 378 384 
3 361 380 382 
3 373 357 385 
3 351 370 381 
3 365 384 370 
3 354 372 371 
3 355 383 386 
3 367 368 387 
3 362 388 375 
3 362 377 388 
3 363 364 389 
3 357 369 385 
3 374 382 379 
3 371 390 366 
3 368 391 387 
3 368 375 392 
3 358 379 378 
3 368 392 391 
3 364 393 389 
3 364 373 394 
3 372 395 371 
3 355 386 372 
3 373 385 394 
3 366 390 360 
3 367 387 383 
3 372 386 395 
3 364 394 393 
3 370 384 396 
3 380 360 397 
3 391 398 387 
3 370 396 381 
3 369 399 385 
3 369 400 399 
3 369 381 400 
3 379 401 378 
3 360 390 397 
3 375 388 402 
3 376 403 377 
3 382 401 379 
3 382 380 404 
3 371 405 390 
3 371 395 406 
3 377 403 407 
3 394 385 408 
3 381 396 400 
3 371 406 405 
3 395 386 409 
3 386 383 410 
3 391 392 411 
3 375 402 392 
3 378 401 384 
3 387 398 383 
3 388 377 407 
3 389 393 412 
3 380 397 404 
3 391 411 398 
3 396 384 413 
3 397 390 414 
3 395 409 406 
3 394 408 393 
3 385 399 408 
3 382 415 401 
3 382 404 415 
3 388 407 402 
3 400 396 416 
3 384 401 417 
3 386 410 409 
3 392 402 411 
3 397 414 404 
3 405 418 390 
3 396 413 416 
3 413 384 417 
3 406 419 405 
3 393 408 420 
3 400 421 399 
3 401 422 417 
3 393 420 412 
3 409 410 423 
3 404 414 424 
3 407 403 425 
3 408 426 420 
3 400 416 421 
3 417 427 413 
3 390 418 414 
3 406 409 428 
3 383 429 410 
3 383 398 429 
3 411 430 398 
3 403 431 425 
3 408 399 426 
3 401 415 432 
3 404 424 415 
3 407 425 402 
3 401 432 422 
3 414 418 433 
3 406 428 419 
3 413 434 416 
3 413 427 434 
3 417 422 427 
3 412 420 435 
3 421 416 436 
3 405 437 418 
3 405 419 437 
3 430 411 438 
3 411 439 438 
3 411 402 439 
3 409 423 428 
3 398 430 440 
3 399 421 426 
3 415 441 432 
3 414 442 424 
3 414 433 442 
3 410 429 443 
3 398 440 429 
3 402 425 439 
3 420 426 444 
3 416 434 436 
3 427 422 445 
3 418 437 433 
3 419 428 437 
3 428 423 446 
3 410 443 423 
3 429 440 443 
3 420 447 435 
3 434 427 448 
3 423 443 449 
3 425 431 450 
3 422 432 451 
3 415 424 441 
3 431 452 450 
3 426 421 453 
3 421 436 454 
3 445 422 451 
3 437 428 455 
3 430 438 440 
3 426 456 444 
3 426 453 456 
3 423 449 446 
3 420 444 447 
3 436 434 457 
3 434 448 457 
3 427 445 448 
3 437 455 458 
3 432 441 451 
3 433 437 459 
3 436 457 454 
3 433 459 442 
3 428 446 455 
3 440 460 443 
3 453 421 454 
3 442 461 424 
3 425 450 462 
3 453 454 463 
3 441 464 451 
3 425 462 439 
3 435 447 465 
3 447 444 456 
3 441 424 461 
3 437 458 459 
3 449 443 460 
3 440 438 466 
3 438 439 466 
3 452 467 450 
3 453 463 456 
3 442 468 461 
3 440 469 460 
3 448 445 470 
3 441 461 471 
3 442 459 468 
3 446 449 472 
3 440 466 469 
3 439 473 466 
3 450 474 462 
3 441 471 464 
3 455 446 475 
3 455 475 476 
3 439 462 473 
3 450 467 474 
3 445 477 470 
3 445 451 477 
3 451 478 477 
3 451 464 478 
3 455 476 458 
3 446 472 475 
3 456 479 447 
3 456 463 479 
3 463 454 480 
3 454 457 481 
3 448 482 457 
3 448 470 482 
3 459 458 483 
3 458 476 483 
3 447 479 484 
3 454 481 480 
3 449 460 485 
3 447 484 465 
3 457 482 481 
3 459 483 468 
3 460 469 486 
3 466 473 469 
3 467 487 474 
3 464 488 478 
3 464 471 488 
3 449 489 472 
3 465 484 490 
3 449 485 489 
3 470 477 491 
3 468 492 461 
3 468 483 493 
3 472 489 475 
3 469 473 494 
3 471 495 488 
3 471 461 495 
3 476 496 483 
3 460 486 485 
3 462 497 473 
3 462 474 497 
3 470 491 482 
3 480 481 498 
3 481 482 498 
3 468 493 492 
3 476 475 496 
3 475 489 499 
3 469 494 486 
3 473 500 494 
3 484 479 501 
3 477 502 491 
3 477 478 502 
3 480 503 463 
3 475 504 496 
3 475 499 504 
3 473 497 500 
3 474 505 497 
3 474 487 505 
3 463 506 479 
3 483 496 493 
3 484 501 490 
3 479 506 501 
3 480 498 503 
3 498 482 507 
3 478 488 508 
3 495 509 488 
3 461 492 495 
3 486 510 485 
3 490 501 511 
3 463 503 506 
3 482 491 507 
3 478 508 502 
3 489 485 512 
3 492 493 513 
3 489 512 499 
3 503 498 514 
3 498 507 515 
3 486 494 516 
3 497 505 517 
3 502 508 518 
3 508 488 518 
3 513 493 519 
3 493 496 519 
3 503 514 506 
3 491 520 507 
3 491 502 520 
3 504 499 521 
3 485 510 512 
3 486 516 510 
3 487 522 505 
3 498 515 514 
3 488 509 518 
3 492 513 495 
3 496 504 521 
3 494 523 516 
3 494 500 523 
3 505 522 517 
3 507 524 515 
3 507 520 524 
3 501 525 511 
3 502 518 520 
3 495 513 526 
3 510 527 512 
3 497 528 500 
3 514 515 529 
3 496 521 530 
3 499 531 521 
3 499 512 532 
3 497 517 528 
3 501 506 533 
3 517 522 534 
3 506 514 533 
3 515 524 529 
3 495 526 509 
3 519 496 530 
3 500 528 523 
3 501 533 525 
3 499 532 531 
3 512 527 532 
3 510 516 527 
3 525 533 535 
3 533 514 535 
3 514 536 535 
3 514 537 536 
3 514 529 537 
3 529 538 537 
3 529 524 538 
3 524 539 538 
3 524 520 539 
3 520 540 539 
3 520 518 540 
3 518 541 540 
3 518 542 541 
3 518 509 542 
3 509 543 542 
3 509 526 543 
3 526 544 543 
3 526 513 544 
3 513 545 544 
3 513 519 545 
3 519 530 545 
3 530 546 545 
3 530 521 546 
3 521 547 546 
3 521 531 547 
3 531 548 547 
3 531 532 548 
3 532 549 548 
3 532 527 549 
3 527 550 549 
3 527 516 550 
3 516 551 550 
3 516 523 551 
3 523 552 551 
3 523 528 552 
3 528 553 552 
3 528 517 553 
3 517 534 553 
