ply
format ascii 1.0
comment VCGLIB generated
comment TextureFile Dungeons_2_Texture_01_A.png
element vertex 444
property float x
property float y
property float z
property float nx
property float ny
property float nz
property uchar red
property uchar green
property uchar blue
property uchar alpha
property float texture_u
property float texture_v
element face 213
property list uchar int vertex_indices
end_header
-310.946 465.718 -36.7773 -0.695954 -0 -0.718086 255 255 255 255 0.148346 0.723947
-317.115 500 -30.7981 -0.695954 -0 -0.718086 255 255 255 255 0.151251 0.739053
-310.946 500 -36.7773 -0.695954 -0 -0.718086 255 255 255 255 0.148346 0.739053
-182.885 500 -30.7981 0.695947 -0 -0.718093 255 255 255 255 0.088051 0.739053
-189.055 465.718 -36.7773 0.695947 -0 -0.718093 255 255 255 255 0.090956 0.723947
-189.055 500 -36.7773 0.695947 -0 -0.718093 255 255 255 255 0.090956 0.739053
-310.946 465.718 -36.7773 0 -0 -1 255 255 255 255 0.148346 0.973947
-189.055 500 -36.7773 0 -0 -1 255 255 255 255 0.090956 0.989053
-189.055 465.718 -36.7773 0 -0 -1 255 255 255 255 0.090956 0.973947
-236.25 426.949 -36.7773 0.094664 -0.404998 -0.909404 255 255 255 255 0.113177 0.704659
-250 406.864 -29.2638 0.094664 -0.404998 -0.909404 255 255 255 255 0.119651 0.695202
-257.916 421.885 -36.7773 0.094664 -0.404998 -0.909404 255 255 255 255 0.123378 0.702274
-189.055 500 -36.7773 0 1 0 255 255 255 255 0.090956 0.739053
-317.115 500 -30.7981 0 1 0 255 255 255 255 0.151251 0.739053
-182.885 500 -30.7981 0 1 0 255 255 255 255 0.088051 0.739053
-295.715 474.94 -36.7773 -0.521155 -0 -0.853462 255 255 255 255 0.141175 0.727254
-286.899 500 -42.1605 -0.521155 -0 -0.853462 255 255 255 255 0.137025 0.739053
-286.899 474.94 -42.1605 -0.521155 -0 -0.853462 255 255 255 255 0.137025 0.727254
-204.285 500 -36.7773 0.521155 -0 -0.853462 255 255 255 255 0.098127 0.739053
-213.101 477.446 -42.1605 0.521155 -0 -0.853462 255 255 255 255 0.102278 0.727254
-213.101 500 -42.1605 0.521155 -0 -0.853462 255 255 255 255 0.102278 0.739053
-213.101 477.446 -42.1605 -0 -0 -1 255 255 255 255 0.102278 0.977254
-286.899 500 -42.1605 -0 -0 -1 255 255 255 255 0.137025 0.989053
-213.101 500 -42.1605 -0 -0 -1 255 255 255 255 0.102278 0.989053
-204.285 474.94 -36.7773 0.37788 -0.430893 -0.819474 255 255 255 255 0.098127 0.727254
-247.724 447.083 -42.1605 0.37788 -0.430893 -0.819474 255 255 255 255 0.119651 0.713342
-213.101 477.446 -42.1605 0.37788 -0.430893 -0.819474 255 255 255 255 0.102278 0.727254
-250 436.45 -36.7773 -0.275024 -0.386768 -0.880212 255 255 255 255 0.119651 0.709132
-286.899 474.94 -42.1605 -0.275024 -0.386768 -0.880212 255 255 255 255 0.137025 0.727254
-247.724 447.083 -42.1605 -0.275024 -0.386768 -0.880212 255 255 255 255 0.119651 0.713342
-286.899 500 -42.1605 0 1 -0 255 255 255 255 0.137025 0.739053
-204.285 500 -36.7773 0 1 -0 255 255 255 255 0.098127 0.739053
-213.101 500 -42.1605 0 1 -0 255 255 255 255 0.102278 0.739053
-247.724 447.083 -42.1605 0 -0 -1 255 255 255 255 0.119651 0.963342
-286.899 474.94 -42.1605 0 -0 -1 255 255 255 255 0.137025 0.977254
0 250.58 -31.1953 1 0 -0 255 255 255 255 0.001942 0.621618
0 233.045 -36.2791 1 0 -0 255 255 255 255 0.001942 0.613362
0 243.568 -36.2791 1 0 -0 255 255 255 255 0.001942 0.618316
-218.946 180.558 -42.1605 -0.07197 -0.507694 -0.858526 255 255 255 255 0.10503 0.588649
-226.85 171.733 -36.2791 -0.07197 -0.507694 -0.858526 255 255 255 255 0.108751 0.584494
-228.489 181.179 -41.7281 -0.07197 -0.507694 -0.858526 255 255 255 255 0.109523 0.588942
-207.049 289.4 -36.2791 0.549384 0.515943 -0.657251 255 255 255 255 0.099428 0.639895
-228.841 305.112 -42.1605 0.549384 0.515943 -0.657251 255 255 255 255 0.109688 0.647294
-250 335.134 -36.2791 0.549384 0.515943 -0.657251 255 255 255 255 0.119651 0.661429
-119.669 152.83 -31.1953 -0.074166 -0.369997 -0.926068 255 255 255 255 0.058287 0.575594
-119.838 165.588 -36.2791 -0.074166 -0.369997 -0.926068 255 255 255 255 0.058361 0.580747
-95.5845 160.727 -36.2791 -0.074166 -0.369997 -0.926068 255 255 255 255 0.046947 0.579401
-250 196.499 -36.2791 0.438592 -0.543657 -0.715594 255 255 255 255 0.119651 0.596154
-284.207 176.644 -42.1605 0.438592 -0.543657 -0.715594 255 255 255 255 0.136211 0.586534
-250 204.24 -42.1605 0.438592 -0.543657 -0.715594 255 255 255 255 0.119651 0.599799
-95.5845 160.727 -36.2791 -0 0 -1 255 255 255 255 0.046947 0.829312
0 171.733 -36.2791 -0 0 -1 255 255 255 255 0.001942 0.834494
0 161.209 -36.2791 -0 0 -1 255 255 255 255 0.001942 0.829539
-217.166 176.644 -42.1605 -0.43381 -0.19736 -0.879123 255 255 255 255 0.104191 0.586806
-226.85 171.733 -36.2791 -0.43381 -0.19736 -0.879123 255 255 255 255 0.108751 0.584494
-218.946 180.558 -42.1605 -0.43381 -0.19736 -0.879123 255 255 255 255 0.10503 0.588649
-250 362.838 -31.1954 0.327785 0.33626 -0.882885 255 255 255 255 0.119651 0.674473
-178.799 280.084 -36.2791 0.327785 0.33626 -0.882885 255 255 255 255 0.086127 0.635509
-251.78 351.225 -36.2791 0.327785 0.33626 -0.882885 255 255 255 255 0.120489 0.669005
-59.3791 222.545 -42.1605 -0.072059 0.765601 -0.639268 255 255 255 255 0.0299 0.608419
0 233.045 -36.2791 -0.072059 0.765601 -0.639268 255 255 255 255 0.001942 0.613362
0 228.134 -42.1605 -0.072059 0.765601 -0.639268 255 255 255 255 0.001942 0.611049
-255.245 321.566 -42.1605 -0.509849 0.500408 -0.699748 255 255 255 255 0.12212 0.655041
-348.217 235.064 -36.2791 -0.509849 0.500408 -0.699748 255 255 255 255 0.166168 0.614149
-250 335.134 -36.2791 -0.509849 0.500408 -0.699748 255 255 255 255 0.119651 0.661429
-83.9927 233.045 -36.2791 -0 0 -1 255 255 255 255 0.041489 0.863362
0 243.568 -36.2791 -0 0 -1 255 255 255 255 0.001942 0.868316
0 233.045 -36.2791 -0 0 -1 255 255 255 255 0.001942 0.863362
0 243.568 -36.2791 0 0.586995 -0.80959 255 255 255 255 0.001942 0.618316
-137.115 250.58 -31.1953 0 0.586995 -0.80959 255 255 255 255 0.066501 0.621618
0 250.58 -31.1953 0 0.586995 -0.80959 255 255 255 255 0.001942 0.621618
-251.78 351.225 -36.2791 -0.41517 0.417487 -0.808294 255 255 255 255 0.120489 0.669005
-362.885 250.58 -31.1953 -0.41517 0.417487 -0.808294 255 255 255 255 0.172801 0.621618
-250 362.838 -31.1954 -0.41517 0.417487 -0.808294 255 255 255 255 0.119651 0.674473
-250 159.947 -36.2791 0 -0 -1 255 255 255 255 0.119651 0.828945
-250 196.499 -36.2791 0 -0 -1 255 255 255 255 0.119651 0.846154
-226.85 171.733 -36.2791 0 -0 -1 255 255 255 255 0.108751 0.834494
-273.15 171.733 -36.2791 -0 -0 -1 255 255 255 255 0.130551 0.834494
-207.049 289.4 -36.2791 -0 -0 -1 255 255 255 255 0.099428 0.889895
-251.78 351.225 -36.2791 -0 -0 -1 255 255 255 255 0.120497 0.919005
-178.799 280.084 -36.2791 -0 -0 -1 255 255 255 255 0.086127 0.885509
-500 152.83 -31.1953 0.004222 -0.536358 -0.84398 255 255 255 255 0.23736 0.575594
-357.737 161.95 -36.2791 0.004222 -0.536358 -0.84398 255 255 255 255 0.170377 0.579751
-341.182 154.08 -31.1953 0.004222 -0.536358 -0.84398 255 255 255 255 0.162583 0.575951
-250 335.134 -36.2791 0 -0 -1 255 255 255 255 0.119651 0.911429
-356.174 243.568 -36.2791 0 -0 -1 255 255 255 255 0.169641 0.868316
-411.102 171.733 -36.2791 0 0 -1 255 255 255 255 0.195504 0.834494
-500 161.209 -36.2791 0 0 -1 255 255 255 255 0.23736 0.829539
-500 171.733 -36.2791 0 0 -1 255 255 255 255 0.23736 0.834494
-411.102 171.733 -36.2791 0.016082 -0.634423 -0.772819 255 255 255 255 0.195504 0.584494
-500 176.644 -42.1605 0.016082 -0.634423 -0.772819 255 255 255 255 0.23736 0.586806
-409.501 178.938 -42.1605 0.016082 -0.634423 -0.772819 255 255 255 255 0.196547 0.586806
-442.114 226.561 -42.1605 -0 -0 -1 255 255 255 255 0.208873 0.861049
-500 176.644 -42.1605 -0 -0 -1 255 255 255 255 0.23736 0.836806
-500 228.134 -42.1605 -0 -0 -1 255 255 255 255 0.23736 0.861049
-442.114 226.561 -42.1605 0 0.671887 -0.740654 255 255 255 255 0.208873 0.611049
-500 233.045 -36.2791 0 0.671887 -0.740654 255 255 255 255 0.23736 0.613362
-441.218 233.045 -36.2791 0 0.671887 -0.740654 255 255 255 255 0.209683 0.613362
-500 171.733 -36.2791 -1 -0 0 255 255 255 255 0.23736 0.584494
-500 250.58 -31.1953 -1 -0 0 255 255 255 255 0.23736 0.621618
-500 233.045 -36.2791 -1 -0 0 255 255 255 255 0.23736 0.613362
-449.586 243.568 -36.2791 0.090689 0.288305 -0.953234 255 255 255 255 0.22048 0.618316
-433.342 247.235 -33.6244 0.090689 0.288305 -0.953234 255 255 255 255 0.21147 0.620043
-431.252 237.801 -36.2791 0.090689 0.288305 -0.953234 255 255 255 255 0.215987 0.616905
-345.609 228.134 -42.1605 -0 -0 -1 255 255 255 255 0.164667 0.861049
-250 316.432 -42.1605 -0 -0 -1 255 255 255 255 0.119651 0.902623
-284.207 176.644 -42.1605 -0 -0 -1 255 255 255 255 0.135957 0.836686
-250 204.24 -42.1605 0 -0 -1 255 255 255 255 0.119651 0.849799
0 176.644 -42.1605 1 0 -0 255 255 255 255 0.001942 0.586806
0 228.134 -42.1605 1 0 -0 255 255 255 255 0.001942 0.611049
0 171.733 -36.2791 1 -0 -0 255 255 255 255 0.001942 0.584494
0 152.83 -31.1953 1 -0 -0 255 255 255 255 0.001942 0.575594
0 161.209 -36.2791 1 -0 -0 255 255 255 255 0.001942 0.579539
-500 243.568 -36.2791 -1 0 0 255 255 255 255 0.23736 0.618316
-500 176.644 -42.1605 -1 -0 0 255 255 255 255 0.23736 0.586806
-500 228.134 -42.1605 -1 -0 0 255 255 255 255 0.23736 0.611049
-500 152.83 -31.1953 -1 0 0 255 255 255 255 0.23736 0.575594
-500 161.209 -36.2791 -1 0 0 255 255 255 255 0.23736 0.579539
0 2e-06 14.2392 0 -1 0 255 255 255 255 0.001942 0.753636
-500 -5e-06 -31.1953 0 -1 0 255 255 255 255 0.23736 0.753636
0 -5e-06 -31.1953 0 -1 0 255 255 255 255 0.001942 0.753636
-500 2e-06 14.2392 -0 0 1 255 255 255 255 0.23736 0.753636
0 500 14.2391 -0 0 1 255 255 255 255 0.001942 0.989053
-500 500 14.2391 -0 0 1 255 255 255 255 0.23736 0.989053
0 500 -31.1954 0 1 0 255 255 255 255 0.001942 0.989053
-500 500 14.2391 0 1 0 255 255 255 255 0.23736 0.989053
0 500 14.2391 0 1 0 255 255 255 255 0.001942 0.989053
-103.246 304.2 -17.1535 0 -0 -1 255 255 255 255 0.050554 0.646864
0 445.8 -17.1536 0 -0 -1 255 255 255 255 0.001942 0.713534
0 304.2 -17.1535 0 -0 -1 255 255 255 255 0.001942 0.646864
-402.341 447.11 -17.1536 -0 -0 -1 255 255 255 255 0.191379 0.714151
-304.2 392.836 -17.1536 -0 -0 -1 255 255 255 255 0.14517 0.688597
-396.754 304.2 -17.1535 -0 -0 -1 255 255 255 255 0.188748 0.646864
-455.591 467.277 -31.1954 -0 -0 -1 255 255 255 255 0.21645 0.973646
-500 500 -31.1954 -0 -0 -1 255 255 255 255 0.23736 0.989053
-286 464 -31.1954 -0 -0 -1 255 255 255 255 0.136601 0.972103
-200.905 367.926 -31.1954 -0 -0 -1 255 255 255 255 0.096535 0.926868
-286 385.066 -31.1954 -0 -0 -1 255 255 255 255 0.136601 0.934938
-214 385.066 -31.1954 -0 -0 -1 255 255 255 255 0.102701 0.934938
-126.322 463.078 -31.1954 0 -0 -1 255 255 255 255 0.061419 0.971669
0 500 -31.1954 0 -0 -1 255 255 255 255 0.001942 0.989053
0 464 -31.1954 0 -0 -1 255 255 255 255 0.001942 0.972103
-195.8 392.836 -17.1536 0.469404 0.358643 -0.806867 255 255 255 255 0.094132 0.688597
-200.905 367.926 -31.1954 0.469404 0.358643 -0.806867 255 255 255 255 0.09633 0.677082
-214 385.066 -31.1954 0.469404 0.358643 -0.806867 255 255 255 255 0.102701 0.684938
-214 385.066 -31.1954 0.610854 -0 -0.791743 255 255 255 255 0.102701 0.684938
-195.8 445.8 -17.1536 0.610854 -0 -0.791743 255 255 255 255 0.094132 0.713534
-195.8 392.836 -17.1536 0.610854 -0 -0.791743 255 255 255 255 0.094132 0.688597
-126.322 463.078 -31.1954 -0.00444 -0.650027 -0.759898 255 255 255 255 0.061419 0.721752
0 445.8 -17.1536 -0.00444 -0.650027 -0.759898 255 255 255 255 0.001942 0.713534
-134.95 446.722 -17.1536 -0.00444 -0.650027 -0.759898 255 255 255 255 0.065482 0.713886
-103.246 304.2 -17.1535 0 0.610852 -0.791744 255 255 255 255 0.050554 0.646864
-102.511 286 -31.1954 0 0.610852 -0.791744 255 255 255 255 0.050208 0.638295
-110.555 286 -31.1954 0 0.610852 -0.791744 255 255 255 255 0.053995 0.638295
-500 286 -31.1954 0 0.610852 -0.791745 255 255 255 255 0.23736 0.638295
-396.754 304.2 -17.1535 0 0.610852 -0.791745 255 255 255 255 0.188748 0.646864
-389.445 286 -31.1954 0 0.610852 -0.791745 255 255 255 255 0.185307 0.638295
-402.341 447.11 -17.1536 -0.008085 -0.605751 -0.795613 255 255 255 255 0.191379 0.714034
-286 464 -31.1954 -0.008085 -0.605751 -0.795613 255 255 255 255 0.136601 0.722103
-304.2 445.8 -17.1536 -0.008085 -0.605751 -0.795613 255 255 255 255 0.14517 0.713534
-304.2 392.836 -17.1536 -0.422303 0.440971 -0.791963 255 255 255 255 0.14517 0.688597
-311.924 370.268 -25.601 -0.422303 0.440971 -0.791963 255 255 255 255 0.148807 0.677971
-396.754 304.2 -17.1535 -0.422303 0.440971 -0.791963 255 255 255 255 0.188748 0.646864
-286 385.066 -31.1954 -0.610854 -0 -0.791743 255 255 255 255 0.136601 0.684938
-304.2 445.8 -17.1536 -0.610854 -0 -0.791743 255 255 255 255 0.14517 0.713534
-286 464 -31.1954 -0.610854 -0 -0.791743 255 255 255 255 0.136601 0.722103
-214 464 -31.1954 0 -0 -1 255 255 255 255 0.102701 0.972103
-110.555 286 -31.1954 -0 -0 -1 255 255 255 255 0.053995 0.888295
-80.7422 278.493 -31.1954 -0 -0 -1 255 255 255 255 0.039959 0.88476
0 -5e-06 -31.1953 -0 -0 -1 255 255 255 255 0.001942 0.753636
-389.445 286 -31.1954 0 -0 -1 255 255 255 255 0.185307 0.888295
-500 -5e-06 -31.1953 0 -0 -1 255 255 255 255 0.23736 0.753636
-500 286 -31.1954 0 -0 -1 255 255 255 255 0.23736 0.888295
0 464 -31.1954 1 -0 0 255 255 255 255 0.001942 0.972103
0 500 14.2391 1 -0 0 255 255 255 255 0.001942 0.989053
0 445.8 -17.1536 1 -0 0 255 255 255 255 0.001942 0.963534
0 2e-06 14.2392 1 0 0 255 255 255 255 0.001942 0.753636
0 286 -31.1954 1 0 0 255 255 255 255 0.001942 0.888295
0 304.2 -17.1535 1 0 0 255 255 255 255 0.001942 0.896864
-500 304.2 -17.1535 -1 -0 0 255 255 255 255 0.23736 0.896864
-500 500 14.2391 -1 -0 0 255 255 255 255 0.23736 0.989053
-500 445.8 -17.1536 -1 -0 0 255 255 255 255 0.23736 0.963534
-500 464 -31.1954 -1 0 0 255 255 255 255 0.23736 0.972103
-500 2e-06 14.2392 -1 0 0 255 255 255 255 0.23736 0.753636
-500 286 -31.1954 -1 0 0 255 255 255 255 0.23736 0.888295
-500 -5e-06 -31.1953 -1 0 0 255 255 255 255 0.23736 0.753636
-433.342 247.235 -33.6244 -0.020478 0.266589 -0.963593 255 255 255 255 0.21147 0.620043
-356.174 243.568 -36.2791 -0.020478 0.266589 -0.963593 255 255 255 255 0.169641 0.618316
-431.252 237.801 -36.2791 -0.020478 0.266589 -0.963593 255 255 255 255 0.215987 0.616905
-348.217 235.064 -36.2791 -0.014614 0.672922 -0.739569 255 255 255 255 0.166168 0.614149
-442.114 226.561 -42.1605 -0.014614 0.672922 -0.739569 255 255 255 255 0.208873 0.611049
-441.218 233.045 -36.2791 -0.014614 0.672922 -0.739569 255 255 255 255 0.209683 0.613362
-409.501 178.938 -42.1605 -0 -0 -1 255 255 255 255 0.19531 0.83755
-284.207 176.644 -42.1605 -0.011549 -0.630779 -0.775877 255 255 255 255 0.136211 0.586534
-411.102 171.733 -36.2791 -0.011549 -0.630779 -0.775877 255 255 255 255 0.195504 0.584494
-409.501 178.938 -42.1605 -0.011549 -0.630779 -0.775877 255 255 255 255 0.196547 0.586806
-357.737 161.95 -36.2791 0 0 -1 255 255 255 255 0.170377 0.829888
-341.182 154.08 -31.1953 -0.00797 -0.581251 -0.813685 255 255 255 255 0.162583 0.575951
-250 159.947 -36.2791 -0.00797 -0.581251 -0.813685 255 255 255 255 0.119651 0.579178
-250 152.83 -31.1953 -0.00797 -0.581251 -0.813685 255 255 255 255 0.119651 0.575594
-431.252 237.801 -36.2791 0 0 -1 255 255 255 255 0.209212 0.865601
-441.218 233.045 -36.2791 0 0 -1 255 255 255 255 0.209683 0.863362
-449.586 243.568 -36.2791 0 0 -1 255 255 255 255 0.220448 0.868316
-500 233.045 -36.2791 0 0 -1 255 255 255 255 0.23736 0.863362
-500 243.568 -36.2791 0 0 -1 255 255 255 255 0.23736 0.868316
-433.342 247.235 -33.6244 -0.000248 0.587072 -0.809535 255 255 255 255 0.21147 0.620043
-449.586 243.568 -36.2791 -0.000248 0.587072 -0.809535 255 255 255 255 0.22048 0.618316
-446.267 250.58 -31.1953 -0.000248 0.587072 -0.809535 255 255 255 255 0.212061 0.621618
-500 250.58 -31.1953 0 0.586995 -0.80959 255 255 255 255 0.23736 0.621618
-449.586 243.568 -36.2791 0 0.586995 -0.80959 255 255 255 255 0.22048 0.618316
-500 243.568 -36.2791 0 0.586995 -0.80959 255 255 255 255 0.23736 0.618316
-362.885 250.58 -31.1953 0 0.5877 -0.809079 255 255 255 255 0.172801 0.621618
-433.342 247.235 -33.6244 0 0.5877 -0.809079 255 255 255 255 0.21147 0.620043
-446.267 250.58 -31.1953 0 0.5877 -0.809079 255 255 255 255 0.212061 0.621618
-348.217 235.064 -36.2791 0 -0 -1 255 255 255 255 0.165674 0.864313
-250 316.432 -42.1605 0.281782 0.287833 -0.915288 255 255 255 255 0.11962 0.652673
-255.245 321.566 -42.1605 0.281782 0.287833 -0.915288 255 255 255 255 0.12212 0.655041
-250 335.134 -36.2791 0.281782 0.287833 -0.915288 255 255 255 255 0.119651 0.661429
-250 335.134 -36.2791 0.158468 0.296198 -0.941889 255 255 255 255 0.119651 0.661429
-228.841 305.112 -42.1605 0.158468 0.296198 -0.941889 255 255 255 255 0.109688 0.647294
-250 316.432 -42.1605 0.158468 0.296198 -0.941889 255 255 255 255 0.11962 0.652673
-250 396.07 -19.3135 -0.507077 -0.584195 -0.63371 255 255 255 255 0.119651 0.69012
-257.916 421.885 -36.7773 -0.507077 -0.584195 -0.63371 255 255 255 255 0.123378 0.702274
-250 406.864 -29.2638 -0.507077 -0.584195 -0.63371 255 255 255 255 0.119651 0.695202
-317.115 458.192 -17.021 -0.571528 -0.691447 -0.441879 255 255 255 255 0.151251 0.720403
-310.946 465.718 -36.7773 -0.571528 -0.691447 -0.441879 255 255 255 255 0.148346 0.723947
-257.916 421.885 -36.7773 -0.571528 -0.691447 -0.441879 255 255 255 255 0.123378 0.702274
-236.25 426.949 -36.7773 -0 -0 -1 255 255 255 255 0.113177 0.954659
-250 396.07 -19.3135 0.55937 -0.582573 -0.589672 255 255 255 255 0.119651 0.69012
-236.25 426.949 -36.7773 0.55937 -0.582573 -0.589672 255 255 255 255 0.113177 0.704659
-182.885 458.192 -17.021 0.55937 -0.582573 -0.589672 255 255 255 255 0.088051 0.720403
-182.885 458.192 -17.021 0.569415 -0.693184 -0.441884 255 255 255 255 0.088051 0.720403
-236.25 426.949 -36.7773 0.569415 -0.693184 -0.441884 255 255 255 255 0.113177 0.704659
-189.055 465.718 -36.7773 0.569415 -0.693184 -0.441884 255 255 255 255 0.090956 0.723947
-500 304.2 -17.1535 0 -0 -1 255 255 255 255 0.23736 0.646864
-500 445.8 -17.1536 0 -0 -1 255 255 255 255 0.23736 0.713534
-500 445.8 -17.1536 0.007485 -0.558007 -0.829803 255 255 255 255 0.23736 0.713534
-455.591 467.277 -31.1954 0.007485 -0.558007 -0.829803 255 255 255 255 0.21645 0.723354
-402.341 447.11 -17.1536 0.007485 -0.558007 -0.829803 255 255 255 255 0.191379 0.714034
-500 464 -31.1954 0 -0 -1 255 255 255 255 0.23736 0.972103
-195.8 392.836 -17.1536 0 -0 -1 255 255 255 255 0.094132 0.688597
-134.95 446.722 -17.1536 0 -0 -1 255 255 255 255 0.065482 0.713968
-195.8 445.8 -17.1536 0.009914 -0.654357 -0.756121 255 255 255 255 0.094132 0.713534
-126.322 463.078 -31.1954 0.009914 -0.654357 -0.756121 255 255 255 255 0.061419 0.721752
-134.95 446.722 -17.1536 0.009914 -0.654357 -0.756121 255 255 255 255 0.065482 0.713886
-71.9692 291.159 -27.242 0.083954 0.243444 -0.966275 255 255 255 255 0.035828 0.640724
-80.7422 278.493 -31.1954 0.083954 0.243444 -0.966275 255 255 255 255 0.039959 0.63476
-102.511 286 -31.1954 0.083954 0.243444 -0.966275 255 255 255 255 0.050208 0.638295
-12.3031 286 -31.1954 -0.035082 0.319822 -0.946828 255 255 255 255 0.007735 0.638295
-80.7422 278.493 -31.1954 -0.035082 0.319822 -0.946828 255 255 255 255 0.039959 0.63476
-71.9692 291.159 -27.242 -0.035082 0.319822 -0.946828 255 255 255 255 0.035828 0.640724
-12.3031 286 -31.1954 -0 -0 -1 255 255 255 255 0.007735 0.888295
0 286 -31.1954 -0 -0 -1 255 255 255 255 0.001942 0.888295
-12.3031 286 -31.1954 0 0.610852 -0.791744 255 255 255 255 0.007735 0.638295
0 304.2 -17.1535 0 0.610852 -0.791744 255 255 255 255 0.001942 0.646864
0 286 -31.1954 0 0.610852 -0.791744 255 255 255 255 0.001942 0.638295
0 304.2 -17.1535 0 0.611876 -0.790954 255 255 255 255 0.001942 0.646864
-71.9692 291.159 -27.242 0 0.611876 -0.790954 255 255 255 255 0.035828 0.640724
-103.246 304.2 -17.1535 0 0.611876 -0.790954 255 255 255 255 0.050554 0.646864
-316.353 355.998 -31.1954 -0.053124 0.378723 -0.923984 255 255 255 255 0.150892 0.671252
-311.924 370.268 -25.601 -0.053124 0.378723 -0.923984 255 255 255 255 0.148807 0.677971
-301.23 358.12 -31.1954 -0.053124 0.378723 -0.923984 255 255 255 255 0.144323 0.672826
-301.23 358.12 -31.1954 -0.35827 0.111478 -0.926939 255 255 255 255 0.144323 0.672826
-311.924 370.268 -25.601 -0.35827 0.111478 -0.926939 255 255 255 255 0.148807 0.677971
-295.751 375.728 -31.1954 -0.35827 0.111478 -0.926939 255 255 255 255 0.141192 0.680542
-295.751 375.728 -31.1954 -0.4225 0.441176 -0.791744 255 255 255 255 0.141192 0.680542
-304.2 392.836 -17.1536 -0.4225 0.441176 -0.791744 255 255 255 255 0.14517 0.688597
-286 385.066 -31.1954 -0.4225 0.441176 -0.791744 255 255 255 255 0.136601 0.684938
-396.754 304.2 -17.1535 -0.4225 0.441177 -0.791743 255 255 255 255 0.188748 0.646864
-316.353 355.998 -31.1954 -0.4225 0.441177 -0.791743 255 255 255 255 0.150892 0.671252
-389.445 286 -31.1954 -0.4225 0.441177 -0.791743 255 255 255 255 0.185307 0.638295
-301.23 358.12 -31.1954 0 -0 -1 255 255 255 255 0.143772 0.922251
-228.489 181.179 -41.7281 -0.534555 -0.51126 -0.672951 255 255 255 255 0.109523 0.588942
-250 196.499 -36.2791 -0.534555 -0.51126 -0.672951 255 255 255 255 0.119651 0.596154
-250 204.24 -42.1605 -0.534555 -0.51126 -0.672951 255 255 255 255 0.119651 0.599799
-228.841 305.112 -42.1605 0 -0 -1 255 255 255 255 0.109689 0.897293
-154.395 226.799 -42.1605 -0 -0 -1 255 255 255 255 0.074637 0.860421
-218.946 180.558 -42.1605 -0 -0 -1 255 255 255 255 0.10503 0.838649
-250 204.24 -42.1605 -0.049384 -0.064755 -0.996678 255 255 255 255 0.119651 0.849799
-218.946 180.558 -42.1605 -0.049384 -0.064755 -0.996678 255 255 255 255 0.10503 0.838649
-228.489 181.179 -41.7281 -0.049384 -0.064755 -0.996678 255 255 255 255 0.109523 0.838942
-22.7963 178.642 -42.1605 -0 -0 -1 255 255 255 255 0.012676 0.837747
0 228.134 -42.1605 -0 -0 -1 255 255 255 255 0.001942 0.861049
0 176.644 -42.1605 -0 -0 -1 255 255 255 255 0.001942 0.836806
0 171.733 -36.2791 -0.067135 -0.765863 -0.63949 255 255 255 255 0.001942 0.584494
-22.7963 178.642 -42.1605 -0.067135 -0.765863 -0.63949 255 255 255 255 0.012676 0.587228
0 176.644 -42.1605 -0.067135 -0.765863 -0.63949 255 255 255 255 0.001942 0.586806
-178.799 280.084 -36.2791 0.335337 0.321164 -0.885665 255 255 255 255 0.086127 0.635509
-137.115 250.58 -31.1953 0.335337 0.321164 -0.885665 255 255 255 255 0.066501 0.621618
-143.827 243.568 -36.2791 0.335337 0.321164 -0.885665 255 255 255 255 0.069661 0.618316
-150 233.045 -36.2791 0 -0 -1 255 255 255 255 0.072568 0.863362
-143.827 243.568 -36.2791 0 -0 -1 255 255 255 255 0.069661 0.868316
-154.395 226.799 -42.1605 0.432512 0.437839 -0.788182 255 255 255 255 0.074637 0.610421
-207.049 289.4 -36.2791 0.432512 0.437839 -0.788182 255 255 255 255 0.099428 0.639895
-150 233.045 -36.2791 0.432512 0.437839 -0.788182 255 255 255 255 0.072568 0.613362
-226.85 171.733 -36.2791 0 -0.648197 -0.761473 255 255 255 255 0.108751 0.584494
-22.7963 178.642 -42.1605 0 -0.648197 -0.761473 255 255 255 255 0.012676 0.587228
0 171.733 -36.2791 0 -0.648197 -0.761473 255 255 255 255 0.001942 0.584494
-59.3791 222.545 -42.1605 -0 -0 -1 255 255 255 255 0.0299 0.858418
-217.166 176.644 -42.1605 -0 -0 -1 255 255 255 255 0.104191 0.836806
-83.9927 233.045 -36.2791 0 0.685543 -0.728032 255 255 255 255 0.041489 0.613362
-154.395 226.799 -42.1605 0 0.685543 -0.728032 255 255 255 255 0.074637 0.610421
-150 233.045 -36.2791 0 0.685543 -0.728032 255 255 255 255 0.072568 0.613362
-250 152.83 -31.1953 0 -0.551277 -0.834322 255 255 255 255 0.119651 0.575594
-135.684 160.524 -36.2791 0 -0.551277 -0.834322 255 255 255 255 0.065827 0.579343
-119.669 152.83 -31.1953 0 -0.551277 -0.834322 255 255 255 255 0.058287 0.575594
-95.5845 160.727 -36.2791 0 -0.541321 -0.840816 255 255 255 255 0.046947 0.579401
0 152.83 -31.1953 0 -0.541321 -0.840816 255 255 255 255 0.001942 0.575594
-119.669 152.83 -31.1953 0 -0.541321 -0.840816 255 255 255 255 0.058287 0.575594
-119.669 152.83 -31.1953 0.11706 -0.366278 -0.923113 255 255 255 255 0.058287 0.575594
-135.684 160.524 -36.2791 0.11706 -0.366278 -0.923113 255 255 255 255 0.065827 0.579343
-119.838 165.588 -36.2791 0.11706 -0.366278 -0.923113 255 255 255 255 0.058361 0.580747
-135.684 160.524 -36.2791 0 0 -1 255 255 255 255 0.065827 0.829216
-119.838 165.588 -36.2791 0 0 -1 255 255 255 255 0.058366 0.831601
-200.905 367.926 -31.1954 0.407623 0.449534 -0.794835 255 255 255 255 0.09633 0.677082
-103.246 304.2 -17.1535 0.407623 0.449534 -0.794835 255 255 255 255 0.050554 0.646864
-110.555 286 -31.1954 0.407623 0.449534 -0.794835 255 255 255 255 0.053995 0.638295
-310.946 465.718 -36.7773 -0.936025 -0.110147 -0.334254 255 255 255 255 0.148346 0.723947
-317.115 458.192 -17.021 -0.936025 -0.110147 -0.334254 255 255 255 255 0.151251 0.720403
-317.115 500 -30.7981 -0.936025 -0.110147 -0.334254 255 255 255 255 0.151251 0.739053
-182.885 500 -30.7981 0.936022 -0.110149 -0.334259 255 255 255 255 0.088051 0.739053
-182.885 458.192 -17.021 0.936022 -0.110149 -0.334259 255 255 255 255 0.088051 0.720403
-189.055 465.718 -36.7773 0.936022 -0.110149 -0.334259 255 255 255 255 0.090956 0.723947
-310.946 500 -36.7773 -0 -0 -1 255 255 255 255 0.148346 0.989053
-310.946 500 -36.7773 -0 1 0 255 255 255 255 0.148346 0.739053
-295.715 500 -36.7773 -0.521155 -0 -0.853462 255 255 255 255 0.141175 0.739053
-204.285 474.94 -36.7773 0.521155 -0 -0.853462 255 255 255 255 0.098127 0.727254
-204.285 474.94 -36.7773 0.404581 -0.48053 -0.778078 255 255 255 255 0.098127 0.727254
-250 436.45 -36.7773 0.404581 -0.48053 -0.778078 255 255 255 255 0.119651 0.709132
-247.724 447.083 -42.1605 0.404581 -0.48053 -0.778078 255 255 255 255 0.119651 0.713342
-250 436.45 -36.7773 -0.443132 -0.526317 -0.725688 255 255 255 255 0.119651 0.709132
-295.715 474.94 -36.7773 -0.443132 -0.526317 -0.725688 255 255 255 255 0.141175 0.727254
-286.899 474.94 -42.1605 -0.443132 -0.526317 -0.725688 255 255 255 255 0.137025 0.727254
-295.715 500 -36.7773 0 1 0 255 255 255 255 0.141175 0.739053
-250 196.499 -36.2791 0.33422 -0.312411 -0.889211 255 255 255 255 0.119651 0.596154
-273.15 171.733 -36.2791 0.33422 -0.312411 -0.889211 255 255 255 255 0.130551 0.584494
-284.207 176.644 -42.1605 0.33422 -0.312411 -0.889211 255 255 255 255 0.136211 0.586534
-250 362.838 -31.1954 0.362809 0.364833 -0.857477 255 255 255 255 0.119651 0.674473
-137.115 250.58 -31.1953 0.362809 0.364833 -0.857477 255 255 255 255 0.066501 0.621618
-178.799 280.084 -36.2791 0.362809 0.364833 -0.857477 255 255 255 255 0.086127 0.635509
-59.3791 222.545 -42.1605 0 0.488704 -0.87245 255 255 255 255 0.0299 0.608419
-83.9927 233.045 -36.2791 0 0.488704 -0.87245 255 255 255 255 0.041489 0.613362
0 233.045 -36.2791 0 0.488704 -0.87245 255 255 255 255 0.001942 0.613362
-255.245 321.566 -42.1605 -0.474485 0.458902 -0.751181 255 255 255 255 0.12212 0.655041
-345.609 228.134 -42.1605 -0.474485 0.458902 -0.751181 255 255 255 255 0.164667 0.611049
-348.217 235.064 -36.2791 -0.474485 0.458902 -0.751181 255 255 255 255 0.166168 0.614149
0 243.568 -36.2791 0 0.586996 -0.80959 255 255 255 255 0.001942 0.618316
-143.827 243.568 -36.2791 0 0.586996 -0.80959 255 255 255 255 0.069661 0.618316
-137.115 250.58 -31.1953 0 0.586996 -0.80959 255 255 255 255 0.066501 0.621618
-251.78 351.225 -36.2791 -0.333275 0.323172 -0.885713 255 255 255 255 0.120489 0.669005
-356.174 243.568 -36.2791 -0.333275 0.323172 -0.885713 255 255 255 255 0.169641 0.618316
-362.885 250.58 -31.1953 -0.333275 0.323172 -0.885713 255 255 255 255 0.172801 0.621618
-500 152.83 -31.1953 0.002699 -0.518711 -0.854945 255 255 255 255 0.23736 0.575594
-500 161.209 -36.2791 0.002699 -0.518711 -0.854945 255 255 255 255 0.23736 0.579539
-357.737 161.95 -36.2791 0.002699 -0.518711 -0.854945 255 255 255 255 0.170377 0.579751
-411.102 171.733 -36.2791 -0 -0.767594 -0.640936 255 255 255 255 0.195504 0.584494
-500 171.733 -36.2791 -0 -0.767594 -0.640936 255 255 255 255 0.23736 0.584494
-500 176.644 -42.1605 -0 -0.767594 -0.640936 255 255 255 255 0.23736 0.586806
-442.114 226.561 -42.1605 0.020847 0.767429 -0.640794 255 255 255 255 0.208873 0.611049
-500 228.134 -42.1605 0.020847 0.767429 -0.640794 255 255 255 255 0.23736 0.611049
-500 233.045 -36.2791 0.020847 0.767429 -0.640794 255 255 255 255 0.23736 0.613362
-255.245 321.566 -42.1605 -0 -0 -1 255 255 255 255 0.12212 0.905041
-500 2e-06 14.2392 0 -1 0 255 255 255 255 0.23736 0.753636
0 2e-06 14.2392 0 0 1 255 255 255 255 0.001942 0.753636
-500 500 -31.1954 -0 1 0 255 255 255 255 0.23736 0.989053
-304.2 445.8 -17.1536 -0 -0 -1 255 255 255 255 0.14517 0.713534
-295.751 375.728 -31.1954 0 -0 -1 255 255 255 255 0.141192 0.930542
-214 464 -31.1954 0.610854 -0 -0.791743 255 255 255 255 0.102701 0.722103
-126.322 463.078 -31.1954 0.004458 -0.610846 -0.791737 255 255 255 255 0.061419 0.721752
0 464 -31.1954 0.004458 -0.610846 -0.791737 255 255 255 255 0.001942 0.722103
0 445.8 -17.1536 0.004458 -0.610846 -0.791737 255 255 255 255 0.001942 0.713534
-103.246 304.2 -17.1535 -0.000693 0.610835 -0.791758 255 255 255 255 0.050554 0.646864
-71.9692 291.159 -27.242 -0.000693 0.610835 -0.791758 255 255 255 255 0.035828 0.640724
-102.511 286 -31.1954 -0.000693 0.610835 -0.791758 255 255 255 255 0.050208 0.638295
-500 286 -31.1954 0 0.610852 -0.791744 255 255 255 255 0.23736 0.638295
-500 304.2 -17.1535 0 0.610852 -0.791744 255 255 255 255 0.23736 0.646864
-396.754 304.2 -17.1535 0 0.610852 -0.791744 255 255 255 255 0.188748 0.646864
-402.341 447.11 -17.1536 -0.01143 -0.591522 -0.806208 255 255 255 255 0.191379 0.714034
-455.591 467.277 -31.1954 -0.01143 -0.591522 -0.806208 255 255 255 255 0.21645 0.723354
-286 464 -31.1954 -0.01143 -0.591522 -0.806208 255 255 255 255 0.136601 0.722103
-304.2 392.836 -17.1536 -0.610854 -0 -0.791743 255 255 255 255 0.14517 0.688597
-102.511 286 -31.1954 0 0 -1 255 255 255 255 0.050208 0.888295
0 500 -31.1954 1 0 0 255 255 255 255 0.001942 0.989053
0 -5e-06 -31.1953 1 0 -0 255 255 255 255 0.001942 0.753636
-500 500 -31.1954 -1 0 0 255 255 255 255 0.23736 0.989053
-348.217 235.064 -36.2791 -0.010505 0.644699 -0.764364 255 255 255 255 0.166168 0.614149
-345.609 228.134 -42.1605 -0.010505 0.644699 -0.764364 255 255 255 255 0.164667 0.611049
-442.114 226.561 -42.1605 -0.010505 0.644699 -0.764364 255 255 255 255 0.208873 0.611049
-284.207 176.644 -42.1605 0 -0.767594 -0.640936 255 255 255 255 0.136211 0.586534
-273.15 171.733 -36.2791 0 -0.767594 -0.640936 255 255 255 255 0.130551 0.584494
-341.182 154.08 -31.1953 -0.010371 -0.557918 -0.829831 255 255 255 255 0.162583 0.575951
-357.737 161.95 -36.2791 -0.010371 -0.557918 -0.829831 255 255 255 255 0.170377 0.579751
-250 159.947 -36.2791 -0.010371 -0.557918 -0.829831 255 255 255 255 0.119651 0.579178
-500 250.58 -31.1953 0 0.586995 -0.809591 255 255 255 255 0.23736 0.621618
-446.267 250.58 -31.1953 0 0.586995 -0.809591 255 255 255 255 0.212061 0.621618
-449.586 243.568 -36.2791 0 0.586995 -0.809591 255 255 255 255 0.22048 0.618316
-362.885 250.58 -31.1953 4.9e-05 0.587026 -0.809568 255 255 255 255 0.172801 0.621618
-356.174 243.568 -36.2791 4.9e-05 0.587026 -0.809568 255 255 255 255 0.169641 0.618316
-433.342 247.235 -33.6244 4.9e-05 0.587026 -0.809568 255 255 255 255 0.21147 0.620043
-250 396.07 -19.3135 -0.553963 -0.576319 -0.600817 255 255 255 255 0.119651 0.69012
-317.115 458.192 -17.021 -0.553963 -0.576319 -0.600817 255 255 255 255 0.151251 0.720403
-257.916 421.885 -36.7773 -0.553963 -0.576319 -0.600817 255 255 255 255 0.123378 0.702274
-257.916 421.885 -36.7773 0 -0 -1 255 255 255 255 0.123378 0.952274
-250 396.07 -19.3135 0.507081 -0.584194 -0.633708 255 255 255 255 0.119651 0.69012
-250 406.864 -29.2638 0.507081 -0.584194 -0.633708 255 255 255 255 0.119651 0.695202
-236.25 426.949 -36.7773 0.507081 -0.584194 -0.633708 255 255 255 255 0.113177 0.704659
-500 445.8 -17.1536 0.045029 -0.610232 -0.790942 255 255 255 255 0.23736 0.713534
-500 464 -31.1954 0.045029 -0.610232 -0.790942 255 255 255 255 0.23736 0.722103
-455.591 467.277 -31.1954 0.045029 -0.610232 -0.790942 255 255 255 255 0.21645 0.723354
-195.8 445.8 -17.1536 0 -0 -1 255 255 255 255 0.094132 0.713534
-195.8 445.8 -17.1536 -0.006465 -0.614884 -0.788591 255 255 255 255 0.094132 0.713534
-214 464 -31.1954 -0.006465 -0.614884 -0.788591 255 255 255 255 0.102701 0.722103
-126.322 463.078 -31.1954 -0.006465 -0.614884 -0.788591 255 255 255 255 0.061419 0.721752
-12.3031 286 -31.1954 0.000338 0.610709 -0.791855 255 255 255 255 0.007735 0.638295
-71.9692 291.159 -27.242 0.000338 0.610709 -0.791855 255 255 255 255 0.035828 0.640724
0 304.2 -17.1535 0.000338 0.610709 -0.791855 255 255 255 255 0.001942 0.646864
-295.751 375.728 -31.1954 -0.42274 0.441022 -0.791701 255 255 255 255 0.141192 0.680542
-311.924 370.268 -25.601 -0.42274 0.441022 -0.791701 255 255 255 255 0.148807 0.677971
-304.2 392.836 -17.1536 -0.42274 0.441022 -0.791701 255 255 255 255 0.14517 0.688597
-396.754 304.2 -17.1535 -0.422648 0.441473 -0.791499 255 255 255 255 0.188748 0.646864
-311.924 370.268 -25.601 -0.422648 0.441473 -0.791499 255 255 255 255 0.148807 0.677971
-316.353 355.998 -31.1954 -0.422648 0.441473 -0.791499 255 255 255 255 0.150892 0.671252
-316.353 355.998 -31.1954 -0 -0 -1 255 255 255 255 0.150892 0.921252
-228.489 181.179 -41.7281 -0.525899 -0.491582 -0.694102 255 255 255 255 0.109523 0.588942
-226.85 171.733 -36.2791 -0.525899 -0.491582 -0.694102 255 255 255 255 0.108751 0.584494
-250 196.499 -36.2791 -0.525899 -0.491582 -0.694102 255 255 255 255 0.119651 0.596154
-154.395 226.799 -42.1605 0.553644 0.526306 -0.645353 255 255 255 255 0.074637 0.610421
-228.841 305.112 -42.1605 0.553644 0.526306 -0.645353 255 255 255 255 0.109688 0.647294
-207.049 289.4 -36.2791 0.553644 0.526306 -0.645353 255 255 255 255 0.099428 0.639895
-226.85 171.733 -36.2791 0.007957 -0.773978 -0.633163 255 255 255 255 0.108751 0.584494
-217.166 176.644 -42.1605 0.007957 -0.773978 -0.633163 255 255 255 255 0.104191 0.586806
-22.7963 178.642 -42.1605 0.007957 -0.773978 -0.633163 255 255 255 255 0.012676 0.587228
-83.9927 233.045 -36.2791 0.023743 0.530356 -0.847443 255 255 255 255 0.041489 0.613362
-59.3791 222.545 -42.1605 0.023743 0.530356 -0.847443 255 255 255 255 0.0299 0.608419
-154.395 226.799 -42.1605 0.023743 0.530356 -0.847443 255 255 255 255 0.074637 0.610421
-250 152.83 -31.1953 0.002935 -0.581267 -0.813708 255 255 255 255 0.119651 0.575594
-250 159.947 -36.2791 0.002935 -0.581267 -0.813708 255 255 255 255 0.119651 0.579178
-135.684 160.524 -36.2791 0.002935 -0.581267 -0.813708 255 255 255 255 0.065827 0.579343
-95.5845 160.727 -36.2791 0.002619 -0.518712 -0.854945 255 255 255 255 0.046947 0.579401
0 161.209 -36.2791 0.002619 -0.518712 -0.854945 255 255 255 255 0.001942 0.579539
0 152.83 -31.1953 0.002619 -0.518712 -0.854945 255 255 255 255 0.001942 0.575594
-200.905 367.926 -31.1954 0.377946 0.394653 -0.8375 255 255 255 255 0.09633 0.677082
-195.8 392.836 -17.1536 0.377946 0.394653 -0.8375 255 255 255 255 0.094132 0.688597
-103.246 304.2 -17.1535 0.377946 0.394653 -0.8375 255 255 255 255 0.050554 0.646864
3 0 1 2 
3 3 4 5 
3 6 7 8 
3 9 10 11 
3 12 13 14 
3 15 16 17 
3 18 19 20 
3 21 22 23 
3 24 25 26 
3 27 28 29 
3 30 31 32 
3 21 33 34 
3 35 36 37 
3 38 39 40 
3 41 42 43 
3 44 45 46 
3 47 48 49 
3 50 51 52 
3 53 54 55 
3 56 57 58 
3 59 60 61 
3 62 63 64 
3 65 66 67 
3 68 69 70 
3 71 72 73 
3 74 75 76 
3 74 77 75 
3 78 79 80 
3 81 82 83 
3 84 85 79 
3 86 87 88 
3 89 90 91 
3 92 93 94 
3 95 96 97 
3 98 99 100 
3 101 102 103 
3 104 105 106 
3 106 105 107 
3 36 108 109 
3 110 111 112 
3 35 110 36 
3 99 113 100 
3 114 100 115 
3 116 98 117 
3 118 119 120 
3 121 122 123 
3 124 125 126 
3 127 128 129 
3 130 131 132 
3 133 134 135 
3 136 137 138 
3 139 140 141 
3 142 143 144 
3 145 146 147 
3 148 149 150 
3 151 152 153 
3 154 155 156 
3 157 158 159 
3 160 161 162 
3 163 164 165 
3 134 166 135 
3 166 137 135 
3 167 168 169 
3 170 171 172 
3 171 167 169 
3 173 174 175 
3 176 177 178 
3 174 178 175 
3 179 180 181 
3 180 182 181 
3 183 184 185 
3 186 187 188 
3 189 190 191 
3 192 104 106 
3 193 194 195 
3 77 196 86 
3 197 198 199 
3 200 201 202 
3 202 203 204 
3 205 206 207 
3 208 209 210 
3 211 212 213 
3 214 200 85 
3 215 216 217 
3 218 219 220 
3 221 222 223 
3 224 225 226 
3 227 6 8 
3 228 229 230 
3 231 232 233 
3 130 234 235 
3 236 237 238 
3 239 134 133 
3 240 241 127 
3 242 243 244 
3 166 140 139 
3 245 246 247 
3 248 249 250 
3 169 251 252 
3 253 254 255 
3 256 257 258 
3 259 260 261 
3 262 263 264 
3 265 266 267 
3 268 269 270 
3 170 271 167 
3 272 273 274 
3 105 275 107 
3 107 276 277 
3 278 279 280 
3 281 282 283 
3 284 285 286 
3 287 288 289 
3 290 80 291 
3 292 293 294 
3 295 296 297 
3 298 299 277 
3 277 276 298 
3 300 301 302 
3 291 65 290 
3 303 304 305 
3 306 307 308 
3 309 310 311 
3 76 312 74 
3 51 313 76 
3 314 315 316 
3 271 136 167 
3 317 318 319 
3 320 321 322 
3 6 323 7 
3 12 324 13 
3 15 325 16 
3 18 326 19 
3 21 34 22 
3 327 328 329 
3 330 331 332 
3 30 333 31 
3 334 335 336 
3 50 313 51 
3 337 338 339 
3 340 341 342 
3 343 344 345 
3 65 291 66 
3 346 347 348 
3 349 350 351 
3 78 84 79 
3 352 353 354 
3 84 214 85 
3 86 196 87 
3 355 356 357 
3 92 192 93 
3 358 359 360 
3 98 116 99 
3 104 361 105 
3 36 110 108 
3 35 111 110 
3 114 98 100 
3 118 362 119 
3 121 363 122 
3 124 364 125 
3 127 241 128 
3 130 365 131 
3 136 366 137 
3 145 367 146 
3 368 369 370 
3 371 372 373 
3 374 375 376 
3 377 378 379 
3 163 380 164 
3 134 140 166 
3 166 138 137 
3 167 381 168 
3 171 170 167 
3 173 382 174 
3 176 383 177 
3 174 176 178 
3 179 183 180 
3 180 384 182 
3 183 179 184 
3 385 386 387 
3 192 92 104 
3 388 389 355 
3 77 74 196 
3 390 391 392 
3 202 201 203 
3 393 394 395 
3 396 397 398 
3 214 201 200 
3 399 400 401 
3 227 402 6 
3 403 404 405 
3 130 132 234 
3 406 407 408 
3 240 409 241 
3 410 411 412 
3 169 168 251 
3 413 414 415 
3 416 417 418 
3 419 420 421 
3 170 422 271 
3 423 424 425 
3 107 275 276 
3 281 298 282 
3 290 78 80 
3 426 427 428 
3 429 430 431 
3 298 281 299 
3 432 433 434 
3 435 436 437 
3 438 439 440 
3 76 313 312 
3 441 442 443 
3 271 366 136 
