ply
format ascii 1.0
comment VCGLIB generated
comment TextureFile dummy.png
element vertex 473
property float x
property float y
property float z
property float nx
property float ny
property float nz
property float texture_u
property float texture_v
element face 246
property list uchar int vertex_indices
end_header
0 451.533 19.0528 0 0 -1 0.235298 0.719826
176.845 398.569 19.0528 0 0 -1 0.153885 0.695444
84.29099 309.933 19.0528 0 0 -1 0.196494 0.654639
195.045 469.733 10.2528 0 0 -1 0.145507 0.97317
128.513 469.733 10.2528 0 0 -1 0.176136 0.97317
0 500 10.2528 0 0 -1 0.235298 0.987104
46.65201 480.615 10.2528 -0 -0 -1 0.213821 0.97818
0 469.733 10.2528 0 0 -1 0.235298 0.97317
6.029999 469.733 10.2528 0 0 -1 0.232522 0.97317
91.60001 291.733 10.2528 -0.301082 0.314391 -0.9002821 0.193129 0.64626
176.845 398.569 19.0528 -0.301082 0.314391 -0.9002821 0.153885 0.695444
195.045 390.799 10.2528 -0.301082 0.314391 -0.9002821 0.145507 0.691866
195.045 390.799 10.2528 -0.4353079 -0 -0.9002817 0.145507 0.691866
176.845 451.533 19.0528 -0.4353079 -0 -0.9002817 0.153885 0.719826
195.045 469.733 10.2528 -0.4353079 -0 -0.9002817 0.145507 0.728204
195.045 469.733 10.2528 0 -0.4353018 -0.9002846 0.145507 0.728204
176.845 451.533 19.0528 0 -0.4353018 -0.9002846 0.153885 0.719826
128.513 469.733 10.2528 0 -0.4353018 -0.9002846 0.176136 0.728204
0 451.533 19.0528 0 -0.4353018 -0.9002846 0.235298 0.719826
128.513 469.733 10.2528 -3.000001e-06 -0.4352821 -0.9002942 0.176136 0.728204
0 451.533 19.0528 -3.000001e-06 -0.4352821 -0.9002942 0.235298 0.719826
58.64099 460.697 14.6218 -3.000001e-06 -0.4352821 -0.9002942 0.208302 0.724045
0 469.733 10.2528 -0 -0.435301 -0.900285 0.235298 0.728204
6.029999 469.733 10.2528 -0 -0.435301 -0.900285 0.232522 0.728204
0 451.533 19.0528 -0 -0.435301 -0.900285 0.235298 0.719826
58.64099 460.697 14.6218 0 -0.435301 -0.900285 0.208302 0.724045
0 291.733 10.2528 0 0.4353022 -0.9002844 0.235298 0.64626
84.29099 309.933 19.0528 0 0.4353022 -0.9002844 0.196494 0.654639
91.60001 291.733 10.2528 0 0.4353022 -0.9002844 0.193129 0.64626
195.045 390.799 10.2528 -0 -0 -1 0.145507 0.936832
162.665 314.983 10.2528 -0 -0 -1 0.160413 0.901929
91.60001 291.733 10.2528 -0 -0 -1 0.193129 0.891226
162.665 115.467 10.2529 -0 -0 -1 0.160413 0.810079
0 91.2283 0 0 0.3895799 -0.9209927 0.235298 0.798921
162.665 115.467 10.2529 0 0.3895799 -0.9209927 0.160413 0.810079
253.988 91.2283 0 0 0.3895799 -0.9209927 0.118372 0.798921
500 91.2283 0 0 0.3895799 -0.9209927 0.005117 0.798921
417.2845 91.2282 0 0 0.3895799 -0.9209927 0.043196 0.798921
337.335 115.467 10.2529 0 0.3895799 -0.9209927 0.080002 0.810079
332.306 104.377 5.562 0 0.3895799 -0.9209927 0.082317 0.804975
0 -7e-06 0 0 0 -1 0.235298 0.756923
0 91.2283 0 0 0 -1 0.235298 0.798921
500 -7e-06 0 0 0 -1 0.005117 0.756923
253.988 91.2283 0 -0 -0 -1 0.118372 0.798921
253.988 91.2283 0 -0 -1e-06 -1 0.118372 0.798921
343.627 82.2985 0 -0 -1e-06 -1 0.077105 0.79481
500 -7e-06 0 -0 -1e-06 -1 0.005117 0.756923
343.627 82.2985 0 0 0 -1 0.077105 0.79481
417.2845 91.2282 0 0 0 -1 0.043196 0.798921
500 91.2283 0 0 0 -1 0.005117 0.798921
0 500 10.2528 0 1 0 0.105847 0.756923
500 500 72.6434 0 1 0 0.134569 0.987104
500 500 10.2528 0 1 0 0.105847 0.987104
304.955 469.733 10.2528 0 0 -1 0.094909 0.97317
304.955 390.799 10.2528 0 0 -1 0.094909 0.936832
0 115.467 10.2529 0 0.3895799 -0.9209927 0.235298 0.810079
0 115.467 10.2529 0 0 -1 0.235298 0.810079
0 291.733 10.2528 0 0 -1 0.235298 0.891226
220.531 339.186 20.2528 0.6972809 -0.7167979 0 0.129755 0.678544
185.665 305.27 62.6435 0.6972809 -0.7167979 0 0.11024 0.66293
185.665 305.27 20.2528 0.6972809 -0.7167979 0 0.129755 0.66293
185.665 115.467 20.2529 1 0 0 0.129755 0.575552
185.665 180.945 20.2528 1 0 0 0.129755 0.605695
185.665 115.467 62.6435 1 0 0 0.11024 0.575552
185.665 305.27 62.6435 1 0 0 0.11024 0.66293
185.665 249.521 28.9157 1 0 0 0.125767 0.637265
185.665 280.102 20.2528 1 0 0 0.129755 0.651344
185.665 305.27 20.2528 1 0 0 0.129755 0.66293
415.7095 309.933 19.0528 0 0 -1 0.043921 0.654639
500 451.533 19.0528 0 0 -1 0.005117 0.719826
500 309.933 19.0528 0 0 -1 0.005117 0.654639
500 500 10.2528 0 0 -1 0.005117 0.987104
500 469.733 10.2528 0 0 -1 0.005117 0.97317
304.955 390.799 10.2528 0.301082 0.314391 -0.9002821 0.094909 0.691866
323.155 398.569 19.0528 0.301082 0.314391 -0.9002821 0.08653 0.695444
319.304 377.057 10.2528 0.301082 0.314391 -0.9002821 0.088303 0.68554
408.4004 291.733 10.2528 0.3010799 0.3143889 -0.9002836 0.047286 0.64626
381.376 317.614 10.2528 0.3010799 0.3143889 -0.9002836 0.059727 0.658175
415.7095 309.933 19.0528 0.3010799 0.3143889 -0.9002836 0.043921 0.654639
359.205 352.376 14.9778 0.301082 0.314391 -0.9002821 0.069934 0.674178
323.155 398.569 19.0528 0.301079 0.314389 -0.9002839 0.08653 0.695444
415.7095 309.933 19.0528 0.301079 0.314389 -0.9002839 0.043921 0.654639
359.205 352.376 14.9778 0.301079 0.314389 -0.9002839 0.069934 0.674178
381.376 317.614 10.2528 0.30108 0.3143901 -0.9002832 0.059727 0.658175
359.205 352.376 14.9778 0.30108 0.3143901 -0.9002832 0.069934 0.674178
415.7095 309.933 19.0528 0.30108 0.3143901 -0.9002832 0.043921 0.654639
304.955 390.799 10.2528 0.4353079 0 -0.9002817 0.094909 0.691866
323.155 451.533 19.0528 0.4353079 0 -0.9002817 0.08653 0.719826
323.155 398.569 19.0528 0.4353079 0 -0.9002817 0.08653 0.695444
323.155 451.533 19.0528 -0 -0.4353002 -0.9002854 0.08653 0.719826
500 469.733 10.2528 -0 -0.4353002 -0.9002854 0.005117 0.728204
500 451.533 19.0528 -0 -0.4353002 -0.9002854 0.005117 0.719826
500 291.733 10.2528 0 0.4353022 -0.9002844 0.005117 0.64626
415.7095 309.933 19.0528 0 0.4353022 -0.9002844 0.043921 0.654639
500 309.933 19.0528 0 0.4353022 -0.9002844 0.005117 0.654639
500 469.733 10.2528 1 0 0 0.134569 0.97317
500 500 72.6434 1 0 0 0.105847 0.987104
500 469.733 72.6434 1 0 0 0.105847 0.97317
500 291.733 10.2528 1 0 0 0.134569 0.891226
500 309.933 63.8435 1 0 0 0.109898 0.899604
500 291.733 72.6435 1 0 0 0.105847 0.891226
408.4004 291.733 10.2528 0 0 -1 0.047286 0.891226
337.335 314.983 10.2528 0 0 -1 0.080002 0.901929
381.376 317.614 10.2528 0 0 -1 0.059727 0.90314
349.106 331.654 10.2528 0 0 -1 0.074583 0.909604
319.304 377.057 10.2528 0 0 -1 0.088303 0.930506
288.811 362.186 10.2528 0 0 -1 0.10234 0.92366
337.335 115.467 10.2529 0 0 -1 0.080002 0.810079
500 115.467 10.2529 0 0.3895799 -0.9209927 0.005117 0.810079
500 115.467 10.2529 -0 -0 -1 0.005117 0.810079
500 291.733 10.2528 -0 -0 -1 0.005117 0.891226
211.189 362.186 10.2528 0 0 -1 0.138075 0.92366
211.189 362.186 10.2528 0.4515989 -0.4642348 -0.7619347 0.138075 0.92366
172.665 310.76 18.7528 0.4515989 -0.4642348 -0.7619347 0.15581 0.899985
162.665 314.983 10.2528 0.4515989 -0.4642348 -0.7619347 0.160413 0.901929
162.665 115.467 10.2529 0.6476483 0 -0.7619394 0.160413 0.810079
172.665 310.76 18.7528 0.6476483 0 -0.7619394 0.15581 0.899985
172.665 115.467 18.7529 0.6476483 0 -0.7619394 0.15581 0.810079
211.189 362.186 10.2528 0 -0.6476489 -0.7619389 0.138075 0.92366
284.75 352.186 18.7528 0 -0.6476489 -0.7619389 0.10421 0.919056
215.25 352.186 18.7528 0 -0.6476489 -0.7619389 0.136205 0.919056
288.811 362.186 10.2528 -0.4515949 -0.4642319 -0.7619389 0.10234 0.92366
327.335 310.76 18.7528 -0.4515949 -0.4642319 -0.7619389 0.084606 0.899985
284.75 352.186 18.7528 -0.4515949 -0.4642319 -0.7619389 0.10421 0.919056
337.335 115.467 10.2529 -0.6476483 -0 -0.7619394 0.080002 0.810079
327.335 310.76 18.7528 -0.6476483 -0 -0.7619394 0.084606 0.899985
337.335 314.983 10.2528 -0.6476483 -0 -0.7619394 0.080002 0.901929
215.25 352.186 18.7528 0.07992295 -0.08215895 -0.9934094 0.136205 0.674091
185.665 305.27 20.2528 0.07992295 -0.08215895 -0.9934094 0.149825 0.652492
172.665 310.76 18.7528 0.07992295 -0.08215895 -0.9934094 0.15581 0.65502
172.665 115.467 18.7529 0.114624 0 -0.993409 0.15581 0.565114
172.665 310.76 18.7528 0.114624 0 -0.993409 0.15581 0.65502
185.665 115.467 20.2529 0.114624 0 -0.993409 0.149825 0.565114
185.665 305.27 20.2528 0.114621 0 -0.9934093 0.149825 0.652492
185.665 280.102 20.2528 0.114621 0 -0.9934093 0.149825 0.640906
172.665 310.76 18.7528 0.114621 0 -0.9934093 0.15581 0.65502
185.665 280.102 20.2528 0.114622 0 -0.9934092 0.149825 0.640906
177.765 253.309 19.3412 0.114622 0 -0.9934092 0.153462 0.628571
172.665 310.76 18.7528 0.114622 0 -0.9934092 0.15581 0.65502
172.665 310.76 18.7528 0.114606 -1e-06 -0.9934111 0.15581 0.65502
177.765 253.309 19.3412 0.114606 -1e-06 -0.9934111 0.153462 0.628571
185.665 115.467 20.2529 0.114606 -1e-06 -0.9934111 0.149825 0.565114
177.765 253.309 19.3412 0.114623 0 -0.9934091 0.153462 0.628571
185.665 180.945 20.2528 0.114623 0 -0.9934091 0.149825 0.595257
185.665 115.467 20.2529 0.114623 0 -0.9934091 0.149825 0.565114
284.75 352.186 18.7528 0 -0.114621 -0.9934093 0.10421 0.674091
220.531 339.186 20.2528 0 -0.114621 -0.9934093 0.133774 0.668106
215.25 352.186 18.7528 0 -0.114621 -0.9934093 0.136205 0.674091
284.75 352.186 18.7528 -0.07992698 -0.08216298 -0.9934087 0.10421 0.674091
314.335 305.269 20.2529 -0.07992698 -0.08216298 -0.9934087 0.09059 0.652492
279.469 339.186 20.2529 -0.07992698 -0.08216298 -0.9934087 0.106641 0.668106
327.335 115.467 18.7529 -0.114629 -0 -0.9934084 0.084606 0.565114
314.335 305.269 20.2529 -0.114629 -0 -0.9934084 0.09059 0.652492
327.335 310.76 18.7528 -0.114629 -0 -0.9934084 0.084606 0.65502
337.335 115.467 10.2529 0 1 -1e-06 0.105847 0.912219
314.335 115.467 20.2529 0 1 -1e-06 0.11045 0.901631
327.335 115.467 18.7529 0 1 -1e-06 0.10976 0.907616
185.665 115.467 20.2529 0 1 -1e-06 0.11045 0.842396
162.665 115.467 10.2529 0 1 -1e-06 0.105847 0.831808
172.665 115.467 18.7529 0 1 -1e-06 0.10976 0.836411
185.665 115.467 20.2529 0 1 0 0.11045 0.842396
314.335 115.467 62.6435 0 1 0 0.129965 0.901631
314.335 115.467 20.2529 0 1 0 0.11045 0.901631
84.29099 309.933 63.8435 0 0 1 0.196494 0.599457
0 451.533 63.8434 0 0 1 0.235298 0.53427
0 309.933 63.8435 0 0 1 0.235298 0.599457
195.045 469.733 72.6434 0 0 1 0.145507 0.770857
0 500 72.6434 0 0 1 0.235298 0.756923
0 469.733 72.6434 0 0 1 0.235298 0.770857
195.045 390.799 72.6434 -0.301082 0.314391 0.9002821 0.145507 0.562229
176.845 398.569 63.8434 -0.301082 0.314391 0.9002821 0.153885 0.558652
151.535 358.612 69.3324 -0.301082 0.314391 0.9002821 0.165537 0.577047
176.845 398.569 63.8434 -0.301084 0.314393 0.9002808 0.153885 0.558652
84.29099 309.933 63.8435 -0.301084 0.314393 0.9002808 0.196494 0.599457
151.535 358.612 69.3324 -0.301084 0.314393 0.9002808 0.165537 0.577047
121.248 320.126 72.6435 -0.301084 0.314393 0.9002808 0.17948 0.594764
91.60001 291.733 72.6435 -0.3010841 0.3143941 0.9002804 0.193129 0.607836
121.248 320.126 72.6435 -0.3010841 0.3143941 0.9002804 0.17948 0.594764
84.29099 309.933 63.8435 -0.3010841 0.3143941 0.9002804 0.196494 0.599457
195.045 390.799 72.6434 -0.4353079 0 0.9002817 0.145507 0.562229
176.845 451.533 63.8434 -0.4353079 0 0.9002817 0.153885 0.53427
176.845 398.569 63.8434 -0.4353079 0 0.9002817 0.153885 0.558652
176.845 451.533 63.8434 0 -0.4353002 0.9002854 0.153885 0.53427
0 469.733 72.6434 0 -0.4353002 0.9002854 0.235298 0.525891
0 451.533 63.8434 0 -0.4353002 0.9002854 0.235298 0.53427
0 291.733 72.6435 0 0.4353022 0.9002844 0.235298 0.607836
84.29099 309.933 63.8435 0 0.4353022 0.9002844 0.196494 0.599457
0 309.933 63.8435 0 0.4353022 0.9002844 0.235298 0.599457
0 469.733 72.6434 -1 0 0 0.134569 0.97317
0 500 10.2528 -1 0 0 0.105847 0.987104
0 469.733 10.2528 -1 0 0 0.105847 0.97317
0 309.933 63.8435 -1 0 0 0.130518 0.899604
0 451.533 19.0528 -1 0 0 0.109898 0.964792
0 309.933 19.0528 -1 0 0 0.109898 0.899604
91.60001 291.733 72.6435 0 0 1 0.193129 0.852802
162.665 314.983 72.6435 0 0 1 0.160413 0.842098
121.248 320.126 72.6435 0 0 1 0.17948 0.83973
164.695 340.994 72.6435 0 0 1 0.159479 0.830124
211.189 362.186 72.6435 0 0 1 0.138075 0.820367
195.045 390.799 72.6434 0 0 1 0.145507 0.807195
162.665 115.467 72.6435 0 0 1 0.160413 0.933948
0 91.2283 82.8964 0 0.3895802 0.9209926 0.235298 0.945105
246.185 91.2283 82.8964 0 0.3895802 0.9209926 0.121964 0.945105
162.665 115.467 72.6435 0 0.3895802 0.9209926 0.160413 0.933948
500 91.2283 82.8964 0 0.3895802 0.9209926 0.005117 0.945105
337.335 115.467 72.6435 0 0.3895802 0.9209926 0.080002 0.933948
408.4475 91.2283 82.8964 0 0.3895802 0.9209926 0.047264 0.945105
312.968 104.136 77.43629 0 0.3895802 0.9209926 0.09122 0.939164
246.185 91.2283 82.8964 0 0.3895811 0.9209922 0.121964 0.945105
312.968 104.136 77.43629 0 0.3895811 0.9209922 0.09122 0.939164
337.335 115.467 72.6435 0 0.3895811 0.9209922 0.080002 0.933948
0 7e-06 82.8964 0 0 1 0.235298 0.987104
500 7e-06 82.8964 0 0 1 0.005117 0.987104
0 91.2283 82.8964 0 0 1 0.235298 0.945105
246.185 91.2283 82.8964 0 0 1 0.121964 0.945105
246.185 91.2283 82.8964 -1e-06 -3e-06 1 0.121964 0.945105
500 7e-06 82.8964 -1e-06 -3e-06 1 0.005117 0.987104
310.736 79.5329 82.8964 -1e-06 -3e-06 1 0.092247 0.95049
310.736 79.5329 82.8964 0 0 1 0.092247 0.95049
408.4475 91.2283 82.8964 0 0 1 0.047264 0.945105
500 91.2283 82.8964 0 0 1 0.005117 0.945105
0 7e-06 82.8964 0 -1 0 0.101126 0.756923
500 -7e-06 0 0 -1 0 0.139289 0.987104
500 7e-06 82.8964 0 -1 0 0.101126 0.987104
304.955 469.733 72.6434 0 0 1 0.094909 0.770857
304.955 390.799 72.6434 0 0 1 0.094909 0.807195
0 115.467 72.6435 0 0.3895802 0.9209926 0.235298 0.933948
0 115.467 72.6435 0 0 1 0.235298 0.933948
0 291.733 72.6435 0 0 1 0.235298 0.852802
279.469 339.186 62.6434 0 -1 0 0.11045 0.640614
220.531 339.186 20.2528 0 -1 0 0.129965 0.613481
279.469 339.186 20.2529 0 -1 0 0.129965 0.640614
500 451.533 63.8434 0 0 1 0.005117 0.53427
323.155 398.569 63.8434 0 0 1 0.08653 0.558652
415.7095 309.933 63.8435 0 0 1 0.043921 0.599457
378.375 469.733 72.6434 0 0 1 0.061108 0.770857
500 500 72.6434 0 0 1 0.005117 0.756923
450.5304 479.536 72.6434 0 0 1 0.027891 0.766344
482.004 469.733 72.6434 0 0 1 0.013402 0.770857
500 469.733 72.6434 0 0 1 0.005117 0.770857
408.4004 291.733 72.6435 0.301082 0.314391 0.9002821 0.047286 0.607836
323.155 398.569 63.8434 0.301082 0.314391 0.9002821 0.08653 0.558652
304.955 390.799 72.6434 0.301082 0.314391 0.9002821 0.094909 0.562229
304.955 390.799 72.6434 0.4353082 0 0.9002815 0.094909 0.562229
323.155 451.533 63.8434 0.4353082 0 0.9002815 0.08653 0.53427
304.955 469.733 72.6434 0.4353082 0 0.9002815 0.094909 0.525891
304.955 469.733 72.6434 0 -0.4353018 0.9002846 0.094909 0.525891
323.155 451.533 63.8434 0 -0.4353018 0.9002846 0.08653 0.53427
378.375 469.733 72.6434 0 -0.4353018 0.9002846 0.061108 0.525891
323.155 451.533 63.8434 0 -0.435301 0.900285 0.08653 0.53427
500 451.533 63.8434 0 -0.435301 0.900285 0.005117 0.53427
378.375 469.733 72.6434 0 -0.435301 0.900285 0.061108 0.525891
378.375 469.733 72.6434 0 -0.435299 0.900286 0.061108 0.525891
500 451.533 63.8434 0 -0.435299 0.900286 0.005117 0.53427
435.1096 463.662 69.7082 0 -0.435299 0.900286 0.03499 0.528686
435.1096 463.662 69.7082 0 -0.4353002 0.9002854 0.03499 0.528686
500 451.533 63.8434 0 -0.4353002 0.9002854 0.005117 0.53427
482.004 469.733 72.6434 0 -0.4353002 0.9002854 0.013402 0.525891
500 469.733 72.6434 0 -0.4353002 0.9002854 0.005117 0.525891
500 291.733 72.6435 0 0.4353022 0.9002844 0.005117 0.607836
415.7095 309.933 63.8435 0 0.4353022 0.9002844 0.043921 0.599457
408.4004 291.733 72.6435 0 0.4353022 0.9002844 0.047286 0.607836
337.335 314.983 72.6435 0 0 1 0.080002 0.842098
408.4004 291.733 72.6435 0 0 1 0.047286 0.852802
337.335 115.467 72.6435 0 0 1 0.080002 0.933948
500 115.467 72.6435 0 0.3895802 0.9209926 0.005117 0.933948
500 115.467 72.6435 0 0 1 0.005117 0.933948
500 291.733 72.6435 0 0 1 0.005117 0.852802
314.335 305.269 62.6434 -0.6972871 -0.716792 0 0.12962 0.66293
279.469 339.186 20.2529 -0.6972871 -0.716792 0 0.110105 0.678544
314.335 305.269 20.2529 -0.6972871 -0.716792 0 0.110105 0.66293
314.335 115.467 20.2529 -1 -0 -0 0.110105 0.575552
314.335 115.467 62.6435 -1 -0 -0 0.12962 0.575552
314.335 305.269 20.2529 -1 -0 -0 0.110105 0.66293
314.335 177.462 62.6435 -1 0 0 0.12962 0.604092
314.335 237.302 49.09942 -1 0 0 0.123385 0.63164
314.335 285.593 62.6434 -1 0 0 0.12962 0.653871
314.335 305.269 62.6434 -1 0 0 0.12962 0.66293
288.811 362.186 72.6435 0 0 1 0.102341 0.820367
172.665 310.76 64.1435 0.4515989 -0.4642348 0.7619347 0.15581 0.844042
211.189 362.186 72.6435 0.4515989 -0.4642348 0.7619347 0.138075 0.820367
162.665 314.983 72.6435 0.4515989 -0.4642348 0.7619347 0.160413 0.842098
162.665 115.467 72.6435 0.6476483 0 0.7619394 0.160413 0.933948
172.665 310.76 64.1435 0.6476483 0 0.7619394 0.15581 0.844042
162.665 314.983 72.6435 0.6476483 0 0.7619394 0.160413 0.842098
211.189 362.186 72.6435 0 -0.6476483 0.7619394 0.138075 0.820367
284.75 352.186 64.1435 0 -0.6476483 0.7619394 0.10421 0.824971
288.811 362.186 72.6435 0 -0.6476483 0.7619394 0.102341 0.820367
288.811 362.186 72.6435 -0.451597 -0.464233 0.761937 0.102341 0.820367
327.335 310.76 64.1435 -0.451597 -0.464233 0.761937 0.084606 0.844042
337.335 314.983 72.6435 -0.451597 -0.464233 0.761937 0.080002 0.842098
337.335 314.983 72.6435 -0.6476483 0 0.7619394 0.080002 0.842098
327.335 310.76 64.1435 -0.6476483 0 0.7619394 0.084606 0.844042
337.335 115.467 72.6435 -0.6476483 0 0.7619394 0.080002 0.933948
327.335 235.528 64.1435 -0.6476483 0 0.7619394 0.084606 0.878676
327.335 115.467 64.1435 -0.6476483 0 0.7619394 0.084606 0.933948
185.665 305.27 62.6435 0.07992303 -0.08215804 0.9934095 0.149825 0.601604
215.25 352.186 64.1435 0.07992303 -0.08215804 0.9934095 0.136205 0.580005
172.665 310.76 64.1435 0.07992303 -0.08215804 0.9934095 0.15581 0.599076
172.665 115.467 64.1435 0.114621 0 0.9934093 0.15581 0.688982
185.665 305.27 62.6435 0.114621 0 0.9934093 0.149825 0.601604
172.665 310.76 64.1435 0.114621 0 0.9934093 0.15581 0.599076
220.531 339.186 62.6435 0 -0.114621 0.9934093 0.133774 0.58599
284.75 352.186 64.1435 0 -0.114621 0.9934093 0.10421 0.580005
215.25 352.186 64.1435 0 -0.114621 0.9934093 0.136205 0.580005
284.75 352.186 64.1435 -0.07992599 -0.08216299 0.9934089 0.10421 0.580005
314.335 305.269 62.6434 -0.07992599 -0.08216299 0.9934089 0.09059 0.601604
327.335 310.76 64.1435 -0.07992599 -0.08216299 0.9934089 0.084606 0.599076
327.335 310.76 64.1435 -0.1146281 0 0.9934085 0.084606 0.599076
314.335 285.593 62.6434 -0.1146281 0 0.9934085 0.09059 0.610662
327.335 235.528 64.1435 -0.1146281 0 0.9934085 0.084606 0.63371
337.335 115.467 72.6435 0 1 -1e-06 0.134569 0.912219
327.335 115.467 64.1435 0 1 -1e-06 0.130656 0.907616
314.335 115.467 62.6435 0 1 -1e-06 0.129965 0.901631
185.665 115.467 62.6435 0 1 -1e-06 0.129965 0.842396
172.665 115.467 64.1435 0 1 -1e-06 0.130656 0.836411
162.665 115.467 72.6435 0 1 -1e-06 0.134569 0.831808
500 309.933 19.0528 1 0 0 0.130518 0.899604
500 451.533 63.8434 1 0 0 0.109898 0.964792
500 451.533 19.0528 1 0 0 0.130518 0.964792
0 451.533 63.8434 -1 0 0 0.130518 0.964792
0 291.733 72.6435 -1 0 0 0.134569 0.891226
0 291.733 10.2528 -1 0 0 0.105847 0.891226
0 115.467 72.6435 -1 0 0 0.134569 0.81008
0 115.467 10.2529 -1 0 0 0.105847 0.81008
0 91.2283 82.8964 -1 0 0 0.139289 0.798921
0 91.2283 0 -1 0 0 0.101127 0.798921
0 7e-06 82.8964 -1 0 0 0.139289 0.756923
0 -7e-06 0 -1 0 0 0.101127 0.756923
500 -7e-06 0 1 0 0 0.139289 0.756923
500 91.2283 82.8964 1 0 0 0.101127 0.798921
500 7e-06 82.8964 1 0 0 0.101127 0.756923
500 91.2283 0 1 0 0 0.139289 0.798921
500 115.467 72.6435 1 0 0 0.105847 0.810079
500 115.467 10.2529 1 0 0 0.134569 0.810079
500 309.933 63.8435 0 0 1 0.005117 0.599457
176.845 398.569 63.8434 0 0 1 0.153885 0.558652
323.155 398.569 19.0528 -0 -0 -1 0.08653 0.695444
0 309.933 19.0528 0 0 -1 0.235298 0.654639
253.988 91.2283 0 0.02555301 0.2565081 -0.9662043 0.118372 0.798921
332.306 104.377 5.562 0.02555301 0.2565081 -0.9662043 0.082317 0.804975
343.627 82.2985 0 0.02555301 0.2565081 -0.9662043 0.077105 0.79481
343.627 82.2985 0 -0.027966 0.230683 -0.972627 0.077105 0.79481
332.306 104.377 5.562 -0.027966 0.230683 -0.972627 0.082317 0.804975
417.2845 91.2282 0 -0.027966 0.230683 -0.972627 0.043196 0.798921
185.665 280.102 20.2528 0.7192721 -0.189352 -0.6684261 0.129755 0.651344
185.665 249.521 28.9157 0.7192721 -0.189352 -0.6684261 0.125767 0.637265
177.765 253.309 19.3412 0.7192721 -0.189352 -0.6684261 0.130175 0.639009
177.765 253.309 19.3412 0.7838693 0.07781903 -0.6160302 0.130175 0.639009
185.665 249.521 28.9157 0.7838693 0.07781903 -0.6160302 0.125767 0.637265
185.665 180.945 20.2528 0.7838693 0.07781903 -0.6160302 0.129755 0.605695
58.64099 460.697 14.6218 -0.030816 -0.231818 -0.972271 0.208302 0.96901
46.65201 480.615 10.2528 -0.030816 -0.231818 -0.972271 0.213821 0.97818
128.513 469.733 10.2528 -0.030816 -0.231818 -0.972271 0.176136 0.97317
6.029999 469.733 10.2528 0.049661 -0.185382 -0.9814109 0.232522 0.97317
46.65201 480.615 10.2528 0.049661 -0.185382 -0.9814109 0.213821 0.97818
58.64099 460.697 14.6218 0.049661 -0.185382 -0.9814109 0.208302 0.96901
359.205 352.376 14.9778 0.1939251 0.127289 -0.9727233 0.069934 0.919143
349.106 331.654 10.2528 0.1939251 0.127289 -0.9727233 0.074583 0.909604
319.304 377.057 10.2528 0.1939251 0.127289 -0.9727233 0.088303 0.930506
381.376 317.614 10.2528 0.08018401 0.184288 -0.9795961 0.059727 0.90314
349.106 331.654 10.2528 0.08018401 0.184288 -0.9795961 0.074583 0.909604
359.205 352.376 14.9778 0.08018401 0.184288 -0.9795961 0.069934 0.919143
314.335 177.462 62.6435 -0.114626 0 0.9934087 0.09059 0.660442
327.335 115.467 64.1435 -0.114626 0 0.9934087 0.084606 0.688982
327.335 235.528 64.1435 -0.114626 0 0.9934087 0.084606 0.63371
314.335 285.593 62.6434 -0.7549163 -0.1771041 0.6314552 0.12962 0.653871
314.335 237.302 49.09942 -0.7549163 -0.1771041 0.6314552 0.123385 0.63164
327.335 235.528 64.1435 -0.7549163 -0.1771041 0.6314552 0.13031 0.630823
327.335 235.528 64.1435 -0.7394993 0.1486021 0.6565503 0.13031 0.630823
314.335 237.302 49.09942 -0.7394993 0.1486021 0.6565503 0.123385 0.63164
314.335 177.462 62.6435 -0.7394993 0.1486021 0.6565503 0.12962 0.604092
408.4475 91.2283 82.8964 -0.02619401 0.2188431 0.9754084 0.047264 0.945105
312.968 104.136 77.43629 -0.02619401 0.2188431 0.9754084 0.09122 0.939164
310.736 79.5329 82.8964 -0.02619401 0.2188431 0.9754084 0.092247 0.95049
310.736 79.5329 82.8964 0.03861901 0.2131531 0.9762553 0.092247 0.95049
312.968 104.136 77.43629 0.03861901 0.2131531 0.9762553 0.09122 0.939164
246.185 91.2283 82.8964 0.03861901 0.2131531 0.9762553 0.121964 0.945105
151.535 358.612 69.3324 -0.136771 0.08334503 0.9870903 0.165537 0.822013
164.695 340.994 72.6435 -0.136771 0.08334503 0.9870903 0.159479 0.830124
195.045 390.799 72.6434 -0.136771 0.08334503 0.9870903 0.145507 0.807195
121.248 320.126 72.6435 -0.06566303 0.1367101 0.9884325 0.17948 0.83973
164.695 340.994 72.6435 -0.06566303 0.1367101 0.9884325 0.159479 0.830124
151.535 358.612 69.3324 -0.06566303 0.1367101 0.9884325 0.165537 0.822013
435.1096 463.662 69.7082 0.02829601 -0.2082631 0.9776635 0.03499 0.773652
450.5304 479.536 72.6434 0.02829601 -0.2082631 0.9776635 0.027891 0.766344
378.375 469.733 72.6434 0.02829601 -0.2082631 0.9776635 0.061108 0.770857
482.004 469.733 72.6434 -0.04373502 -0.140408 0.9891273 0.013402 0.770857
450.5304 479.536 72.6434 -0.04373502 -0.140408 0.9891273 0.027891 0.766344
435.1096 463.662 69.7082 -0.04373502 -0.140408 0.9891273 0.03499 0.773652
176.845 451.533 19.0528 0 0 -1 0.153885 0.719826
91.60001 291.733 10.2528 -0.3010851 0.3143931 -0.9002804 0.193129 0.64626
84.29099 309.933 19.0528 -0.3010851 0.3143931 -0.9002804 0.196494 0.654639
176.845 398.569 19.0528 -0.3010851 0.3143931 -0.9002804 0.153885 0.695444
176.845 398.569 19.0528 -0.4353079 -0 -0.9002817 0.153885 0.695444
0 309.933 19.0528 0 0.4353022 -0.9002844 0.235298 0.654639
0 500 72.6434 0 1 0 0.134569 0.756923
220.531 339.186 62.6435 0.6972809 -0.7167979 0 0.11024 0.678544
304.955 469.733 10.2528 0.4353079 0 -0.9002817 0.094909 0.728204
323.155 451.533 19.0528 -0 -0.4353018 -0.9002846 0.08653 0.719826
304.955 469.733 10.2528 -0 -0.4353018 -0.9002846 0.094909 0.728204
500 469.733 10.2528 -0 -0.4353018 -0.9002846 0.005117 0.728204
408.4004 291.733 10.2528 0 0.4353022 -0.9002844 0.047286 0.64626
500 500 10.2528 1 0 0 0.134569 0.987104
211.189 362.186 10.2528 0.4516071 -0.4642391 -0.7619272 0.138075 0.92366
215.25 352.186 18.7528 0.4516071 -0.4642391 -0.7619272 0.136205 0.919056
172.665 310.76 18.7528 0.4516071 -0.4642391 -0.7619272 0.15581 0.899985
162.665 314.983 10.2528 0.6476483 0 -0.7619394 0.160413 0.901929
288.811 362.186 10.2528 -0 -0.6476489 -0.7619389 0.10234 0.92366
288.811 362.186 10.2528 -0.451597 -0.464233 -0.761937 0.10234 0.92366
337.335 314.983 10.2528 -0.451597 -0.464233 -0.761937 0.080002 0.901929
327.335 310.76 18.7528 -0.451597 -0.464233 -0.761937 0.084606 0.899985
327.335 115.467 18.7529 -0.6476483 -0 -0.7619394 0.084606 0.810079
215.25 352.186 18.7528 0.079919 -0.08215699 -0.9934099 0.136205 0.674091
220.531 339.186 20.2528 0.079919 -0.08215699 -0.9934099 0.133774 0.668106
185.665 305.27 20.2528 0.079919 -0.08215699 -0.9934099 0.149825 0.652492
284.75 352.186 18.7528 2.000001e-06 -0.1146281 -0.9934085 0.10421 0.674091
279.469 339.186 20.2529 2.000001e-06 -0.1146281 -0.9934085 0.106641 0.668106
220.531 339.186 20.2528 2.000001e-06 -0.1146281 -0.9934085 0.133774 0.668106
284.75 352.186 18.7528 -0.07992599 -0.08216299 -0.9934089 0.10421 0.674091
327.335 310.76 18.7528 -0.07992599 -0.08216299 -0.9934089 0.084606 0.65502
314.335 305.269 20.2529 -0.07992599 -0.08216299 -0.9934089 0.09059 0.652492
327.335 115.467 18.7529 -0.114624 0 -0.993409 0.084606 0.565114
314.335 115.467 20.2529 -0.114624 0 -0.993409 0.09059 0.565114
314.335 305.269 20.2529 -0.114624 0 -0.993409 0.09059 0.652492
185.665 115.467 62.6435 0 1 0 0.129965 0.842396
195.045 390.799 72.6434 -0.4353082 0 0.9002815 0.145507 0.562229
195.045 469.733 72.6434 -0.4353082 0 0.9002815 0.145507 0.525891
176.845 451.533 63.8434 -0.4353082 0 0.9002815 0.153885 0.53427
176.845 451.533 63.8434 0 -0.4353018 0.9002846 0.153885 0.53427
195.045 469.733 72.6434 0 -0.4353018 0.9002846 0.145507 0.525891
0 469.733 72.6434 0 -0.4353018 0.9002846 0.235298 0.525891
91.60001 291.733 72.6435 0 0.4353022 0.9002844 0.193129 0.607836
0 500 72.6434 -1 0 0 0.134569 0.987104
0 -7e-06 0 0 -1 0 0.139289 0.756923
220.531 339.186 62.6435 0 -1 0 0.11045 0.613481
323.155 451.533 63.8434 0 0 1 0.08653 0.53427
408.4004 291.733 72.6435 0.301079 0.314389 0.9002839 0.047286 0.607836
415.7095 309.933 63.8435 0.301079 0.314389 0.9002839 0.043921 0.599457
323.155 398.569 63.8434 0.301079 0.314389 0.9002839 0.08653 0.558652
304.955 390.799 72.6434 0.4353079 0 0.9002817 0.094909 0.562229
323.155 398.569 63.8434 0.4353079 0 0.9002817 0.08653 0.558652
323.155 451.533 63.8434 0.4353079 0 0.9002817 0.08653 0.53427
500 309.933 63.8435 0 0.4353022 0.9002844 0.005117 0.599457
279.469 339.186 62.6434 -0.6972871 -0.716792 0 0.12962 0.678544
172.665 310.76 64.1435 0.4516071 -0.4642391 0.7619272 0.15581 0.844042
215.25 352.186 64.1435 0.4516071 -0.4642391 0.7619272 0.136205 0.824971
211.189 362.186 72.6435 0.4516071 -0.4642391 0.7619272 0.138075 0.820367
172.665 115.467 64.1435 0.6476483 0 0.7619394 0.15581 0.933948
215.25 352.186 64.1435 0 -0.6476483 0.7619394 0.136205 0.824971
288.811 362.186 72.6435 -0.4515949 -0.4642319 0.7619389 0.102341 0.820367
284.75 352.186 64.1435 -0.4515949 -0.4642319 0.7619389 0.10421 0.824971
327.335 310.76 64.1435 -0.4515949 -0.4642319 0.7619389 0.084606 0.844042
185.665 305.27 62.6435 0.07991999 -0.082156 0.9934099 0.149825 0.601604
220.531 339.186 62.6435 0.07991999 -0.082156 0.9934099 0.133774 0.58599
215.25 352.186 64.1435 0.07991999 -0.082156 0.9934099 0.136205 0.580005
172.665 115.467 64.1435 0.114624 0 0.993409 0.15581 0.688982
185.665 115.467 62.6435 0.114624 0 0.993409 0.149825 0.688982
185.665 305.27 62.6435 0.114624 0 0.993409 0.149825 0.601604
220.531 339.186 62.6435 1.999999e-06 -0.1146279 0.9934085 0.133774 0.58599
279.469 339.186 62.6434 1.999999e-06 -0.1146279 0.9934085 0.106641 0.58599
284.75 352.186 64.1435 1.999999e-06 -0.1146279 0.9934085 0.10421 0.580005
284.75 352.186 64.1435 -0.07992698 -0.08216298 0.9934087 0.10421 0.580005
279.469 339.186 62.6434 -0.07992698 -0.08216298 0.9934087 0.106641 0.58599
314.335 305.269 62.6434 -0.07992698 -0.08216298 0.9934087 0.09059 0.601604
327.335 310.76 64.1435 -0.114629 0 0.9934084 0.084606 0.599076
314.335 305.269 62.6434 -0.114629 0 0.9934084 0.09059 0.601604
314.335 285.593 62.6434 -0.114629 0 0.9934084 0.09059 0.610662
176.845 451.533 63.8434 0 0 1 0.153885 0.53427
323.155 451.533 19.0528 -0 -0 -1 0.08653 0.719826
314.335 177.462 62.6435 -0.114624 0 0.993409 0.09059 0.660442
314.335 115.467 62.6435 -0.114624 0 0.993409 0.09059 0.688982
327.335 115.467 64.1435 -0.114624 0 0.993409 0.084606 0.688982
3 0 1 2 
3 3 4 5 
3 4 6 5 
3 7 5 8 
3 6 8 5 
3 9 10 11 
3 12 13 14 
3 15 16 17 
3 16 18 17 
3 19 20 21 
3 22 23 24 
3 24 23 25 
3 26 27 28 
3 29 30 31 
3 31 30 32 
3 33 34 35 
3 36 37 38 
3 37 39 38 
3 34 38 35 
3 38 39 35 
3 40 41 42 
3 41 43 42 
3 44 45 46 
3 47 48 42 
3 48 49 42 
3 50 51 52 
3 29 53 54 
3 33 55 34 
3 31 56 57 
3 58 59 60 
3 61 62 63 
3 63 62 64 
3 62 65 64 
3 65 66 64 
3 66 67 64 
3 68 69 70 
3 53 71 72 
3 73 74 75 
3 76 77 78 
3 75 74 79 
3 80 81 82 
3 83 84 85 
3 86 87 88 
3 89 90 91 
3 92 93 94 
3 95 96 97 
3 98 99 100 
3 101 102 103 
3 103 102 104 
3 54 105 106 
3 106 105 102 
3 102 105 104 
3 101 107 102 
3 71 3 5 
3 36 38 108 
3 109 101 110 
3 111 54 106 
3 112 113 114 
3 115 116 117 
3 118 119 120 
3 121 122 123 
3 124 125 126 
3 127 128 129 
3 130 131 132 
3 133 134 135 
3 136 137 138 
3 139 140 141 
3 142 143 144 
3 145 146 147 
3 148 149 150 
3 151 152 153 
3 154 155 156 
3 157 158 159 
3 155 158 157 
3 160 161 162 
3 163 164 165 
3 166 167 168 
3 169 170 171 
3 172 173 174 
3 174 173 175 
3 176 177 178 
3 179 180 181 
3 182 183 184 
3 185 186 187 
3 188 189 190 
3 191 192 193 
3 194 195 196 
3 196 195 197 
3 195 198 197 
3 198 199 197 
3 194 200 195 
3 201 202 203 
3 204 205 206 
3 206 205 207 
3 203 202 205 
3 208 209 210 
3 211 212 213 
3 213 212 214 
3 215 216 217 
3 218 212 219 
3 212 220 219 
3 221 222 223 
3 224 199 225 
3 201 203 226 
3 227 194 228 
3 229 230 231 
3 232 233 234 
3 224 235 236 
3 235 237 236 
3 237 238 236 
3 238 239 236 
3 240 241 242 
3 243 244 245 
3 246 247 248 
3 249 250 251 
3 252 253 254 
3 255 256 257 
3 256 258 257 
3 259 260 261 
3 225 262 263 
3 263 262 264 
3 166 236 167 
3 204 265 205 
3 263 266 267 
3 268 269 270 
3 271 272 273 
3 272 274 273 
3 274 275 273 
3 275 276 273 
3 276 277 273 
3 225 198 278 
3 279 280 281 
3 282 283 284 
3 285 286 287 
3 288 289 290 
3 291 292 293 
3 292 294 293 
3 294 295 293 
3 296 297 298 
3 299 300 301 
3 302 303 304 
3 305 306 307 
3 308 309 310 
3 311 312 313 
3 314 315 316 
3 316 313 314 
3 317 318 99 
3 319 97 318 
3 188 192 320 
3 321 193 322 
3 323 322 324 
3 325 324 326 
3 327 326 328 
3 329 330 331 
3 332 333 330 
3 334 100 333 
3 234 335 232 
3 336 164 163 
3 337 69 68 
3 2 338 0 
3 339 340 341 
3 342 343 344 
3 345 346 347 
3 348 349 350 
3 351 352 353 
3 354 355 356 
3 357 358 359 
3 360 361 362 
3 363 364 365 
3 366 367 368 
3 369 370 371 
3 372 373 374 
3 375 376 377 
3 378 379 380 
3 381 382 383 
3 384 385 386 
3 387 388 389 
3 0 390 1 
3 391 392 393 
3 12 394 13 
3 26 395 27 
3 29 111 30 
3 50 396 51 
3 29 3 53 
3 31 32 56 
3 58 397 59 
3 86 398 87 
3 399 400 401 
3 92 402 93 
3 95 403 96 
3 98 317 99 
3 71 53 3 
3 109 107 101 
3 111 29 54 
3 404 405 406 
3 115 407 116 
3 118 408 119 
3 409 410 411 
3 124 412 125 
3 413 414 415 
3 416 417 418 
3 419 420 421 
3 422 423 424 
3 155 154 158 
3 160 425 161 
3 426 427 428 
3 429 430 431 
3 185 432 186 
3 188 433 189 
3 191 320 192 
3 221 434 222 
3 224 166 199 
3 227 200 194 
3 229 435 230 
3 232 436 233 
3 437 438 439 
3 440 441 442 
3 259 443 260 
3 225 278 262 
3 166 224 236 
3 263 264 266 
3 268 444 269 
3 225 199 198 
3 445 446 447 
3 282 448 283 
3 285 449 286 
3 450 451 452 
3 453 454 455 
3 456 457 458 
3 459 460 461 
3 462 463 464 
3 465 466 467 
3 316 311 313 
3 317 319 318 
3 319 95 97 
3 188 190 192 
3 321 191 193 
3 323 321 322 
3 325 323 324 
3 327 325 326 
3 329 332 330 
3 332 334 333 
3 334 98 100 
3 336 468 164 
3 337 469 69 
3 470 471 472 
