ply
format ascii 1.0
comment VCGLIB generated
comment TextureFile dummy.png
element vertex 456
property float x
property float y
property float z
property float nx
property float ny
property float nz
property float texture_u
property float texture_v
element face 224
property list uchar int vertex_indices
end_header
420.5818 488.846 78.002 1.9e-05 0 1 0.127492 0.848327
394.733 433.311 78.0025 1.9e-05 0 1 0.138811 0.872646
420.5818 380.666 78.002 1.9e-05 0 1 0.127492 0.8957
500 488.846 78.002 0 0 1 0.092715 0.848327
420.5818 488.846 78.002 0 0 1 0.127492 0.848327
500 380.666 78.002 0 0 1 0.092715 0.8957
477.2562 380.666 78.002 0 0 1 0.102674 0.8957
452.7289 391.566 78.002 0 0 1 0.113415 0.890926
420.5818 380.666 78.002 0 0 1 0.127492 0.8957
437.1928 380.666 78.002 0 0 1 0.120218 0.8957
374.434 434.756 69.5425 -0.488568 0.288024 0.8236161 0.147701 0.872014
420.5818 488.846 78.002 -0.488568 0.288024 0.8236161 0.127492 0.848327
412.8968 500 69.5425 -0.488568 0.288024 0.8236161 0.130857 0.843443
420.5818 488.846 78.002 0 0.6042771 0.7967742 0.127492 0.848327
500 500 69.5425 0 0.6042771 0.7967742 0.092715 0.843443
412.8968 500 69.5425 0 0.6042771 0.7967742 0.130857 0.843443
500 500 69.5425 1 0 0 0.12206 0.900584
500 380.666 78.002 1 0 0 0.118355 0.848327
500 369.511 69.5425 1 0 0 0.12206 0.843443
412.8968 369.511 69.5425 -0.38831 -0.228919 0.892643 0.130857 0.900584
394.733 433.311 78.0025 -0.38831 -0.228919 0.892643 0.138811 0.872646
374.434 434.756 69.5425 -0.38831 -0.228919 0.892643 0.147701 0.872014
500 380.666 78.002 0 -0.6042771 0.7967742 0.092715 0.8957
477.2562 380.666 78.002 0 -0.6042771 0.7967742 0.102674 0.8957
500 369.511 69.5425 0 -0.6042771 0.7967742 0.092715 0.900584
460.5345 372.68 71.9456 0 -0.6042771 0.7967742 0.109997 0.899197
500 369.511 69.5425 0 -0.6042767 0.7967746 0.092715 0.900584
460.5345 372.68 71.9456 0 -0.6042767 0.7967746 0.109997 0.899197
412.8968 369.511 69.5425 0 -0.6042767 0.7967746 0.130857 0.900584
437.1928 380.666 78.002 0 -0.6042771 0.7967742 0.120218 0.8957
412.8968 369.511 69.5425 0 -0.6042771 0.7967742 0.130857 0.900584
420.5818 380.666 78.002 0 -0.6042771 0.7967742 0.127492 0.8957
420.5818 488.846 0.0004005432 2.1e-05 0 -1 0.127492 0.8957
420.5818 380.666 0.0004997253 2.1e-05 0 -1 0.127492 0.848327
396.803 428.569 0 2.1e-05 0 -1 0.137905 0.869304
500 380.666 0.0004997253 -0 -0 -1 0.092715 0.848327
420.5818 488.846 0.0004005432 -0 -0 -1 0.127492 0.8957
500 488.846 0.0004005432 -0 -0 -1 0.092715 0.8957
374.434 434.756 8.4599 -0.320154 0.126306 -0.938908 0.147701 0.872013
420.5818 488.846 0.0004005432 -0.320154 0.126306 -0.938908 0.127492 0.8957
396.803 428.569 0 -0.320154 0.126306 -0.938908 0.137905 0.869304
500 500 8.4599 0 0.6042771 -0.7967742 0.092715 0.900584
420.5818 488.846 0.0004005432 0 0.6042771 -0.7967742 0.127492 0.8957
412.8968 500 8.4599 0 0.6042771 -0.7967742 0.130857 0.900584
500 380.666 0.0004997253 1 0 0 0.12206 0.848327
500 500 8.4599 1 0 0 0.118355 0.900584
500 369.511 8.4599 1 0 0 0.118355 0.843443
396.803 428.569 0 -0.4001491 -0.2358981 -0.8855692 0.137905 0.869304
412.8968 369.511 8.4599 -0.4001491 -0.2358981 -0.8855692 0.130857 0.843443
374.434 434.756 8.4599 -0.4001491 -0.2358981 -0.8855692 0.147701 0.872013
420.5818 380.666 0.0004997253 0 -0.6042771 -0.7967742 0.127492 0.848327
500 369.511 8.4599 0 -0.6042771 -0.7967742 0.092715 0.843443
412.8968 369.511 8.4599 0 -0.6042771 -0.7967742 0.130857 0.843443
79.418 488.846 0.0004005432 -1.9e-05 -0 -1 0.112923 0.8957
104.954 436.737 0 -1.9e-05 -0 -1 0.101741 0.872881
79.418 380.666 0.0004997253 -1.9e-05 -0 -1 0.112923 0.848327
79.418 488.846 0.0004005432 0 0 -1 0.112923 0.8957
0 380.666 0.0004997253 0 0 -1 0.147701 0.848327
0 488.846 0.0004005432 0 0 -1 0.147701 0.8957
104.954 436.737 0 0.3883619 0.2289489 -0.8926128 0.101741 0.872881
87.103 500 8.4599 0.3883619 0.2289489 -0.8926128 0.109558 0.900584
125.566 434.756 8.4599 0.3883619 0.2289489 -0.8926128 0.092715 0.872013
79.418 488.846 0.0004005432 0 0.6042771 -0.7967742 0.112923 0.8957
0 500 8.4599 0 0.6042771 -0.7967742 0.147701 0.900584
87.103 500 8.4599 0 0.6042771 -0.7967742 0.109558 0.900584
0 500 8.4599 -1 0 0 0.12206 0.900584
0 380.666 0.0004997253 -1 0 0 0.118355 0.848327
0 369.511 8.4599 -1 0 0 0.12206 0.843443
125.566 434.756 8.4599 0.360959 -0.164393 -0.917978 0.092715 0.872013
79.418 380.666 0.0004997253 0.360959 -0.164393 -0.917978 0.112923 0.848327
104.954 436.737 0 0.360959 -0.164393 -0.917978 0.101741 0.872881
0 369.511 8.4599 0 -0.6042771 -0.7967742 0.147701 0.843443
79.418 380.666 0.0004997253 0 -0.6042771 -0.7967742 0.112923 0.848327
87.103 369.511 8.4599 0 -0.6042771 -0.7967742 0.109558 0.843443
79.418 488.846 78.002 -1.9e-05 0 1 0.112923 0.848327
79.418 380.666 78.002 -1.9e-05 0 1 0.112923 0.8957
104.474 437.925 78.0025 -1.9e-05 0 1 0.101951 0.870626
0 380.666 78.002 0 0 1 0.147701 0.8957
79.418 488.846 78.002 0 0 1 0.112923 0.848327
0 488.846 78.002 0 0 1 0.147701 0.848327
87.103 500 69.5425 0.3918971 0.231033 0.8905282 0.109558 0.843443
104.474 437.925 78.0025 0.3918971 0.231033 0.8905282 0.101951 0.870626
125.566 434.756 69.5425 0.3918971 0.231033 0.8905282 0.092714 0.872013
0 500 69.5425 0 0.6042771 0.7967742 0.147701 0.843443
79.418 488.846 78.002 0 0.6042771 0.7967742 0.112923 0.848327
87.103 500 69.5425 0 0.6042771 0.7967742 0.109558 0.843443
0 380.666 78.002 -1 0 0 0.12206 0.848327
0 500 69.5425 -1 0 0 0.118355 0.900584
0 369.511 69.5425 -1 0 0 0.118355 0.843443
125.566 434.756 69.5425 0.4885682 -0.2880231 0.8236163 0.092714 0.872013
79.418 380.666 78.002 0.4885682 -0.2880231 0.8236163 0.112923 0.8957
87.103 369.511 69.5425 0.4885682 -0.2880231 0.8236163 0.109558 0.900585
79.418 380.666 78.002 0 -0.6042771 0.7967742 0.112923 0.8957
0 369.511 69.5425 0 -0.6042771 0.7967742 0.147701 0.900585
87.103 369.511 69.5425 0 -0.6042771 0.7967742 0.109558 0.900585
500 5e-06 69.5426 0 -1 0 0.106833 0.891357
449.1538 -5e-06 8.460001 0 -1 0 0.133582 0.869091
500 -5e-06 8.460001 0 -1 0 0.133582 0.891357
50.84601 5e-06 69.5426 0 -1 0 0.106833 0.874935
0 -5e-06 8.460001 0 -1 0 0.133582 0.85267
50.84601 -5e-06 8.460001 0 -1 0 0.133582 0.874935
411.6538 238.013 57.6426 -0.8145772 -0.5800552 0 0.128371 0.661622
348.811 326.263 20.3599 -0.8145772 -0.5800552 0 0.112045 0.696325
411.6538 238.013 20.36 -0.8145772 -0.5800552 0 0.112045 0.661622
368.144 363.763 69.5425 0 0 1 0.068472 0.822196
500 500 69.5425 0 0 1 0.010731 0.762537
319.222 434.756 69.5425 0 0 1 0.089895 0.791108
500 500 8.4599 0 0 -1 0.010731 0.98149
319.222 434.756 8.4599 0 0 -1 0.089895 0.952919
355.663 500 8.4599 0 0 -1 0.073937 0.98149
88.34601 238.013 20.36 0.8145772 -0.5800552 -1e-06 0.128371 0.661622
151.189 326.263 57.6426 0.8145772 -0.5800552 -1e-06 0.112044 0.696325
88.34601 238.012 57.6426 0.8145772 -0.5800552 -1e-06 0.112044 0.661622
348.811 326.263 57.6426 0 -1 0 0.112044 0.671032
151.189 326.263 20.36 0 -1 0 0.128371 0.59332
348.811 326.263 20.3599 0 -1 0 0.128371 0.671032
131.856 363.763 69.5425 0 0 1 0.171943 0.822196
180.778 434.756 69.5425 0 0 1 0.15052 0.791108
0 500 69.5425 0 0 1 0.229684 0.762537
0 500 8.4599 0 0 -1 0.229684 0.98149
131.856 363.763 8.4599 0 0 -1 0.171943 0.921831
50.84601 250 8.460001 0 0 -1 0.207418 0.872013
50.84601 250 69.5426 0 0 1 0.207418 0.872013
449.1538 250 69.5426 0 0 1 0.032997 0.872013
449.1538 250 8.460001 -0 -0 -1 0.032997 0.872013
368.144 363.763 8.4599 -0 -0 -1 0.068472 0.921831
327.197 449.035 69.5425 0 0 1 0.086402 0.784855
327.197 449.035 69.5425 -1e-06 2e-06 1 0.086402 0.784855
500 500 69.5425 -1e-06 2e-06 1 0.010731 0.762537
351.221 467.065 69.5425 -1e-06 2e-06 1 0.075882 0.776959
351.221 467.065 69.5425 0 -1e-06 1 0.075882 0.776959
500 500 69.5425 0 -1e-06 1 0.010731 0.762537
350.319 490.432 69.5425 0 -1e-06 1 0.076278 0.766727
355.663 500 69.5425 0 0 1 0.073937 0.762537
350.319 490.432 69.5425 0 0 1 0.076278 0.766727
180.381 434.756 8.4599 0 0 -1 0.150694 0.952919
167.206 500 18.1273 0 0 -1 0.156464 0.730485
307.484 454.756 18.1273 0 0 -1 0.095035 0.712694
192.516 454.756 18.1273 0 0 -1 0.14538 0.712694
167.206 500 18.1273 0 1 0 0.111067 0.835758
332.794 500 59.8751 0 1 0 0.129349 0.90827
332.794 500 18.1273 0 1 0 0.111067 0.90827
167.206 500 59.8751 0 0 1 0.156464 0.533866
307.484 454.756 59.8751 0 0 1 0.095035 0.551658
332.794 500 59.8751 0 0 1 0.083952 0.533866
355.663 500 8.4599 0 1 0 0.106833 0.918284
500 500 69.5425 0 1 0 0.133582 0.98149
500 500 8.4599 0 1 0 0.106833 0.98149
144.337 500 8.4599 -0 -0 -1 0.166478 0.98149
144.337 500 8.4599 0 1 0 0.106833 0.825743
0 500 69.5425 0 1 0 0.133582 0.762537
144.337 500 69.5425 0 1 0 0.133582 0.825743
144.337 500 69.5425 0 0 1 0.166478 0.762537
224.945 363.763 8.4599 0 0 -1 0.13118 0.921831
343.797 363.763 8.4599 0 0 -1 0.079133 0.921831
299.043 377.475 8.4599 -0 -0 -1 0.098731 0.927836
229.898 434.756 8.4599 -0 -0 -1 0.129011 0.952919
229.898 434.756 8.4599 1e-06 0 -1 0.129011 0.952919
249.656 425.367 8.4599 1e-06 0 -1 0.120359 0.948808
224.945 363.763 8.4599 1e-06 0 -1 0.13118 0.921831
249.656 425.367 8.4599 0 0 -1 0.120359 0.948808
300.279 434.756 8.4599 -0 -0 -1 0.09819 0.952919
157.227 363.763 69.5425 0 0 1 0.160833 0.822196
285.324 363.763 69.5425 0 0 1 0.104739 0.822196
212.651 376.56 69.5425 0 0 1 0.136563 0.816592
355.663 500 8.4599 -0.3804511 0.2128241 -0.8999794 0.073937 0.730485
307.484 454.756 18.1273 -0.3804511 0.2128241 -0.8999794 0.095035 0.712694
332.794 500 18.1273 -0.3804511 0.2128241 -0.8999794 0.083952 0.730485
180.381 434.756 8.4599 0 0.4351951 -0.9003362 0.150694 0.704829
192.516 454.756 18.1273 0 0.4351951 -0.9003362 0.14538 0.712694
229.898 434.756 8.4599 0 0.4351951 -0.9003362 0.129011 0.704829
319.222 434.756 8.4599 0 0.4351951 -0.9003362 0.089895 0.704829
300.279 434.756 8.4599 0 0.4351951 -0.9003362 0.09819 0.704829
307.484 454.756 18.1273 0 0.4351951 -0.9003362 0.095035 0.712694
229.898 434.756 8.4599 0 0.4351959 -0.9003358 0.129011 0.704829
192.516 454.756 18.1273 0 0.4351959 -0.9003358 0.14538 0.712694
236.073 446.495 14.1346 0 0.4351959 -0.9003358 0.126307 0.709445
307.484 454.756 18.1273 0 0.4351959 -0.9003358 0.095035 0.712694
236.073 446.495 14.1346 0 0.4351951 -0.9003362 0.126307 0.709445
144.337 500 8.4599 0.37646 0.207975 -0.902787 0.166478 0.730485
192.516 454.756 18.1273 0.37646 0.207975 -0.902787 0.14538 0.712694
180.381 434.756 8.4599 0.37646 0.207975 -0.902787 0.150694 0.704829
355.663 500 69.5425 0 1 0 0.133582 0.918284
144.337 500 69.5425 0.3804511 0.2128241 0.8999794 0.166478 0.533866
192.516 454.756 59.8751 0.3804511 0.2128241 0.8999794 0.14538 0.551658
167.206 500 59.8751 0.3804511 0.2128241 0.8999794 0.156464 0.533866
319.222 434.756 69.5425 0 0.4351951 0.9003362 0.089895 0.559523
192.516 454.756 59.8751 0 0.4351951 0.9003362 0.14538 0.551658
180.778 434.756 69.5425 0 0.4351951 0.9003362 0.15052 0.559523
319.222 434.756 69.5425 -0.379948 0.212213 0.9003361 0.089895 0.559523
327.197 449.035 69.5425 -0.379948 0.212213 0.9003361 0.086402 0.553908
307.484 454.756 59.8751 -0.379948 0.212213 0.9003361 0.095035 0.551658
325.08 470.015 63.7041 -0.379948 0.212213 0.9003361 0.08733 0.545658
307.484 454.756 59.8751 -0.3803729 0.2127809 0.9000227 0.095035 0.551658
325.08 470.015 63.7041 -0.3803729 0.2127809 0.9000227 0.08733 0.545658
332.794 500 59.8751 -0.3803729 0.2127809 0.9000227 0.083952 0.533866
325.08 470.015 63.7041 -0.3803332 0.2127731 0.9000413 0.08733 0.545658
350.319 490.432 69.5425 -0.3803332 0.2127731 0.9000413 0.076278 0.537629
332.794 500 59.8751 -0.3803332 0.2127731 0.9000413 0.083952 0.533866
350.319 490.432 69.5425 -0.3804781 0.2125091 0.9000424 0.076278 0.537629
355.663 500 69.5425 -0.3804781 0.2125091 0.9000424 0.073937 0.533866
332.794 500 59.8751 -0.3804781 0.2125091 0.9000424 0.083952 0.533866
500 500 69.5425 1 0 0 0.106833 0.98149
500 -5e-06 8.460001 1 0 0 0.133582 0.762537
500 500 8.4599 1 0 0 0.133582 0.98149
500 5e-06 69.5426 0 0 1 0.010731 0.98149
411.6538 238.013 20.36 -1 -0 -0 0.112045 0.661622
411.6538 3e-06 57.6426 -1 -0 -0 0.128371 0.568026
411.6538 238.013 57.6426 -1 -0 -0 0.128371 0.661622
500 -5e-06 8.460001 0 0 -1 0.010731 0.762537
449.1538 -5e-06 8.460001 0 0 -1 0.032997 0.762537
88.34601 238.012 57.6426 1 0 0 0.112044 0.661622
88.34601 -3e-06 20.36 1 0 0 0.128371 0.568026
88.34601 238.013 20.36 1 0 0 0.128371 0.661622
0 5e-06 69.5426 0 0 1 0.229684 0.98149
50.84601 224.668 69.5426 0 0 1 0.207418 0.883107
40.59399 87.2023 69.5426 0 0 1 0.211908 0.943304
50.84601 56.3525 69.5426 0 0 1 0.207418 0.956813
50.84601 5e-06 69.5426 0 0 1 0.207418 0.98149
0 500 8.4599 -1 -0 -0 0.106833 0.98149
0 5e-06 69.5426 -1 -0 -0 0.133582 0.762537
0 500 69.5425 -1 -0 -0 0.133582 0.98149
0 -5e-06 8.460001 0 0 -1 0.229684 0.762537
50.84601 225.985 8.460001 -0 -0 -1 0.207418 0.861497
50.84601 225.985 8.460001 1e-06 0 -1 0.207418 0.861497
35.31601 155.793 8.460001 1e-06 0 -1 0.214219 0.83076
0 -5e-06 8.460001 1e-06 0 -1 0.229684 0.762537
35.31601 155.793 8.460001 -0 -0 -1 0.214219 0.83076
50.84601 123.728 8.460001 -0 -0 -1 0.207418 0.816718
50.84601 -5e-06 8.460001 0 0 -1 0.207418 0.762537
449.1538 250 69.5426 -0.5408931 -0.3851671 0.7477172 0.032997 0.872013
361.236 350.363 57.6425 -0.5408931 -0.3851671 0.7477172 0.071497 0.828064
435.7538 245.717 57.6426 -0.5408931 -0.3851671 0.7477172 0.038865 0.87389
449.1538 250 8.460001 -0.5408931 -0.3851671 -0.7477172 0.032997 0.872013
361.236 350.363 20.3599 -0.5408931 -0.3851671 -0.7477172 0.071497 0.915963
368.144 363.763 8.4599 -0.5408931 -0.3851671 -0.7477172 0.068472 0.921831
50.84601 250 8.460001 0.5408931 -0.3851671 -0.7477172 0.207418 0.872013
138.764 350.363 20.3599 0.5408931 -0.3851671 -0.7477172 0.168918 0.915963
64.246 245.716 20.36 0.5408931 -0.3851671 -0.7477172 0.20155 0.870138
50.84601 250 69.5426 0.5408931 -0.3851671 0.7477172 0.207418 0.872013
138.764 350.363 57.6425 0.5408931 -0.3851671 0.7477172 0.168918 0.828064
131.856 363.763 69.5425 0.5408931 -0.3851671 0.7477172 0.171943 0.822196
368.144 363.763 69.5425 0 -0.6640173 0.7477173 0.068472 0.822196
285.324 363.763 69.5425 0 -0.6640173 0.7477173 0.104739 0.822196
361.236 350.363 57.6425 0 -0.6640173 0.7477173 0.071497 0.828064
131.856 363.763 69.5425 0 -0.6640178 0.7477168 0.171943 0.822196
138.764 350.363 57.6425 0 -0.6640178 0.7477168 0.168918 0.828064
157.227 363.763 69.5425 0 -0.6640178 0.7477168 0.160833 0.822196
208.004 355.168 61.9092 0 -0.6640178 0.7477168 0.138598 0.82596
138.764 350.363 57.6425 0 -0.6640168 0.7477177 0.168918 0.828064
361.236 350.363 57.6425 0 -0.6640168 0.7477177 0.071497 0.828064
208.004 355.168 61.9092 0 -0.6640168 0.7477177 0.138598 0.82596
285.324 363.763 69.5425 0 -0.6640178 0.7477168 0.104739 0.822196
361.236 350.363 57.6425 0 -0.6640178 0.7477168 0.071497 0.828064
131.856 363.763 8.4599 -0 -0.6640178 -0.7477168 0.171943 0.921831
224.945 363.763 8.4599 -0 -0.6640178 -0.7477168 0.13118 0.921831
138.764 350.363 20.3599 -0 -0.6640178 -0.7477168 0.168918 0.915963
368.144 363.763 8.4599 0 -0.6640178 -0.7477168 0.068472 0.921831
361.236 350.363 20.3599 0 -0.6640178 -0.7477168 0.071497 0.915963
343.797 363.763 8.4599 0 -0.6640178 -0.7477168 0.079133 0.921831
299.817 356.083 15.2802 0 -0.6640178 -0.7477168 0.098393 0.918468
449.1538 -5e-06 8.460001 -0.6640173 -0 -0.7477173 0.032997 0.762537
435.7538 245.717 20.36 -0.6640173 -0 -0.7477173 0.038865 0.870138
449.1538 250 8.460001 -0.6640173 -0 -0.7477173 0.032997 0.872013
449.1538 5e-06 69.5426 0 -1 0 0.106833 0.869091
435.7538 -3e-06 20.36 0 -1 0 0.128371 0.863223
449.1538 5e-06 69.5426 -0.6640173 0 0.7477173 0.032997 0.98149
435.7538 245.717 57.6426 -0.6640173 0 0.7477173 0.038865 0.87389
435.7538 3e-06 57.6426 -0.6640173 0 0.7477173 0.038865 0.98149
50.84601 250 69.5426 0.6640178 0 0.7477168 0.207418 0.872013
50.84601 224.668 69.5426 0.6640178 0 0.7477168 0.207418 0.883107
64.246 245.716 57.6426 0.6640178 0 0.7477168 0.20155 0.87389
64.246 3e-06 57.6426 0.6640178 0 0.7477168 0.20155 0.98149
50.84601 224.668 69.5426 0.6640183 0 0.7477164 0.207418 0.883107
58.16199 88.1956 63.0457 0.6640183 0 0.7477164 0.204215 0.942868
64.246 3e-06 57.6426 0.6640183 0 0.7477164 0.20155 0.98149
58.16199 88.1956 63.0457 0.6640178 0 0.7477168 0.204215 0.942868
50.84601 56.3525 69.5426 0.6640178 0 0.7477168 0.207418 0.956813
50.84601 5e-06 69.5426 0.6640178 0 0.7477168 0.207418 0.98149
64.246 3e-06 57.6426 0 -1 0 0.112045 0.880804
50.84601 250 8.460001 0.6640178 0 -0.7477168 0.207418 0.872013
64.246 245.716 20.36 0.6640178 0 -0.7477168 0.20155 0.870138
50.84601 225.985 8.460001 0.6640178 0 -0.7477168 0.207418 0.861497
50.84601 -5e-06 8.460001 0.6640178 0 -0.7477168 0.207418 0.762537
50.84601 123.728 8.460001 0.6640178 0 -0.7477168 0.207418 0.816718
64.246 -3e-06 20.36 0.6640178 0 -0.7477168 0.20155 0.762537
50.84601 225.985 8.460001 0.6640173 0 -0.7477173 0.207418 0.861497
64.246 245.716 20.36 0.6640173 0 -0.7477173 0.20155 0.870138
58.13 164.023 14.9288 0.6640173 0 -0.7477173 0.204228 0.834364
64.246 245.716 20.36 0.6640188 0 -0.7477158 0.20155 0.870138
64.246 -3e-06 20.36 0.6640188 0 -0.7477158 0.20155 0.762537
58.13 164.023 14.9288 0.6640188 0 -0.7477158 0.204228 0.834364
50.84601 123.728 8.460001 0.6640173 0 -0.7477173 0.207418 0.816718
64.246 -3e-06 20.36 0.6640173 0 -0.7477173 0.20155 0.762537
435.7538 245.717 57.6426 0 0 1 0.038865 0.63386
348.811 326.263 57.6426 0 0 1 0.076938 0.602186
411.6538 238.013 57.6426 0 0 1 0.049419 0.63689
435.7538 245.717 20.36 -0 -0 -1 0.038865 0.630491
348.811 326.263 20.3599 -0 -0 -1 0.076938 0.662165
361.236 350.363 20.3599 -0 -0 -1 0.071497 0.671642
64.246 245.716 20.36 0 0 -1 0.20155 0.630491
151.189 326.263 20.36 0 0 -1 0.163478 0.662165
88.34601 238.013 20.36 0 0 -1 0.190997 0.627462
64.246 245.716 57.6426 -1e-06 1e-06 1 0.20155 0.63386
151.189 326.263 57.6426 -1e-06 1e-06 1 0.163478 0.602186
138.764 350.363 57.6425 -1e-06 1e-06 1 0.168918 0.592709
138.764 350.363 57.6425 0 0 1 0.168918 0.592709
361.236 350.363 57.6425 0 0 1 0.071497 0.592709
361.236 350.363 20.3599 0 -1e-06 -1 0.071497 0.671642
151.189 326.263 20.36 0 -1e-06 -1 0.163478 0.662165
138.764 350.363 20.3599 0 -1e-06 -1 0.168918 0.671642
435.7538 -3e-06 20.36 0 0 -1 0.038865 0.533866
411.6538 238.013 20.36 0 0 -1 0.049419 0.627462
435.7538 3e-06 57.6426 0 -1 0 0.112045 0.624282
411.6538 -3e-06 20.36 0 -1 0 0.128371 0.614805
435.7538 -3e-06 20.36 0 -1 0 0.128371 0.624282
435.7538 3e-06 57.6426 0 0 1 0.038865 0.730485
411.6538 3e-06 57.6426 0 0 1 0.049419 0.730485
64.246 3e-06 57.6426 0 0 1 0.20155 0.730485
88.34601 238.012 57.6426 0 0 1 0.190997 0.63689
64.246 245.716 57.6426 0 0 1 0.20155 0.63386
64.246 -3e-06 20.36 0 -1 0 0.128371 0.640069
88.34601 3e-06 57.6426 0 -1 0 0.112045 0.649546
64.246 3e-06 57.6426 0 -1 0 0.112045 0.640069
64.246 -3e-06 20.36 0 0 -1 0.20155 0.533866
88.34601 -3e-06 20.36 0 0 -1 0.190997 0.533866
58.13 164.023 14.9288 0.29385 -0.065015 -0.9536379 0.204228 0.834364
35.31601 155.793 8.460001 0.29385 -0.065015 -0.9536379 0.214219 0.83076
50.84601 225.985 8.460001 0.29385 -0.065015 -0.9536379 0.207418 0.861497
50.84601 123.728 8.460001 0.2331279 0.112911 -0.9658688 0.207418 0.816718
35.31601 155.793 8.460001 0.2331279 0.112911 -0.9658688 0.214219 0.83076
58.13 164.023 14.9288 0.2331279 0.112911 -0.9658688 0.204228 0.834364
299.817 356.083 15.2802 -0.09359902 -0.3054981 -0.9475812 0.098393 0.918468
299.043 377.475 8.4599 -0.09359902 -0.3054981 -0.9475812 0.098731 0.927836
343.797 363.763 8.4599 -0.09359902 -0.3054981 -0.9475812 0.079133 0.921831
224.945 363.763 8.4599 0.05578403 -0.3014571 -0.9518465 0.13118 0.921831
299.043 377.475 8.4599 0.05578403 -0.3014571 -0.9518465 0.098731 0.927836
299.817 356.083 15.2802 0.05578403 -0.3014571 -0.9518465 0.098393 0.918468
50.84601 224.668 69.5426 0.348022 -0.025956 0.937127 0.207418 0.883107
40.59399 87.2023 69.5426 0.348022 -0.025956 0.937127 0.211908 0.943304
58.16199 88.1956 63.0457 0.348022 -0.025956 0.937127 0.204215 0.942868
58.16199 88.1956 63.0457 0.3390291 0.112673 0.9340043 0.204215 0.942868
40.59399 87.2023 69.5426 0.3390291 0.112673 0.9340043 0.211908 0.943304
50.84601 56.3525 69.5426 0.3390291 0.112673 0.9340043 0.207418 0.956813
212.651 376.56 69.5425 -0.05713999 -0.3244839 0.9441638 0.136563 0.816592
208.004 355.168 61.9092 -0.05713999 -0.3244839 0.9441638 0.138598 0.82596
285.324 363.763 69.5425 -0.05713999 -0.3244839 0.9441638 0.104739 0.822196
157.227 363.763 69.5425 0.08093303 -0.3505131 0.9330543 0.160833 0.822196
208.004 355.168 61.9092 0.08093303 -0.3505131 0.9330543 0.138598 0.82596
212.651 376.56 69.5425 0.08093303 -0.3505131 0.9330543 0.136563 0.816592
350.319 490.432 69.5425 -0.218876 -0.008452001 0.9757161 0.076278 0.766727
325.08 470.015 63.7041 -0.218876 -0.008452001 0.9757161 0.08733 0.775668
351.221 467.065 69.5425 -0.218876 -0.008452001 0.9757161 0.075882 0.776959
351.221 467.065 69.5425 -0.18473 0.246141 0.951467 0.075882 0.776959
325.08 470.015 63.7041 -0.18473 0.246141 0.951467 0.08733 0.775668
327.197 449.035 69.5425 -0.18473 0.246141 0.951467 0.086402 0.784855
249.656 425.367 8.4599 -0.04323502 0.2331281 -0.9714845 0.120359 0.948808
236.073 446.495 14.1346 -0.04323502 0.2331281 -0.9714845 0.126307 0.95806
300.279 434.756 8.4599 -0.04323502 0.2331281 -0.9714845 0.09819 0.952919
229.898 434.756 8.4599 0.168925 0.355502 -0.9192839 0.129011 0.952919
236.073 446.495 14.1346 0.168925 0.355502 -0.9192839 0.126307 0.95806
249.656 425.367 8.4599 0.168925 0.355502 -0.9192839 0.120359 0.948808
460.5345 372.68 71.9456 0.166893 -0.237867 0.9568521 0.109997 0.899197
452.7289 391.566 78.002 0.166893 -0.237867 0.9568521 0.113415 0.890926
437.1928 380.666 78.002 0.166893 -0.237867 0.9568521 0.120218 0.8957
477.2562 380.666 78.002 -0.160392 -0.3609011 0.9187083 0.102674 0.8957
452.7289 391.566 78.002 -0.160392 -0.3609011 0.9187083 0.113415 0.890926
460.5345 372.68 71.9456 -0.160392 -0.3609011 0.9187083 0.109997 0.899197
374.434 434.756 69.5425 -0.3685571 0.171554 0.9136383 0.147701 0.872014
394.733 433.311 78.0025 -0.3685571 0.171554 0.9136383 0.138811 0.872646
420.5818 488.846 78.002 -0.3685571 0.171554 0.9136383 0.127492 0.848327
500 488.846 78.002 0 0.6042771 0.7967742 0.092715 0.848327
500 500 69.5425 1 0 -3e-06 0.12206 0.900584
500 488.846 78.002 1 0 -3e-06 0.118355 0.8957
500 380.666 78.002 1 0 -3e-06 0.118355 0.848327
412.8968 369.511 69.5425 -0.522575 -0.256592 0.8130659 0.130857 0.900584
420.5818 380.666 78.002 -0.522575 -0.256592 0.8130659 0.127492 0.8957
394.733 433.311 78.0025 -0.522575 -0.256592 0.8130659 0.138811 0.872646
420.5818 380.666 0.0004997253 0 0 -1 0.127492 0.848327
374.434 434.756 8.4599 -0.4885682 0.2880231 -0.8236163 0.147701 0.872013
412.8968 500 8.4599 -0.4885682 0.2880231 -0.8236163 0.130857 0.900584
420.5818 488.846 0.0004005432 -0.4885682 0.2880231 -0.8236163 0.127492 0.8957
500 488.846 0.0004005432 0 0.6042771 -0.7967742 0.092715 0.8957
500 380.666 0.0004997253 1 0 3e-06 0.12206 0.848327
500 488.846 0.0004005432 1 0 3e-06 0.12206 0.8957
500 500 8.4599 1 0 3e-06 0.118355 0.900584
396.803 428.569 0 -0.5206273 -0.2584381 -0.8137304 0.137905 0.869304
420.5818 380.666 0.0004997253 -0.5206273 -0.2584381 -0.8137304 0.127492 0.848327
412.8968 369.511 8.4599 -0.5206273 -0.2584381 -0.8137304 0.130857 0.843443
500 380.666 0.0004997253 -0 -0.6042771 -0.7967742 0.092715 0.848327
79.418 380.666 0.0004997253 0 0 -1 0.112923 0.848327
104.954 436.737 0 0.5229209 0.2562639 -0.8129467 0.101741 0.872881
79.418 488.846 0.0004005432 0.5229209 0.2562639 -0.8129467 0.112923 0.8957
87.103 500 8.4599 0.5229209 0.2562639 -0.8129467 0.109558 0.900584
0 488.846 0.0004005432 0 0.6042771 -0.7967742 0.147701 0.8957
0 488.846 0.0004005432 -1 0 0 0.118355 0.8957
125.566 434.756 8.4599 0.488568 -0.288024 -0.8236161 0.092715 0.872013
87.103 369.511 8.4599 0.488568 -0.288024 -0.8236161 0.109558 0.843443
79.418 380.666 0.0004997253 0.488568 -0.288024 -0.8236161 0.112923 0.848327
0 380.666 0.0004997253 -0 -0.6042771 -0.7967742 0.147701 0.848327
79.418 380.666 78.002 0 0 1 0.112923 0.8957
87.103 500 69.5425 0.5221921 0.256955 0.8131971 0.109558 0.843443
79.418 488.846 78.002 0.5221921 0.256955 0.8131971 0.112923 0.848327
104.474 437.925 78.0025 0.5221921 0.256955 0.8131971 0.101951 0.870626
0 488.846 78.002 0 0.6042771 0.7967742 0.147701 0.848327
0 488.846 78.002 -1 0 0 0.12206 0.8957
125.566 434.756 69.5425 0.348112 -0.152335 0.924993 0.092714 0.872013
104.474 437.925 78.0025 0.348112 -0.152335 0.924993 0.101951 0.870626
79.418 380.666 78.002 0.348112 -0.152335 0.924993 0.112923 0.8957
0 380.666 78.002 0 -0.6042771 0.7967742 0.147701 0.8957
0 5e-06 69.5426 0 -1 0 0.106833 0.85267
348.811 326.263 57.6426 -0.8145772 -0.5800552 -0 0.128371 0.696325
88.34601 238.013 20.36 0.8145772 -0.5800552 0 0.128371 0.661622
151.189 326.263 20.36 0.8145772 -0.5800552 0 0.128371 0.696325
151.189 326.263 57.6426 0.8145772 -0.5800552 0 0.112044 0.696325
151.189 326.263 57.6426 0 -1 0 0.112044 0.59332
332.794 500 18.1273 -0 -0 -1 0.083952 0.730485
167.206 500 59.8751 0 1 0 0.129349 0.835758
192.516 454.756 59.8751 0 0 1 0.14538 0.551658
0 500 8.4599 0 1 0 0.106833 0.762537
355.663 500 8.4599 -0.379948 0.212213 -0.9003361 0.073937 0.730485
319.222 434.756 8.4599 -0.379948 0.212213 -0.9003361 0.089895 0.704829
307.484 454.756 18.1273 -0.379948 0.212213 -0.9003361 0.095035 0.712694
144.337 500 8.4599 0.3804511 0.2128241 -0.8999794 0.166478 0.730485
167.206 500 18.1273 0.3804511 0.2128241 -0.8999794 0.156464 0.730485
192.516 454.756 18.1273 0.3804511 0.2128241 -0.8999794 0.14538 0.712694
144.337 500 69.5425 0.379948 0.212213 0.9003361 0.166478 0.533866
180.778 434.756 69.5425 0.379948 0.212213 0.9003361 0.15052 0.559523
192.516 454.756 59.8751 0.379948 0.212213 0.9003361 0.14538 0.551658
307.484 454.756 59.8751 0 0.4351951 0.9003362 0.095035 0.551658
500 5e-06 69.5426 1 0 0 0.106833 0.762537
449.1538 5e-06 69.5426 0 0 1 0.032997 0.98149
411.6538 -3e-06 20.36 -1 0 0 0.112045 0.568026
88.34601 3e-06 57.6426 1 0 0 0.112044 0.568026
0 -5e-06 8.460001 -1 0 0 0.106833 0.762537
368.144 363.763 69.5425 -0.5408931 -0.3851671 0.7477172 0.068472 0.822196
435.7538 245.717 20.36 -0.5408931 -0.3851671 -0.7477172 0.038865 0.870138
131.856 363.763 8.4599 0.5408931 -0.3851671 -0.7477172 0.171943 0.921831
50.84601 250 69.5426 0.540893 -0.3851659 0.7477179 0.207418 0.872013
64.246 245.716 57.6426 0.540893 -0.3851659 0.7477179 0.20155 0.87389
138.764 350.363 57.6425 0.540893 -0.3851659 0.7477179 0.168918 0.828064
435.7538 -3e-06 20.36 -0.6640173 -0 -0.7477173 0.038865 0.762537
435.7538 3e-06 57.6426 0 -1 0 0.112045 0.863223
449.1538 250 69.5426 -0.6640173 0 0.7477173 0.032997 0.872013
64.246 -3e-06 20.36 0 -1 0 0.128371 0.880804
64.246 245.716 20.36 1e-06 -1e-06 -1 0.20155 0.630491
138.764 350.363 20.3599 1e-06 -1e-06 -1 0.168918 0.671642
151.189 326.263 20.36 1e-06 -1e-06 -1 0.163478 0.662165
151.189 326.263 57.6426 0 0 1 0.163478 0.602186
138.764 350.363 57.6425 0 1e-06 1 0.168918 0.592709
151.189 326.263 57.6426 0 1e-06 1 0.163478 0.602186
348.811 326.263 57.6426 0 1e-06 1 0.076938 0.602186
411.6538 -3e-06 20.36 0 0 -1 0.049419 0.533866
411.6538 3e-06 57.6426 0 -1 0 0.112045 0.614805
88.34601 3e-06 57.6426 0 0 1 0.190997 0.730485
88.34601 -3e-06 20.36 0 -1 0 0.128371 0.649546
3 0 1 2 
3 3 4 5 
3 5 4 6 
3 6 4 7 
3 8 9 4 
3 4 9 7 
3 10 11 12 
3 13 14 15 
3 16 17 18 
3 19 20 21 
3 22 23 24 
3 23 25 24 
3 26 27 28 
3 25 29 30 
3 30 29 31 
3 32 33 34 
3 35 36 37 
3 38 39 40 
3 41 42 43 
3 44 45 46 
3 47 48 49 
3 50 51 52 
3 53 54 55 
3 56 57 58 
3 59 60 61 
3 62 63 64 
3 65 66 67 
3 68 69 70 
3 71 72 73 
3 74 75 76 
3 77 78 79 
3 80 81 82 
3 83 84 85 
3 86 87 88 
3 89 90 91 
3 92 93 94 
3 95 96 97 
3 98 99 100 
3 101 102 103 
3 104 105 106 
3 107 108 109 
3 110 111 112 
3 113 114 115 
3 116 117 118 
3 119 120 121 
3 122 116 118 
3 104 123 105 
3 107 124 125 
3 106 105 126 
3 127 128 129 
3 130 131 132 
3 105 133 134 
3 107 125 108 
3 119 135 120 
3 136 137 138 
3 139 140 141 
3 142 143 144 
3 145 146 147 
3 119 148 135 
3 149 150 151 
3 118 117 152 
3 120 135 153 
3 125 154 108 
3 154 155 108 
3 135 156 153 
3 157 158 159 
3 153 160 155 
3 160 161 155 
3 161 108 155 
3 116 162 117 
3 104 106 163 
3 162 164 117 
3 117 164 106 
3 164 163 106 
3 165 166 167 
3 168 169 170 
3 171 172 173 
3 174 175 176 
3 175 177 176 
3 172 178 173 
3 179 180 181 
3 151 139 149 
3 145 140 182 
3 183 184 185 
3 186 187 188 
3 189 190 191 
3 190 192 191 
3 193 194 195 
3 196 197 198 
3 199 200 201 
3 202 203 204 
3 123 205 105 
3 206 207 208 
3 124 209 210 
3 211 212 213 
3 118 214 122 
3 122 214 215 
3 215 214 216 
3 216 214 217 
3 214 218 217 
3 219 220 221 
3 119 121 222 
3 121 223 222 
3 224 225 226 
3 227 228 222 
3 228 229 222 
3 230 231 232 
3 233 234 235 
3 236 237 238 
3 239 240 241 
3 242 243 244 
3 245 246 247 
3 247 246 248 
3 249 250 251 
3 252 248 253 
3 254 255 256 
3 257 258 259 
3 259 258 260 
3 258 256 260 
3 255 260 256 
3 261 262 263 
3 264 265 96 
3 266 267 268 
3 269 270 271 
3 271 270 272 
3 273 274 275 
3 276 277 272 
3 277 278 272 
3 100 279 98 
3 280 281 282 
3 283 284 285 
3 286 287 288 
3 289 290 291 
3 292 288 293 
3 294 295 296 
3 297 298 299 
3 300 301 302 
3 303 304 305 
3 306 295 307 
3 308 309 310 
3 311 312 297 
3 313 314 315 
3 316 296 317 
3 318 319 320 
3 321 322 323 
3 324 302 325 
3 326 327 328 
3 329 330 331 
3 332 333 334 
3 335 336 337 
3 338 339 340 
3 341 342 343 
3 344 345 346 
3 347 348 349 
3 350 351 352 
3 353 354 355 
3 356 357 358 
3 359 360 361 
3 362 363 364 
3 365 366 367 
3 368 369 370 
3 13 371 14 
3 372 373 374 
3 375 376 377 
3 35 378 36 
3 379 380 381 
3 41 382 42 
3 383 384 385 
3 386 387 388 
3 50 389 51 
3 56 390 57 
3 391 392 393 
3 62 394 63 
3 65 395 66 
3 396 397 398 
3 71 399 72 
3 77 400 78 
3 401 402 403 
3 83 404 84 
3 86 405 87 
3 406 407 408 
3 92 409 93 
3 95 264 96 
3 98 410 99 
3 101 411 102 
3 412 413 414 
3 113 415 114 
3 136 416 137 
3 139 417 140 
3 142 418 143 
3 145 182 146 
3 149 419 150 
3 420 421 422 
3 423 424 425 
3 151 417 139 
3 145 141 140 
3 426 427 428 
3 186 429 187 
3 202 430 203 
3 123 431 205 
3 206 432 207 
3 124 107 209 
3 211 433 212 
3 219 434 220 
3 230 435 231 
3 233 436 234 
3 236 437 237 
3 438 439 440 
3 261 441 262 
3 264 442 265 
3 266 443 267 
3 100 444 279 
3 294 307 295 
3 297 312 298 
3 445 446 447 
3 320 319 448 
3 449 450 451 
3 299 298 301 
3 311 452 312 
3 313 453 314 
3 316 294 296 
3 318 454 319 
3 321 455 322 
3 324 300 302 
