ply
format ascii 1.0
comment VCGLIB generated
comment TextureFile dummy.png
element vertex 394
property float x
property float y
property float z
property float nx
property float ny
property float nz
property float texture_u
property float texture_v
element face 212
property list uchar int vertex_indices
end_header
162.665 314.983 8.700699 -0 -0 -1 0.159952 0.901804
0 362.186 8.700699 -0 -0 -1 0.234495 0.923435
151.776 362.186 8.700699 -0 -0 -1 0.164942 0.923435
151.776 362.186 8.700699 -0 -0.2936609 -0.9559097 0.164942 0.923435
0 362.186 8.700699 -0 -0.2936609 -0.9559097 0.234495 0.923435
138.814 390.508 0 -0 -0.2936609 -0.9559097 0.170882 0.936414
100.763 390.508 0 0 -0.2936609 -0.9559097 0.188319 0.936414
100.763 390.508 0 -0 -0.29366 -0.95591 0.188319 0.936414
0 362.186 8.700699 -0 -0.29366 -0.95591 0.234495 0.923435
43.92499 377.045 4.136 -0 -0.29366 -0.95591 0.214366 0.930244
43.92499 377.045 4.136 0 -0.2936609 -0.9559097 0.214366 0.930244
15.79999 390.508 0 0 -0.2936609 -0.9559097 0.227255 0.936414
0 390.508 0 -0 -0.2936609 -0.9559097 0.234495 0.936414
0 390.508 68.1289 -1 0 0 0.13554 0.936414
0 500 0 -1 0 0 0.10432 0.98659
0 390.508 0 -1 0 0 0.10432 0.936414
0 115.467 8.700699 -1 0 0 0.108307 0.810373
0 115.467 59.4283 -1 0 0 0.131553 0.810373
0 362.186 8.700699 -1 0 0 0.108307 0.923435
0 91.2283 0 -1 0 0 0.10432 0.799266
0 91.2283 68.1289 -1 0 0 0.13554 0.799266
0 91.2283 0 0 0.3378551 -0.9411982 0.234495 0.799266
162.665 115.467 8.700699 0 0.3378551 -0.9411982 0.159952 0.810373
254.838 91.2282 0 0 0.3378551 -0.9411982 0.117713 0.799266
500 91.2283 0 0 0.3378551 -0.9411982 0.005365 0.799266
416.771 91.2283 0 0 0.3378551 -0.9411982 0.043505 0.799266
337.335 115.467 8.700699 0 0.3378551 -0.9411982 0.079908 0.810373
320.711 103.63 4.451698 0 0.3378551 -0.9411982 0.087526 0.804949
162.665 115.467 8.700699 0 0.3378542 -0.9411985 0.159952 0.810373
337.335 115.467 8.700699 0 0.3378542 -0.9411985 0.079908 0.810373
254.838 91.2282 0 0 0.3378542 -0.9411985 0.117713 0.799266
0 -6e-06 0 0 0 -1 0.234495 0.75746
0 91.2283 0 0 0 -1 0.234495 0.799266
500 -6e-06 0 0 0 -1 0.005365 0.75746
254.838 91.2282 0 -0 -0 -1 0.117713 0.799266
337.009 83.0069 0 -0 -0 -1 0.080057 0.795498
416.771 91.2283 0 0 0 -1 0.043505 0.799266
500 91.2283 0 -0 -0 -1 0.005365 0.799266
0 -6e-06 0 0 -1 0 0.13554 0.75746
500 6e-06 68.129 0 -1 0 0.10432 0.98659
0 6e-06 68.129 0 -1 0 0.10432 0.75746
0 500 68.1289 0 1 0 0.13554 0.75746
500 500 0 0 1 0 0.104319 0.98659
0 500 0 0 1 0 0.104319 0.75746
0 115.467 8.700699 0 0.3378551 -0.9411982 0.234495 0.810373
0 115.467 8.700699 -0 -0 -1 0.234495 0.810373
162.665 290.221 8.700699 -0 -0 -1 0.159952 0.890456
151.889 266.354 8.700699 -0 -0 -1 0.16489 0.879519
162.665 183.764 8.700699 -0 -0 -1 0.159952 0.841672
162.665 115.467 8.700699 0 0 -1 0.159952 0.810373
220.53 339.186 17.1008 0.697284 -0.716795 0 0.127704 0.687142
185.665 305.27 51.0281 0.697284 -0.716795 0 0.112156 0.6716
185.665 305.27 17.1008 0.697284 -0.716795 0 0.127704 0.6716
185.665 115.467 17.1007 1 0 0 0.127704 0.584621
185.665 305.27 51.0281 1 0 0 0.112156 0.6716
185.665 115.467 51.0283 1 0 0 0.112156 0.584621
288.811 362.186 8.700699 -0 -0 -1 0.102144 0.923435
348.224 362.186 8.700699 -0 -0 -1 0.074918 0.923435
337.335 314.983 8.700699 -0 -0 -1 0.079908 0.901804
500 390.508 0 1 0 0 0.13554 0.936414
500 500 68.1289 1 0 0 0.10432 0.98659
500 390.508 68.1289 1 0 0 0.10432 0.936414
500 115.467 8.700699 1 0 0 0.131553 0.810373
500 362.186 8.700699 1 0 0 0.131553 0.923435
500 115.467 59.4283 1 0 0 0.108307 0.810373
500 91.2283 68.1289 1 0 0 0.10432 0.799266
500 91.2283 0 1 0 0 0.13554 0.799266
361.186 390.508 0 0 0 -1 0.068978 0.936414
500 500 0 0 0 -1 0.005365 0.98659
500 390.508 0 0 0 -1 0.005365 0.936414
500 115.467 8.700699 0 0.3378551 -0.9411982 0.005365 0.810373
500 115.467 8.700699 0 0 -1 0.005365 0.810373
500 362.186 8.700699 0 0 -1 0.005365 0.923435
183.638 390.508 8.700699 0 0 -1 0.150341 0.936414
211.189 362.186 8.700699 0 0 -1 0.137715 0.923435
0 500 0 -0 -0 -1 0.234495 0.98659
170.774 419.526 0 -0 -0 -1 0.156236 0.949712
225.287 419.526 0 0 0 -1 0.131255 0.949712
275.586 429.177 0 0 0 -1 0.108205 0.954135
329.226 419.526 0 -0 -0 -1 0.083624 0.949712
138.814 390.508 0 0.1863171 -0.2096071 -0.9598703 0.170882 0.936414
183.638 390.508 8.700699 0.1863171 -0.2096071 -0.9598703 0.150341 0.936414
151.776 362.186 8.700699 0.1863171 -0.2096071 -0.9598703 0.164942 0.923435
329.226 419.526 0 0 -0.2872069 -0.9578686 0.083624 0.949712
316.362 390.508 8.700699 0 -0.2872069 -0.9578686 0.089519 0.936414
271.316 407.941 3.4737 0 -0.2872069 -0.9578686 0.110162 0.944403
183.638 390.508 8.700699 0 -0.2872069 -0.9578686 0.150341 0.936414
225.287 419.526 0 -0 -0.2872069 -0.9578686 0.131255 0.949712
170.774 419.526 0 -0 -0.2872069 -0.9578686 0.156236 0.949712
138.814 390.508 0 0 0 -1 0.170882 0.936414
100.763 390.508 0 0 0 -1 0.188319 0.936414
46.28699 405.24 0 -0 -0 -1 0.213284 0.943165
15.79999 390.508 0 0 0 -1 0.227255 0.936414
0 390.508 0 0 0 -1 0.234495 0.936414
316.362 390.508 8.700699 -0.1863171 -0.2096071 -0.9598703 0.089519 0.936414
361.186 390.508 0 -0.1863171 -0.2096071 -0.9598703 0.068978 0.936414
348.224 362.186 8.700699 -0.1863171 -0.2096071 -0.9598703 0.074918 0.923435
361.186 390.508 0 0 -0.2936609 -0.9559097 0.068978 0.936414
500 362.186 8.700699 0 -0.2936609 -0.9559097 0.005365 0.923435
348.224 362.186 8.700699 0 -0.2936609 -0.9559097 0.074918 0.923435
211.189 362.186 8.700699 0.448491 -0.46104 -0.765701 0.137715 0.923435
172.665 310.76 17.1007 0.448491 -0.46104 -0.765701 0.155369 0.899869
162.665 314.983 8.700699 0.448491 -0.46104 -0.765701 0.159952 0.901804
162.665 314.983 8.700699 0.643192 0 -0.765705 0.159952 0.901804
172.665 310.76 17.1007 0.643192 0 -0.765705 0.155369 0.899869
162.665 290.221 8.700699 0.643192 0 -0.765705 0.159952 0.890456
162.665 115.467 8.700699 0.643192 0 -0.765705 0.159952 0.810373
162.665 183.764 8.700699 0.643192 0 -0.765705 0.159952 0.841672
172.665 115.467 17.1007 0.643192 0 -0.765705 0.155369 0.810373
169.664 262.721 14.58 0.643192 0 -0.765705 0.156745 0.877854
288.811 362.186 8.700699 0 -0.643192 -0.765705 0.102144 0.923435
215.251 352.186 17.1007 0 -0.643192 -0.765705 0.135854 0.918853
211.189 362.186 8.700699 0 -0.643192 -0.765705 0.137715 0.923435
288.811 362.186 8.700699 -0.4484869 -0.4610378 -0.7657047 0.102144 0.923435
327.335 310.76 17.1007 -0.4484869 -0.4610378 -0.7657047 0.08449 0.899869
284.75 352.186 17.1007 -0.4484869 -0.4610378 -0.7657047 0.104006 0.918853
337.335 115.467 8.700699 -0.643192 -0 -0.765705 0.079908 0.810373
327.335 310.76 17.1007 -0.643192 -0 -0.765705 0.08449 0.899869
337.335 314.983 8.700699 -0.643192 -0 -0.765705 0.079908 0.901804
215.251 352.186 17.1007 7e-06 -7e-06 -1 0.135854 0.68271
185.665 305.27 17.1008 7e-06 -7e-06 -1 0.149412 0.661209
172.665 310.76 17.1007 7e-06 -7e-06 -1 0.155369 0.663726
172.665 115.467 17.1007 0 0 -1 0.155369 0.57423
185.665 305.27 17.1008 0 0 -1 0.149412 0.661209
185.665 115.467 17.1007 0 0 -1 0.149412 0.57423
215.251 352.186 17.1007 -1e-06 -1e-05 -1 0.135854 0.68271
279.469 339.186 17.1007 -1e-06 -1e-05 -1 0.106425 0.676752
220.53 339.186 17.1008 -1e-06 -1e-05 -1 0.133435 0.676752
284.75 352.186 17.1007 -3e-06 -4e-06 -1 0.104006 0.68271
314.335 305.27 17.1007 -3e-06 -4e-06 -1 0.090448 0.661209
279.469 339.186 17.1007 -3e-06 -4e-06 -1 0.106425 0.676752
327.335 115.467 17.1007 -5e-06 -0 -1 0.08449 0.57423
314.335 305.27 17.1007 -5e-06 -0 -1 0.090448 0.661209
327.335 310.76 17.1007 -5e-06 -0 -1 0.08449 0.663726
185.665 115.467 17.1007 0 1 0 0.112156 0.842542
314.335 115.467 51.0283 0 1 0 0.127704 0.901507
314.335 115.467 17.1007 0 1 0 0.112156 0.901507
314.335 115.467 17.1007 0 1 -1e-06 0.112156 0.901507
162.665 115.467 8.700699 0 1 -1e-06 0.108307 0.832003
185.665 115.467 17.1007 0 1 -1e-06 0.112156 0.842542
172.665 115.467 17.1007 0 1 -1e-06 0.112156 0.836585
337.335 115.467 8.700699 0 1 -1e-06 0.108307 0.912047
327.335 115.467 17.1007 0 1 -1e-06 0.112156 0.907464
162.665 314.983 59.4282 0 0 1 0.159952 0.842246
151.776 362.186 59.4282 0 0 1 0.164942 0.820614
0 362.186 59.4282 0 0 1 0.234495 0.820614
138.814 390.508 68.1289 0 -0.29366 0.95591 0.170882 0.807635
0 362.186 59.4282 0 -0.29366 0.95591 0.234495 0.820614
151.776 362.186 59.4282 0 -0.29366 0.95591 0.164942 0.820614
0 91.2283 68.1289 0 0.3378551 0.9411982 0.234495 0.944783
156.87 91.2283 68.1289 0 0.3378551 0.9411982 0.162608 0.944783
162.665 115.467 59.4283 0 0.3378551 0.9411982 0.159952 0.933676
500 91.2283 68.1289 0 0.3378551 0.9411982 0.005365 0.944783
337.335 115.467 59.4283 0 0.3378551 0.9411982 0.079908 0.933676
393.434 91.2283 68.1289 0 0.3378551 0.9411982 0.0542 0.944783
335.076 102.367 64.1307 0 0.3378551 0.9411982 0.080943 0.939679
203.258 106.461 62.6611 0 0.3378551 0.9411982 0.14135 0.937803
0 6e-06 68.129 0 0 1 0.234495 0.98659
500 6e-06 68.129 0 0 1 0.005365 0.98659
0 91.2283 68.1289 0 0 1 0.234495 0.944783
156.87 91.2283 68.1289 0 0 1 0.162608 0.944783
200.364 85.1003 68.1289 0 0 1 0.142676 0.947592
339.193 84.5826 68.1289 0 0 1 0.079056 0.947829
393.434 91.2283 68.1289 0 0 1 0.0542 0.944783
500 91.2283 68.1289 0 0 1 0.005365 0.944783
0 115.467 59.4283 0 0.3378551 0.9411982 0.234495 0.933676
0 115.467 59.4283 0 0 1 0.234495 0.933676
279.469 339.186 51.0282 0 -1 0 0.112156 0.649386
220.53 339.186 17.1008 0 -1 0 0.127704 0.622377
279.469 339.186 17.1007 0 -1 0 0.127704 0.649386
288.811 362.186 59.4282 0 0 1 0.102144 0.820614
348.224 362.186 59.4282 0 0 1 0.074918 0.820614
316.362 390.508 59.4282 0 0 1 0.089519 0.807635
329.226 419.526 68.1289 0 0 1 0.083624 0.794338
361.186 390.508 68.1289 0 0 1 0.068978 0.807635
500 500 68.1289 0 0 1 0.005365 0.757459
373.642 390.508 68.1289 0 0 1 0.06327 0.807635
446.0088 405.108 68.1289 0 0 1 0.030107 0.800945
483.7625 390.508 68.1289 0 0 1 0.012806 0.807635
500 390.508 68.1289 0 0 1 0.005365 0.807635
500 115.467 59.4283 0 0.3378551 0.9411982 0.005365 0.933676
500 362.186 59.4282 0 0 1 0.005365 0.820614
337.335 314.983 59.4282 0 0 1 0.079908 0.842246
500 115.467 59.4283 0 0 1 0.005365 0.933676
337.335 275.571 59.4282 0 0 1 0.079908 0.860307
352.789 229.991 59.4282 0 0 1 0.072826 0.881194
337.335 146.53 59.4282 0 0 1 0.079908 0.919441
337.335 115.467 59.4283 0 0 1 0.079908 0.933676
314.335 305.27 51.0282 -0.6972789 -0.7167999 0 0.127704 0.6716
279.469 339.186 17.1007 -0.6972789 -0.7167999 0 0.112156 0.687142
314.335 305.27 17.1007 -0.6972789 -0.7167999 0 0.112156 0.6716
314.335 115.467 51.0283 -1 0 0 0.127704 0.584621
314.335 305.27 17.1007 -1 0 0 0.112156 0.6716
314.335 115.467 17.1007 -1 0 0 0.112156 0.584621
183.638 390.508 59.4282 0 0 1 0.150341 0.807635
211.189 362.186 59.4282 0 0 1 0.137715 0.820614
170.774 419.526 68.1289 0 0 1 0.156236 0.794338
0 500 68.1289 0 0 1 0.234495 0.757459
138.814 390.508 68.1289 0.1864871 -0.2053991 0.9607465 0.170882 0.807635
183.638 390.508 59.4282 0.1864871 -0.2053991 0.9607465 0.150341 0.807635
170.774 419.526 68.1289 0.1864871 -0.2053991 0.9607465 0.156236 0.794338
316.362 390.508 59.4282 0 -0.2872069 0.9578686 0.089519 0.807635
170.774 419.526 68.1289 0 -0.2872069 0.9578686 0.156236 0.794338
183.638 390.508 59.4282 0 -0.2872069 0.9578686 0.150341 0.807635
138.814 390.508 68.1289 0 0 1 0.170882 0.807635
316.362 390.508 59.4282 -0.186487 -0.2053979 0.9607468 0.089519 0.807635
361.186 390.508 68.1289 -0.186487 -0.2053979 0.9607468 0.068978 0.807635
329.226 419.526 68.1289 -0.186487 -0.2053979 0.9607468 0.083624 0.794338
348.224 362.186 59.4282 0 -0.2936609 0.9559097 0.074918 0.820614
500 362.186 59.4282 0 -0.2936609 0.9559097 0.005365 0.820614
361.186 390.508 68.1289 0 -0.2936609 0.9559097 0.068978 0.807635
373.642 390.508 68.1289 0 -0.2936609 0.9559097 0.06327 0.807635
373.642 390.508 68.1289 -1e-06 -0.2936651 0.9559084 0.06327 0.807635
500 362.186 59.4282 -1e-06 -0.2936651 0.9559084 0.005365 0.820614
434.3745 380.272 64.9841 -1e-06 -0.2936651 0.9559084 0.035438 0.812326
500 390.508 68.1289 0 -0.2936609 0.9559097 0.005365 0.807635
483.7625 390.508 68.1289 0 -0.2936609 0.9559097 0.012806 0.807635
434.3745 380.272 64.9841 0 -0.2936609 0.9559097 0.035438 0.812326
172.665 310.76 51.0282 0.448491 -0.46104 0.765701 0.155369 0.844181
211.189 362.186 59.4282 0.448491 -0.46104 0.765701 0.137715 0.820614
162.665 314.983 59.4282 0.448491 -0.46104 0.765701 0.159952 0.842246
162.665 115.467 59.4283 0.643192 0 0.765705 0.159952 0.933676
172.665 310.76 51.0282 0.643192 0 0.765705 0.155369 0.844181
162.665 314.983 59.4282 0.643192 0 0.765705 0.159952 0.842246
215.251 352.186 51.0282 0 -0.643192 0.765705 0.135854 0.825197
288.811 362.186 59.4282 0 -0.643192 0.765705 0.102144 0.820614
211.189 362.186 59.4282 0 -0.643192 0.765705 0.137715 0.820614
288.811 362.186 59.4282 -0.448491 -0.46104 0.765701 0.102144 0.820614
327.335 310.76 51.0282 -0.448491 -0.46104 0.765701 0.08449 0.844181
337.335 314.983 59.4282 -0.448491 -0.46104 0.765701 0.079908 0.842246
337.335 146.53 59.4282 -0.643192 0 0.765705 0.079908 0.919441
327.335 115.467 51.0283 -0.643192 0 0.765705 0.08449 0.933676
337.335 115.467 59.4283 -0.643192 0 0.765705 0.079908 0.933676
185.665 305.27 51.0281 6e-06 -7e-06 1 0.149412 0.610554
215.251 352.186 51.0282 6e-06 -7e-06 1 0.135854 0.589054
172.665 310.76 51.0282 6e-06 -7e-06 1 0.155369 0.608037
172.665 115.467 51.0283 9e-06 0 1 0.155369 0.697533
185.665 305.27 51.0281 9e-06 0 1 0.149412 0.610554
172.665 310.76 51.0282 9e-06 0 1 0.155369 0.608037
215.251 352.186 51.0282 0 -5e-06 1 0.135854 0.589054
279.469 339.186 51.0282 0 -5e-06 1 0.106425 0.595011
284.75 352.186 51.0282 0 -5e-06 1 0.104006 0.589054
284.75 352.186 51.0282 -3e-06 -3e-06 1 0.104006 0.589054
314.335 305.27 51.0282 -3e-06 -3e-06 1 0.090448 0.610554
327.335 310.76 51.0282 -3e-06 -3e-06 1 0.08449 0.608037
327.335 310.76 51.0282 -5e-06 0 1 0.08449 0.608037
314.335 305.27 51.0282 -5e-06 0 1 0.090448 0.610554
327.335 224.092 51.0282 -5e-06 0 1 0.08449 0.647754
314.335 305.27 51.0282 -3e-06 0 1 0.090448 0.610554
314.335 115.467 51.0283 -3e-06 0 1 0.090448 0.697533
327.335 224.092 51.0282 -3e-06 0 1 0.08449 0.647754
314.335 115.467 51.0283 0 0 1 0.090448 0.697533
327.335 115.467 51.0283 0 0 1 0.08449 0.697533
327.335 224.092 51.0282 0 0 1 0.08449 0.647754
162.665 115.467 59.4283 0 1 -1e-06 0.131553 0.832003
314.335 115.467 51.0283 0 1 -1e-06 0.127704 0.901507
185.665 115.467 51.0283 0 1 -1e-06 0.127704 0.842542
172.665 115.467 51.0283 0 1 -1e-06 0.127704 0.836585
337.335 115.467 59.4283 0 1 -1e-06 0.131553 0.912047
327.335 115.467 51.0283 0 1 -1e-06 0.127704 0.907464
0 362.186 59.4282 -1 0 0 0.131553 0.923435
500 -6e-06 0 1 0 0 0.13554 0.75746
500 362.186 59.4282 1 0 0 0.108307 0.923435
0 6e-06 68.129 -1 -0 -0 0.13554 0.75746
162.665 290.221 8.700699 0.287361 -0.129747 -0.9489939 0.159952 0.890456
169.664 262.721 14.58 0.287361 -0.129747 -0.9489939 0.156745 0.877854
151.889 266.354 8.700699 0.287361 -0.129747 -0.9489939 0.16489 0.879519
151.889 266.354 8.700699 0.3214608 0.04194497 -0.9459935 0.16489 0.879519
169.664 262.721 14.58 0.3214608 0.04194497 -0.9459935 0.156745 0.877854
162.665 183.764 8.700699 0.3214608 0.04194497 -0.9459935 0.159952 0.841672
275.586 429.177 0 0.03216502 -0.1676451 -0.9853226 0.108205 0.954135
271.316 407.941 3.4737 0.03216502 -0.1676451 -0.9853226 0.110162 0.944403
225.287 419.526 0 0.03216502 -0.1676451 -0.9853226 0.131255 0.949712
329.226 419.526 0 -0.028045 -0.155873 -0.987379 0.083624 0.949712
271.316 407.941 3.4737 -0.028045 -0.155873 -0.987379 0.110162 0.944403
275.586 429.177 0 -0.028045 -0.155873 -0.987379 0.108205 0.954135
254.838 91.2282 0 0.02282699 0.2281489 -0.9733586 0.117713 0.799266
320.711 103.63 4.451698 0.02282699 0.2281489 -0.9733586 0.087526 0.804949
337.009 83.0069 0 0.02282699 0.2281489 -0.9733586 0.080057 0.795498
337.009 83.0069 0 -0.020172 0.195702 -0.980456 0.080057 0.795498
320.711 103.63 4.451698 -0.020172 0.195702 -0.980456 0.087526 0.804949
416.771 91.2283 0 -0.020172 0.195702 -0.980456 0.043505 0.799266
434.3745 380.272 64.9841 0.02792801 -0.138431 0.9899783 0.035438 0.812326
446.0088 405.108 68.1289 0.02792801 -0.138431 0.9899783 0.030107 0.800945
373.642 390.508 68.1289 0.02792801 -0.138431 0.9899783 0.06327 0.807635
483.7625 390.508 68.1289 -0.04118499 -0.106497 0.9934598 0.012806 0.807635
446.0088 405.108 68.1289 -0.04118499 -0.106497 0.9934598 0.030107 0.800945
434.3745 380.272 64.9841 -0.04118499 -0.106497 0.9934598 0.035438 0.812326
327.335 310.76 51.0282 -0.643192 0 0.765705 0.08449 0.844181
337.335 275.571 59.4282 -0.643192 0 0.765705 0.079908 0.860307
337.335 314.983 59.4282 -0.643192 0 0.765705 0.079908 0.842246
337.335 275.571 59.4282 -0.2911509 -0.09871496 0.9515706 0.079908 0.860307
327.335 224.092 51.0282 -0.2911509 -0.09871496 0.9515706 0.08449 0.883897
352.789 229.991 59.4282 -0.2911509 -0.09871496 0.9515706 0.072826 0.881194
352.789 229.991 59.4282 -0.3253791 0.06024802 0.9436623 0.072826 0.881194
327.335 224.092 51.0282 -0.3253791 0.06024802 0.9436623 0.08449 0.883897
337.335 146.53 59.4282 -0.3253791 0.06024802 0.9436623 0.079908 0.919441
335.076 102.367 64.1307 0.0008189999 0.219528 0.9756059 0.080943 0.939679
200.364 85.1003 68.1289 0.0008189999 0.219528 0.9756059 0.142676 0.947592
339.193 84.5826 68.1289 0.0008189999 0.219528 0.9756059 0.079056 0.947829
200.364 85.1003 68.1289 0.03430398 0.2434749 0.9693004 0.142676 0.947592
203.258 106.461 62.6611 0.03430398 0.2434749 0.9693004 0.14135 0.937803
156.87 91.2283 68.1289 0.03430398 0.2434749 0.9693004 0.162608 0.944783
393.434 91.2283 68.1289 -0.02615899 0.213505 0.9765918 0.0542 0.944783
335.076 102.367 64.1307 -0.02615899 0.213505 0.9765918 0.080943 0.939679
339.193 84.5826 68.1289 -0.02615899 0.213505 0.9765918 0.079056 0.947829
100.763 390.508 0 0.237263 -0.8670879 0.438024 0.120878 0.891492
43.92499 377.045 4.136 0.237263 -0.8670879 0.438024 0.118982 0.865446
43.92499 377.045 4.136 0.237263 -0.8670879 0.438024 0.118982 0.865446
43.92499 377.045 4.136 -0.03836899 -0.141883 -0.9891396 0.214366 0.930244
46.28699 405.24 0 -0.03836899 -0.141883 -0.9891396 0.213284 0.943165
100.763 390.508 0 -0.03836899 -0.141883 -0.9891396 0.188319 0.936414
43.92499 377.045 4.136 -0.295354 -0.7845049 -0.545269 0.118982 0.865446
43.92499 377.045 4.136 -0.295354 -0.7845049 -0.545269 0.118982 0.865446
15.79999 390.508 0 -0.295354 -0.7845049 -0.545269 0.120878 0.852557
15.79999 390.508 0 0.072832 -0.150721 -0.9858899 0.227255 0.936414
46.28699 405.24 0 0.072832 -0.150721 -0.9858899 0.213284 0.943165
43.92499 377.045 4.136 0.072832 -0.150721 -0.9858899 0.214366 0.930244
0 500 68.1289 -1 0 0 0.13554 0.98659
500 -6e-06 0 0 -1 0 0.13554 0.98659
500 500 68.1289 0 1 0 0.13554 0.98659
220.53 339.186 51.0281 0.697284 -0.716795 0 0.112156 0.687142
185.665 305.27 17.1008 1 0 0 0.127704 0.6716
316.362 390.508 8.700699 -0 -0 -1 0.089519 0.936414
500 500 0 1 0 0 0.13554 0.98659
337.335 115.467 8.700699 0 0 -1 0.079908 0.810373
138.814 390.508 0 0.1864871 -0.2053991 -0.9607465 0.170882 0.936414
170.774 419.526 0 0.1864871 -0.2053991 -0.9607465 0.156236 0.949712
183.638 390.508 8.700699 0.1864871 -0.2053991 -0.9607465 0.150341 0.936414
316.362 390.508 8.700699 -0.1864871 -0.2053991 -0.9607465 0.089519 0.936414
329.226 419.526 0 -0.1864871 -0.2053991 -0.9607465 0.083624 0.949712
361.186 390.508 0 -0.1864871 -0.2053991 -0.9607465 0.068978 0.936414
361.186 390.508 0 -0 -0.2936612 -0.9559096 0.068978 0.936414
500 390.508 0 -0 -0.2936612 -0.9559096 0.005365 0.936414
500 362.186 8.700699 -0 -0.2936612 -0.9559096 0.005365 0.923435
211.189 362.186 8.700699 0.4484751 -0.4610301 -0.7657162 0.137715 0.923435
215.251 352.186 17.1007 0.4484751 -0.4610301 -0.7657162 0.135854 0.918853
172.665 310.76 17.1007 0.4484751 -0.4610301 -0.7657162 0.155369 0.899869
284.75 352.186 17.1007 0 -0.643192 -0.765705 0.104006 0.918853
288.811 362.186 8.700699 -0.448491 -0.46104 -0.765701 0.102144 0.923435
337.335 314.983 8.700699 -0.448491 -0.46104 -0.765701 0.079908 0.901804
327.335 310.76 17.1007 -0.448491 -0.46104 -0.765701 0.08449 0.899869
327.335 115.467 17.1007 -0.643192 -0 -0.765705 0.08449 0.810373
220.53 339.186 17.1008 7e-06 -7e-06 -1 0.133435 0.676752
172.665 115.467 17.1007 9e-06 0 -1 0.155369 0.57423
172.665 310.76 17.1007 9e-06 0 -1 0.155369 0.663726
185.665 305.27 17.1008 9e-06 0 -1 0.149412 0.661209
215.251 352.186 17.1007 -0 -5e-06 -1 0.135854 0.68271
284.75 352.186 17.1007 -0 -5e-06 -1 0.104006 0.68271
279.469 339.186 17.1007 -0 -5e-06 -1 0.106425 0.676752
327.335 310.76 17.1007 -3e-06 -4e-06 -1 0.08449 0.663726
327.335 115.467 17.1007 0 0 -1 0.08449 0.57423
314.335 115.467 17.1007 0 0 -1 0.090448 0.57423
314.335 305.27 17.1007 0 0 -1 0.090448 0.661209
185.665 115.467 51.0283 0 1 0 0.127704 0.842542
138.814 390.508 68.1289 0 -0.2936609 0.9559097 0.170882 0.807635
0 390.508 68.1289 0 -0.2936609 0.9559097 0.234495 0.807635
0 362.186 59.4282 0 -0.2936609 0.9559097 0.234495 0.820614
162.665 115.467 59.4283 0 0 1 0.159952 0.933676
220.53 339.186 51.0281 0 -1 0 0.112156 0.622377
279.469 339.186 51.0282 -0.6972789 -0.7167999 0 0.127704 0.687142
314.335 305.27 51.0282 -1 0 0 0.127704 0.6716
138.814 390.508 68.1289 0.1863171 -0.2096071 0.9598703 0.170882 0.807635
151.776 362.186 59.4282 0.1863171 -0.2096071 0.9598703 0.164942 0.820614
183.638 390.508 59.4282 0.1863171 -0.2096071 0.9598703 0.150341 0.807635
329.226 419.526 68.1289 0 -0.2872069 0.9578686 0.083624 0.794338
0 390.508 68.1289 0 0 1 0.234495 0.807635
316.362 390.508 59.4282 -0.1863171 -0.2096071 0.9598703 0.089519 0.807635
348.224 362.186 59.4282 -0.1863171 -0.2096071 0.9598703 0.074918 0.820614
361.186 390.508 68.1289 -0.1863171 -0.2096071 0.9598703 0.068978 0.807635
172.665 310.76 51.0282 0.4484751 -0.4610301 0.7657162 0.155369 0.844181
215.251 352.186 51.0282 0.4484751 -0.4610301 0.7657162 0.135854 0.825197
211.189 362.186 59.4282 0.4484751 -0.4610301 0.7657162 0.137715 0.820614
172.665 115.467 51.0283 0.643192 0 0.765705 0.155369 0.933676
284.75 352.186 51.0282 0 -0.643192 0.765705 0.104006 0.825197
288.811 362.186 59.4282 -0.448487 -0.461037 0.765705 0.102144 0.820614
284.75 352.186 51.0282 -0.448487 -0.461037 0.765705 0.104006 0.825197
327.335 310.76 51.0282 -0.448487 -0.461037 0.765705 0.08449 0.844181
327.335 224.092 51.0282 -0.643192 0 0.765705 0.08449 0.883897
185.665 305.27 51.0281 7e-06 -7e-06 1 0.149412 0.610554
220.53 339.186 51.0281 7e-06 -7e-06 1 0.133435 0.595011
215.251 352.186 51.0282 7e-06 -7e-06 1 0.135854 0.589054
172.665 115.467 51.0283 0 1e-06 1 0.155369 0.697533
185.665 115.467 51.0283 0 1e-06 1 0.149412 0.697533
185.665 305.27 51.0281 0 1e-06 1 0.149412 0.610554
215.251 352.186 51.0282 -1e-06 -1e-05 1 0.135854 0.589054
220.53 339.186 51.0281 -1e-06 -1e-05 1 0.133435 0.595011
279.469 339.186 51.0282 -1e-06 -1e-05 1 0.106425 0.595011
279.469 339.186 51.0282 -3e-06 -3e-06 1 0.106425 0.595011
500 6e-06 68.129 1 0 0 0.10432 0.75746
0 -6e-06 0 -1 0 0 0.10432 0.75746
335.076 102.367 64.1307 -0.003085 0.248376 0.9686589 0.080943 0.939679
203.258 106.461 62.6611 -0.003085 0.248376 0.9686589 0.14135 0.937803
200.364 85.1003 68.1289 -0.003085 0.248376 0.9686589 0.142676 0.947592
3 0 1 2 
3 3 4 5 
3 5 4 6 
3 7 8 9 
3 10 4 11 
3 4 12 11 
3 13 14 15 
3 16 17 18 
3 16 19 20 
3 21 22 23 
3 24 25 26 
3 25 27 26 
3 28 29 30 
3 26 27 23 
3 31 32 33 
3 32 34 33 
3 34 35 33 
3 35 36 33 
3 36 37 33 
3 38 39 40 
3 41 42 43 
3 21 44 22 
3 1 0 45 
3 0 46 45 
3 46 47 45 
3 47 48 45 
3 48 49 45 
3 50 51 52 
3 53 54 55 
3 56 57 58 
3 59 60 61 
3 62 63 64 
3 62 65 66 
3 67 68 69 
3 24 26 70 
3 71 58 72 
3 73 56 74 
3 75 68 76 
3 76 68 77 
3 77 68 78 
3 68 79 78 
3 80 81 82 
3 83 84 85 
3 84 86 85 
3 85 86 87 
3 86 88 87 
3 76 89 75 
3 89 90 75 
3 90 91 75 
3 91 92 75 
3 75 92 93 
3 94 95 96 
3 74 2 73 
3 97 98 99 
3 58 57 72 
3 100 101 102 
3 103 104 105 
3 106 107 108 
3 105 104 109 
3 104 108 109 
3 107 109 108 
3 110 111 112 
3 113 114 115 
3 116 117 118 
3 119 120 121 
3 122 123 124 
3 125 126 127 
3 128 129 130 
3 131 132 133 
3 134 135 136 
3 137 138 139 
3 139 138 140 
3 141 137 142 
3 143 144 145 
3 146 147 148 
3 149 150 151 
3 152 153 154 
3 154 153 155 
3 150 156 151 
3 151 156 153 
3 156 155 153 
3 157 158 159 
3 159 158 160 
3 160 158 161 
3 161 158 162 
3 162 158 163 
3 158 164 163 
3 149 151 165 
3 166 143 145 
3 167 168 169 
3 170 171 172 
3 173 174 175 
3 174 176 175 
3 176 177 175 
3 177 178 175 
3 178 179 175 
3 152 180 153 
3 181 182 183 
3 182 184 183 
3 184 185 183 
3 185 186 183 
3 186 187 183 
3 188 189 190 
3 191 192 193 
3 170 194 195 
3 196 175 197 
3 198 199 200 
3 201 202 203 
3 197 204 196 
3 205 206 207 
3 195 144 143 
3 208 209 210 
3 210 209 211 
3 212 213 214 
3 215 216 209 
3 209 216 217 
3 182 181 171 
3 218 219 220 
3 221 222 223 
3 224 225 226 
3 227 228 229 
3 230 231 232 
3 233 234 235 
3 236 237 238 
3 239 240 241 
3 242 243 244 
3 245 246 247 
3 248 249 250 
3 251 252 253 
3 254 255 256 
3 256 257 254 
3 258 259 255 
3 17 260 18 
3 16 20 17 
3 62 64 65 
3 65 261 66 
3 64 63 262 
3 262 63 61 
3 63 59 61 
3 18 13 15 
3 18 260 13 
3 19 263 20 
3 264 265 266 
3 267 268 269 
3 270 271 272 
3 273 274 275 
3 276 277 278 
3 279 280 281 
3 282 283 284 
3 285 286 287 
3 288 289 290 
3 291 292 293 
3 294 295 296 
3 297 298 299 
3 300 301 302 
3 303 304 305 
3 306 307 308 
3 309 310 311 
3 312 313 314 
3 315 316 317 
3 13 318 14 
3 38 319 39 
3 41 320 42 
3 50 321 51 
3 53 322 54 
3 56 323 57 
3 59 324 60 
3 67 79 68 
3 71 325 58 
3 73 323 56 
3 326 327 328 
3 329 330 331 
3 74 0 2 
3 332 333 334 
3 335 336 337 
3 110 338 111 
3 339 340 341 
3 116 342 117 
3 119 343 120 
3 344 345 346 
3 347 348 349 
3 128 350 129 
3 351 352 353 
3 134 354 135 
3 137 141 138 
3 355 356 357 
3 166 358 143 
3 167 359 168 
3 170 182 171 
3 188 360 189 
3 191 361 192 
3 170 172 194 
3 196 173 175 
3 362 363 364 
3 201 365 202 
3 197 366 204 
3 367 368 369 
3 195 194 144 
3 370 371 372 
3 221 373 222 
3 224 374 225 
3 375 376 377 
3 230 378 231 
3 379 380 381 
3 382 383 384 
3 385 386 387 
3 242 388 243 
3 254 258 255 
3 65 389 261 
3 19 390 263 
3 288 378 289 
3 391 392 393 
