ply
format ascii 1.0
comment VCGLIB generated
comment TextureFile dummy.png
element vertex 310
property float x
property float y
property float z
property float nx
property float ny
property float nz
property float texture_u
property float texture_v
element face 126
property list uchar int vertex_indices
end_header
45.168 27.51889 101.668 0.0006710002 0.9999993 -0.0009410004 0.073036 0.968456
240.2969 27.51968 241.6211 0.0006710002 0.9999993 -0.0009410004 0.009278 0.879563
241.6914 27.37437 88.254 0.0006710002 0.9999993 -0.0009410004 0.079147 0.878928
0 24.2073 250 -0.9999818 -0.005644999 -0.002182 0.030226 0.710813
0.154007 19.54267 191.3594 -0.9999818 -0.005644999 -0.002182 0.060661 0.70811
0.154007 0 241.9102 -0.9999818 -0.005644999 -0.002182 0.033398 0.706432
9.916 27.51993 8.710999 9e-06 1 8e-06 0.115384 0.984516
45.168 27.51889 101.668 9e-06 1 8e-06 0.073036 0.968456
216.2168 27.51777 56.145 9e-06 1 8e-06 0.093775 0.890533
7.783997 27.28844 196.4902 -0.008618998 0.9999518 -0.004715999 0.029838 0.985487
10.04601 27.52024 241.5078 -0.008618998 0.9999518 -0.004715999 0.009329 0.984457
47.11301 27.51806 173.293 -0.008618998 0.9999518 -0.004715999 0.040406 0.96757
149.27 27.51988 233.0566 1e-06 1 -3.2e-05 0.009297 0.91829
47.11301 27.51806 173.293 1e-06 1 -3.2e-05 0.040406 0.96757
10.04601 27.52024 241.5078 1e-06 1 -3.2e-05 0.009329 0.984457
0 24.20736 79.05299 -0.9999722 -0.007446002 0.0003280001 0.118182 0.705535
0.154007 0 0 -0.9999722 -0.007446002 0.0003280001 0.153545 0.69939
0.154007 4.5142 102.375 -0.9999722 -0.007446002 0.0003280001 0.104367 0.703008
0.154007 24.20735 0 -0.3208449 0.9471316 -0.0006259998 0.157143 0.703123
0 24.20736 79.05299 -0.3208449 0.9471316 -0.0006259998 0.118182 0.705535
9.916 27.51993 8.710999 -0.3208449 0.9471316 -0.0006259998 0.153529 0.699164
0 24.20738 195.668 -0.313188 0.9496912 1e-06 0.058749 0.709101
0 24.2073 250 -0.313188 0.9496912 1e-06 0.030226 0.710813
10.04601 27.52024 241.5078 -0.313188 0.9496912 1e-06 0.034761 0.70605
216.2168 27.51777 56.145 0.0009869997 0.9999928 0.003682999 0.093775 0.890533
45.168 27.51889 101.668 0.0009869997 0.9999928 0.003682999 0.073036 0.968456
241.6914 27.37437 88.254 0.0009869997 0.9999928 0.003682999 0.079147 0.878928
239.7197 25.908 21.14999 0.136142 0.9906612 0.007469001 0.150233 0.581768
236.0098 26.17444 53.43401 0.136142 0.9906612 0.007469001 0.133485 0.584085
250 24.2053 59.605 0.136142 0.9906612 0.007469001 0.130128 0.576466
241.6914 27.37437 88.254 0.334701 0.942322 0.002151 0.079147 0.878928
240.2969 27.51968 241.6211 0.334701 0.942322 0.002151 0.009278 0.879563
250 24.20729 182.8867 0.334701 0.942322 0.002151 0.036036 0.876099
0.154007 19.54267 191.3594 -1 0 0 0.060661 0.70811
0.154007 4.5142 102.375 -1 0 0 0.104367 0.703008
0.154007 0 241.9102 -1 0 0 0.033398 0.706432
0 24.2073 250 -0.9994534 -0.03305902 -0 0.030226 0.710813
0 24.20738 195.668 -0.9994534 -0.03305902 -0 0.058749 0.709101
0.154007 19.54267 191.3594 -0.9994534 -0.03305902 -0 0.060661 0.70811
216.2168 27.51777 56.145 0.05507098 0.9943597 -0.09064297 0.093775 0.890533
236.6045 27.32939 66.465 0.05507098 0.9943597 -0.09064297 0.089073 0.881245
236.0098 26.17444 53.43401 0.05507098 0.9943597 -0.09064297 0.09501 0.881516
162.1846 27.52198 8.807007 -1.4e-05 1 0.000197 0.11534 0.915148
9.916 27.51993 8.710999 -1.4e-05 1 0.000197 0.115384 0.984516
181.3242 27.51856 27.51199 -1.4e-05 1 0.000197 0.106819 0.906429
193.3564 24.78493 14.367 -0.09448396 0.9839436 -0.1514189 0.15288 0.606246
222.9033 27.9372 16.414 -0.09448396 0.9839436 -0.1514189 0.152748 0.590845
210.3662 24.20735 0 -0.09448396 0.9839436 -0.1514189 0.160352 0.597069
0 24.20738 195.668 -0.9994752 -0.03238301 -0.0007330002 0.058749 0.709101
0.154007 20.08104 167.5684 -0.9994752 -0.03238301 -0.0007330002 0.072957 0.707468
0.154007 19.54267 191.3594 -0.9994752 -0.03238301 -0.0007330002 0.060661 0.70811
0 24.20738 195.668 -0.3692521 0.9292273 0.013767 0.058749 0.709101
10.04601 27.52024 241.5078 -0.3692521 0.9292273 0.013767 0.034761 0.70605
7.783997 27.28844 196.4902 -0.3692521 0.9292273 0.013767 0.058483 0.705757
0.154007 19.13036 148.238 -1 0 0 0.082758 0.706721
181.3242 27.51856 27.51199 0.004178002 0.9999785 -0.005064002 0.106819 0.906429
216.2168 27.51777 56.145 0.004178002 0.9999785 -0.005064002 0.093775 0.890533
213.6924 27.35911 22.73199 0.004178002 0.9999785 -0.005064002 0.108996 0.891683
9.916 27.51993 8.710999 6e-06 1 2.1e-05 0.115384 0.984516
216.2168 27.51777 56.145 6e-06 1 2.1e-05 0.093775 0.890533
181.3242 27.51856 27.51199 6e-06 1 2.1e-05 0.106819 0.906429
239.7197 25.908 21.14999 0.1634019 0.9865596 0 0.150233 0.581768
250 24.2053 59.605 0.1634019 0.9865596 0 0.130128 0.576466
250 24.2053 28.52299 0.1634019 0.9865596 0 0.146303 0.576209
0.154007 15.71813 103.324 -0.6067671 0.7839422 0.131409 0.105089 0.704817
16.09599 26.62664 111.855 -0.6067671 0.7839422 0.131409 0.102011 0.698975
10.086 27.51921 78.78101 -0.6067671 0.7839422 0.131409 0.118782 0.701114
9.916 27.51993 8.710999 2e-06 1 1e-05 0.115384 0.984516
10.086 27.51921 78.78101 2e-06 1 1e-05 0.083463 0.984438
45.168 27.51889 101.668 2e-06 1 1e-05 0.073036 0.968456
0.154007 20.08104 167.5684 -0.3518881 0.9258304 -0.1378871 0.072957 0.707468
0 24.20738 195.668 -0.3518881 0.9258304 -0.1378871 0.058749 0.709101
7.783997 27.28844 196.4902 -0.3518881 0.9258304 -0.1378871 0.058483 0.705757
0.154007 19.66005 119.312 -0.3061699 0.9496846 0.06602298 0.097471 0.705932
18.815 24.35236 138.355 -0.3061699 0.9496846 0.06602298 0.088276 0.69804
20.438 25.62758 127.539 -0.3061699 0.9496846 0.06602298 0.093931 0.697119
250 24.20529 0 4.900001e-05 0.9382622 -0.3459251 0.16099 0.575975
210.3662 24.20735 0 4.900001e-05 0.9382622 -0.3459251 0.160352 0.597069
225.9648 25.54447 3.628998 4.900001e-05 0.9382622 -0.3459251 0.158966 0.58893
241.6914 27.37437 88.254 0.202804 0.9779742 -0.04936601 0.115397 0.581401
250 24.2053 59.605 0.202804 0.9779742 -0.04936601 0.130128 0.576466
236.6045 27.32939 66.465 0.202804 0.9779742 -0.04936601 0.126833 0.583955
20.438 25.62758 127.539 0.03638802 0.9918146 0.1223921 0.093931 0.697119
18.815 24.35236 138.355 0.03638802 0.9918146 0.1223921 0.088276 0.69804
39.612 25.78891 120.531 0.03638802 0.9918146 0.1223921 0.097565 0.687381
250 24.2053 28.52299 0.136739 0.9898802 0.03794301 0.146303 0.576209
238.3086 26.6892 5.854996 0.136739 0.9898802 0.03794301 0.158204 0.582426
239.7197 25.908 21.14999 0.136739 0.9898802 0.03794301 0.150233 0.581768
193.3564 24.78493 14.367 0.14202 0.9302818 -0.3382399 0.15288 0.606246
162.1846 27.52198 8.807007 0.14202 0.9302818 -0.3382399 0.155673 0.622668
192.626 26.42465 18.57001 0.14202 0.9302818 -0.3382399 0.15098 0.606812
162.1846 27.52198 8.807007 0.05341299 0.9970858 -0.05447199 0.11534 0.915148
181.3242 27.51856 27.51199 0.05341299 0.9970858 -0.05447199 0.106819 0.906429
192.626 26.42465 18.57001 0.05341299 0.9970858 -0.05447199 0.110893 0.90128
216.2168 27.51777 56.145 0.01166199 0.9999205 -0.004786998 0.093775 0.890533
241.6914 27.37437 88.254 0.01166199 0.9999205 -0.004786998 0.079147 0.878928
236.6045 27.32939 66.465 0.01166199 0.9999205 -0.004786998 0.089073 0.881245
65.633 24.62741 249.0898 0.0008090005 0.9362655 0.3512922 0.02991 0.677427
156.6543 24.2073 250 0.0008090005 0.9362655 0.3512922 0.028221 0.629404
10.04601 27.52024 241.5078 0.0008090005 0.9362655 0.3512922 0.034761 0.70605
9.916 27.51993 8.710999 -0.311956 0.9500962 0.0007660002 0.153529 0.699164
0 24.20736 79.05299 -0.311956 0.9500962 0.0007660002 0.118182 0.705535
10.086 27.51921 78.78101 -0.311956 0.9500962 0.0007660002 0.118782 0.701114
0.154007 20.08104 167.5684 -0.22519 0.9576842 -0.17925 0.072957 0.707468
7.783997 27.28844 196.4902 -0.22519 0.9576842 -0.17925 0.058483 0.705757
27.45 27.49923 172.9102 -0.22519 0.9576842 -0.17925 0.070699 0.695218
163.9795 24.20735 0 0.1399049 0.9357636 -0.3236868 0.159619 0.621298
162.1846 27.52198 8.807007 0.1399049 0.9357636 -0.3236868 0.155673 0.622668
193.3564 24.78493 14.367 0.1399049 0.9357636 -0.3236868 0.15288 0.606246
45.168 27.51889 101.668 -9e-06 1 7e-06 0.073036 0.968456
58.799 27.51883 125.979 -9e-06 1 7e-06 0.061961 0.962247
240.2969 27.51968 241.6211 -9e-06 1 7e-06 0.009278 0.879563
11.48 23.24737 152.0938 -0.263131 0.9647481 0.004811001 0.081139 0.701911
0.154007 20.08104 167.5684 -0.263131 0.9647481 0.004811001 0.072957 0.707468
27.45 27.49923 172.9102 -0.263131 0.9647481 0.004811001 0.070699 0.695218
0.154007 20.08104 167.5684 -0.3272641 0.9437922 -0.04641701 0.072957 0.707468
11.48 23.24737 152.0938 -0.3272641 0.9437922 -0.04641701 0.081139 0.701911
0.154007 19.13036 148.238 -0.3272641 0.9437922 -0.04641701 0.082758 0.706721
48.34399 27.40726 139.379 -0.015582 0.9998713 -0.003832001 0.056565 0.969581
47.11301 27.51806 173.293 -0.015582 0.9998713 -0.003832001 0.040406 0.96757
58.799 27.51883 125.979 -0.015582 0.9998713 -0.003832001 0.061961 0.962247
47.11301 27.51806 173.293 -1.3e-05 1 1.3e-05 0.040406 0.96757
240.2969 27.51968 241.6211 -1.3e-05 1 1.3e-05 0.009278 0.879563
58.799 27.51883 125.979 -1.3e-05 1 1.3e-05 0.061961 0.962247
192.626 26.42465 18.57001 -0.04840601 0.9986112 0.020801 0.15098 0.606812
213.6924 27.35911 22.73199 -0.04840601 0.9986112 0.020801 0.149283 0.595787
222.9033 27.9372 16.414 -0.04840601 0.9986112 0.020801 0.152748 0.590845
42.287 26.75841 158.4141 3.699999e-05 0.9986987 -0.05099998 0.047184 0.969769
27.45 27.49923 172.9102 3.699999e-05 0.9986987 -0.05099998 0.040581 0.976528
47.11301 27.51806 173.293 3.699999e-05 0.9986987 -0.05099998 0.040406 0.96757
163.9795 24.20735 0 0 0.9991929 -0.040169 0.159619 0.621298
193.3564 24.78493 14.367 0 0.9991929 -0.040169 0.15288 0.606246
210.3662 24.20735 0 0 0.9991929 -0.040169 0.160352 0.597069
7.783997 27.28844 196.4902 -0.001113 0.9999673 0.008011003 0.029838 0.985487
47.11301 27.51806 173.293 -0.001113 0.9999673 0.008011003 0.040406 0.96757
27.45 27.49923 172.9102 -0.001113 0.9999673 0.008011003 0.040581 0.976528
236.0098 26.17444 53.43401 0.179714 0.9791229 -0.09498098 0.133485 0.584085
236.6045 27.32939 66.465 0.179714 0.9791229 -0.09498098 0.126833 0.583955
250 24.2053 59.605 0.179714 0.9791229 -0.09498098 0.130128 0.576466
39.612 25.78891 120.531 -0.106433 0.9925273 0.05967902 0.064442 0.970987
58.799 27.51883 125.979 -0.106433 0.9925273 0.05967902 0.061961 0.962247
45.168 27.51889 101.668 -0.106433 0.9925273 0.05967902 0.073036 0.968456
39.612 25.78891 120.531 -0.075435 0.995868 -0.050563 0.064442 0.970987
48.34399 27.40726 139.379 -0.075435 0.995868 -0.050563 0.056565 0.969581
58.799 27.51883 125.979 -0.075435 0.995868 -0.050563 0.061961 0.962247
0.154007 0 0 -1 0 0 0.153545 0.69939
0 24.2073 250 -0.9999797 -0.006373999 0 0.030226 0.710813
0.154007 0 241.9102 -0.9999797 -0.006373999 0 0.033398 0.706432
0.154007 0 250 -0.9999797 -0.006373999 0 0.029207 0.706678
0.154007 19.66005 119.312 -0.4726112 0.8556483 -0.2109611 0.097471 0.705932
16.09599 26.62664 111.855 -0.4726112 0.8556483 -0.2109611 0.102011 0.698975
0.154007 15.71813 103.324 -0.4726112 0.8556483 -0.2109611 0.105089 0.704817
213.6924 27.35911 22.73199 -0.02417201 0.9981333 0.05608601 0.149283 0.595787
236.0098 26.17444 53.43401 -0.02417201 0.9981333 0.05608601 0.133485 0.584085
222.9033 27.9372 16.414 -0.02417201 0.9981333 0.05608601 0.152748 0.590845
222.9033 27.9372 16.414 0.108384 0.9932743 0.04073301 0.152748 0.590845
239.7197 25.908 21.14999 0.108384 0.9932743 0.04073301 0.150233 0.581768
238.3086 26.6892 5.854996 0.108384 0.9932743 0.04073301 0.158204 0.582426
0.154007 19.13036 148.238 -0.312728 0.9454811 -0.09092201 0.082758 0.706721
11.48 23.24737 152.0938 -0.312728 0.9454811 -0.09092201 0.081139 0.701911
18.815 24.35236 138.355 -0.312728 0.9454811 -0.09092201 0.088276 0.69804
0.154007 15.71813 103.324 -1 0 0 0.105089 0.704817
0.154007 15.71813 103.324 -0.9999809 -0.000523 0.006173999 0.105089 0.704817
0 24.20736 79.05299 -0.9999809 -0.000523 0.006173999 0.118182 0.705535
0.154007 4.5142 102.375 -0.9999809 -0.000523 0.006173999 0.104367 0.703008
0.154007 20.08104 167.5684 -1 0 0 0.072957 0.707468
39.612 25.78891 120.531 -0.151706 0.9883181 -0.014582 0.064442 0.970987
42.287 26.75841 158.4141 -0.151706 0.9883181 -0.014582 0.047184 0.969769
48.34399 27.40726 139.379 -0.151706 0.9883181 -0.014582 0.056565 0.969581
156.6543 24.2073 250 0.011844 0.9837253 0.1792881 0.028221 0.629404
152.8408 25.4966 243.1777 0.011844 0.9837253 0.1792881 0.032069 0.631461
10.04601 27.52024 241.5078 0.011844 0.9837253 0.1792881 0.034761 0.70605
0.154007 19.66005 119.312 -0.2607462 0.9652456 0.01767601 0.097471 0.705932
0.154007 19.13036 148.238 -0.2607462 0.9652456 0.01767601 0.082758 0.706721
18.815 24.35236 138.355 -0.2607462 0.9652456 0.01767601 0.088276 0.69804
65.633 24.62741 249.0898 0 0.9079461 0.4190871 0.02991 0.677427
0 24.2073 250 0 0.9079461 0.4190871 0.030226 0.710813
156.6543 24.2073 250 0 0.9079461 0.4190871 0.028221 0.629404
45.168 27.51889 101.668 0.001606001 0.9957765 0.09179705 0.073036 0.968456
16.09599 26.62664 111.855 0.001606001 0.9957765 0.09179705 0.068395 0.981701
39.612 25.78891 120.531 0.001606001 0.9957765 0.09179705 0.064442 0.970987
16.09599 26.62664 111.855 0.01347601 0.9981165 0.05984903 0.068395 0.981701
20.438 25.62758 127.539 0.01347601 0.9981165 0.05984903 0.06125 0.979722
39.612 25.78891 120.531 0.01347601 0.9981165 0.05984903 0.064442 0.970987
0 24.2073 250 -0.000939 0.931993 0.362475 0.030226 0.710813
65.633 24.62741 249.0898 -0.000939 0.931993 0.362475 0.02991 0.677427
10.04601 27.52024 241.5078 -0.000939 0.931993 0.362475 0.034761 0.70605
11.48 23.24737 152.0938 -0.1096351 0.9938145 -0.01769301 0.081139 0.701911
42.287 26.75841 158.4141 -0.1096351 0.9938145 -0.01769301 0.078133 0.687219
39.612 25.78891 120.531 -0.1096351 0.9938145 -0.01769301 0.097565 0.687381
0.154007 19.66005 119.312 -0.3352069 0.9297947 0.1520469 0.097471 0.705932
20.438 25.62758 127.539 -0.3352069 0.9297947 0.1520469 0.093931 0.697119
16.09599 26.62664 111.855 -0.3352069 0.9297947 0.1520469 0.102011 0.698975
10.086 27.51921 78.78101 -0.01995 0.9993328 0.030594 0.083463 0.984438
16.09599 26.62664 111.855 -0.01995 0.9993328 0.030594 0.068395 0.981701
45.168 27.51889 101.668 -0.01995 0.9993328 0.030594 0.073036 0.968456
11.48 23.24737 152.0938 -0.08441402 0.9869902 -0.136838 0.081139 0.701911
27.45 27.49923 172.9102 -0.08441402 0.9869902 -0.136838 0.070699 0.695218
42.287 26.75841 158.4141 -0.08441402 0.9869902 -0.136838 0.078133 0.687219
225.9648 25.54447 3.628998 -0.055347 0.978948 -0.196463 0.158966 0.58893
222.9033 27.9372 16.414 -0.055347 0.978948 -0.196463 0.152748 0.590845
238.3086 26.6892 5.854996 -0.055347 0.978948 -0.196463 0.158204 0.582426
225.9648 25.54447 3.628998 -0.03917401 0.9804422 -0.192869 0.158966 0.58893
210.3662 24.20735 0 -0.03917401 0.9804422 -0.192869 0.160352 0.597069
222.9033 27.9372 16.414 -0.03917401 0.9804422 -0.192869 0.152748 0.590845
18.815 24.35236 138.355 -0.00026 0.9967921 0.08003401 0.088276 0.69804
11.48 23.24737 152.0938 -0.00026 0.9967921 0.08003401 0.081139 0.701911
39.612 25.78891 120.531 -0.00026 0.9967921 0.08003401 0.097565 0.687381
163.9795 24.20735 0 0.0002090001 0.9359183 -0.3522171 0.159619 0.621298
9.916 27.51993 8.710999 0.0002090001 0.9359183 -0.3522171 0.153529 0.699164
162.1846 27.52198 8.807007 0.0002090001 0.9359183 -0.3522171 0.155673 0.622668
250 24.2073 250 0.323067 0.9463761 0 0.026957 0.578106
250 24.20729 182.8867 0.323067 0.9463761 0 0.064149 0.577515
240.2969 27.51968 241.6211 0.323067 0.9463761 0 0.03193 0.583652
193.3564 24.78493 14.367 -0.07279398 0.9247968 -0.3734329 0.15288 0.606246
192.626 26.42465 18.57001 -0.07279398 0.9247968 -0.3734329 0.15098 0.606812
222.9033 27.9372 16.414 -0.07279398 0.9247968 -0.3734329 0.152748 0.590845
10.086 27.51921 78.78101 -0.2880699 0.9033426 0.3177859 0.118782 0.701114
0 24.20736 79.05299 -0.2880699 0.9033426 0.3177859 0.118182 0.705535
0.154007 15.71813 103.324 -0.2880699 0.9033426 0.3177859 0.105089 0.704817
0.154007 24.20735 0 0 0.9346969 -0.355446 0.157143 0.703123
9.916 27.51993 8.710999 0 0.9346969 -0.355446 0.153529 0.699164
163.9795 24.20735 0 0 0.9346969 -0.355446 0.159619 0.621298
0.154007 19.66005 119.312 -1 0 0 0.097471 0.705932
0 24.20736 79.05299 -0.9999981 0 -0.001952 0.118182 0.705535
0.154007 24.20735 0 -0.9999981 0 -0.001952 0.157143 0.703123
0.154007 0 0 -0.9999981 0 -0.001952 0.153545 0.69939
238.3086 26.6892 5.854996 0.207817 0.9781678 0 0.158204 0.582426
250 24.2053 28.52299 0.207817 0.9781678 0 0.146303 0.576209
250 24.20529 0 0.207817 0.9781678 0 0.16099 0.575975
238.3086 26.6892 5.854996 -0.010882 0.9125448 -0.408832 0.158204 0.582426
250 24.20529 0 -0.010882 0.9125448 -0.408832 0.16099 0.575975
225.9648 25.54447 3.628998 -0.010882 0.9125448 -0.408832 0.158966 0.58893
156.6543 24.2073 250 0 0 1 0.028221 0.629404
0.154007 0 250 0 0 1 0.029207 0.706678
156.6543 0 250 0 0 1 0.027213 0.62702
0 24.2073 250 0 0 1 0.030226 0.710813
222.9033 27.9372 16.414 0.1182981 0.9929635 0.005399003 0.152748 0.590845
236.0098 26.17444 53.43401 0.1182981 0.9929635 0.005399003 0.133485 0.584085
239.7197 25.908 21.14999 0.1182981 0.9929635 0.005399003 0.150233 0.581768
192.626 26.42465 18.57001 -0.015988 0.9898368 -0.141307 0.110893 0.90128
181.3242 27.51856 27.51199 -0.015988 0.9898368 -0.141307 0.106819 0.906429
213.6924 27.35911 22.73199 -0.015988 0.9898368 -0.141307 0.108996 0.891683
241.6914 27.37437 88.254 0.3402601 0.9403163 -0.005335001 0.115397 0.581401
250 24.49194 110.123 0.3402601 0.9403163 -0.005335001 0.103481 0.576905
250 24.2053 59.605 0.3402601 0.9403163 -0.005335001 0.130128 0.576466
250 24.49194 110.123 0.3190319 0.9477367 0.003707999 0.103481 0.576905
241.6914 27.37437 88.254 0.3190319 0.9477367 0.003707999 0.115397 0.581401
250 24.20729 182.8867 0.3190319 0.9477367 0.003707999 0.064149 0.577515
48.34399 27.40726 139.379 -0.131355 0.9913031 -0.008004001 0.056565 0.969581
42.287 26.75841 158.4141 -0.131355 0.9913031 -0.008004001 0.047184 0.969769
47.11301 27.51806 173.293 -0.131355 0.9913031 -0.008004001 0.040406 0.96757
222.2295 24.58155 250 0.012598 0.9347973 0.3549581 0.027355 0.593621
250 24.2073 250 0.012598 0.9347973 0.3549581 0.026957 0.578106
240.2969 27.51968 241.6211 0.012598 0.9347973 0.3549581 0.03193 0.583652
0.154007 0 0 0 -1 0 0.153545 0.69939
163.9795 0 0 0 -1 0 0.155844 0.619185
0.154007 0 241.9102 0 -1 0 0.033398 0.706432
250 0 0 0 -1 0 0.157116 0.57481
250 0 28.52299 0 -1 0 0.142731 0.575033
210.3662 0 0 0 -1 0 0.156524 0.595458
250 0 250 0 -1 0 0.025957 0.576839
222.2295 0 250 0 -1 0 0.026337 0.591987
250 0 182.8867 0 -1 0 0.062325 0.576277
0.154007 0 250 0 -1 0 0.029207 0.706678
156.6543 0 250 0 -1 0 0.027213 0.62702
250 0 110.123 0 -1 0 0.100776 0.575682
250 0 59.605 0 -1 0 0.126892 0.575278
152.8408 25.4966 243.1777 0.01166101 0.9813145 0.1920571 0.032069 0.631461
149.27 27.51988 233.0566 0.01166101 0.9813145 0.1920571 0.037747 0.633398
10.04601 27.52024 241.5078 0.01166101 0.9813145 0.1920571 0.034761 0.70605
213.6924 27.35911 22.73199 0.06637999 0.9977468 -0.009752998 0.108996 0.891683
216.2168 27.51777 56.145 0.06637999 0.9977468 -0.009752998 0.093775 0.890533
236.0098 26.17444 53.43401 0.06637999 0.9977468 -0.009752998 0.09501 0.881516
250 24.2053 59.605 1 0 0 0.130128 0.576466
250 0 28.52299 1 0 0 0.142731 0.575033
250 24.2053 28.52299 1 0 0 0.146303 0.576209
250 0 0 1 0 0 0.157116 0.57481
250 24.20529 0 1 0 0 0.16099 0.575975
250 24.20529 0 0 0 -1 0.16099 0.575975
210.3662 0 0 0 0 -1 0.156524 0.595458
210.3662 24.20735 0 0 0 -1 0.160352 0.597069
250 24.20729 182.8867 1 0 0 0.064149 0.577515
250 0 110.123 1 0 0 0.100776 0.575682
250 24.49194 110.123 1 0 0 0.103481 0.576905
163.9795 0 0 0 0 -1 0.155844 0.619185
163.9795 24.20735 0 0 0 -1 0.159619 0.621298
222.2295 0 250 0 0 1 0.026337 0.591987
222.2295 24.58155 250 0 0 1 0.027355 0.593621
250 24.2073 250 1 0 0 0.026957 0.578106
250 0 182.8867 1 0 0 0.062325 0.576277
0.154007 0 0 0 0 -1 0.153545 0.69939
0.154007 24.20735 0 0 0 -1 0.157143 0.703123
250 0 59.605 1 0 0 0.126892 0.575278
250 24.2073 250 0 0 1 0.026957 0.578106
250 0 250 0 0 1 0.025957 0.576839
156.6543 24.2073 250 -0.005605002 0.9820153 0.1887181 0.028221 0.629404
222.2295 24.58155 250 -0.005605002 0.9820153 0.1887181 0.027355 0.593621
152.8408 25.4966 243.1777 -0.005605002 0.9820153 0.1887181 0.032069 0.631461
222.2295 24.58155 250 -0.006567 0.9801291 0.198252 0.027355 0.593621
149.27 27.51988 233.0566 -0.006567 0.9801291 0.198252 0.037747 0.633398
152.8408 25.4966 243.1777 -0.006567 0.9801291 0.198252 0.032069 0.631461
149.27 27.51988 233.0566 6e-06 1 -4.1e-05 0.009297 0.91829
240.2969 27.51968 241.6211 6e-06 1 -4.1e-05 0.009278 0.879563
47.11301 27.51806 173.293 6e-06 1 -4.1e-05 0.040406 0.96757
250 0 0 0 0 -1 0.157116 0.57481
250 0 250 1 0 0 0.025957 0.576839
222.2295 24.58155 250 -0.02632101 0.9597056 0.2797722 0.027355 0.593621
240.2969 27.51968 241.6211 -0.02632101 0.9597056 0.2797722 0.03193 0.583652
149.27 27.51988 233.0566 -0.02632101 0.9597056 0.2797722 0.037747 0.633398
3 0 1 2 
3 3 4 5 
3 6 7 8 
3 9 10 11 
3 12 13 14 
3 15 16 17 
3 18 19 20 
3 21 22 23 
3 24 25 26 
3 27 28 29 
3 30 31 32 
3 33 34 35 
3 36 37 38 
3 39 40 41 
3 42 43 44 
3 45 46 47 
3 48 49 50 
3 51 52 53 
3 33 54 34 
3 55 56 57 
3 58 59 60 
3 61 62 63 
3 64 65 66 
3 67 68 69 
3 70 71 72 
3 73 74 75 
3 76 77 78 
3 79 80 81 
3 82 83 84 
3 85 86 87 
3 88 89 90 
3 91 92 93 
3 94 95 96 
3 97 98 99 
3 100 101 102 
3 103 104 105 
3 106 107 108 
3 109 110 111 
3 112 113 114 
3 115 116 117 
3 118 119 120 
3 121 122 123 
3 124 125 126 
3 127 128 129 
3 130 131 132 
3 133 134 135 
3 136 137 138 
3 139 140 141 
3 142 143 144 
3 34 145 35 
3 146 147 148 
3 149 150 151 
3 152 153 154 
3 155 156 157 
3 158 159 160 
3 54 161 34 
3 162 163 164 
3 165 54 33 
3 166 167 168 
3 169 170 171 
3 172 173 174 
3 175 176 177 
3 178 179 180 
3 181 182 183 
3 184 185 186 
3 187 188 189 
3 190 191 192 
3 193 194 195 
3 196 197 198 
3 199 200 201 
3 202 203 204 
3 205 206 207 
3 208 209 210 
3 211 212 213 
3 214 215 216 
3 217 218 219 
3 220 221 222 
3 54 223 161 
3 224 225 226 
3 227 228 229 
3 230 231 232 
3 233 234 235 
3 233 236 234 
3 237 238 239 
3 240 241 242 
3 243 244 245 
3 246 247 248 
3 249 250 251 
3 252 253 254 
3 255 256 257 
3 258 259 260 
3 261 262 263 
3 264 257 265 
3 257 256 265 
3 265 256 262 
3 262 256 263 
3 263 256 266 
3 266 256 267 
3 256 260 267 
3 260 259 267 
3 268 269 270 
3 271 272 273 
3 274 275 276 
3 276 277 278 
3 279 280 281 
3 282 283 284 
3 281 285 286 
3 233 287 288 
3 289 290 282 
3 286 291 292 
3 274 283 293 
3 294 287 295 
3 296 297 298 
3 299 300 301 
3 302 303 304 
3 274 293 275 
3 276 275 277 
3 279 305 280 
3 282 290 283 
3 281 280 285 
3 233 235 287 
3 289 306 290 
3 286 285 291 
3 274 284 283 
3 294 288 287 
3 307 308 309 
