ply
format ascii 1.0
comment VCGLIB generated
comment TextureFile Dungeons_2_Texture_01_A.png
element vertex 461
property float x
property float y
property float z
property float nx
property float ny
property float nz
property uchar red
property uchar green
property uchar blue
property uchar alpha
property float texture_u
property float texture_v
element face 208
property list uchar int vertex_indices
end_header
-126.397 488.846 -39.0013 6e-06 -6e-06 -1 255 255 255 255 0.346464 0.775611
-126.397 400.169 -39.0008 6e-06 -6e-06 -1 255 255 255 255 0.312443 0.775611
-172.144 439.993 -39.0013 6e-06 -6e-06 -1 255 255 255 255 0.327721 0.75806
-1.5e-05 488.846 -39.0013 0 -6e-06 -1 255 255 255 255 0.346464 0.824103
-126.397 400.169 -39.0008 0 -6e-06 -1 255 255 255 255 0.312443 0.775611
-126.397 488.846 -39.0013 0 -6e-06 -1 255 255 255 255 0.346464 0.775611
-131.985 500 -30.5414 -0.241499 0.292083 -0.9254 255 255 255 255 0.100189 0.781154
-172.144 439.993 -39.0013 -0.241499 0.292083 -0.9254 255 255 255 255 0.077167 0.765747
-199.101 444.507 -30.5414 -0.241499 0.292083 -0.9254 255 255 255 255 0.078899 0.755405
-172.144 439.993 -39.0013 -0.334825 -0.404957 -0.850824 255 255 255 255 0.077167 0.765747
-131.985 389.015 -30.5414 -0.334825 -0.404957 -0.850824 255 255 255 255 0.057609 0.781154
-199.101 444.507 -30.5414 -0.334825 -0.404957 -0.850824 255 255 255 255 0.078899 0.755405
-126.397 400.169 -39.0008 0 -0.604282 -0.796771 255 255 255 255 0.061888 0.783298
-1.5e-05 389.015 -30.5414 0 -0.604282 -0.796771 255 255 255 255 0.057609 0.83179
-131.985 389.015 -30.5414 0 -0.604282 -0.796771 255 255 255 255 0.057609 0.781154
-1.6e-05 500 -30.5414 0 0.604316 -0.796745 255 255 255 255 0.100189 0.83179
-126.397 488.846 -39.0013 0 0.604316 -0.796745 255 255 255 255 0.095909 0.783298
-131.985 500 -30.5414 0 0.604316 -0.796745 255 255 255 255 0.100189 0.781154
-1.5e-05 400.169 -39.0008 1 0 0 255 255 255 255 0.044004 0.953193
-1.6e-05 500 -30.5414 1 0 0 255 255 255 255 0.040759 0.991493
-1.5e-05 389.015 -30.5414 1 0 0 255 255 255 255 0.040759 0.948914
-278.982 441.715 -39.0013 8e-06 6e-06 -1 255 255 255 255 0.445734 0.961998
-221.019 441.715 -39.0009 8e-06 6e-06 -1 255 255 255 255 0.423497 0.961998
-252.81 406.755 -39.0013 8e-06 6e-06 -1 255 255 255 255 0.435694 0.948586
-278.982 441.715 -39.0013 8e-06 -0 -1 255 255 255 255 0.445734 0.961998
-221.019 500 -39.0009 8e-06 -0 -1 255 255 255 255 0.423497 0.984359
-221.019 441.715 -39.0009 8e-06 -0 -1 255 255 255 255 0.423497 0.961998
-286.272 437.534 -30.5414 -0.55178 -0.398521 -0.732612 255 255 255 255 0.197976 0.968081
-252.81 406.755 -39.0013 -0.55178 -0.398521 -0.732612 255 255 255 255 0.185139 0.956273
-250 387.312 -30.5414 -0.55178 -0.398521 -0.732612 255 255 255 255 0.184061 0.948814
-252.81 406.755 -39.0013 0.426789 -0.308247 -0.850197 255 255 255 255 0.185139 0.956273
-213.728 437.534 -30.5414 0.426789 -0.308247 -0.850197 255 255 255 255 0.170145 0.968081
-250 387.312 -30.5414 0.426789 -0.308247 -0.850197 255 255 255 255 0.184061 0.948814
-221.019 441.715 -39.0009 0.757493 -0 -0.652843 255 255 255 255 0.172942 0.969686
-213.728 500 -30.5414 0.757493 -0 -0.652843 255 255 255 255 0.170145 0.992047
-213.728 437.534 -30.5414 0.757493 -0 -0.652843 255 255 255 255 0.170145 0.968081
-286.272 500 -30.5414 -0.757521 -0 -0.652811 255 255 255 255 0.197976 0.992047
-278.982 441.715 -39.0013 -0.757521 -0 -0.652811 255 255 255 255 0.195179 0.969686
-286.272 437.534 -30.5414 -0.757521 -0 -0.652811 255 255 255 255 0.197976 0.968081
-221.019 500 -39.0009 0 1 -0 255 255 255 255 0.073243 0.973949
-286.272 500 -30.5414 0 1 -0 255 255 255 255 0.076489 0.948914
-213.728 500 -30.5414 0 1 -0 255 255 255 255 0.076489 0.976746
-374.122 400.168 -39.0013 -5e-06 5e-06 -1 255 255 255 255 0.329073 0.922177
-374.122 488.846 -39.0009 -5e-06 5e-06 -1 255 255 255 255 0.363094 0.922177
-325.213 441.311 -39.0013 -5e-06 5e-06 -1 255 255 255 255 0.344857 0.940942
-374.122 400.168 -39.0013 0 5e-06 -1 255 255 255 255 0.329073 0.922177
-385.023 400.168 -39.0013 0 5e-06 -1 255 255 255 255 0.329073 0.917995
-374.122 488.846 -39.0009 0 5e-06 -1 255 255 255 255 0.363094 0.922177
-500 488.846 -39.0009 0 5e-06 -1 255 255 255 255 0.363094 0.873884
-442.803 411.367 -39.0013 0 5e-06 -1 255 255 255 255 0.333369 0.895828
-472.705 400.168 -39.0013 -0 5e-06 -1 255 255 255 255 0.329073 0.884356
-500 400.168 -39.0013 0 5e-06 -1 255 255 255 255 0.329073 0.873884
-368.533 389.015 -30.5414 0.353275 -0.427271 -0.832248 255 255 255 255 0.074239 0.932009
-325.213 441.311 -39.0013 0.353275 -0.427271 -0.832248 255 255 255 255 0.094302 0.948629
-301.417 444.507 -30.5414 0.353275 -0.427271 -0.832248 255 255 255 255 0.095529 0.957759
-325.213 441.311 -39.0013 0.275722 0.333473 -0.901539 255 255 255 255 0.094302 0.948629
-368.533 500 -30.5414 0.275722 0.333473 -0.901539 255 255 255 255 0.116819 0.932009
-301.417 444.507 -30.5414 0.275722 0.333473 -0.901539 255 255 255 255 0.095529 0.957759
-374.122 488.846 -39.0009 0 0.604277 -0.796774 255 255 255 255 0.112539 0.929865
-500 500 -30.5414 0 0.604277 -0.796774 255 255 255 255 0.116819 0.881572
-368.533 500 -30.5414 0 0.604277 -0.796774 255 255 255 255 0.116819 0.932009
-500 400.168 -39.0013 -0 -0.604316 -0.796745 255 255 255 255 0.078518 0.881572
-472.705 400.168 -39.0013 -0 -0.604316 -0.796745 255 255 255 255 0.078518 0.892044
-500 389.015 -30.5414 -0 -0.604316 -0.796745 255 255 255 255 0.074239 0.881572
-374.122 400.168 -39.0013 0 -0.604316 -0.796745 255 255 255 255 0.078518 0.929865
-368.533 389.015 -30.5414 0 -0.604316 -0.796745 255 255 255 255 0.074239 0.932009
-385.023 400.168 -39.0013 0 -0.604316 -0.796745 255 255 255 255 0.078518 0.925683
-432.909 394.043 -34.355 0 -0.604316 -0.796745 255 255 255 255 0.076168 0.907312
-368.533 389.015 -30.5414 0 -0.604317 -0.796744 255 255 255 255 0.074239 0.932009
-500 389.015 -30.5414 0 -0.604317 -0.796744 255 255 255 255 0.074239 0.881572
-432.909 394.043 -34.355 0 -0.604317 -0.796744 255 255 255 255 0.076168 0.907312
-500 488.846 -39.0009 -1 -0 -0 255 255 255 255 0.046946 0.987214
-500 389.015 -30.5414 -1 -0 -0 255 255 255 255 0.050192 0.948914
-500 500 -30.5414 -1 -0 -0 255 255 255 255 0.050192 0.991493
-1.6e-05 500 -30.5414 -0 -0 -1 255 255 255 255 0.202205 0.947874
-56.6463 335.368 -30.5414 -0 -0 -1 255 255 255 255 0.139044 0.926142
-87.6346 364.266 -30.5414 -0 -0 -1 255 255 255 255 0.150131 0.914253
-87.6346 364.266 -30.5414 -0.570842 -0.622818 -0.535012 255 255 255 255 0.154362 0.895156
-63.0475 330.01 -16.8968 -0.570842 -0.622818 -0.535012 255 255 255 255 0.159596 0.882013
-93.0099 357.472 -16.8968 -0.570842 -0.622818 -0.535012 255 255 255 255 0.159596 0.892549
-326.598 357.472 -16.8968 -0.21099 0.799326 -0.562639 255 255 255 255 0.070743 0.961466
-326.598 357.472 -16.8968 -0.21099 0.799326 -0.562639 255 255 255 255 0.070743 0.961466
-264.473 364.266 -30.5414 -0.21099 0.799326 -0.562639 255 255 255 255 0.065509 0.9853
-412.365 364.266 -30.5414 0.582977 -0.62514 -0.518977 255 255 255 255 0.151927 0.895156
-436.953 330.01 -16.8968 0.582977 -0.62514 -0.518977 255 255 255 255 0.146692 0.882013
-443.354 335.368 -30.5414 0.582977 -0.62514 -0.518977 255 255 255 255 0.151927 0.884069
-443.354 -5e-06 -30.5413 0 -1 0 255 255 255 255 0.109053 0.970646
-436.953 -3e-06 -16.8968 0 -1 0 255 255 255 255 0.103818 0.973102
-500 -5e-06 -30.5413 0 -1 0 255 255 255 255 0.109053 0.948914
-63.0475 -3e-06 -16.8968 0 -1 0 255 255 255 255 0.130115 0.948914
-56.6463 -5e-06 -30.5413 0 -1 0 255 255 255 255 0.135349 0.95137
-1.5e-05 -5e-06 -30.5413 0 -1 0 255 255 255 255 0.135349 0.973102
-443.354 335.368 -30.5414 0 -0 -1 255 255 255 255 0.139044 0.777781
-500.259 500 -30.5414 0 -0 -1 255 255 255 255 0.202205 0.755949
-412.365 364.266 -30.5414 0 -0 -1 255 255 255 255 0.150131 0.78967
-359.315 364.266 -30.5414 0 -0 -1 255 255 255 255 0.150131 0.810023
-317.704 373.781 -30.5414 -0 0 -1 255 255 255 255 0.153781 0.825987
-264.473 364.266 -30.5414 -0 -0 -1 255 255 255 255 0.150131 0.846409
-1.6e-05 500 30.5412 -0 1 0 255 255 255 255 0.228797 0.947874
-500.259 500 -30.5414 -0 1 0 255 255 255 255 0.205363 0.755949
-500.259 500 30.5412 -0 1 0 255 255 255 255 0.228797 0.755949
-500 5e-06 30.5413 0 -1 0 255 255 255 255 0.085618 0.948914
-126.397 488.846 39.0012 5e-06 -5e-06 1 255 255 255 255 0.283363 0.853581
-173.92 443.158 39.0012 5e-06 -5e-06 1 255 255 255 255 0.300891 0.835348
-126.397 400.169 39.0007 5e-06 -5e-06 1 255 255 255 255 0.317384 0.853581
-126.397 488.846 39.0012 0 -5e-06 1 255 255 255 255 0.283363 0.853581
-126.397 400.169 39.0007 0 -5e-06 1 255 255 255 255 0.317384 0.853581
-1.5e-05 488.846 39.0012 0 -5e-06 1 255 255 255 255 0.283363 0.902072
-106.087 400.169 39.0007 0 -5e-06 1 255 255 255 255 0.317384 0.861372
-59.3772 414.836 39.0008 0 -5e-06 1 255 255 255 255 0.311757 0.879292
-1.5e-05 400.169 39.0007 0 -5e-06 1 255 255 255 255 0.317384 0.902072
-11.5429 400.169 39.0007 0 -5e-06 1 255 255 255 255 0.317384 0.897644
-131.985 500 30.5412 -0.401252 0.417376 0.815349 255 255 255 255 0.028529 0.859124
-173.92 443.158 39.0012 -0.401252 0.417376 0.815349 255 255 255 255 0.050336 0.843036
-126.397 488.846 39.0012 -0.401252 0.417376 0.815349 255 255 255 255 0.032808 0.861268
-131.985 389.015 30.5412 -0.312932 -0.378478 0.871107 255 255 255 255 0.071109 0.859124
-173.92 443.158 39.0012 -0.312932 -0.378478 0.871107 255 255 255 255 0.050336 0.843036
-199.101 444.507 30.5412 -0.312932 -0.378478 0.871107 255 255 255 255 0.049819 0.833375
-1.5e-05 400.169 39.0007 0 -0.604281 0.796771 255 255 255 255 0.066829 0.90976
-11.5429 400.169 39.0007 0 -0.604281 0.796771 255 255 255 255 0.066829 0.905332
-1.5e-05 389.015 30.5412 0 -0.604281 0.796771 255 255 255 255 0.071109 0.90976
-126.397 400.169 39.0007 0 -0.604281 0.796771 255 255 255 255 0.066829 0.861268
-131.985 389.015 30.5412 0 -0.604281 0.796771 255 255 255 255 0.071109 0.859124
-106.087 400.169 39.0007 0 -0.604281 0.796771 255 255 255 255 0.066829 0.86906
-11.5429 400.169 39.0007 -0 -0.604282 0.796771 255 255 255 255 0.066829 0.905332
-64.437 394.383 34.6126 -0 -0.604282 0.796771 255 255 255 255 0.069049 0.885039
-1.5e-05 389.015 30.5412 -0 -0.604282 0.796771 255 255 255 255 0.071109 0.90976
-1.5e-05 389.015 30.5412 0 -0.604279 0.796773 255 255 255 255 0.071109 0.90976
-64.437 394.383 34.6126 0 -0.604279 0.796773 255 255 255 255 0.069049 0.885039
-131.985 389.015 30.5412 0 -0.604279 0.796773 255 255 255 255 0.071109 0.859124
-131.985 389.015 30.5412 0 -0.604282 0.796771 255 255 255 255 0.071109 0.859124
-106.087 400.169 39.0007 0 -0.604282 0.796771 255 255 255 255 0.066829 0.86906
-1.6e-05 500 30.5412 0 0.604316 0.796745 255 255 255 255 0.028529 0.90976
-126.397 488.846 39.0012 0 0.604316 0.796745 255 255 255 255 0.032808 0.861268
-1.5e-05 488.846 39.0012 0 0.604316 0.796745 255 255 255 255 0.032808 0.90976
-1.5e-05 400.169 39.0007 1 0 -0 255 255 255 255 0.053134 0.953193
-1.6e-05 500 30.5412 1 0 -0 255 255 255 255 0.056379 0.991493
-1.5e-05 488.846 39.0012 1 0 -0 255 255 255 255 0.053134 0.987214
-278.982 441.715 39.0012 8e-06 7e-06 1 255 255 255 255 0.476671 0.963487
-251.371 407.34 39.0012 8e-06 7e-06 1 255 255 255 255 0.466079 0.976676
-221.019 441.715 39.0007 8e-06 7e-06 1 255 255 255 255 0.454434 0.963487
-278.982 441.715 39.0012 8e-06 0 1 255 255 255 255 0.476671 0.963487
-221.019 500 39.0007 8e-06 0 1 255 255 255 255 0.454434 0.941126
-278.982 500 39.0012 8e-06 0 1 255 255 255 255 0.476671 0.941126
-286.272 437.534 30.5412 -0.556436 -0.446935 0.700449 255 255 255 255 0.037653 0.97278
-251.371 407.34 39.0012 -0.556436 -0.446935 0.700449 255 255 255 255 0.024263 0.984363
-278.982 441.715 39.0012 -0.556436 -0.446935 0.700449 255 255 255 255 0.034856 0.971175
-213.728 437.534 30.5412 0.446089 -0.322187 0.834985 255 255 255 255 0.009821 0.97278
-251.371 407.34 39.0012 0.446089 -0.322187 0.834985 255 255 255 255 0.024263 0.984363
-250 387.312 30.5412 0.446089 -0.322187 0.834985 255 255 255 255 0.023737 0.992047
-213.728 500 30.5412 0.757493 0 0.652843 255 255 255 255 0.009821 0.948814
-221.019 441.715 39.0007 0.757493 0 0.652843 255 255 255 255 0.012619 0.971175
-213.728 437.534 30.5412 0.757493 0 0.652843 255 255 255 255 0.009821 0.97278
-286.272 500 30.5412 -0.757521 0 0.652811 255 255 255 255 0.037653 0.948814
-278.982 441.715 39.0012 -0.757521 0 0.652811 255 255 255 255 0.034856 0.971175
-278.982 500 39.0012 -0.757521 0 0.652811 255 255 255 255 0.034856 0.948814
-221.019 500 39.0007 1e-06 1 -0 255 255 255 255 0.082676 0.973949
-286.272 500 30.5412 1e-06 1 -0 255 255 255 255 0.079431 0.948914
-278.982 500 39.0012 1e-06 1 -0 255 255 255 255 0.082676 0.951711
-371.345 394.625 34.7969 -0.067562 -0.214621 0.974358 255 255 255 255 0.160299 0.946099
-361.492 410.611 39.0012 -0.067562 -0.214621 0.974358 255 255 255 255 0.154166 0.949879
-374.122 414.586 39.0011 -0.067562 -0.214621 0.974358 255 255 255 255 0.152641 0.945033
-371.345 394.625 34.7969 0.083917 -0.194178 0.97737 255 255 255 255 0.160299 0.946099
-374.122 414.586 39.0011 0.083917 -0.194178 0.97737 255 255 255 255 0.152641 0.945033
-407.485 400.168 39.0012 0.083917 -0.194178 0.97737 255 255 255 255 0.158172 0.932234
-368.533 500 30.5412 0.363968 0.440204 0.820821 255 255 255 255 0.119872 0.947177
-320.496 444.507 39.0012 0.363968 0.440204 0.820821 255 255 255 255 0.141162 0.965607
-301.417 444.507 30.5412 0.363968 0.440204 0.820821 255 255 255 255 0.141162 0.972926
-500 500 30.5412 0 0.604277 0.796774 255 255 255 255 0.119872 0.89674
-374.122 488.846 39.0007 0 0.604277 0.796774 255 255 255 255 0.124151 0.945033
-368.533 500 30.5412 0 0.604277 0.796774 255 255 255 255 0.119872 0.947177
-500 488.846 39.0007 -1 0 -0 255 255 255 255 0.062567 0.987214
-500 389.015 30.5412 -1 0 -0 255 255 255 255 0.059321 0.948914
-500 400.168 39.0012 -1 0 -0 255 255 255 255 0.062567 0.953193
-1.6e-05 500 30.5412 0 0 1 255 255 255 255 0.040708 0.94733
-87.6346 364.266 30.5412 0 0 1 255 255 255 255 0.092783 0.913709
-56.6463 335.368 30.5413 0 0 1 255 255 255 255 0.10387 0.925597
-87.6346 364.266 30.5412 -0.582977 -0.625141 0.518977 255 255 255 255 0.177796 0.895156
-63.0475 330.01 16.8967 -0.582977 -0.625141 0.518977 255 255 255 255 0.172561 0.882013
-56.6463 335.368 30.5413 -0.582977 -0.625141 0.518977 255 255 255 255 0.177796 0.884069
-436.953 330.01 16.8967 0.582977 -0.62514 0.518978 255 255 255 255 0.133727 0.882013
-412.365 364.266 30.5412 0.582977 -0.62514 0.518978 255 255 255 255 0.128493 0.895156
-443.354 335.368 30.5413 0.582977 -0.62514 0.518978 255 255 255 255 0.128493 0.884069
-443.354 5e-06 30.5413 0 -1 0 255 255 255 255 0.085618 0.970646
-436.953 3e-06 16.8968 0 -1 0 255 255 255 255 0.090853 0.973102
-63.0475 3e-06 16.8968 0 -1 0 255 255 255 255 0.11715 0.948914
-1.5e-05 5e-06 30.5413 0 -1 0 255 255 255 255 0.111915 0.973102
-56.6463 5e-06 30.5413 0 -1 0 255 255 255 255 0.111915 0.95137
-443.354 335.368 30.5413 -0 0 1 255 255 255 255 0.10387 0.777237
-412.365 364.266 30.5412 -0 0 1 255 255 255 255 0.092783 0.789126
-500.259 500 30.5412 -0 0 1 255 255 255 255 0.040708 0.755405
-262.149 364.266 30.5412 0 0 1 255 255 255 255 0.092783 0.846757
-303.978 371.412 30.5412 -0 0 1 255 255 255 255 0.090041 0.830709
-369.217 364.266 30.5412 0 0 1 255 255 255 255 0.092783 0.805679
-87.6346 364.266 30.5412 0 -0.895163 0.445739 255 255 255 255 0.102623 0.879988
-262.149 364.266 30.5412 0 -0.895163 0.445739 255 255 255 255 0.102623 0.813036
-93.0099 357.472 16.8967 0 -0.895163 0.445739 255 255 255 255 0.107858 0.877926
-412.365 364.266 30.5412 1e-06 -0.895163 0.44574 255 255 255 255 0.102623 0.755405
-406.99 357.472 16.8967 1e-06 -0.895163 0.44574 255 255 255 255 0.107858 0.757467
-369.217 364.266 30.5412 1e-06 -0.895163 0.44574 255 255 255 255 0.102623 0.771959
-369.217 364.266 30.5412 -0 -0.895162 0.445741 255 255 255 255 0.102623 0.771959
-406.99 357.472 16.8967 -0 -0.895162 0.445741 255 255 255 255 0.107858 0.757467
-309.643 359.941 21.8538 -0 -0.895162 0.445741 255 255 255 255 0.105956 0.794815
-406.99 357.472 16.8967 0 -0.895162 0.44574 255 255 255 255 0.107858 0.757467
-93.0099 357.472 16.8967 0 -0.895162 0.44574 255 255 255 255 0.107858 0.877926
-309.643 359.941 21.8538 0 -0.895162 0.44574 255 255 255 255 0.105956 0.794815
-309.643 359.941 21.8538 -0 -0.895163 0.445739 255 255 255 255 0.105956 0.794815
-63.0475 330.01 16.8967 -0.675677 -0.737198 0 255 255 255 255 0.172561 0.882013
-93.0099 357.472 -16.8968 -0.675677 -0.737198 0 255 255 255 255 0.159596 0.892549
-63.0475 330.01 -16.8968 -0.675677 -0.737198 0 255 255 255 255 0.159596 0.882013
-406.99 357.472 16.8967 0.675677 -0.737198 0 255 255 255 255 0.133727 0.892549
-436.953 330.01 -16.8968 0.675677 -0.737198 0 255 255 255 255 0.146692 0.882013
-406.99 357.472 -16.8968 0.675677 -0.737198 0 255 255 255 255 0.146692 0.892549
-406.99 357.472 -16.8968 -0 -1 -0 255 255 255 255 0.120823 0.757467
-326.598 357.472 -16.8968 -0 -1 -0 255 255 255 255 0.120823 0.78831
-406.99 357.472 16.8967 -0 -1 -0 255 255 255 255 0.107858 0.757467
-93.0099 357.472 16.8967 -0 -1 0 255 255 255 255 0.107858 0.877926
-93.0099 357.472 -16.8968 -0 -1 -0 255 255 255 255 0.120823 0.877926
-436.953 170.385 -16.8968 0.905323 -0 -0.424724 255 255 255 255 0.146692 0.820774
-436.953 -3e-06 -16.8968 0.905323 -0 -0.424724 255 255 255 255 0.146692 0.755405
-438.949 170.304 -21.1521 0.905323 -0 -0.424724 255 255 255 255 0.148325 0.820742
-443.354 -5e-06 -30.5413 0.905323 -0 -0.424724 255 255 255 255 0.151927 0.755405
-443.354 40.5165 -30.5413 0.905323 -0 -0.424724 255 255 255 255 0.151927 0.770949
-500 -5e-06 -30.5413 -0 -0 -1 255 255 255 255 0.01038 0.756049
-443.354 237.484 -30.5413 0 -0 -1 255 255 255 255 0.101491 0.777781
-449.289 172.697 -30.5413 -0 -0 -1 255 255 255 255 0.076635 0.775504
-443.354 -5e-06 -30.5413 0 -0 -1 255 255 255 255 0.01038 0.777781
-443.354 40.5165 -30.5413 0 -0 -1 255 255 255 255 0.025924 0.777781
-436.953 167.926 13.2665 1 0 -0 255 255 255 255 0.13512 0.81983
-436.953 -3e-06 -16.8968 1 0 -0 255 255 255 255 0.146692 0.755405
-436.953 170.385 -16.8968 1 0 -0 255 255 255 255 0.146692 0.820774
-500.259 500 -30.5414 -1 -0.000519 0 255 255 255 255 0.014839 0.94723
-500 5e-06 30.5413 -1 -0.000519 0 255 255 255 255 0.038274 0.755405
-500.259 500 30.5412 -1 -0.000519 0 255 255 255 255 0.038274 0.94723
-500 5e-06 30.5413 0 0 1 255 255 255 255 0.232534 0.755505
-448.901 93.2535 30.5413 -0 0 1 255 255 255 255 0.196757 0.775109
-443.354 5e-06 30.5413 0 0 1 255 255 255 255 0.232534 0.777237
-448.901 93.2535 30.5413 0.794945 0.013112 0.606539 255 255 255 255 0.128493 0.791182
-436.953 3e-06 16.8968 0.794945 0.013112 0.606539 255 255 255 255 0.133727 0.755405
-436.953 167.926 13.2665 0.794945 0.013112 0.606539 255 255 255 255 0.13512 0.81983
-50.0696 216.788 -30.5413 -0.777735 0.006998 -0.628553 255 255 255 255 0.154362 0.838576
-63.0475 -3e-06 -16.8968 -0.777735 0.006998 -0.628553 255 255 255 255 0.159596 0.755405
-63.0475 271.331 -13.876 -0.777735 0.006998 -0.628553 255 255 255 255 0.160755 0.859501
-1.5e-05 -5e-06 -30.5413 0 -0 -1 255 255 255 255 0.01038 0.947874
-50.0696 216.788 -30.5413 0 -0 -1 255 255 255 255 0.093551 0.928665
-56.6463 -5e-06 -30.5413 0 -0 -1 255 255 255 255 0.01038 0.926142
-1.5e-05 5e-06 30.5413 -0 0 1 255 255 255 255 0.232534 0.94733
-56.6463 306.846 30.5413 0 0 1 255 255 255 255 0.114812 0.925597
-56.6463 306.846 30.5413 -1e-06 -0 1 255 255 255 255 0.114812 0.925597
-47.7217 252.405 30.5413 -1e-06 -0 1 255 255 255 255 0.135699 0.929022
-1.5e-05 5e-06 30.5413 -1e-06 -0 1 255 255 255 255 0.232534 0.94733
-47.7217 252.405 30.5413 -0 0 1 255 255 255 255 0.135699 0.929022
-56.6463 194.865 30.5413 -0 0 1 255 255 255 255 0.157774 0.925597
-56.6463 5e-06 30.5413 0 0 1 255 255 255 255 0.232534 0.925597
-60.1044 250.76 23.1701 -0.905323 0 0.424725 255 255 255 255 0.174968 0.85161
-63.0475 249.346 16.8967 -0.905323 0 0.424725 255 255 255 255 0.172561 0.851067
-56.6463 194.865 30.5413 -0.905323 0 0.424725 255 255 255 255 0.177796 0.830165
-63.0475 249.346 16.8967 -0.905323 0 0.424724 255 255 255 255 0.172561 0.851067
-63.0475 3e-06 16.8968 -0.905323 0 0.424724 255 255 255 255 0.172561 0.755405
-56.6463 194.865 30.5413 -0.905323 0 0.424724 255 255 255 255 0.177796 0.830165
-56.6463 5e-06 30.5413 -0.905323 0 0.424724 255 255 255 255 0.177796 0.755405
-1.6e-05 500 30.5412 1 0 0 255 255 255 255 0.180231 0.94723
-1.5e-05 -5e-06 -30.5413 1 0 0 255 255 255 255 0.203665 0.755405
-1.6e-05 500 -30.5414 1 0 0 255 255 255 255 0.203665 0.94723
-63.0475 249.346 16.8967 -1 0 -0 255 255 255 255 0.172561 0.851067
-63.0475 -3e-06 -16.8968 -1 0 -0 255 255 255 255 0.159596 0.755405
-63.0475 3e-06 16.8968 -1 0 -0 255 255 255 255 0.172561 0.755405
-264.473 364.266 -30.5414 0 -0.895162 -0.445741 255 255 255 255 0.126058 0.812144
-93.0099 357.472 -16.8968 0 -0.895162 -0.445741 255 255 255 255 0.120823 0.877926
-326.598 357.472 -16.8968 0 -0.895162 -0.445741 255 255 255 255 0.120823 0.78831
-406.99 357.472 -16.8968 0 -0.895164 -0.445738 255 255 255 255 0.120823 0.757467
-359.315 364.266 -30.5414 0 -0.895164 -0.445738 255 255 255 255 0.126058 0.775758
-326.598 357.472 -16.8968 0 -0.895164 -0.445738 255 255 255 255 0.120823 0.78831
-326.598 357.472 -16.8968 -0.107734 -0.602723 -0.790644 255 255 255 255 0.147525 0.822574
-317.704 373.781 -30.5414 -0.107734 -0.602723 -0.790644 255 255 255 255 0.153781 0.825987
-264.473 364.266 -30.5414 -0.107734 -0.602723 -0.790644 255 255 255 255 0.150131 0.846409
-326.598 357.472 -16.8968 0.094964 0.963539 0.250149 255 255 255 255 0.070743 0.961466
-359.315 364.266 -30.5414 0.094964 0.963539 0.250149 255 255 255 255 0.065509 0.948914
-326.598 357.472 -16.8968 0.094964 0.963539 0.250149 255 255 255 255 0.070743 0.961466
-359.315 364.266 -30.5414 0.156059 -0.682492 -0.714038 255 255 255 255 0.150131 0.810023
-317.704 373.781 -30.5414 0.156059 -0.682492 -0.714038 255 255 255 255 0.153781 0.825987
-326.598 357.472 -16.8968 0.156059 -0.682492 -0.714038 255 255 255 255 0.147525 0.822574
-438.949 170.304 -21.1521 0.66327 -0.060759 -0.74591 255 255 255 255 0.075717 0.779471
-449.289 172.697 -30.5413 0.66327 -0.060759 -0.74591 255 255 255 255 0.076635 0.775504
-443.354 237.484 -30.5413 0.66327 -0.060759 -0.74591 255 255 255 255 0.101491 0.777781
-443.354 237.484 -30.5413 0.196857 0.148358 0.969143 255 255 255 255 0.167194 0.89674
-438.949 170.304 -21.1521 0.196857 0.148358 0.969143 255 255 255 255 0.165504 0.922514
-438.949 170.304 -21.1521 0.196857 0.148358 0.969143 255 255 255 255 0.165504 0.922514
-438.949 170.304 -21.1521 0.198462 -0.077418 0.977046 255 255 255 255 0.165504 0.922514
-438.949 170.304 -21.1521 0.198462 -0.077418 0.977046 255 255 255 255 0.165504 0.922514
-443.354 40.5165 -30.5413 0.198462 -0.077418 0.977046 255 255 255 255 0.167194 0.972307
-443.354 40.5165 -30.5413 0.675785 0.030342 -0.736474 255 255 255 255 0.025924 0.777781
-449.289 172.697 -30.5413 0.675785 0.030342 -0.736474 255 255 255 255 0.076635 0.775504
-438.949 170.304 -21.1521 0.675785 0.030342 -0.736474 255 255 255 255 0.075717 0.779471
-432.909 394.043 -34.355 -0.055873 -0.288278 -0.955915 255 255 255 255 0.076168 0.907312
-442.803 411.367 -39.0013 -0.055873 -0.288278 -0.955915 255 255 255 255 0.082814 0.903516
-385.023 400.168 -39.0013 -0.055873 -0.288278 -0.955915 255 255 255 255 0.078518 0.925683
-472.705 400.168 -39.0013 0.080533 -0.215029 -0.973282 255 255 255 255 0.078518 0.892044
-442.803 411.367 -39.0013 0.080533 -0.215029 -0.973282 255 255 255 255 0.082814 0.903516
-432.909 394.043 -34.355 0.080533 -0.215029 -0.973282 255 255 255 255 0.076168 0.907312
-60.1044 250.76 23.1701 -0.501691 -0.082242 0.861129 255 255 255 255 0.174968 0.85161
-47.7217 252.405 30.5413 -0.501691 -0.082242 0.861129 255 255 255 255 0.177796 0.85224
-56.6463 306.846 30.5413 -0.501691 -0.082242 0.861129 255 255 255 255 0.177796 0.873127
-56.6463 194.865 30.5413 -0.517709 0.080299 0.85178 255 255 255 255 0.177796 0.830165
-47.7217 252.405 30.5413 -0.517709 0.080299 0.85178 255 255 255 255 0.177796 0.85224
-60.1044 250.76 23.1701 -0.517709 0.080299 0.85178 255 255 255 255 0.174968 0.85161
-309.643 359.941 21.8538 0.068295 -0.623523 0.778817 255 255 255 255 0.105956 0.794815
-303.978 371.412 30.5412 0.068295 -0.623523 0.778817 255 255 255 255 0.102623 0.796988
-369.217 364.266 30.5412 0.068295 -0.623523 0.778817 255 255 255 255 0.102623 0.771959
-262.149 364.266 30.5412 -0.097349 -0.569857 0.815957 255 255 255 255 0.102623 0.813036
-303.978 371.412 30.5412 -0.097349 -0.569857 0.815957 255 255 255 255 0.102623 0.796988
-309.643 359.941 21.8538 -0.097349 -0.569857 0.815957 255 255 255 255 0.105956 0.794815
-368.533 389.015 30.5412 0 -0.604317 0.796744 255 255 255 255 0.162451 0.947177
-371.345 394.625 34.7969 0 -0.604317 0.796744 255 255 255 255 0.160299 0.946099
-500 389.015 30.5412 0 -0.604317 0.796744 255 255 255 255 0.162451 0.89674
-371.345 394.625 34.7969 -0 -0.604315 0.796745 255 255 255 255 0.160299 0.946099
-407.485 400.168 39.0012 -0 -0.604315 0.796745 255 255 255 255 0.158172 0.932234
-500 389.015 30.5412 -0 -0.604315 0.796745 255 255 255 255 0.162451 0.89674
-500 389.015 30.5412 0 -0.604316 0.796745 255 255 255 255 0.162451 0.89674
-407.485 400.168 39.0012 0 -0.604316 0.796745 255 255 255 255 0.158172 0.932234
-500 400.168 39.0012 0 -0.604316 0.796745 255 255 255 255 0.158172 0.89674
-301.417 444.507 30.5412 0.363968 -0.440204 0.820821 255 255 255 255 0.141162 0.972926
-320.496 444.507 39.0012 0.363968 -0.440204 0.820821 255 255 255 255 0.141162 0.965607
-368.533 389.015 30.5412 0.363968 -0.440204 0.820821 255 255 255 255 0.162451 0.947177
-368.533 389.015 30.5412 0.363971 -0.440207 0.820818 255 255 255 255 0.162451 0.947177
-320.496 444.507 39.0012 0.363971 -0.440207 0.820818 255 255 255 255 0.141162 0.965607
-371.345 394.625 34.7969 0.363971 -0.440207 0.820818 255 255 255 255 0.160299 0.946099
-320.496 444.507 39.0012 0.363968 -0.440204 0.820822 255 255 255 255 0.141162 0.965607
-361.492 410.611 39.0012 0.363968 -0.440204 0.820822 255 255 255 255 0.154166 0.949879
-371.345 394.625 34.7969 0.363968 -0.440204 0.820822 255 255 255 255 0.160299 0.946099
-374.122 414.586 39.0011 -5e-06 6e-06 1 255 255 255 255 0.403195 0.937345
-320.496 444.507 39.0012 -5e-06 6e-06 1 255 255 255 255 0.391716 0.957919
-374.122 488.846 39.0007 -5e-06 6e-06 1 255 255 255 255 0.374705 0.937345
-374.122 488.846 39.0007 -0 6e-06 1 255 255 255 255 0.374705 0.937345
-500 488.846 39.0007 -0 6e-06 1 255 255 255 255 0.374705 0.889052
-374.122 414.586 39.0011 -0 6e-06 1 255 255 255 255 0.403195 0.937345
-407.485 400.168 39.0012 0 6e-06 1 255 255 255 255 0.408727 0.924546
-500 400.168 39.0012 0 6e-06 1 255 255 255 255 0.408727 0.889052
-11.5429 400.169 39.0007 -0.059858 -0.195222 0.978931 255 255 255 255 0.066829 0.905332
-59.3772 414.836 39.0008 -0.059858 -0.195222 0.978931 255 255 255 255 0.061202 0.88698
-64.437 394.383 34.6126 -0.059858 -0.195222 0.978931 255 255 255 255 0.069049 0.885039
-64.437 394.383 34.6126 0.070963 -0.226 0.971539 255 255 255 255 0.069049 0.885039
-59.3772 414.836 39.0008 0.070963 -0.226 0.971539 255 255 255 255 0.061202 0.88698
-106.087 400.169 39.0007 0.070963 -0.226 0.971539 255 255 255 255 0.066829 0.86906
-56.6463 335.368 30.5413 -0.905323 0 0.424724 255 255 255 255 0.177796 0.884069
-63.0475 330.01 16.8967 -0.905323 0 0.424724 255 255 255 255 0.172561 0.882013
-56.6463 306.846 30.5413 -0.905323 0 0.424724 255 255 255 255 0.177796 0.873127
-63.0475 249.346 16.8967 -0.905322 0 0.424725 255 255 255 255 0.172561 0.851067
-60.1044 250.76 23.1701 -0.905322 0 0.424725 255 255 255 255 0.174968 0.85161
-63.0475 330.01 16.8967 -0.905322 0 0.424725 255 255 255 255 0.172561 0.882013
-63.0475 330.01 16.8967 -0.905323 -0 0.424723 255 255 255 255 0.172561 0.882013
-60.1044 250.76 23.1701 -0.905323 -0 0.424723 255 255 255 255 0.174968 0.85161
-56.6463 306.846 30.5413 -0.905323 -0 0.424723 255 255 255 255 0.177796 0.873127
-63.0475 330.01 16.8967 -1 0 0 255 255 255 255 0.172561 0.882013
-63.0475 271.331 -13.876 -1 0 0 255 255 255 255 0.160755 0.859501
-56.6463 335.368 -30.5414 -0.901715 -0.022227 -0.431759 255 255 255 255 0.154362 0.884069
-63.0475 271.331 -13.876 -0.901715 -0.022227 -0.431759 255 255 255 255 0.160755 0.859501
-63.0475 330.01 -16.8968 -0.901715 -0.022227 -0.431759 255 255 255 255 0.159596 0.882013
-443.354 335.368 -30.5414 0.905323 -0 -0.424724 255 255 255 255 0.151927 0.884069
-436.953 330.01 -16.8968 0.905323 -0 -0.424724 255 255 255 255 0.146692 0.882013
-443.354 237.484 -30.5413 0.905323 -0 -0.424724 255 255 255 255 0.151927 0.846516
-436.953 330.01 16.8967 1 0 -0 255 255 255 255 0.133727 0.882013
-436.953 330.01 -16.8968 1 0 -0 255 255 255 255 0.146692 0.882013
-443.354 335.368 30.5413 0.903829 -0.009581 0.427786 255 255 255 255 0.128493 0.884069
-436.953 167.926 13.2665 0.903829 -0.009581 0.427786 255 255 255 255 0.13512 0.81983
-436.953 330.01 16.8967 0.903829 -0.009581 0.427786 255 255 255 255 0.133727 0.882013
-1.5e-05 400.169 -39.0008 0 -6e-06 -1 255 255 255 255 0.312443 0.824103
-131.985 500 -30.5414 -0.42762 0.400432 -0.810429 255 255 255 255 0.100189 0.781154
-126.397 488.846 -39.0013 -0.42762 0.400432 -0.810429 255 255 255 255 0.095909 0.783298
-172.144 439.993 -39.0013 -0.42762 0.400432 -0.810429 255 255 255 255 0.077167 0.765747
-172.144 439.993 -39.0013 -0.376576 -0.432594 -0.819178 255 255 255 255 0.077167 0.765747
-126.397 400.169 -39.0008 -0.376576 -0.432594 -0.819178 255 255 255 255 0.061888 0.783298
-131.985 389.015 -30.5414 -0.376576 -0.432594 -0.819178 255 255 255 255 0.057609 0.781154
-1.5e-05 400.169 -39.0008 -0 -0.604282 -0.796771 255 255 255 255 0.061888 0.83179
-1.5e-05 488.846 -39.0013 0 0.604316 -0.796745 255 255 255 255 0.095909 0.83179
-1.5e-05 488.846 -39.0013 1 0 0 255 255 255 255 0.044004 0.987214
-278.982 500 -39.0013 8e-06 -0 -1 255 255 255 255 0.445734 0.984359
-286.272 437.534 -30.5414 -0.570007 -0.426711 -0.702147 255 255 255 255 0.197976 0.968081
-278.982 441.715 -39.0013 -0.570007 -0.426711 -0.702147 255 255 255 255 0.195179 0.969686
-252.81 406.755 -39.0013 -0.570007 -0.426711 -0.702147 255 255 255 255 0.185139 0.956273
-252.81 406.755 -39.0013 0.530996 -0.482862 -0.696339 255 255 255 255 0.185139 0.956273
-221.019 441.715 -39.0009 0.530996 -0.482862 -0.696339 255 255 255 255 0.172942 0.969686
-213.728 437.534 -30.5414 0.530996 -0.482862 -0.696339 255 255 255 255 0.170145 0.968081
-221.019 500 -39.0009 0.757493 -0 -0.652843 255 255 255 255 0.172942 0.992047
-278.982 500 -39.0013 -0.757521 -0 -0.652811 255 255 255 255 0.195179 0.992047
-221.019 500 -39.0009 1e-06 1 0 255 255 255 255 0.073243 0.973949
-278.982 500 -39.0013 1e-06 1 0 255 255 255 255 0.073243 0.951711
-286.272 500 -30.5414 1e-06 1 0 255 255 255 255 0.076489 0.948914
-368.533 389.015 -30.5414 0.368186 -0.437688 -0.820286 255 255 255 255 0.074239 0.932009
-374.122 400.168 -39.0013 0.368186 -0.437688 -0.820286 255 255 255 255 0.078518 0.929865
-325.213 441.311 -39.0013 0.368186 -0.437688 -0.820286 255 255 255 255 0.094302 0.948629
-325.213 441.311 -39.0013 0.40395 0.415634 -0.814907 255 255 255 255 0.094302 0.948629
-374.122 488.846 -39.0009 0.40395 0.415634 -0.814907 255 255 255 255 0.112539 0.929865
-368.533 500 -30.5414 0.40395 0.415634 -0.814907 255 255 255 255 0.116819 0.932009
-500 488.846 -39.0009 0 0.604277 -0.796774 255 255 255 255 0.112539 0.881572
-500 400.168 -39.0013 -1 0 0 255 255 255 255 0.046946 0.953193
-87.6346 364.266 -30.5414 -0.582977 -0.625141 -0.518977 255 255 255 255 0.154362 0.895156
-56.6463 335.368 -30.5414 -0.582977 -0.625141 -0.518977 255 255 255 255 0.154362 0.884069
-63.0475 330.01 -16.8968 -0.582977 -0.625141 -0.518977 255 255 255 255 0.159596 0.882013
-412.365 364.266 -30.5414 0.570842 -0.622818 -0.535012 255 255 255 255 0.151927 0.895156
-406.99 357.472 -16.8968 0.570842 -0.622818 -0.535012 255 255 255 255 0.146692 0.892549
-436.953 330.01 -16.8968 0.570842 -0.622818 -0.535012 255 255 255 255 0.146692 0.882013
-1.6e-05 500 -30.5414 0 1 0 255 255 255 255 0.205363 0.947874
-131.985 500 30.5412 -0.282756 0.341983 0.896157 255 255 255 255 0.028529 0.859124
-199.101 444.507 30.5412 -0.282756 0.341983 0.896157 255 255 255 255 0.049819 0.833375
-173.92 443.158 39.0012 -0.282756 0.341983 0.896157 255 255 255 255 0.050336 0.843036
-131.985 389.015 30.5412 -0.386068 -0.426793 0.817801 255 255 255 255 0.071109 0.859124
-126.397 400.169 39.0007 -0.386068 -0.426793 0.817801 255 255 255 255 0.066829 0.861268
-173.92 443.158 39.0012 -0.386068 -0.426793 0.817801 255 255 255 255 0.050336 0.843036
-1.6e-05 500 30.5412 -0 0.604316 0.796744 255 255 255 255 0.028529 0.90976
-131.985 500 30.5412 -0 0.604316 0.796744 255 255 255 255 0.028529 0.859124
-126.397 488.846 39.0012 -0 0.604316 0.796744 255 255 255 255 0.032808 0.861268
-1.5e-05 389.015 30.5412 1 0 -0 255 255 255 255 0.056379 0.948914
-221.019 441.715 39.0007 8e-06 0 1 255 255 255 255 0.454434 0.963487
-286.272 437.534 30.5412 -0.505253 -0.364917 0.78202 255 255 255 255 0.037653 0.97278
-250 387.312 30.5412 -0.505253 -0.364917 0.78202 255 255 255 255 0.023737 0.992047
-251.371 407.34 39.0012 -0.505253 -0.364917 0.78202 255 255 255 255 0.024263 0.984363
-213.728 437.534 30.5412 0.5372 -0.474309 0.697458 255 255 255 255 0.009821 0.97278
-221.019 441.715 39.0007 0.5372 -0.474309 0.697458 255 255 255 255 0.012619 0.971175
-251.371 407.34 39.0012 0.5372 -0.474309 0.697458 255 255 255 255 0.024263 0.984363
-221.019 500 39.0007 0.757493 0 0.652843 255 255 255 255 0.012619 0.948814
-286.272 437.534 30.5412 -0.757521 0 0.652811 255 255 255 255 0.037653 0.97278
-221.019 500 39.0007 0 1 0 255 255 255 255 0.082676 0.973949
-213.728 500 30.5412 0 1 0 255 255 255 255 0.079431 0.976746
-286.272 500 30.5412 0 1 0 255 255 255 255 0.079431 0.948914
-368.533 500 30.5412 0.363941 0.440184 0.820844 255 255 255 255 0.119872 0.947177
-374.122 488.846 39.0007 0.363941 0.440184 0.820844 255 255 255 255 0.124151 0.945033
-320.496 444.507 39.0012 0.363941 0.440184 0.820844 255 255 255 255 0.141162 0.965607
-500 488.846 39.0007 0 0.604277 0.796774 255 255 255 255 0.124151 0.89674
-500 500 30.5412 -1 0 0 255 255 255 255 0.059321 0.991493
-87.6346 364.266 30.5412 -0.570842 -0.622818 0.535012 255 255 255 255 0.177796 0.895156
-93.0099 357.472 16.8967 -0.570842 -0.622818 0.535012 255 255 255 255 0.172561 0.892549
-63.0475 330.01 16.8967 -0.570842 -0.622818 0.535012 255 255 255 255 0.172561 0.882013
-436.953 330.01 16.8967 0.570842 -0.622817 0.535012 255 255 255 255 0.133727 0.882013
-406.99 357.472 16.8967 0.570842 -0.622817 0.535012 255 255 255 255 0.133727 0.892549
-412.365 364.266 30.5412 0.570842 -0.622817 0.535012 255 255 255 255 0.128493 0.895156
-93.0099 357.472 16.8967 -0.675677 -0.737198 0 255 255 255 255 0.172561 0.892549
-436.953 330.01 16.8967 0.675677 -0.737198 0 255 255 255 255 0.133727 0.882013
-436.953 3e-06 16.8968 1 -0 0 255 255 255 255 0.133727 0.755405
-500 -5e-06 -30.5413 -1 -0.000519 0 255 255 255 255 0.014839 0.755405
-448.901 93.2535 30.5413 0.904013 0.05378 0.42411 255 255 255 255 0.128493 0.791182
-443.354 5e-06 30.5413 0.904013 0.05378 0.42411 255 255 255 255 0.128493 0.755405
-436.953 3e-06 16.8968 0.904013 0.05378 0.42411 255 255 255 255 0.133727 0.755405
-50.0696 216.788 -30.5413 -0.904982 0.027454 -0.424563 255 255 255 255 0.154362 0.838576
-56.6463 -5e-06 -30.5413 -0.904982 0.027454 -0.424563 255 255 255 255 0.154362 0.755405
-63.0475 -3e-06 -16.8968 -0.904982 0.027454 -0.424563 255 255 255 255 0.159596 0.755405
-1.5e-05 5e-06 30.5413 1 0 -0 255 255 255 255 0.180231 0.755405
-264.473 364.266 -30.5414 -0 -0.895163 -0.445739 255 255 255 255 0.126058 0.812144
-87.6346 364.266 -30.5414 -0 -0.895163 -0.445739 255 255 255 255 0.126058 0.879988
-93.0099 357.472 -16.8968 -0 -0.895163 -0.445739 255 255 255 255 0.120823 0.877926
-406.99 357.472 -16.8968 -0 -0.895163 -0.445739 255 255 255 255 0.120823 0.757467
-412.365 364.266 -30.5414 -0 -0.895163 -0.445739 255 255 255 255 0.126058 0.755405
-359.315 364.266 -30.5414 -0 -0.895163 -0.445739 255 255 255 255 0.126058 0.775758
-361.492 410.611 39.0012 -5e-06 6e-06 1 255 255 255 255 0.40472 0.942191
-63.0475 330.01 -16.8968 -1 0 0 255 255 255 255 0.159596 0.882013
-56.6463 335.368 -30.5414 -0.857574 -0.047563 -0.512157 255 255 255 255 0.154362 0.884069
-50.0696 216.788 -30.5413 -0.857574 -0.047563 -0.512157 255 255 255 255 0.154362 0.838576
-63.0475 271.331 -13.876 -0.857574 -0.047563 -0.512157 255 255 255 255 0.160755 0.859501
-443.354 335.368 30.5413 0.860103 -0.019708 0.50974 255 255 255 255 0.128493 0.884069
-448.901 93.2535 30.5413 0.860103 -0.019708 0.50974 255 255 255 255 0.128493 0.791182
-436.953 167.926 13.2665 0.860103 -0.019708 0.50974 255 255 255 255 0.13512 0.81983
3 0 1 2 
3 3 4 5 
3 6 7 8 
3 9 10 11 
3 12 13 14 
3 15 16 17 
3 18 19 20 
3 21 22 23 
3 24 25 26 
3 27 28 29 
3 30 31 32 
3 33 34 35 
3 36 37 38 
3 39 40 41 
3 42 43 44 
3 45 46 47 
3 47 46 48 
3 46 49 48 
3 49 50 48 
3 50 51 48 
3 52 53 54 
3 55 56 57 
3 58 59 60 
3 61 62 63 
3 64 65 66 
3 66 65 67 
3 68 69 70 
3 63 62 67 
3 71 72 73 
3 74 75 76 
3 77 78 79 
3 80 81 82 
3 83 84 85 
3 86 87 88 
3 89 90 91 
3 92 93 94 
3 93 74 94 
3 94 74 95 
3 95 74 96 
3 96 74 97 
3 74 76 97 
3 98 99 100 
3 87 101 88 
3 102 103 104 
3 105 106 107 
3 106 108 107 
3 108 109 107 
3 110 107 111 
3 109 111 107 
3 112 113 114 
3 115 116 117 
3 118 119 120 
3 121 122 123 
3 124 125 126 
3 127 128 129 
3 130 125 131 
3 132 133 134 
3 135 136 137 
3 138 139 140 
3 141 142 143 
3 144 145 146 
3 147 148 149 
3 150 151 152 
3 153 154 155 
3 156 157 158 
3 159 160 161 
3 162 163 164 
3 165 166 167 
3 168 169 170 
3 171 172 173 
3 174 175 176 
3 177 178 179 
3 180 181 182 
3 183 101 184 
3 185 186 187 
3 188 189 190 
3 174 190 175 
3 175 190 191 
3 191 190 192 
3 192 190 193 
3 189 193 190 
3 194 195 196 
3 197 198 199 
3 200 201 202 
3 203 204 205 
3 196 195 206 
3 207 208 209 
3 210 211 212 
3 186 89 91 
3 213 214 215 
3 215 214 216 
3 214 217 216 
3 218 219 220 
3 221 222 219 
3 220 219 222 
3 93 92 223 
3 92 224 223 
3 224 225 223 
3 226 223 227 
3 225 227 223 
3 228 229 230 
3 231 232 233 
3 190 234 188 
3 188 234 235 
3 234 236 235 
3 237 238 239 
3 240 241 242 
3 74 243 75 
3 75 243 244 
3 243 245 244 
3 174 176 246 
3 176 247 246 
3 248 249 250 
3 251 252 246 
3 252 253 246 
3 254 255 256 
3 257 258 259 
3 258 260 259 
3 261 262 263 
3 264 265 266 
3 267 268 269 
3 270 271 272 
3 273 274 275 
3 276 277 278 
3 279 280 281 
3 282 283 284 
3 285 286 287 
3 288 289 290 
3 291 292 293 
3 294 295 296 
3 297 298 299 
3 300 301 302 
3 303 304 305 
3 306 307 308 
3 309 310 311 
3 312 313 314 
3 315 316 317 
3 318 319 320 
3 321 322 323 
3 324 325 326 
3 327 328 329 
3 330 331 332 
3 333 334 335 
3 335 334 336 
3 336 334 337 
3 338 339 340 
3 341 342 343 
3 344 345 346 
3 347 348 349 
3 350 351 352 
3 353 354 264 
3 355 356 357 
3 358 359 360 
3 218 220 359 
3 359 220 360 
3 361 230 362 
3 363 364 365 
3 3 366 4 
3 367 368 369 
3 370 371 372 
3 12 373 13 
3 15 374 16 
3 18 375 19 
3 24 376 25 
3 377 378 379 
3 380 381 382 
3 33 383 34 
3 36 384 37 
3 385 386 387 
3 388 389 390 
3 391 392 393 
3 58 394 59 
3 71 395 72 
3 396 397 398 
3 399 400 401 
3 98 402 99 
3 87 184 101 
3 403 404 405 
3 406 407 408 
3 409 410 411 
3 135 412 136 
3 141 413 142 
3 414 415 416 
3 417 418 419 
3 150 420 151 
3 153 421 154 
3 422 423 424 
3 425 426 427 
3 168 428 169 
3 171 429 172 
3 430 431 432 
3 433 434 435 
3 207 436 208 
3 210 437 211 
3 186 185 89 
3 228 438 229 
3 231 439 232 
3 440 441 442 
3 443 444 445 
3 261 446 262 
3 264 354 265 
3 447 448 449 
3 450 451 452 
3 330 453 331 
3 353 454 354 
3 455 456 457 
3 361 228 230 
3 458 459 460 
