ply
format ascii 1.0
comment VCGLIB generated
comment TextureFile dummy.png
element vertex 379
property float x
property float y
property float z
property float nx
property float ny
property float nz
property float texture_u
property float texture_v
element face 187
property list uchar int vertex_indices
end_header
453.009 124.022 30.89044 -5.457822e-08 -0.7811831 0.6243021 0.215235 0.56203
500 131.737 40.54434 -5.457822e-08 -0.7811831 0.6243021 0.23736 0.565663
453.009 131.737 40.54434 -5.457822e-08 -0.7811831 0.6243021 0.215235 0.565663
500 204.038 30.89044 -5.457832e-08 0.7811822 0.6243032 0.23736 0.599704
453.009 196.323 40.54434 -5.457832e-08 0.7811822 0.6243032 0.215235 0.596071
500 196.323 40.54434 -5.457832e-08 0.7811822 0.6243032 0.23736 0.596071
453.009 131.737 40.54434 -8.742278e-08 0 1 0.215235 0.815663
500 196.323 40.54434 -8.742278e-08 0 1 0.23736 0.846071
453.009 196.323 40.54434 -8.742278e-08 0 1 0.215235 0.846071
406.966 164.03 30.89043 -0.5383742 0.6195771 0.571207 0.193556 0.580867
426.474 172.08 40.54434 -0.5383742 0.6195771 0.571207 0.202741 0.584657
453.009 204.038 30.89044 -0.5383742 0.6195771 0.571207 0.215235 0.599704
453.009 204.038 30.89044 -0.5809153 0.6358543 0.5081602 0.215235 0.599704
426.474 172.08 40.54434 -0.5809153 0.6358543 0.5081602 0.202741 0.584657
453.009 196.323 40.54434 -0.5809153 0.6358543 0.5081602 0.215235 0.596071
406.966 164.03 30.89043 -0.5403001 -0.591403 0.5985969 0.193556 0.580867
430.556 152.25 40.54434 -0.5403001 -0.591403 0.5985969 0.204663 0.575321
411.286 164.03 34.78954 -0.5403001 -0.591403 0.5985969 0.19559 0.580867
453.009 124.022 30.89044 -0.5809132 -0.6358562 0.5081601 0.215235 0.56203
453.009 131.737 40.54434 -0.5809132 -0.6358562 0.5081601 0.215235 0.565663
430.556 152.25 40.54434 -0.5809132 -0.6358562 0.5081601 0.204663 0.575321
430.556 152.25 40.54434 -8.742278e-08 0 1 0.204663 0.825321
500 196.323 40.54434 1 0 8.742278e-08 0.23736 0.846071
500 124.022 30.89044 1 0 8.742278e-08 0.23736 0.81203
500 204.038 30.89044 1 0 8.742278e-08 0.23736 0.849704
319.087 171.746 40.74773 -0.03566405 0.7278768 0.6847798 0.15218 0.5845
280.632 179.135 30.89042 -0.03566405 0.7278768 0.6847798 0.134074 0.587531
227.957 167.28 40.74772 -0.03566405 0.7278768 0.6847798 0.109272 0.5845
456.378 74.9949 30.89044 8.742278e-14 -1 -1e-06 0.216821 0.538946
56.4985 74.9949 40.7476 8.742278e-14 -1 -1e-06 0.028544 0.538946
43.6218 74.9949 30.8904 8.742278e-14 -1 -1e-06 0.022481 0.538946
357.161 161.344 40.74773 -8.742278e-08 0 1 0.170106 0.829602
227.957 167.28 40.74772 -8.742278e-08 0 1 0.109272 0.8345
123.351 122.165 40.74761 -8.742278e-08 0 1 0.06002 0.811156
443.501 74.9949 40.74764 0.5194318 0.5193809 0.6785529 0.210758 0.538946
353.199 178.184 30.89043 0.5194318 0.5193809 0.6785529 0.168241 0.587531
351.027 176.012 34.21583 0.5194318 0.5193809 0.6785529 0.167218 0.586509
351.027 176.012 34.21583 0.5194311 0.5193801 0.6785542 0.167218 0.586509
357.161 161.344 40.74773 0.5194311 0.5193801 0.6785542 0.170106 0.579602
443.501 74.9949 40.74764 0.5194311 0.5193801 0.6785542 0.210758 0.538946
146.801 178.184 30.89041 -0.5194372 0.5193831 0.6785471 0.071061 0.587531
144.943 163.448 40.74771 -0.5194372 0.5193831 0.6785471 0.070186 0.580593
153.24 171.746 40.74771 -0.5194372 0.5193831 0.6785471 0.074093 0.5845
46.9913 204.038 30.8904 -5.457822e-08 0.7811831 0.6243021 0.024068 0.599704
-2.299665e-06 196.323 40.5443 -5.457822e-08 0.7811831 0.6243021 0.001942 0.596071
46.99129 196.323 40.5443 -5.457822e-08 0.7811831 0.6243021 0.024068 0.596071
-1.455694e-06 124.022 30.8904 -5.457832e-08 -0.7811822 0.6243032 0.001942 0.56203
46.99129 131.737 40.5443 -5.457832e-08 -0.7811822 0.6243032 0.024068 0.565663
-2.299665e-06 131.737 40.5443 -5.457832e-08 -0.7811822 0.6243032 0.001942 0.565663
46.99129 196.323 40.5443 -8.742278e-08 0 1 0.024068 0.846071
-2.299665e-06 131.737 40.5443 -8.742278e-08 0 1 0.001942 0.815663
46.99129 131.737 40.5443 -8.742278e-08 0 1 0.024068 0.815663
54.23569 138.356 40.5443 0.169024 -0.06489502 0.9834732 0.027478 0.568779
86.6292 164.03 36.67121 0.169024 -0.06489502 0.9834732 0.04273 0.580867
60.0462 153.49 40.5443 0.169024 -0.06489502 0.9834732 0.030214 0.575904
86.6292 164.03 36.67121 0.202912 -0.1565641 0.9665994 0.04273 0.580867
74.0332 171.617 40.5443 0.202912 -0.1565641 0.9665994 0.0368 0.584439
60.0462 153.49 40.5443 0.202912 -0.1565641 0.9665994 0.030214 0.575904
-2.299665e-06 131.737 40.5443 -1 0 -8.742278e-08 0.001942 0.815663
-1.455694e-06 204.038 30.8904 -1 0 -8.742278e-08 0.001942 0.849704
-1.455694e-06 124.022 30.8904 -1 0 -8.742278e-08 0.001942 0.81203
424.061 220.333 30.89043 -0.005371081 -0.4290721 0.9032543 0.201605 0.607897
500 250 45.43454 -0.005371081 -0.4290721 0.9032543 0.23736 0.621345
411.649 251.106 45.43454 -0.005371081 -0.4290721 0.9032543 0.195761 0.621345
1.24483e-06 2e-06 0 0 -1 0 0.001942 0.753636
500 -5e-06 45.43454 0 -1 0 0.23736 0.753636
-2.72718e-06 -5e-06 45.4345 0 -1 0 0.001942 0.753636
500 500 0.0001430511 8.742278e-08 0 -1 0.23736 0.989053
1.24483e-06 2e-06 0 8.742278e-08 0 -1 0.001942 0.753636
1.244822e-06 500 9.918213e-05 8.742278e-08 0 -1 0.001942 0.989053
90.6069 446.955 30.89041 -8.742278e-08 0 1 0.044048 0.963534
-1.455694e-06 304.2 30.8904 -8.742278e-08 0 1 0.001942 0.896864
103.246 304.2 30.89041 -8.742278e-08 0 1 0.050554 0.896864
425.583 444.425 30.89044 -8.742278e-08 0 1 0.202012 0.963534
500 304.2 30.89044 -8.742278e-08 0 1 0.23736 0.896864
500 445.8 30.89044 -8.742278e-08 0 1 0.23736 0.963534
389.445 286 45.43464 -8.742278e-08 0 1 0.185307 0.888295
500 250 45.43454 -8.742278e-08 0 1 0.23736 0.871345
500 286 45.43464 -8.742278e-08 0 1 0.23736 0.888295
286 464 45.43462 -8.742278e-08 0 1 0.136601 0.972103
-2.727189e-06 500 45.4346 -8.742278e-08 0 1 0.001942 0.989053
214 464 45.43462 -8.742278e-08 0 1 0.102701 0.972103
72.7255 462.845 45.4346 -8.742278e-08 0 1 0.036739 0.972103
-2.727189e-06 464 45.4346 -8.742278e-08 0 1 0.001942 0.972103
411.649 251.106 45.43454 -8.742278e-08 0 1 0.195761 0.871345
110.555 286 45.43461 -0.08073706 0.2393579 0.9675688 0.053995 0.638295
147.115 298.332 45.43461 -0.08073706 0.2393579 0.9675688 0.070198 0.645157
118.339 305.187 41.33751 -0.08073706 0.2393579 0.9675688 0.057661 0.647329
216.635 397.871 45.43462 -0.5723921 0 0.8199801 0.102701 0.69337
195.8 445.8 30.89042 -0.5723921 0 0.8199801 0.094132 0.713534
195.8 392.836 30.89042 -0.5723921 0 0.8199801 0.094132 0.688597
72.7255 462.845 45.4346 0.008537937 -0.6698991 0.7424031 0.036739 0.722103
-1.455694e-06 445.8 30.8904 0.008537937 -0.6698991 0.7424031 0.001942 0.713534
90.6069 446.955 30.89041 0.008537937 -0.6698991 0.7424031 0.044048 0.713534
-2.727189e-06 286 45.4346 -6.829479e-08 0.6242793 0.7812013 0.001942 0.638295
103.246 304.2 30.89041 -6.829479e-08 0.6242793 0.7812013 0.050554 0.646864
-1.455694e-06 304.2 30.8904 -6.829479e-08 0.6242793 0.7812013 0.001942 0.646864
500 286 45.43464 -6.829475e-08 0.6242799 0.7812008 0.23736 0.638295
396.754 304.2 30.89043 -6.829475e-08 0.6242799 0.7812008 0.188748 0.646864
389.445 286 45.43464 -6.829475e-08 0.6242799 0.7812008 0.185307 0.638295
500 445.8 30.89044 0.01079193 -0.5841541 0.8115711 0.23736 0.713534
465.816 465.375 45.43464 0.01079193 -0.5841541 0.8115711 0.221575 0.722103
425.583 444.425 30.89044 0.01079193 -0.5841541 0.8115711 0.202012 0.713534
338.648 328.304 45.43463 0.3651939 0.363145 0.857181 0.161673 0.658508
396.754 304.2 30.89043 0.3651939 0.363145 0.857181 0.188748 0.646864
337.51 363.779 30.89043 0.3651939 0.363145 0.857181 0.160727 0.674784
286 464 45.43462 0.5850711 -0.06116401 0.8086722 0.136601 0.722103
283.365 438.792 45.43462 0.5850711 -0.06116401 0.8086722 0.136601 0.707832
304.2 445.8 30.89043 0.5850711 -0.06116401 0.8086722 0.14517 0.713534
500 221.439 30.89044 -8.742278e-08 0 1 0.23736 0.607897
424.061 220.333 30.89043 -8.742278e-08 0 1 0.201605 0.607897
500 105.152 30.89044 -8.742278e-08 0 1 0.23736 0.553145
500 105.152 30.89044 -7.829598e-08 0.4448569 0.8956017 0.23736 0.553145
200.651 82.4264 42.17852 -7.829598e-08 0.4448569 0.8956017 0.096416 0.542445
436.978 81.665 42.55684 -7.829598e-08 0.4448569 0.8956017 0.207687 0.542087
500 -5e-06 45.43454 -8.742278e-08 0 1 0.23736 0.753636
460.469 75.8714 45.43454 -8.742278e-08 0 1 0.218747 0.789359
419.117 66.3543 45.43454 -8.742278e-08 0 1 0.199277 0.784878
283.365 438.792 45.43462 -8.742278e-08 0 1 0.136601 0.957832
-2.72718e-06 250 45.4345 -8.742278e-08 0 1 0.001942 0.871345
110.555 286 45.43461 -8.742278e-08 0 1 0.053995 0.888295
-2.727189e-06 286 45.4346 -8.742278e-08 0 1 0.001942 0.888295
500 464 45.43464 -8.742278e-08 0 1 0.23736 0.972103
500 500 45.43464 -8.742278e-08 0 1 0.23736 0.989053
465.816 465.375 45.43464 -8.742278e-08 0 1 0.221575 0.972103
-2.727189e-06 464 45.4346 -1 0 -8.742278e-08 0.001942 0.972103
1.244822e-06 500 9.918213e-05 -1 0 -8.742278e-08 0.001942 0.989053
-1.455694e-06 445.8 30.8904 -1 0 -8.742278e-08 0.001942 0.963534
500 304.2 30.89044 1 0 8.742278e-08 0.23736 0.896864
500 250 45.43454 1 0 8.742278e-08 0.23736 0.871345
500 221.439 30.89044 1 0 8.742278e-08 0.23736 0.857897
-1.455694e-06 304.2 30.8904 -1 0 -8.742278e-08 0.001942 0.896864
-2.72718e-06 250 45.4345 -1 0 -8.742278e-08 0.001942 0.871345
-2.727189e-06 286 45.4346 -1 0 -8.742278e-08 0.001942 0.888295
1.24483e-06 2e-06 0 -1 0 -8.742278e-08 0.001942 0.753636
-2.72718e-06 75.8714 45.4345 -1 0 -8.742278e-08 0.001942 0.789359
-1.455694e-06 105.152 30.8904 -1 0 -8.742278e-08 0.001942 0.803145
-1.455694e-06 221.439 30.8904 -1 0 -8.742278e-08 0.001942 0.857897
500 2e-06 4.386902e-05 1 0 8.742278e-08 0.23736 0.753636
500 75.8714 45.43454 1 0 8.742278e-08 0.23736 0.789359
500 -5e-06 45.43454 1 0 8.742278e-08 0.23736 0.753636
500 500 0.0001430511 1 0 8.742278e-08 0.23736 0.989053
500 464 45.43464 1 0 8.742278e-08 0.23736 0.972103
500 445.8 30.89044 1 0 8.742278e-08 0.23736 0.963534
500 500 45.43464 0 1 0 0.23736 0.989053
1.244822e-06 500 9.918213e-05 0 1 0 0.001942 0.989053
-2.727189e-06 500 45.4346 0 1 0 0.001942 0.989053
214 385.066 45.43462 -0.5876743 0.120945 0.8000071 0.102701 0.684938
216.635 397.871 45.43462 -0.5876743 0.120945 0.8000071 0.102701 0.69337
195.8 392.836 30.89042 -0.5876743 0.120945 0.8000071 0.094132 0.688597
216.635 397.871 45.43462 -8.742278e-08 0 1 0.102701 0.94337
286 385.066 45.43462 -8.742278e-08 0 1 0.136601 0.934938
283.365 438.792 45.43462 0.5723913 0 0.8199807 0.136601 0.707832
304.2 392.836 30.89043 0.5723913 0 0.8199807 0.14517 0.688597
304.2 445.8 30.89043 0.5723913 0 0.8199807 0.14517 0.713534
195.8 392.836 30.89042 -8.742278e-08 0 1 0.094132 0.938597
214 464 45.43462 -0.006808071 -0.6201012 0.7844923 0.102701 0.722103
90.6069 446.955 30.89041 -0.006808071 -0.6201012 0.7844923 0.044048 0.713534
195.8 445.8 30.89042 -0.006808071 -0.6201012 0.7844923 0.094132 0.713534
425.583 444.425 30.89044 -0.007120068 -0.628599 0.777697 0.202012 0.713534
286 464 45.43462 -0.007120068 -0.628599 0.777697 0.136601 0.722103
304.2 445.8 30.89043 -0.007120068 -0.628599 0.777697 0.14517 0.713534
396.754 304.2 30.89043 -8.742278e-08 0 1 0.188748 0.896864
337.51 363.779 30.89043 -8.742278e-08 0 1 0.160864 0.924896
310.898 259.758 45.43452 -0.0766611 -0.15231 0.9853551 0.140182 0.621465
279.005 238.751 39.70612 -0.0766611 -0.15231 0.9853551 0.133308 0.616048
329.477 250.407 45.43453 -0.0766611 -0.15231 0.9853551 0.157072 0.621345
274.869 221.439 30.89042 -8.742278e-08 0 1 0.13136 0.607897
-1.455694e-06 105.152 30.8904 -8.742278e-08 0 1 0.001942 0.553145
96.8571 249.202 45.43451 -8.742278e-08 0 1 0.046859 0.871345
-2.72718e-06 250 45.4345 -0.003580077 -0.4347367 0.9005505 0.001942 0.621345
69.0558 219.303 30.8904 -0.003580077 -0.4347367 0.9005505 0.034827 0.606689
96.8571 249.202 45.43451 -0.003580077 -0.4347367 0.9005505 0.046859 0.621345
69.0558 219.303 30.8904 -8.742278e-08 0 1 0.034827 0.606689
-1.455694e-06 221.439 30.8904 -8.742278e-08 0 1 0.001942 0.607897
211.234 249.696 45.43452 0.0309329 -0.3064049 0.9513986 0.101137 0.621345
279.005 238.751 39.70612 0.0309329 -0.3064049 0.9513986 0.133308 0.616048
310.898 259.758 45.43452 0.0309329 -0.3064049 0.9513986 0.140182 0.621465
424.061 220.333 30.89043 -0.003359078 -0.453144 0.891431 0.201605 0.607897
279.005 238.751 39.70612 -0.003359078 -0.453144 0.891431 0.133308 0.616048
274.869 221.439 30.89042 -0.003359078 -0.453144 0.891431 0.13136 0.607897
329.477 250.407 45.43453 -8.742278e-08 0 1 0.157072 0.871345
147.115 298.332 45.43461 -8.742278e-08 0 1 0.071014 0.894207
279.005 238.751 39.70612 0.004717922 -0.454673 0.890646 0.133308 0.616048
69.0558 219.303 30.8904 0.004717922 -0.454673 0.890646 0.034827 0.606689
274.869 221.439 30.89042 0.004717922 -0.454673 0.890646 0.13136 0.607897
357.161 161.344 40.74773 0.1217999 0.4458321 0.8867912 0.170106 0.579602
351.027 176.012 34.21583 0.1217999 0.4458321 0.8867912 0.167218 0.586509
319.087 171.746 40.74773 0.1217999 0.4458321 0.8867912 0.15218 0.5845
144.943 163.448 40.74771 -0.239927 0.125485 0.9626467 0.070186 0.580593
102.805 129.193 34.71061 -0.239927 0.125485 0.9626467 0.050346 0.564464
123.351 122.165 40.74761 -0.239927 0.125485 0.9626467 0.057519 0.563656
123.351 122.165 40.74761 -0.142672 0.3710968 0.9175684 0.057519 0.563656
102.805 129.193 34.71061 -0.142672 0.3710968 0.9175684 0.050346 0.564464
91.3693 109.869 40.74761 -0.142672 0.3710968 0.9175684 0.044962 0.555366
91.3693 109.869 40.74761 -0.5194361 0.5193831 0.678548 0.044962 0.555366
43.6218 74.9949 30.8904 -0.5194361 0.5193831 0.678548 0.022481 0.538946
56.4985 74.9949 40.7476 -0.5194361 0.5193831 0.678548 0.028544 0.538946
43.6218 74.9949 30.8904 -0.5194362 0.5193841 0.6785471 0.022481 0.538946
102.805 129.193 34.71061 -0.5194362 0.5193841 0.6785471 0.050346 0.564464
146.801 178.184 30.89041 -0.5194362 0.5193841 0.6785471 0.071061 0.587531
319.087 171.746 40.74773 0.01074395 0.8197553 0.5726132 0.15218 0.5845
353.199 178.184 30.89043 0.01074395 0.8197553 0.5726132 0.168241 0.587531
280.632 179.135 30.89042 0.01074395 0.8197553 0.5726132 0.134074 0.587531
227.957 167.28 40.74772 0.05085796 0.8510352 0.5226401 0.109272 0.5845
146.801 178.184 30.89041 0.05085796 0.8510352 0.5226401 0.071061 0.587531
153.24 171.746 40.74771 0.05085796 0.8510352 0.5226401 0.074093 0.5845
144.943 163.448 40.74771 -8.742278e-08 0 1 0.070186 0.830593
443.501 74.9949 40.74764 -8.742278e-08 0 1 0.210758 0.788946
56.4985 74.9949 40.7476 -8.742278e-08 0 1 0.028544 0.788946
211.234 249.696 45.43452 -8.742278e-08 0 1 0.101137 0.871345
310.898 259.758 45.43452 -8.742278e-08 0 1 0.1483 0.875912
338.648 328.304 45.43463 -8.742278e-08 0 1 0.16139 0.908213
158.055 331.489 45.43461 -8.742278e-08 0 1 0.07636 0.909713
158.055 331.489 45.43461 -0.1307461 0.043138 0.990477 0.07636 0.659713
118.339 305.187 41.33751 -0.1307461 0.043138 0.990477 0.057661 0.647329
147.115 298.332 45.43461 -0.1307461 0.043138 0.990477 0.070198 0.645157
103.246 304.2 30.89041 -0.4317861 0.450874 0.7812 0.050554 0.646864
158.055 331.489 45.43461 -0.4317861 0.450874 0.7812 0.07636 0.659713
195.8 392.836 30.89042 -0.4317861 0.450874 0.7812 0.094132 0.688597
110.555 286 45.43461 -0.543068 0.3801989 0.7486829 0.053995 0.638295
118.339 305.187 41.33751 -0.543068 0.3801989 0.7486829 0.057661 0.647329
103.246 304.2 30.89041 -0.543068 0.3801989 0.7486829 0.050554 0.646864
411.286 164.03 34.78954 -0.3225791 -0.06640901 0.9442101 0.19559 0.580867
430.556 152.25 40.54434 -0.3225791 -0.06640901 0.9442101 0.204663 0.575321
426.474 172.08 40.54434 -0.3225791 -0.06640901 0.9442101 0.202741 0.584657
93.0337 164.03 30.89041 0.540301 0.591401 0.5985981 0.045746 0.580867
74.0332 171.617 40.5443 0.540301 0.591401 0.5985981 0.0368 0.584439
86.6292 164.03 36.67121 0.540301 0.591401 0.5985981 0.04273 0.580867
46.9913 204.038 30.8904 0.5809142 0.6358553 0.5081603 0.024068 0.599704
46.99129 196.323 40.5443 0.5809142 0.6358553 0.5081603 0.024068 0.596071
74.0332 171.617 40.5443 0.5809142 0.6358553 0.5081603 0.0368 0.584439
60.0462 153.49 40.5443 -8.742278e-08 0 1 0.030214 0.825904
93.0337 164.03 30.89041 0.555321 -0.6390832 0.5321572 0.045746 0.580867
54.23569 138.356 40.5443 0.555321 -0.6390832 0.5321572 0.027478 0.568779
46.9913 124.022 30.8904 0.555321 -0.6390832 0.5321572 0.024068 0.56203
46.99129 131.737 40.5443 0.5809139 -0.635855 0.508161 0.024068 0.565663
46.9913 124.022 30.8904 0.5809139 -0.635855 0.508161 0.024068 0.56203
54.23569 138.356 40.5443 0.5809139 -0.635855 0.508161 0.027478 0.568779
304.2 445.8 30.89043 -8.742278e-08 0 1 0.14517 0.963534
304.2 392.836 30.89043 -8.742278e-08 0 1 0.14517 0.938597
286 385.066 45.43462 0.4156631 0.4764942 0.7747113 0.136601 0.684938
337.51 363.779 30.89043 0.4156631 0.4764942 0.7747113 0.160727 0.674784
304.2 392.836 30.89043 0.4156631 0.4764942 0.7747113 0.14517 0.688597
214 385.066 45.43462 -8.742278e-08 0 1 0.102701 0.934938
195.8 392.836 30.89042 -0.4317869 0.4508739 0.7811996 0.094132 0.688597
158.055 331.489 45.43461 -0.4317869 0.4508739 0.7811996 0.07636 0.659713
214 385.066 45.43462 -0.4317869 0.4508739 0.7811996 0.102701 0.684938
460.469 75.8714 45.43454 -0.05718109 0.248452 0.966955 0.218747 0.539359
436.978 81.665 42.55684 -0.05718109 0.248452 0.966955 0.207687 0.542087
419.117 66.3543 45.43454 -0.05718109 0.248452 0.966955 0.199277 0.535765
419.117 66.3543 45.43454 0.01702791 0.165475 0.986067 0.199277 0.535765
436.978 81.665 42.55684 0.01702791 0.165475 0.986067 0.207687 0.542087
326.632 75.8714 45.43453 0.01702791 0.165475 0.986067 0.155732 0.539359
217.095 65.8566 45.43452 -8.742278e-08 0 1 0.104158 0.784644
326.632 75.8714 45.43453 -8.742278e-08 0 1 0.155732 0.789359
249.713 75.8714 45.43452 -8.742278e-08 0 1 0.119516 0.789359
460.469 75.8714 45.43454 -7.829598e-08 0.4448569 0.8956017 0.218747 0.539359
500 75.8714 45.43454 -7.829598e-08 0.4448569 0.8956017 0.23736 0.539359
217.095 65.8566 45.43452 0.002438914 0.195143 0.9807718 0.104158 0.535577
200.651 82.4264 42.17852 0.002438914 0.195143 0.9807718 0.096416 0.542445
165.051 66.5071 45.43451 0.002438914 0.195143 0.9807718 0.079654 0.535823
-1.455694e-06 105.152 30.8904 -7.829598e-08 0.4448569 0.8956017 0.001942 0.553145
120.088 75.8714 45.43451 -7.829598e-08 0.4448569 0.8956017 0.058484 0.539359
326.632 75.8714 45.43453 -7.829598e-08 0.4448569 0.8956017 0.155732 0.539359
249.713 75.8714 45.43452 -0.04567908 0.148773 0.9878159 0.119516 0.539359
200.651 82.4264 42.17852 -0.04567908 0.148773 0.9878159 0.096416 0.542445
217.095 65.8566 45.43452 -0.04567908 0.148773 0.9878159 0.104158 0.535577
165.051 66.5071 45.43451 0.02877092 0.138145 0.989994 0.079654 0.535823
200.651 82.4264 42.17852 0.02877092 0.138145 0.989994 0.096416 0.542445
120.088 75.8714 45.43451 0.02877092 0.138145 0.989994 0.058484 0.539359
-2.72718e-06 -5e-06 45.4345 -8.742278e-08 0 1 0.001942 0.753636
120.088 75.8714 45.43451 -8.742278e-08 0 1 0.058484 0.789359
-2.72718e-06 75.8714 45.4345 -8.742278e-08 0 1 0.001942 0.789359
165.051 66.5071 45.43451 -8.742278e-08 0 1 0.079654 0.78495
329.477 250.407 45.43453 0.003625921 -0.4261101 0.9046641 0.157072 0.621345
424.061 220.333 30.89043 0.003625921 -0.4261101 0.9046641 0.201605 0.607897
411.649 251.106 45.43454 0.003625921 -0.4261101 0.9046641 0.195761 0.621345
69.0558 219.303 30.8904 0.001893922 -0.4388562 0.8985553 0.034827 0.606689
211.234 249.696 45.43452 0.001893922 -0.4388562 0.8985553 0.101137 0.621345
96.8571 249.202 45.43451 0.001893922 -0.4388562 0.8985553 0.046859 0.621345
74.0332 171.617 40.5443 -8.742278e-08 0 1 0.0368 0.834439
500 124.022 30.89044 -5.457822e-08 -0.7811831 0.6243021 0.23736 0.56203
453.009 204.038 30.89044 -5.457832e-08 0.7811822 0.6243032 0.215235 0.599704
500 131.737 40.54434 -8.742278e-08 0 1 0.23736 0.815663
406.966 164.03 30.89043 -0.5403021 0.5914001 0.598598 0.193556 0.580867
411.286 164.03 34.78954 -0.5403021 0.5914001 0.598598 0.19559 0.580867
426.474 172.08 40.54434 -0.5403021 0.5914001 0.598598 0.202741 0.584657
406.966 164.03 30.89043 -0.54197 -0.6237188 0.5632438 0.193556 0.580867
453.009 124.022 30.89044 -0.54197 -0.6237188 0.5632438 0.215235 0.56203
430.556 152.25 40.54434 -0.54197 -0.6237188 0.5632438 0.204663 0.575321
426.474 172.08 40.54434 -8.742278e-08 0 1 0.202741 0.834657
500 131.737 40.54434 1 0 8.742278e-08 0.23736 0.815663
443.501 74.9949 40.74764 8.742278e-14 -1 -1e-06 0.210758 0.538946
319.087 171.746 40.74773 -8.742278e-08 0 1 0.15218 0.8345
443.501 74.9949 40.74764 0.519436 0.5193831 0.6785481 0.210758 0.538946
456.378 74.9949 30.89044 0.519436 0.5193831 0.6785481 0.216821 0.538946
353.199 178.184 30.89043 0.519436 0.5193831 0.6785481 0.168241 0.587531
146.801 178.184 30.89041 -0.5194359 0.5193838 0.6785477 0.071061 0.587531
102.805 129.193 34.71061 -0.5194359 0.5193838 0.6785477 0.050346 0.564464
144.943 163.448 40.74771 -0.5194359 0.5193838 0.6785477 0.070186 0.580593
-1.455694e-06 204.038 30.8904 -5.457822e-08 0.7811831 0.6243021 0.001942 0.599704
46.9913 124.022 30.8904 -5.457832e-08 -0.7811822 0.6243032 0.024068 0.56203
-2.299665e-06 196.323 40.5443 -8.742278e-08 0 1 0.001942 0.846071
-2.299665e-06 196.323 40.5443 -1 0 -8.742278e-08 0.001942 0.846071
424.061 220.333 30.89043 0.006608923 -0.4537741 0.8910922 0.201605 0.607897
500 221.439 30.89044 0.006608923 -0.4537741 0.8910922 0.23736 0.607897
500 250 45.43454 0.006608923 -0.4537741 0.8910922 0.23736 0.621345
500 2e-06 4.386902e-05 0 -1 0 0.23736 0.753636
500 2e-06 4.386902e-05 8.742278e-08 0 -1 0.23736 0.753636
-1.455694e-06 445.8 30.8904 -8.742278e-08 0 1 0.001942 0.963534
216.635 397.871 45.43462 -0.6091701 -0.024276 0.792668 0.102701 0.69337
214 464 45.43462 -0.6091701 -0.024276 0.792668 0.102701 0.722103
195.8 445.8 30.89042 -0.6091701 -0.024276 0.792668 0.094132 0.713534
72.7255 462.845 45.4346 -0.009913071 -0.6242482 0.7811632 0.036739 0.722103
-2.727189e-06 464 45.4346 -0.009913071 -0.6242482 0.7811632 0.001942 0.722103
-1.455694e-06 445.8 30.8904 -0.009913071 -0.6242482 0.7811632 0.001942 0.713534
-2.727189e-06 286 45.4346 -6.829475e-08 0.6242799 0.7812008 0.001942 0.638295
110.555 286 45.43461 -6.829475e-08 0.6242799 0.7812008 0.053995 0.638295
103.246 304.2 30.89041 -6.829475e-08 0.6242799 0.7812008 0.050554 0.646864
500 286 45.43464 -6.829479e-08 0.6242793 0.7812013 0.23736 0.638295
500 304.2 30.89044 -6.829479e-08 0.6242793 0.7812013 0.23736 0.646864
396.754 304.2 30.89043 -6.829479e-08 0.6242793 0.7812013 0.188748 0.646864
500 445.8 30.89044 -0.02509908 -0.6240823 0.7809554 0.23736 0.713534
500 464 45.43464 -0.02509908 -0.6240823 0.7809554 0.23736 0.722103
465.816 465.375 45.43464 -0.02509908 -0.6240823 0.7809554 0.221575 0.722103
338.648 328.304 45.43463 0.393368 0.4723481 0.7887642 0.161673 0.658508
389.445 286 45.43464 0.393368 0.4723481 0.7887642 0.185307 0.638295
396.754 304.2 30.89043 0.393368 0.4723481 0.7887642 0.188748 0.646864
500 75.8714 45.43454 -8.742278e-08 0 1 0.23736 0.789359
-2.727189e-06 500 45.4346 -1 0 -8.742278e-08 0.001942 0.989053
500 286 45.43464 1 0 8.742278e-08 0.23736 0.888295
-2.72718e-06 -5e-06 45.4345 -1 0 -8.742278e-08 0.001942 0.753636
500 105.152 30.89044 1 0 8.742278e-08 0.23736 0.803145
500 500 45.43464 1 0 8.742278e-08 0.23736 0.989053
500 500 0.0001430511 0 1 0 0.23736 0.989053
283.365 438.792 45.43462 0.6160904 0.03022002 0.7870956 0.136601 0.707832
286 385.066 45.43462 0.6160904 0.03022002 0.7870956 0.136601 0.684938
304.2 392.836 30.89043 0.6160904 0.03022002 0.7870956 0.14517 0.688597
195.8 445.8 30.89042 -8.742278e-08 0 1 0.094132 0.963534
214 464 45.43462 0.005491936 -0.6717891 0.7407221 0.102701 0.722103
72.7255 462.845 45.4346 0.005491936 -0.6717891 0.7407221 0.036739 0.722103
90.6069 446.955 30.89041 0.005491936 -0.6717891 0.7407221 0.044048 0.713534
425.583 444.425 30.89044 0.004403931 -0.5759723 0.8174574 0.202012 0.713534
465.816 465.375 45.43464 0.004403931 -0.5759723 0.8174574 0.221575 0.722103
286 464 45.43462 0.004403931 -0.5759723 0.8174574 0.136601 0.722103
-2.72718e-06 250 45.4345 -0.01403308 -0.453739 0.8910241 0.001942 0.621345
-1.455694e-06 221.439 30.8904 -0.01403308 -0.453739 0.8910241 0.001942 0.607897
69.0558 219.303 30.8904 -0.01403308 -0.453739 0.8910241 0.034827 0.606689
102.805 129.193 34.71061 -0.5194361 0.5193831 0.678548 0.050346 0.564464
319.087 171.746 40.74773 9.52193e-07 0.837232 0.546848 0.15218 0.5845
351.027 176.012 34.21583 9.52193e-07 0.837232 0.546848 0.167218 0.586509
353.199 178.184 30.89043 9.52193e-07 0.837232 0.546848 0.168241 0.587531
227.957 167.28 40.74772 -0.004630064 0.6514347 0.7586907 0.109272 0.5845
280.632 179.135 30.89042 -0.004630064 0.6514347 0.7586907 0.134074 0.587531
146.801 178.184 30.89041 -0.004630064 0.6514347 0.7586907 0.071061 0.587531
153.24 171.746 40.74771 -8.742278e-08 0 1 0.074093 0.8345
91.3693 109.869 40.74761 -8.742278e-08 0 1 0.044962 0.805366
103.246 304.2 30.89041 -0.4741952 0.6184131 0.6266611 0.050554 0.646864
118.339 305.187 41.33751 -0.4741952 0.6184131 0.6266611 0.057661 0.647329
158.055 331.489 45.43461 -0.4741952 0.6184131 0.6266611 0.07636 0.659713
93.0337 164.03 30.89041 0.5379272 0.6190643 0.5721834 0.045746 0.580867
46.9913 204.038 30.8904 0.5379272 0.6190643 0.5721834 0.024068 0.599704
74.0332 171.617 40.5443 0.5379272 0.6190643 0.5721834 0.0368 0.584439
54.23569 138.356 40.5443 -8.742278e-08 0 1 0.027478 0.818779
93.0337 164.03 30.89041 0.5403007 -0.5914017 0.5985978 0.045746 0.580867
86.6292 164.03 36.67121 0.5403007 -0.5914017 0.5985978 0.04273 0.580867
54.23569 138.356 40.5443 0.5403007 -0.5914017 0.5985978 0.027478 0.568779
286 385.066 45.43462 0.388353 0.360204 0.8481952 0.136601 0.684938
338.648 328.304 45.43463 0.388353 0.360204 0.8481952 0.161673 0.658508
337.51 363.779 30.89043 0.388353 0.360204 0.8481952 0.160727 0.674784
-2.72718e-06 75.8714 45.4345 -7.829598e-08 0.4448569 0.8956017 0.001942 0.539359
249.713 75.8714 45.43452 -7.829598e-08 0.4448569 0.8956017 0.119516 0.539359
329.477 250.407 45.43453 -0.0009440784 -0.4377819 0.8990808 0.157072 0.621345
279.005 238.751 39.70612 -0.0009440784 -0.4377819 0.8990808 0.133308 0.616048
424.061 220.333 30.89043 -0.0009440784 -0.4377819 0.8990808 0.201605 0.607897
69.0558 219.303 30.8904 0.003691921 -0.4456619 0.8951938 0.034827 0.606689
279.005 238.751 39.70612 0.003691921 -0.4456619 0.8951938 0.133308 0.616048
211.234 249.696 45.43452 0.003691921 -0.4456619 0.8951938 0.101137 0.621345
3 0 1 2 
3 3 4 5 
3 6 7 8 
3 9 10 11 
3 12 13 14 
3 15 16 17 
3 18 19 20 
3 8 21 6 
3 22 23 24 
3 25 26 27 
3 28 29 30 
3 31 32 33 
3 34 35 36 
3 37 38 39 
3 40 41 42 
3 43 44 45 
3 46 47 48 
3 49 50 51 
3 52 53 54 
3 55 56 57 
3 58 59 60 
3 61 62 63 
3 64 65 66 
3 67 68 69 
3 70 71 72 
3 73 74 75 
3 76 77 78 
3 79 80 81 
3 82 80 83 
3 76 84 77 
3 85 86 87 
3 88 89 90 
3 91 92 93 
3 94 95 96 
3 97 98 99 
3 100 101 102 
3 103 104 105 
3 106 107 108 
3 109 110 111 
3 112 113 114 
3 115 116 117 
3 81 118 79 
3 119 120 121 
3 122 123 124 
3 125 126 127 
3 128 129 130 
3 131 132 133 
3 134 135 136 
3 137 134 136 
3 138 139 140 
3 141 142 143 
3 128 141 143 
3 130 138 141 
3 126 131 127 
3 144 145 146 
3 147 148 149 
3 150 151 118 
3 152 153 154 
3 155 70 72 
3 156 157 158 
3 81 80 82 
3 124 123 79 
3 159 160 161 
3 162 73 163 
3 164 165 166 
3 111 167 168 
3 120 119 169 
3 170 171 172 
3 168 173 174 
3 168 167 173 
3 175 176 177 
3 178 179 180 
3 76 181 84 
3 120 169 182 
3 183 184 185 
3 186 187 188 
3 189 190 191 
3 192 193 194 
3 195 196 197 
3 198 199 200 
3 201 202 203 
3 204 205 206 
3 32 207 33 
3 208 31 33 
3 33 209 208 
3 182 210 211 
3 182 212 213 
3 214 215 216 
3 217 218 219 
3 220 221 222 
3 223 224 225 
3 226 227 228 
3 229 230 231 
3 51 232 49 
3 233 234 235 
3 236 237 238 
3 163 239 240 
3 241 242 243 
3 212 244 213 
3 245 246 247 
3 248 249 250 
3 251 252 253 
3 254 255 256 
3 112 257 258 
3 259 260 261 
3 262 263 113 
3 113 264 114 
3 265 266 267 
3 268 269 270 
3 271 272 273 
3 254 115 117 
3 274 271 254 
3 275 276 277 
3 278 279 280 
3 182 211 76 
3 49 232 281 
3 0 282 1 
3 3 283 4 
3 6 284 7 
3 285 286 287 
3 288 289 290 
3 8 291 21 
3 22 292 23 
3 28 293 29 
3 31 294 32 
3 295 296 297 
3 298 299 300 
3 43 301 44 
3 46 302 47 
3 49 303 50 
3 58 304 59 
3 305 306 307 
3 64 308 65 
3 67 309 68 
3 70 310 71 
3 73 162 74 
3 79 123 80 
3 311 312 313 
3 314 315 316 
3 317 318 319 
3 320 321 322 
3 323 324 325 
3 326 327 328 
3 112 262 113 
3 115 329 116 
3 81 150 118 
3 125 330 126 
3 128 331 129 
3 131 137 132 
3 134 332 135 
3 137 126 134 
3 138 333 139 
3 141 334 142 
3 128 130 141 
3 130 333 138 
3 126 137 131 
3 144 335 145 
3 150 244 151 
3 336 337 338 
3 155 339 70 
3 340 341 342 
3 343 344 345 
3 111 110 167 
3 346 347 348 
3 76 211 181 
3 195 349 196 
3 350 351 352 
3 353 354 355 
3 32 356 207 
3 33 357 209 
3 182 169 210 
3 182 76 212 
3 358 359 360 
3 361 362 363 
3 51 364 232 
3 365 366 367 
3 163 73 239 
3 368 369 370 
3 212 151 244 
3 254 117 255 
3 112 114 257 
3 262 371 263 
3 113 372 264 
3 271 274 272 
3 254 271 115 
3 373 374 375 
3 376 377 378 
