ply
format ascii 1.0
comment VCGLIB generated
comment TextureFile dummy.png
element vertex 444
property float x
property float y
property float z
property float nx
property float ny
property float nz
property float texture_u
property float texture_v
element face 213
property list uchar int vertex_indices
end_header
310.946 465.718 51.01648 0.6959543 0 0.7180861 0.148346 0.723947
317.115 500 45.03727 0.6959543 0 0.7180861 0.151251 0.739053
310.946 500 51.01648 0.6959543 0 0.7180861 0.148346 0.739053
182.885 500 45.03728 -0.6959471 0 0.7180932 0.088051 0.739053
189.055 465.718 51.01649 -0.6959471 0 0.7180932 0.090956 0.723947
189.055 500 51.01649 -0.6959471 0 0.7180932 0.090956 0.739053
310.946 465.718 51.01648 8.742278e-08 0 1 0.148346 0.973947
189.055 500 51.01649 8.742278e-08 0 1 0.090956 0.989053
189.055 465.718 51.01649 8.742278e-08 0 1 0.090956 0.973947
236.25 426.949 51.01648 -0.0946639 -0.4049979 0.9094039 0.113177 0.704659
250 406.864 43.50298 -0.0946639 -0.4049979 0.9094039 0.119651 0.695202
257.916 421.885 51.01648 -0.0946639 -0.4049979 0.9094039 0.123378 0.702274
189.055 500 51.01649 0 1 0 0.090956 0.739053
317.115 500 45.03727 0 1 0 0.151251 0.739053
182.885 500 45.03728 0 1 0 0.088051 0.739053
295.715 474.94 51.01648 0.5211551 0 0.853462 0.141175 0.727254
286.899 500 56.39967 0.5211551 0 0.853462 0.137025 0.739053
286.899 474.94 56.39967 0.5211551 0 0.853462 0.137025 0.727254
204.285 500 51.01648 -0.521155 0 0.8534621 0.098127 0.739053
213.101 477.446 56.39968 -0.521155 0 0.8534621 0.102278 0.727254
213.101 500 56.39968 -0.521155 0 0.8534621 0.102278 0.739053
213.101 477.446 56.39968 8.742278e-08 0 1 0.102278 0.977254
286.899 500 56.39967 8.742278e-08 0 1 0.137025 0.989053
213.101 500 56.39968 8.742278e-08 0 1 0.102278 0.989053
204.285 474.94 51.01648 -0.37788 -0.4308931 0.8194742 0.098127 0.727254
247.724 447.083 56.39968 -0.37788 -0.4308931 0.8194742 0.119651 0.713342
213.101 477.446 56.39968 -0.37788 -0.4308931 0.8194742 0.102278 0.727254
250 436.45 51.01648 0.275024 -0.3867678 0.8802116 0.119651 0.709132
286.899 474.94 56.39967 0.275024 -0.3867678 0.8802116 0.137025 0.727254
247.724 447.083 56.39968 0.275024 -0.3867678 0.8802116 0.119651 0.713342
286.899 500 56.39967 0 1 0 0.137025 0.739053
204.285 500 51.01648 0 1 0 0.098127 0.739053
213.101 500 56.39968 0 1 0 0.102278 0.739053
247.724 447.083 56.39968 8.742278e-08 0 1 0.119651 0.963342
286.899 474.94 56.39967 8.742278e-08 0 1 0.137025 0.977254
2.72718e-06 250.58 45.4345 -1 0 8.742278e-08 0.001942 0.621618
3.171619e-06 233.045 50.5183 -1 0 8.742278e-08 0.001942 0.613362
3.171619e-06 243.568 50.5183 -1 0 8.742278e-08 0.001942 0.618316
218.946 180.558 56.39968 0.07197008 -0.5076941 0.8585261 0.10503 0.588649
226.85 171.733 50.51828 0.07197008 -0.5076941 0.8585261 0.108751 0.584494
228.489 181.179 55.96728 0.07197008 -0.5076941 0.8585261 0.109523 0.588942
207.049 289.4 50.51828 -0.5493842 0.5159433 0.6572515 0.099428 0.639895
228.841 305.112 56.39968 -0.5493842 0.5159433 0.6572515 0.109688 0.647294
250 335.134 50.51828 -0.5493842 0.5159433 0.6572515 0.119651 0.661429
119.669 152.83 45.43449 0.07416607 -0.369997 0.9260679 0.058287 0.575594
119.838 165.588 50.51829 0.07416607 -0.369997 0.9260679 0.058361 0.580747
95.5845 160.727 50.51829 0.07416607 -0.369997 0.9260679 0.046947 0.579401
250 196.499 50.51828 -0.4385918 -0.5436568 0.7155938 0.119651 0.596154
284.207 176.644 56.39967 -0.4385918 -0.5436568 0.7155938 0.136211 0.586534
250 204.24 56.39968 -0.4385918 -0.5436568 0.7155938 0.119651 0.599799
95.5845 160.727 50.51829 8.742278e-08 0 1 0.046947 0.829312
3.171619e-06 171.733 50.5183 8.742278e-08 0 1 0.001942 0.834494
3.171619e-06 161.209 50.5183 8.742278e-08 0 1 0.001942 0.829539
217.166 176.644 56.39968 0.4338103 -0.1973601 0.8791233 0.104191 0.586806
226.85 171.733 50.51828 0.4338103 -0.1973601 0.8791233 0.108751 0.584494
218.946 180.558 56.39968 0.4338103 -0.1973601 0.8791233 0.10503 0.588649
250 362.838 45.43458 -0.327785 0.3362601 0.8828852 0.119651 0.674473
178.799 280.084 50.51828 -0.327785 0.3362601 0.8828852 0.086127 0.635509
251.78 351.225 50.51828 -0.327785 0.3362601 0.8828852 0.120489 0.669005
59.3791 222.545 56.3997 0.07205902 0.7656006 0.6392677 0.0299 0.608419
3.171619e-06 233.045 50.5183 0.07205902 0.7656006 0.6392677 0.001942 0.613362
3.685788e-06 228.134 56.3997 0.07205902 0.7656006 0.6392677 0.001942 0.611049
255.245 321.566 56.39968 0.5098487 0.5004076 0.6997474 0.12212 0.655041
348.217 235.064 50.51827 0.5098487 0.5004076 0.6997474 0.166168 0.614149
250 335.134 50.51828 0.5098487 0.5004076 0.6997474 0.119651 0.661429
83.9927 233.045 50.51829 8.742278e-08 0 1 0.041489 0.863362
3.171619e-06 243.568 50.5183 8.742278e-08 0 1 0.001942 0.868316
3.171619e-06 233.045 50.5183 8.742278e-08 0 1 0.001942 0.863362
3.171619e-06 243.568 50.5183 7.077664e-08 0.5869953 0.8095903 0.001942 0.618316
137.115 250.58 45.43449 7.077664e-08 0.5869953 0.8095903 0.066501 0.621618
2.72718e-06 250.58 45.4345 7.077664e-08 0.5869953 0.8095903 0.001942 0.621618
251.78 351.225 50.51828 0.41517 0.4174869 0.8082937 0.120489 0.669005
362.885 250.58 45.43447 0.41517 0.4174869 0.8082937 0.172801 0.621618
250 362.838 45.43458 0.41517 0.4174869 0.8082937 0.119651 0.674473
250 159.947 50.51828 8.742278e-08 0 1 0.119651 0.828945
250 196.499 50.51828 8.742278e-08 0 1 0.119651 0.846154
226.85 171.733 50.51828 8.742278e-08 0 1 0.108751 0.834494
273.15 171.733 50.51828 8.742278e-08 0 1 0.130551 0.834494
207.049 289.4 50.51828 8.742278e-08 0 1 0.099428 0.889895
251.78 351.225 50.51828 8.742278e-08 0 1 0.120497 0.919005
178.799 280.084 50.51828 8.742278e-08 0 1 0.086127 0.885509
500 152.83 45.43446 -0.004221926 -0.536358 0.84398 0.23736 0.575594
357.737 161.95 50.51827 -0.004221926 -0.536358 0.84398 0.170377 0.579751
341.182 154.08 45.43447 -0.004221926 -0.536358 0.84398 0.162583 0.575951
250 335.134 50.51828 8.742278e-08 0 1 0.119651 0.911429
356.174 243.568 50.51827 8.742278e-08 0 1 0.169641 0.868316
411.102 171.733 50.51826 8.742278e-08 0 1 0.195504 0.834494
500 161.209 50.51826 8.742278e-08 0 1 0.23736 0.829539
500 171.733 50.51826 8.742278e-08 0 1 0.23736 0.834494
411.102 171.733 50.51826 -0.01608193 -0.634423 0.7728189 0.195504 0.584494
500 176.644 56.39966 -0.01608193 -0.634423 0.7728189 0.23736 0.586806
409.501 178.938 56.39967 -0.01608193 -0.634423 0.7728189 0.196547 0.586806
442.114 226.561 56.39966 8.742278e-08 0 1 0.208873 0.861049
500 176.644 56.39966 8.742278e-08 0 1 0.23736 0.836806
500 228.134 56.39966 8.742278e-08 0 1 0.23736 0.861049
442.114 226.561 56.39966 6.475002e-08 0.6718869 0.7406539 0.208873 0.611049
500 233.045 50.51826 6.475002e-08 0.6718869 0.7406539 0.23736 0.613362
441.218 233.045 50.51826 6.475002e-08 0.6718869 0.7406539 0.209683 0.613362
500 171.733 50.51826 1 0 -8.742278e-08 0.23736 0.584494
500 250.58 45.43446 1 0 -8.742278e-08 0.23736 0.621618
500 233.045 50.51826 1 0 -8.742278e-08 0.23736 0.613362
449.586 243.568 50.51826 -0.09068896 0.2883051 0.9532344 0.22048 0.618316
433.342 247.235 47.86356 -0.09068896 0.2883051 0.9532344 0.21147 0.620043
431.252 237.801 50.51826 -0.09068896 0.2883051 0.9532344 0.215987 0.616905
345.609 228.134 56.39967 8.742278e-08 0 1 0.164667 0.861049
250 316.432 56.39968 8.742278e-08 0 1 0.119651 0.902623
284.207 176.644 56.39967 8.742278e-08 0 1 0.135957 0.836686
250 204.24 56.39968 8.742278e-08 0 1 0.119651 0.849799
3.685788e-06 176.644 56.3997 -1 0 8.742278e-08 0.001942 0.586806
3.685788e-06 228.134 56.3997 -1 0 8.742278e-08 0.001942 0.611049
3.171619e-06 171.733 50.5183 -1 0 8.742278e-08 0.001942 0.584494
2.72718e-06 152.83 45.4345 -1 0 8.742278e-08 0.001942 0.575594
3.171619e-06 161.209 50.5183 -1 0 8.742278e-08 0.001942 0.579539
500 243.568 50.51826 1 0 -8.742278e-08 0.23736 0.618316
500 176.644 56.39966 1 0 -8.742278e-08 0.23736 0.586806
500 228.134 56.39966 1 0 -8.742278e-08 0.23736 0.611049
500 152.83 45.43446 1 0 -8.742278e-08 0.23736 0.575594
500 161.209 50.51826 1 0 -8.742278e-08 0.23736 0.579539
-1.24483e-06 2e-06 0 0 -1 0 0.001942 0.753636
500 -5e-06 45.43446 0 -1 0 0.23736 0.753636
2.72718e-06 -5e-06 45.4345 0 -1 0 0.001942 0.753636
500 2e-06 -4.386902e-05 -8.742278e-08 0 -1 0.23736 0.753636
-1.244822e-06 500 9.918213e-05 -8.742278e-08 0 -1 0.001942 0.989053
500 500 5.531311e-05 -8.742278e-08 0 -1 0.23736 0.989053
2.727189e-06 500 45.4346 0 1 0 0.001942 0.989053
500 500 5.531311e-05 0 1 0 0.23736 0.989053
-1.244822e-06 500 9.918213e-05 0 1 0 0.001942 0.989053
103.246 304.2 31.39269 8.742278e-08 0 1 0.050554 0.646864
1.499615e-06 445.8 31.3928 8.742278e-08 0 1 0.001942 0.713534
1.499607e-06 304.2 31.3927 8.742278e-08 0 1 0.001942 0.646864
402.341 447.11 31.39277 8.742278e-08 0 1 0.191379 0.714151
304.2 392.836 31.39277 8.742278e-08 0 1 0.14517 0.688597
396.754 304.2 31.39267 8.742278e-08 0 1 0.188748 0.646864
455.591 467.277 45.43456 8.742278e-08 0 1 0.21645 0.973646
500 500 45.43456 8.742278e-08 0 1 0.23736 0.989053
286 464 45.43457 8.742278e-08 0 1 0.136601 0.972103
200.905 367.926 45.43458 8.742278e-08 0 1 0.096535 0.926868
286 385.066 45.43457 8.742278e-08 0 1 0.136601 0.934938
214 385.066 45.43458 8.742278e-08 0 1 0.102701 0.934938
126.322 463.078 45.43459 8.742278e-08 0 1 0.061419 0.971669
2.727189e-06 500 45.4346 8.742278e-08 0 1 0.001942 0.989053
2.727189e-06 464 45.4346 8.742278e-08 0 1 0.001942 0.972103
195.8 392.836 31.39278 -0.4694041 0.3586431 0.8068674 0.094132 0.688597
200.905 367.926 45.43458 -0.4694041 0.3586431 0.8068674 0.09633 0.677082
214 385.066 45.43458 -0.4694041 0.3586431 0.8068674 0.102701 0.684938
214 385.066 45.43458 -0.6108541 0 0.7917432 0.102701 0.684938
195.8 445.8 31.39278 -0.6108541 0 0.7917432 0.094132 0.713534
195.8 392.836 31.39278 -0.6108541 0 0.7917432 0.094132 0.688597
126.322 463.078 45.43459 0.004440067 -0.650027 0.7598981 0.061419 0.721752
1.499615e-06 445.8 31.3928 0.004440067 -0.650027 0.7598981 0.001942 0.713534
134.95 446.722 31.39279 0.004440067 -0.650027 0.7598981 0.065482 0.713886
103.246 304.2 31.39269 6.92165e-08 0.6108524 0.7917445 0.050554 0.646864
102.511 286 45.43459 6.92165e-08 0.6108524 0.7917445 0.050208 0.638295
110.555 286 45.43459 6.92165e-08 0.6108524 0.7917445 0.053995 0.638295
500 286 45.43456 6.921653e-08 0.6108519 0.7917449 0.23736 0.638295
396.754 304.2 31.39267 6.921653e-08 0.6108519 0.7917449 0.188748 0.646864
389.445 286 45.43457 6.921653e-08 0.6108519 0.7917449 0.185307 0.638295
402.341 447.11 31.39277 0.008085073 -0.6057512 0.7956132 0.191379 0.714034
286 464 45.43457 0.008085073 -0.6057512 0.7956132 0.136601 0.722103
304.2 445.8 31.39277 0.008085073 -0.6057512 0.7956132 0.14517 0.713534
304.2 392.836 31.39277 0.422303 0.4409709 0.7919627 0.14517 0.688597
311.924 370.268 39.84017 0.422303 0.4409709 0.7919627 0.148807 0.677971
396.754 304.2 31.39267 0.422303 0.4409709 0.7919627 0.188748 0.646864
286 385.066 45.43457 0.6108542 0 0.7917431 0.136601 0.684938
304.2 445.8 31.39277 0.6108542 0 0.7917431 0.14517 0.713534
286 464 45.43457 0.6108542 0 0.7917431 0.136601 0.722103
214 464 45.43458 8.742278e-08 0 1 0.102701 0.972103
110.555 286 45.43459 8.742278e-08 0 1 0.053995 0.888295
80.7422 278.493 45.43459 8.742278e-08 0 1 0.039959 0.88476
2.72718e-06 -5e-06 45.4345 8.742278e-08 0 1 0.001942 0.753636
389.445 286 45.43457 8.742278e-08 0 1 0.185307 0.888295
500 -5e-06 45.43446 8.742278e-08 0 1 0.23736 0.753636
500 286 45.43456 8.742278e-08 0 1 0.23736 0.888295
2.727189e-06 464 45.4346 -1 0 8.742278e-08 0.001942 0.972103
-1.244822e-06 500 9.918213e-05 -1 0 8.742278e-08 0.001942 0.989053
1.499615e-06 445.8 31.3928 -1 0 8.742278e-08 0.001942 0.963534
-1.24483e-06 2e-06 0 -1 0 8.742278e-08 0.001942 0.753636
2.727189e-06 286 45.4346 -1 0 8.742278e-08 0.001942 0.888295
1.499607e-06 304.2 31.3927 -1 0 8.742278e-08 0.001942 0.896864
500 304.2 31.39265 1 0 -8.742278e-08 0.23736 0.896864
500 500 5.531311e-05 1 0 -8.742278e-08 0.23736 0.989053
500 445.8 31.39276 1 0 -8.742278e-08 0.23736 0.963534
500 464 45.43456 1 0 -8.742278e-08 0.23736 0.972103
500 2e-06 -4.386902e-05 1 0 -8.742278e-08 0.23736 0.753636
500 286 45.43456 1 0 -8.742278e-08 0.23736 0.888295
500 -5e-06 45.43446 1 0 -8.742278e-08 0.23736 0.753636
433.342 247.235 47.86356 0.02047808 0.2665889 0.9635928 0.21147 0.620043
356.174 243.568 50.51827 0.02047808 0.2665889 0.9635928 0.169641 0.618316
431.252 237.801 50.51826 0.02047808 0.2665889 0.9635928 0.215987 0.616905
348.217 235.064 50.51827 0.01461407 0.6729221 0.7395691 0.166168 0.614149
442.114 226.561 56.39966 0.01461407 0.6729221 0.7395691 0.208873 0.611049
441.218 233.045 50.51826 0.01461407 0.6729221 0.7395691 0.209683 0.613362
409.501 178.938 56.39967 8.742278e-08 0 1 0.19531 0.83755
284.207 176.644 56.39967 0.01154906 -0.6307788 0.7758767 0.136211 0.586534
411.102 171.733 50.51826 0.01154906 -0.6307788 0.7758767 0.195504 0.584494
409.501 178.938 56.39967 0.01154906 -0.6307788 0.7758767 0.196547 0.586806
357.737 161.95 50.51827 8.742278e-08 0 1 0.170377 0.829888
341.182 154.08 45.43447 0.007970072 -0.5812511 0.8136852 0.162583 0.575951
250 159.947 50.51828 0.007970072 -0.5812511 0.8136852 0.119651 0.579178
250 152.83 45.43448 0.007970072 -0.5812511 0.8136852 0.119651 0.575594
431.252 237.801 50.51826 8.742278e-08 0 1 0.209212 0.865601
441.218 233.045 50.51826 8.742278e-08 0 1 0.209683 0.863362
449.586 243.568 50.51826 8.742278e-08 0 1 0.220448 0.868316
500 233.045 50.51826 8.742278e-08 0 1 0.23736 0.863362
500 243.568 50.51826 8.742278e-08 0 1 0.23736 0.868316
433.342 247.235 47.86356 0.0002480707 0.5870719 0.8095348 0.21147 0.620043
449.586 243.568 50.51826 0.0002480707 0.5870719 0.8095348 0.22048 0.618316
446.267 250.58 45.43446 0.0002480707 0.5870719 0.8095348 0.212061 0.621618
500 250.58 45.43446 7.077664e-08 0.5869953 0.8095903 0.23736 0.621618
449.586 243.568 50.51826 7.077664e-08 0.5869953 0.8095903 0.22048 0.618316
500 243.568 50.51826 7.077664e-08 0.5869953 0.8095903 0.23736 0.618316
362.885 250.58 45.43447 7.073193e-08 0.5877 0.809079 0.172801 0.621618
433.342 247.235 47.86356 7.073193e-08 0.5877 0.809079 0.21147 0.620043
446.267 250.58 45.43446 7.073193e-08 0.5877 0.809079 0.212061 0.621618
348.217 235.064 50.51827 8.742278e-08 0 1 0.165674 0.864313
250 316.432 56.39968 -0.2817818 0.2878329 0.9152876 0.11962 0.652673
255.245 321.566 56.39968 -0.2817818 0.2878329 0.9152876 0.12212 0.655041
250 335.134 50.51828 -0.2817818 0.2878329 0.9152876 0.119651 0.661429
250 335.134 50.51828 -0.1584679 0.296198 0.9418889 0.119651 0.661429
228.841 305.112 56.39968 -0.1584679 0.296198 0.9418889 0.109688 0.647294
250 316.432 56.39968 -0.1584679 0.296198 0.9418889 0.11962 0.652673
250 396.07 33.55268 0.5070772 -0.5841953 0.6337102 0.119651 0.69012
257.916 421.885 51.01648 0.5070772 -0.5841953 0.6337102 0.123378 0.702274
250 406.864 43.50298 0.5070772 -0.5841953 0.6337102 0.119651 0.695202
317.115 458.192 31.26017 0.571528 -0.691447 0.4418789 0.151251 0.720403
310.946 465.718 51.01648 0.571528 -0.691447 0.4418789 0.148346 0.723947
257.916 421.885 51.01648 0.571528 -0.691447 0.4418789 0.123378 0.702274
236.25 426.949 51.01648 8.742278e-08 0 1 0.113177 0.954659
250 396.07 33.55268 -0.5593702 -0.5825732 0.5896723 0.119651 0.69012
236.25 426.949 51.01648 -0.5593702 -0.5825732 0.5896723 0.113177 0.704659
182.885 458.192 31.26019 -0.5593702 -0.5825732 0.5896723 0.088051 0.720403
182.885 458.192 31.26019 -0.5694152 -0.6931844 0.4418843 0.088051 0.720403
236.25 426.949 51.01648 -0.5694152 -0.6931844 0.4418843 0.113177 0.704659
189.055 465.718 51.01649 -0.5694152 -0.6931844 0.4418843 0.090956 0.723947
500 304.2 31.39265 8.742278e-08 0 1 0.23736 0.646864
500 445.8 31.39276 8.742278e-08 0 1 0.23736 0.713534
500 445.8 31.39276 -0.007484924 -0.5580068 0.8298026 0.23736 0.713534
455.591 467.277 45.43456 -0.007484924 -0.5580068 0.8298026 0.21645 0.723354
402.341 447.11 31.39277 -0.007484924 -0.5580068 0.8298026 0.191379 0.714034
500 464 45.43456 8.742278e-08 0 1 0.23736 0.972103
195.8 392.836 31.39278 8.742278e-08 0 1 0.094132 0.688597
134.95 446.722 31.39279 8.742278e-08 0 1 0.065482 0.713968
195.8 445.8 31.39278 -0.009913933 -0.654357 0.7561209 0.094132 0.713534
126.322 463.078 45.43459 -0.009913933 -0.654357 0.7561209 0.061419 0.721752
134.95 446.722 31.39279 -0.009913933 -0.654357 0.7561209 0.065482 0.713886
71.9692 291.159 41.48119 -0.08395389 0.2434439 0.9662747 0.035828 0.640724
80.7422 278.493 45.43459 -0.08395389 0.2434439 0.9662747 0.039959 0.63476
102.511 286 45.43459 -0.08395389 0.2434439 0.9662747 0.050208 0.638295
12.3031 286 45.4346 0.03508208 0.319822 0.9468279 0.007735 0.638295
80.7422 278.493 45.43459 0.03508208 0.319822 0.9468279 0.039959 0.63476
71.9692 291.159 41.48119 0.03508208 0.319822 0.9468279 0.035828 0.640724
12.3031 286 45.4346 8.742278e-08 0 1 0.007735 0.888295
2.727189e-06 286 45.4346 8.742278e-08 0 1 0.001942 0.888295
12.3031 286 45.4346 6.92165e-08 0.6108524 0.7917445 0.007735 0.638295
1.499607e-06 304.2 31.3927 6.92165e-08 0.6108524 0.7917445 0.001942 0.646864
2.727189e-06 286 45.4346 6.92165e-08 0.6108524 0.7917445 0.001942 0.638295
1.499607e-06 304.2 31.3927 6.914738e-08 0.6118759 0.7909538 0.001942 0.646864
71.9692 291.159 41.48119 6.914738e-08 0.6118759 0.7909538 0.035828 0.640724
103.246 304.2 31.39269 6.914738e-08 0.6118759 0.7909538 0.050554 0.646864
316.353 355.998 45.43457 0.05312409 0.3787231 0.9239842 0.150892 0.671252
311.924 370.268 39.84017 0.05312409 0.3787231 0.9239842 0.148807 0.677971
301.23 358.12 45.43457 0.05312409 0.3787231 0.9239842 0.144323 0.672826
301.23 358.12 45.43457 0.35827 0.111478 0.9269387 0.144323 0.672826
311.924 370.268 39.84017 0.35827 0.111478 0.9269387 0.148807 0.677971
295.751 375.728 45.43457 0.35827 0.111478 0.9269387 0.141192 0.680542
295.751 375.728 45.43457 0.4224999 0.4411758 0.7917436 0.141192 0.680542
304.2 392.836 31.39277 0.4224999 0.4411758 0.7917436 0.14517 0.688597
286 385.066 45.43457 0.4224999 0.4411758 0.7917436 0.136601 0.684938
396.754 304.2 31.39267 0.4225 0.441177 0.7917428 0.188748 0.646864
316.353 355.998 45.43457 0.4225 0.441177 0.7917428 0.150892 0.671252
389.445 286 45.43457 0.4225 0.441177 0.7917428 0.185307 0.638295
301.23 358.12 45.43457 8.742278e-08 0 1 0.143772 0.922251
228.489 181.179 55.96728 0.5345554 -0.5112603 0.6729513 0.109523 0.588942
250 196.499 50.51828 0.5345554 -0.5112603 0.6729513 0.119651 0.596154
250 204.24 56.39968 0.5345554 -0.5112603 0.6729513 0.119651 0.599799
228.841 305.112 56.39968 8.742278e-08 0 1 0.109689 0.897293
154.395 226.799 56.39968 8.742278e-08 0 1 0.074637 0.860421
218.946 180.558 56.39968 8.742278e-08 0 1 0.10503 0.838649
250 204.24 56.39968 0.04938411 -0.06475504 0.9966785 0.119651 0.849799
218.946 180.558 56.39968 0.04938411 -0.06475504 0.9966785 0.10503 0.838649
228.489 181.179 55.96728 0.04938411 -0.06475504 0.9966785 0.109523 0.838942
22.7963 178.642 56.3997 8.742278e-08 0 1 0.012676 0.837747
3.685788e-06 228.134 56.3997 8.742278e-08 0 1 0.001942 0.861049
3.685788e-06 176.644 56.3997 8.742278e-08 0 1 0.001942 0.836806
3.171619e-06 171.733 50.5183 0.06713504 -0.7658627 0.6394898 0.001942 0.584494
22.7963 178.642 56.3997 0.06713504 -0.7658627 0.6394898 0.012676 0.587228
3.685788e-06 176.644 56.3997 0.06713504 -0.7658627 0.6394898 0.001942 0.586806
178.799 280.084 50.51828 -0.335337 0.3211641 0.8856652 0.086127 0.635509
137.115 250.58 45.43449 -0.335337 0.3211641 0.8856652 0.066501 0.621618
143.827 243.568 50.51829 -0.335337 0.3211641 0.8856652 0.069661 0.618316
150 233.045 50.51829 8.742278e-08 0 1 0.072568 0.863362
143.827 243.568 50.51829 8.742278e-08 0 1 0.069661 0.868316
154.395 226.799 56.39968 -0.4325118 0.4378389 0.7881819 0.074637 0.610421
207.049 289.4 50.51828 -0.4325118 0.4378389 0.7881819 0.099428 0.639895
150 233.045 50.51829 -0.4325118 0.4378389 0.7881819 0.072568 0.613362
226.85 171.733 50.51828 6.657007e-08 -0.6481969 0.7614729 0.108751 0.584494
22.7963 178.642 56.3997 6.657007e-08 -0.6481969 0.7614729 0.012676 0.587228
3.171619e-06 171.733 50.5183 6.657007e-08 -0.6481969 0.7614729 0.001942 0.584494
59.3791 222.545 56.3997 8.742278e-08 0 1 0.0299 0.858418
217.166 176.644 56.39968 8.742278e-08 0 1 0.104191 0.836806
83.9927 233.045 50.51829 6.364658e-08 0.6855431 0.7280321 0.041489 0.613362
154.395 226.799 56.39968 6.364658e-08 0.6855431 0.7280321 0.074637 0.610421
150 233.045 50.51829 6.364658e-08 0.6855431 0.7280321 0.072568 0.613362
250 152.83 45.43448 7.293877e-08 -0.5512772 0.8343222 0.119651 0.575594
135.684 160.524 50.51829 7.293877e-08 -0.5512772 0.8343222 0.065827 0.579343
119.669 152.83 45.43449 7.293877e-08 -0.5512772 0.8343222 0.058287 0.575594
95.5845 160.727 50.51829 7.350647e-08 -0.541321 0.840816 0.046947 0.579401
2.72718e-06 152.83 45.4345 7.350647e-08 -0.541321 0.840816 0.001942 0.575594
119.669 152.83 45.43449 7.350647e-08 -0.541321 0.840816 0.058287 0.575594
119.669 152.83 45.43449 -0.1170599 -0.366278 0.9231129 0.058287 0.575594
135.684 160.524 50.51829 -0.1170599 -0.366278 0.9231129 0.065827 0.579343
119.838 165.588 50.51829 -0.1170599 -0.366278 0.9231129 0.058361 0.580747
135.684 160.524 50.51829 8.742278e-08 0 1 0.065827 0.829216
119.838 165.588 50.51829 8.742278e-08 0 1 0.058366 0.831601
200.905 367.926 45.43458 -0.407623 0.449534 0.7948351 0.09633 0.677082
103.246 304.2 31.39269 -0.407623 0.449534 0.7948351 0.050554 0.646864
110.555 286 45.43459 -0.407623 0.449534 0.7948351 0.053995 0.638295
310.946 465.718 51.01648 0.9360246 -0.1101469 0.3342538 0.148346 0.723947
317.115 458.192 31.26017 0.9360246 -0.1101469 0.3342538 0.151251 0.720403
317.115 500 45.03727 0.9360246 -0.1101469 0.3342538 0.151251 0.739053
182.885 500 45.03728 -0.9360224 -0.1101491 0.3342592 0.088051 0.739053
182.885 458.192 31.26019 -0.9360224 -0.1101491 0.3342592 0.088051 0.720403
189.055 465.718 51.01649 -0.9360224 -0.1101491 0.3342592 0.090956 0.723947
310.946 500 51.01648 8.742278e-08 0 1 0.148346 0.989053
310.946 500 51.01648 0 1 0 0.148346 0.739053
295.715 500 51.01648 0.5211551 0 0.853462 0.141175 0.739053
204.285 474.94 51.01648 -0.521155 0 0.8534621 0.098127 0.727254
204.285 474.94 51.01648 -0.4045809 -0.4805299 0.778078 0.098127 0.727254
250 436.45 51.01648 -0.4045809 -0.4805299 0.778078 0.119651 0.709132
247.724 447.083 56.39968 -0.4045809 -0.4805299 0.778078 0.119651 0.713342
250 436.45 51.01648 0.4431324 -0.5263174 0.7256885 0.119651 0.709132
295.715 474.94 51.01648 0.4431324 -0.5263174 0.7256885 0.141175 0.727254
286.899 474.94 56.39967 0.4431324 -0.5263174 0.7256885 0.137025 0.727254
295.715 500 51.01648 0 1 0 0.141175 0.739053
250 196.499 50.51828 -0.33422 -0.3124111 0.8892111 0.119651 0.596154
273.15 171.733 50.51828 -0.33422 -0.3124111 0.8892111 0.130551 0.584494
284.207 176.644 56.39967 -0.33422 -0.3124111 0.8892111 0.136211 0.586534
250 362.838 45.43458 -0.3628089 0.364833 0.8574769 0.119651 0.674473
137.115 250.58 45.43449 -0.3628089 0.364833 0.8574769 0.066501 0.621618
178.799 280.084 50.51828 -0.3628089 0.364833 0.8574769 0.086127 0.635509
59.3791 222.545 56.3997 7.627199e-08 0.4887039 0.8724498 0.0299 0.608419
83.9927 233.045 50.51829 7.627199e-08 0.4887039 0.8724498 0.041489 0.613362
3.171619e-06 233.045 50.5183 7.627199e-08 0.4887039 0.8724498 0.001942 0.613362
255.245 321.566 56.39968 0.4744851 0.458902 0.751181 0.12212 0.655041
345.609 228.134 56.39967 0.4744851 0.458902 0.751181 0.164667 0.611049
348.217 235.064 50.51827 0.4744851 0.458902 0.751181 0.166168 0.614149
3.171619e-06 243.568 50.5183 7.077659e-08 0.586996 0.8095899 0.001942 0.618316
143.827 243.568 50.51829 7.077659e-08 0.586996 0.8095899 0.069661 0.618316
137.115 250.58 45.43449 7.077659e-08 0.586996 0.8095899 0.066501 0.621618
251.78 351.225 50.51828 0.3332751 0.323172 0.885713 0.120489 0.669005
356.174 243.568 50.51827 0.3332751 0.323172 0.885713 0.169641 0.618316
362.885 250.58 45.43447 0.3332751 0.323172 0.885713 0.172801 0.621618
500 152.83 45.43446 -0.002698926 -0.5187111 0.8549453 0.23736 0.575594
500 161.209 50.51826 -0.002698926 -0.5187111 0.8549453 0.23736 0.579539
357.737 161.95 50.51827 -0.002698926 -0.5187111 0.8549453 0.170377 0.579751
411.102 171.733 50.51826 5.603242e-08 -0.7675942 0.6409362 0.195504 0.584494
500 171.733 50.51826 5.603242e-08 -0.7675942 0.6409362 0.23736 0.584494
500 176.644 56.39966 5.603242e-08 -0.7675942 0.6409362 0.23736 0.586806
442.114 226.561 56.39966 -0.02084696 0.7674295 0.6407944 0.208873 0.611049
500 228.134 56.39966 -0.02084696 0.7674295 0.6407944 0.23736 0.611049
500 233.045 50.51826 -0.02084696 0.7674295 0.6407944 0.23736 0.613362
255.245 321.566 56.39968 8.742278e-08 0 1 0.12212 0.905041
500 2e-06 -4.386902e-05 0 -1 0 0.23736 0.753636
-1.24483e-06 2e-06 0 -8.742278e-08 0 -1 0.001942 0.753636
500 500 45.43456 0 1 0 0.23736 0.989053
304.2 445.8 31.39277 8.742278e-08 0 1 0.14517 0.713534
295.751 375.728 45.43457 8.742278e-08 0 1 0.141192 0.930542
214 464 45.43458 -0.6108541 0 0.7917432 0.102701 0.722103
126.322 463.078 45.43459 -0.004457931 -0.610846 0.791737 0.061419 0.721752
2.727189e-06 464 45.4346 -0.004457931 -0.610846 0.791737 0.001942 0.722103
1.499615e-06 445.8 31.3928 -0.004457931 -0.610846 0.791737 0.001942 0.713534
103.246 304.2 31.39269 0.000693069 0.6108348 0.7917577 0.050554 0.646864
71.9692 291.159 41.48119 0.000693069 0.6108348 0.7917577 0.035828 0.640724
102.511 286 45.43459 0.000693069 0.6108348 0.7917577 0.050208 0.638295
500 286 45.43456 6.92165e-08 0.6108524 0.7917445 0.23736 0.638295
500 304.2 31.39265 6.92165e-08 0.6108524 0.7917445 0.23736 0.646864
396.754 304.2 31.39267 6.92165e-08 0.6108524 0.7917445 0.188748 0.646864
402.341 447.11 31.39277 0.01143007 -0.5915219 0.8062079 0.191379 0.714034
455.591 467.277 45.43456 0.01143007 -0.5915219 0.8062079 0.21645 0.723354
286 464 45.43457 0.01143007 -0.5915219 0.8062079 0.136601 0.722103
304.2 392.836 31.39277 0.6108542 0 0.7917431 0.14517 0.688597
102.511 286 45.43459 8.742278e-08 0 1 0.050208 0.888295
2.727189e-06 500 45.4346 -1 0 8.742278e-08 0.001942 0.989053
2.72718e-06 -5e-06 45.4345 -1 0 8.742278e-08 0.001942 0.753636
500 500 45.43456 1 0 -8.742278e-08 0.23736 0.989053
348.217 235.064 50.51827 0.01050507 0.6446992 0.7643642 0.166168 0.614149
345.609 228.134 56.39967 0.01050507 0.6446992 0.7643642 0.164667 0.611049
442.114 226.561 56.39966 0.01050507 0.6446992 0.7643642 0.208873 0.611049
284.207 176.644 56.39967 5.603242e-08 -0.7675942 0.6409362 0.136211 0.586534
273.15 171.733 50.51828 5.603242e-08 -0.7675942 0.6409362 0.130551 0.584494
341.182 154.08 45.43447 0.01037108 -0.5579181 0.8298312 0.162583 0.575951
357.737 161.95 50.51827 0.01037108 -0.5579181 0.8298312 0.170377 0.579751
250 159.947 50.51828 0.01037108 -0.5579181 0.8298312 0.119651 0.579178
500 250.58 45.43446 7.077666e-08 0.5869948 0.8095907 0.23736 0.621618
446.267 250.58 45.43446 7.077666e-08 0.5869948 0.8095907 0.212061 0.621618
449.586 243.568 50.51826 7.077666e-08 0.5869948 0.8095907 0.22048 0.618316
362.885 250.58 45.43447 -4.892923e-05 0.5870261 0.809568 0.172801 0.621618
356.174 243.568 50.51827 -4.892923e-05 0.5870261 0.809568 0.169641 0.618316
433.342 247.235 47.86356 -4.892923e-05 0.5870261 0.809568 0.21147 0.620043
250 396.07 33.55268 0.5539632 -0.5763191 0.6008171 0.119651 0.69012
317.115 458.192 31.26017 0.5539632 -0.5763191 0.6008171 0.151251 0.720403
257.916 421.885 51.01648 0.5539632 -0.5763191 0.6008171 0.123378 0.702274
257.916 421.885 51.01648 8.742278e-08 0 1 0.123378 0.952274
250 396.07 33.55268 -0.507081 -0.5841941 0.6337082 0.119651 0.69012
250 406.864 43.50298 -0.507081 -0.5841941 0.6337082 0.119651 0.695202
236.25 426.949 51.01648 -0.507081 -0.5841941 0.6337082 0.113177 0.704659
500 445.8 31.39276 -0.04502893 -0.6102321 0.7909421 0.23736 0.713534
500 464 45.43456 -0.04502893 -0.6102321 0.7909421 0.23736 0.722103
455.591 467.277 45.43456 -0.04502893 -0.6102321 0.7909421 0.21645 0.723354
195.8 445.8 31.39278 8.742278e-08 0 1 0.094132 0.713534
195.8 445.8 31.39278 0.006465069 -0.614884 0.788591 0.094132 0.713534
214 464 45.43458 0.006465069 -0.614884 0.788591 0.102701 0.722103
126.322 463.078 45.43459 0.006465069 -0.614884 0.788591 0.061419 0.721752
12.3031 286 45.4346 -0.0003379308 0.6107091 0.791855 0.007735 0.638295
71.9692 291.159 41.48119 -0.0003379308 0.6107091 0.791855 0.035828 0.640724
1.499607e-06 304.2 31.3927 -0.0003379308 0.6107091 0.791855 0.001942 0.646864
295.751 375.728 45.43457 0.4227401 0.441022 0.791701 0.141192 0.680542
311.924 370.268 39.84017 0.4227401 0.441022 0.791701 0.148807 0.677971
304.2 392.836 31.39277 0.4227401 0.441022 0.791701 0.14517 0.688597
396.754 304.2 31.39267 0.422648 0.4414729 0.7914988 0.188748 0.646864
311.924 370.268 39.84017 0.422648 0.4414729 0.7914988 0.148807 0.677971
316.353 355.998 45.43457 0.422648 0.4414729 0.7914988 0.150892 0.671252
316.353 355.998 45.43457 8.742278e-08 0 1 0.150892 0.921252
228.489 181.179 55.96728 0.525899 -0.4915819 0.6941019 0.109523 0.588942
226.85 171.733 50.51828 0.525899 -0.4915819 0.6941019 0.108751 0.584494
250 196.499 50.51828 0.525899 -0.4915819 0.6941019 0.119651 0.596154
154.395 226.799 56.39968 -0.5536439 0.5263059 0.645353 0.074637 0.610421
228.841 305.112 56.39968 -0.5536439 0.5263059 0.645353 0.109688 0.647294
207.049 289.4 50.51828 -0.5536439 0.5263059 0.645353 0.099428 0.639895
226.85 171.733 50.51828 -0.007956943 -0.7739778 0.6331628 0.108751 0.584494
217.166 176.644 56.39968 -0.007956943 -0.7739778 0.6331628 0.104191 0.586806
22.7963 178.642 56.3997 -0.007956943 -0.7739778 0.6331628 0.012676 0.587228
83.9927 233.045 50.51829 -0.02374292 0.5303558 0.8474427 0.041489 0.613362
59.3791 222.545 56.3997 -0.02374292 0.5303558 0.8474427 0.0299 0.608419
154.395 226.799 56.39968 -0.02374292 0.5303558 0.8474427 0.074637 0.610421
250 152.83 45.43448 -0.002934928 -0.5812669 0.8137078 0.119651 0.575594
250 159.947 50.51828 -0.002934928 -0.5812669 0.8137078 0.119651 0.579178
135.684 160.524 50.51829 -0.002934928 -0.5812669 0.8137078 0.065827 0.579343
95.5845 160.727 50.51829 -0.002618925 -0.518712 0.854945 0.046947 0.579401
3.171619e-06 161.209 50.5183 -0.002618925 -0.518712 0.854945 0.001942 0.579539
2.72718e-06 152.83 45.4345 -0.002618925 -0.518712 0.854945 0.001942 0.575594
200.905 367.926 45.43458 -0.3779459 0.3946529 0.8374999 0.09633 0.677082
195.8 392.836 31.39278 -0.3779459 0.3946529 0.8374999 0.094132 0.688597
103.246 304.2 31.39269 -0.3779459 0.3946529 0.8374999 0.050554 0.646864
3 0 1 2 
3 3 4 5 
3 6 7 8 
3 9 10 11 
3 12 13 14 
3 15 16 17 
3 18 19 20 
3 21 22 23 
3 24 25 26 
3 27 28 29 
3 30 31 32 
3 21 33 34 
3 35 36 37 
3 38 39 40 
3 41 42 43 
3 44 45 46 
3 47 48 49 
3 50 51 52 
3 53 54 55 
3 56 57 58 
3 59 60 61 
3 62 63 64 
3 65 66 67 
3 68 69 70 
3 71 72 73 
3 74 75 76 
3 74 77 75 
3 78 79 80 
3 81 82 83 
3 84 85 79 
3 86 87 88 
3 89 90 91 
3 92 93 94 
3 95 96 97 
3 98 99 100 
3 101 102 103 
3 104 105 106 
3 106 105 107 
3 36 108 109 
3 110 111 112 
3 35 110 36 
3 99 113 100 
3 114 100 115 
3 116 98 117 
3 118 119 120 
3 121 122 123 
3 124 125 126 
3 127 128 129 
3 130 131 132 
3 133 134 135 
3 136 137 138 
3 139 140 141 
3 142 143 144 
3 145 146 147 
3 148 149 150 
3 151 152 153 
3 154 155 156 
3 157 158 159 
3 160 161 162 
3 163 164 165 
3 134 166 135 
3 166 137 135 
3 167 168 169 
3 170 171 172 
3 171 167 169 
3 173 174 175 
3 176 177 178 
3 174 178 175 
3 179 180 181 
3 180 182 181 
3 183 184 185 
3 186 187 188 
3 189 190 191 
3 192 104 106 
3 193 194 195 
3 77 196 86 
3 197 198 199 
3 200 201 202 
3 202 203 204 
3 205 206 207 
3 208 209 210 
3 211 212 213 
3 214 200 85 
3 215 216 217 
3 218 219 220 
3 221 222 223 
3 224 225 226 
3 227 6 8 
3 228 229 230 
3 231 232 233 
3 130 234 235 
3 236 237 238 
3 239 134 133 
3 240 241 127 
3 242 243 244 
3 166 140 139 
3 245 246 247 
3 248 249 250 
3 169 251 252 
3 253 254 255 
3 256 257 258 
3 259 260 261 
3 262 263 264 
3 265 266 267 
3 268 269 270 
3 170 271 167 
3 272 273 274 
3 105 275 107 
3 107 276 277 
3 278 279 280 
3 281 282 283 
3 284 285 286 
3 287 288 289 
3 290 80 291 
3 292 293 294 
3 295 296 297 
3 298 299 277 
3 277 276 298 
3 300 301 302 
3 291 65 290 
3 303 304 305 
3 306 307 308 
3 309 310 311 
3 76 312 74 
3 51 313 76 
3 314 315 316 
3 271 136 167 
3 317 318 319 
3 320 321 322 
3 6 323 7 
3 12 324 13 
3 15 325 16 
3 18 326 19 
3 21 34 22 
3 327 328 329 
3 330 331 332 
3 30 333 31 
3 334 335 336 
3 50 313 51 
3 337 338 339 
3 340 341 342 
3 343 344 345 
3 65 291 66 
3 346 347 348 
3 349 350 351 
3 78 84 79 
3 352 353 354 
3 84 214 85 
3 86 196 87 
3 355 356 357 
3 92 192 93 
3 358 359 360 
3 98 116 99 
3 104 361 105 
3 36 110 108 
3 35 111 110 
3 114 98 100 
3 118 362 119 
3 121 363 122 
3 124 364 125 
3 127 241 128 
3 130 365 131 
3 136 366 137 
3 145 367 146 
3 368 369 370 
3 371 372 373 
3 374 375 376 
3 377 378 379 
3 163 380 164 
3 134 140 166 
3 166 138 137 
3 167 381 168 
3 171 170 167 
3 173 382 174 
3 176 383 177 
3 174 176 178 
3 179 183 180 
3 180 384 182 
3 183 179 184 
3 385 386 387 
3 192 92 104 
3 388 389 355 
3 77 74 196 
3 390 391 392 
3 202 201 203 
3 393 394 395 
3 396 397 398 
3 214 201 200 
3 399 400 401 
3 227 402 6 
3 403 404 405 
3 130 132 234 
3 406 407 408 
3 240 409 241 
3 410 411 412 
3 169 168 251 
3 413 414 415 
3 416 417 418 
3 419 420 421 
3 170 422 271 
3 423 424 425 
3 107 275 276 
3 281 298 282 
3 290 78 80 
3 426 427 428 
3 429 430 431 
3 298 281 299 
3 432 433 434 
3 435 436 437 
3 438 439 440 
3 76 313 312 
3 441 442 443 
3 271 366 136 
