ply
format ascii 1.0
comment VCGLIB generated
comment TextureFile dummy.png
element vertex 452
property float x
property float y
property float z
property float nx
property float ny
property float nz
property float texture_u
property float texture_v
element face 203
property list uchar int vertex_indices
end_header
0.0002476858 500 56.3997 8.742278e-08 0 1 0.002065 0.989053
24.4636 438.133 56.3997 8.742278e-08 0 1 0.013571 0.959711
24.4636 500 56.3997 8.742278e-08 0 1 0.013571 0.989053
30.6174 427.697 45.4346 0.6574342 -0.5435731 0.521832 0.016465 0.704802
0.0001256858 401.193 56.3997 0.6574342 -0.5435731 0.521832 0.002065 0.692336
0.0001247272 390.667 45.4346 0.6574342 -0.5435731 0.521832 0.002065 0.687385
30.6174 500 45.4346 0.8720539 0 0.4894099 0.016465 0.739053
24.4636 438.133 56.3997 0.8720539 0 0.4894099 0.013571 0.709711
30.6174 427.697 45.4346 0.8720539 0 0.4894099 0.016465 0.704802
24.4636 500 56.3997 0 1 0 0.013571 0.989053
0.0001247272 500 45.4346 0 1 0 0.002065 0.989053
0.0002476858 500 56.3997 0 1 0 0.002065 0.989053
500 401.193 56.39966 -0.6574323 -0.5435742 0.5218333 0.237238 0.692336
469.382 427.697 45.43456 -0.6574323 -0.5435742 0.5218333 0.222837 0.704802
500 390.667 45.43456 -0.6574323 -0.5435742 0.5218333 0.237238 0.687385
469.382 469.334 45.43456 -0.8720413 0 0.4894323 0.222837 0.724386
475.537 500 56.39966 -0.8720413 0 0.4894323 0.225732 0.739053
469.382 500 45.43456 -0.8720413 0 0.4894323 0.222837 0.739053
475.537 500 56.39966 0 1 0 0.225732 0.739053
500 500 45.43456 0 1 0 0.237238 0.739054
469.382 500 45.43456 0 1 0 0.222837 0.739053
477.594 464.605 56.39966 8.742278e-08 0 1 0.226699 0.972162
500 500 56.39966 8.742278e-08 0 1 0.237238 0.989053
475.537 500 56.39966 8.742278e-08 0 1 0.225732 0.989053
0.0001256858 401.193 56.3997 -1 0 8.742278e-08 0.002065 0.942336
0.0001247272 500 45.4346 -1 0 8.742278e-08 0.002065 0.989053
0.0001247272 390.667 45.4346 -1 0 8.742278e-08 0.002065 0.937385
64.154 73.9942 56.3997 0.676335 0.559205 0.4794379 0.032239 0.538711
93.8409 47.4901 45.43449 0.676335 0.559205 0.4794379 0.046202 0.525973
63.2234 84.5207 45.43449 0.676335 0.559205 0.4794379 0.031801 0.54339
83.4341 42.0905 56.39969 0.7253302 0 0.6884011 0.041307 0.526452
93.8409 -5e-06 45.43449 0.7253302 0 0.6884011 0.046202 0.519639
93.8409 47.4901 45.43449 0.7253302 0 0.6884011 0.046202 0.525973
205.662 374.122 45.43458 8.742278e-08 0 1 0.098797 0.929603
268.646 343.048 45.43458 8.742278e-08 0 1 0.128421 0.914987
294.339 374.122 45.43457 8.742278e-08 0 1 0.140506 0.929603
292.249 462.389 45.43457 8.742278e-08 0 1 0.139523 0.971119
205.662 500 45.43458 8.742278e-08 0 1 0.098797 0.989053
207.751 415.865 45.43458 8.742278e-08 0 1 0.09978 0.949237
250 301.417 31.39268 0.4402049 -0.3639688 0.8208206 0.119651 0.645407
305.493 368.533 31.39277 0.4402049 -0.3639688 0.8208206 0.145752 0.676975
250 310.883 35.59008 0.4402049 -0.3639688 0.8208206 0.119651 0.649859
268.646 343.048 45.43458 0.58265 -0.4817449 0.6545539 0.128421 0.664987
305.493 368.533 31.39277 0.58265 -0.4817449 0.6545539 0.145752 0.676975
294.339 374.122 45.43457 0.58265 -0.4817449 0.6545539 0.140506 0.679603
250 301.417 31.39268 -0.4402039 -0.363969 0.820821 0.119651 0.645407
250 310.883 35.59008 -0.4402039 -0.363969 0.820821 0.119651 0.649859
194.507 368.533 31.39278 -0.4402039 -0.363969 0.820821 0.09355 0.676975
194.507 368.533 31.39278 -0.5826439 -0.4817359 0.654566 0.09355 0.676975
239.517 333.175 45.43458 -0.5826439 -0.4817359 0.654566 0.114721 0.660344
205.662 374.122 45.43458 -0.5826439 -0.4817359 0.654566 0.098797 0.679603
194.507 417.243 31.39278 -0.7830171 0 0.6220002 0.09355 0.699885
205.662 500 45.43458 -0.7830171 0 0.6220002 0.098797 0.739053
194.507 500 31.39278 -0.7830171 0 0.6220002 0.09355 0.739053
305.493 500 31.39277 0.7274888 0 0.6861197 0.145752 0.739053
292.249 462.389 45.43457 0.7274888 0 0.6861197 0.139882 0.721119
305.493 455.201 31.39277 0.7274888 0 0.6861197 0.145752 0.717738
205.662 500 45.43458 0 1 0 0.098797 0.989053
305.493 500 31.39277 0 1 0 0.145752 0.989053
194.507 500 31.39278 0 1 0 0.09355 0.989053
228.639 154.187 45.43448 8.742278e-08 0 1 0.109604 0.826158
294.339 126.397 45.43447 8.742278e-08 0 1 0.140506 0.813086
250 180.023 45.43448 8.742278e-08 0 1 0.119651 0.838309
282.872 68.5674 45.43447 8.742278e-08 0 1 0.135113 0.785887
208.861 36.6167 45.43448 8.742278e-08 0 1 0.100302 0.770859
294.339 25.3038 45.43447 8.742278e-08 0 1 0.140506 0.765538
205.661 -5e-06 45.43448 8.742278e-08 0 1 0.098797 0.753636
250 199.101 31.39268 -0.5826488 0.4817438 0.6545558 0.119651 0.597283
228.639 154.187 45.43448 -0.5826488 0.4817438 0.6545558 0.109604 0.576158
250 180.023 45.43448 -0.5826488 0.4817438 0.6545558 0.119651 0.588309
194.507 131.985 31.39268 -0.502762 0.249458 0.827648 0.09355 0.565715
198.747 129.861 34.60868 -0.502762 0.249458 0.827648 0.095548 0.564716
228.639 154.187 45.43448 -0.502762 0.249458 0.827648 0.109604 0.576158
250 180.023 45.43448 0.5826482 0.4817441 0.6545562 0.119651 0.588309
305.493 131.985 31.39267 0.5826482 0.4817441 0.6545562 0.145752 0.565715
250 199.101 31.39268 0.5826482 0.4817441 0.6545562 0.119651 0.597283
305.493 131.985 31.39267 0.6042812 0 0.7967712 0.145752 0.565715
299.272 64.8848 36.11047 0.6042812 0 0.7967712 0.142826 0.534154
305.493 -3e-06 31.39267 0.6042812 0 0.7967712 0.145752 0.503636
294.339 25.3038 45.43447 0.8128201 0.035651 0.5814229 0.140506 0.515538
305.493 -3e-06 31.39267 0.8128201 0.035651 0.5814229 0.145752 0.503636
299.272 64.8848 36.11047 0.8128201 0.035651 0.5814229 0.142826 0.534154
294.339 126.397 45.43447 0.8838948 0 0.4676858 0.140506 0.563086
294.339 97.1058 45.43447 0.8838948 0 0.4676858 0.140506 0.54931
299.272 64.8848 36.11047 0.8838948 0 0.4676858 0.142826 0.534154
194.507 -3e-06 31.39268 -0.781203 0.06827801 0.6205321 0.09355 0.519234
205.661 -5e-06 45.43448 -0.781203 0.06827801 0.6205321 0.098797 0.519234
208.861 36.6167 45.43448 -0.781203 0.06827801 0.6205321 0.099752 0.531853
294.339 -5e-06 45.43447 0 -1 0 0.140506 0.753636
194.507 -3e-06 31.39268 0 -1 0 0.09355 0.753636
305.493 -3e-06 31.39267 0 -1 0 0.145752 0.753636
436.777 70.6944 56.39966 8.742278e-08 0 1 0.207501 0.786887
500 -7e-06 56.39966 8.742278e-08 0 1 0.237238 0.753636
500 73.9942 56.39966 8.742278e-08 0 1 0.237238 0.788439
414.477 -7e-06 56.39967 8.742278e-08 0 1 0.197012 0.753636
412.313 44.4066 56.39967 8.742278e-08 0 1 0.195995 0.774523
406.159 47.4901 45.43446 -0.6007819 0.4967349 0.626351 0.1931 0.525973
436.777 70.6944 56.39966 -0.6007819 0.4967349 0.626351 0.207501 0.536887
436.777 84.5207 45.43446 -0.6007819 0.4967349 0.626351 0.207501 0.54339
406.159 -5e-06 45.43446 -0.8720455 0 0.4894249 0.1931 0.503636
412.313 44.4066 56.39967 -0.8720455 0 0.4894249 0.195995 0.524523
406.159 47.4901 45.43446 -0.8720455 0 0.4894249 0.1931 0.525973
500 73.9942 56.39966 -0.03241394 0.621048 0.783102 0.237238 0.538439
436.777 84.5207 45.43446 -0.03241394 0.621048 0.783102 0.207501 0.54339
436.777 70.6944 56.39966 -0.03241394 0.621048 0.783102 0.207501 0.536887
142.17 500 45.43459 0.001825 0.9999821 -0.005709 0.068934 0.988809
-0.0002452448 500 9.918213e-05 0.001825 0.9999821 -0.005709 0.002064 0.988809
2.727189e-06 500.259 45.4346 0.001825 0.9999821 -0.005709 0.002065 0.988931
500 2e-06 -4.386902e-05 0 -1 0 0.237238 0.753636
357.83 -5e-06 45.43447 0 -1 0 0.170369 0.753636
352.472 -3e-06 31.39267 0 -1 0 0.167849 0.753636
138.704 443.354 45.43459 8.742278e-08 0 1 0.067303 0.962166
142.17 500 45.43459 8.742278e-08 0 1 0.068934 0.988809
2.727189e-06 500.259 45.4346 8.742278e-08 0 1 0.002065 0.988931
500 -5e-06 45.43446 8.742278e-08 0 1 0.237238 0.753636
360.787 56.6463 45.43447 8.742278e-08 0 1 0.17176 0.78028
357.83 -5e-06 45.43447 8.742278e-08 0 1 0.170369 0.753636
120.066 93.0098 31.39269 8.742278e-08 0 1 0.058537 0.547383
352.472 63.0475 31.39267 8.742278e-08 0 1 0.167849 0.53329
379.934 93.0098 31.39267 8.742278e-08 0 1 0.180765 0.547383
379.934 406.99 31.39277 8.742278e-08 0 1 0.180765 0.695062
120.066 406.99 31.39279 8.742278e-08 0 1 0.058537 0.695062
379.934 338.042 31.39277 8.742278e-08 0 1 0.180765 0.662633
352.472 436.952 31.39277 8.742278e-08 0 1 0.167849 0.709155
147.528 436.952 31.39279 8.742278e-08 0 1 0.071454 0.709155
2.72718e-06 -5e-06 45.4345 8.742278e-08 0 1 0.002065 0.753636
127.504 72.373 45.43449 8.742278e-08 0 1 0.062036 0.787677
113.272 87.6345 45.43449 8.742278e-08 0 1 0.055341 0.794855
386.728 87.6345 45.43446 8.742278e-08 0 1 0.183961 0.794855
500 500.259 45.43456 8.742278e-08 0 1 0.237238 0.988931
390.173 322.478 45.43457 8.742278e-08 0 1 0.185581 0.905312
500 223.432 45.43446 8.742278e-08 0 1 0.237238 0.858727
357.83 443.354 45.43457 8.742278e-08 0 1 0.170369 0.962166
386.728 412.365 45.43457 8.742278e-08 0 1 0.183961 0.947591
113.272 87.6345 45.43449 0.6229749 0.5809569 0.5238238 0.055341 0.544855
127.504 72.373 45.43449 0.6229749 0.5809569 0.5238238 0.062036 0.537677
120.066 93.0098 31.39269 0.6229749 0.5809569 0.5238238 0.058537 0.547383
147.528 63.0475 31.39268 0.6318784 0.5761633 0.5184262 0.071454 0.53329
127.504 72.373 45.43449 0.6318784 0.5761633 0.5184262 0.062036 0.537677
144.78 59.7649 38.38959 0.6318784 0.5761633 0.5184262 0.070161 0.531746
360.787 56.6463 45.43447 -0.5912991 0.5419581 0.5971992 0.17176 0.53028
379.934 93.0098 31.39267 -0.5912991 0.5419581 0.5971992 0.180765 0.547383
352.472 63.0475 31.39267 -0.5912991 0.5419581 0.5971992 0.167849 0.53329
379.934 338.042 31.39277 -0.8239521 -0.03157501 0.5657791 0.180765 0.662633
390.173 322.478 45.43457 -0.8239521 -0.03157501 0.5657791 0.184283 0.655314
386.728 412.365 45.43457 -0.8239521 -0.03157501 0.5657791 0.183961 0.697591
113.272 112.948 45.43449 0.9006238 0.0008249998 0.4345988 0.055341 0.556761
120.066 93.0098 31.39269 0.9006238 0.0008249998 0.4345988 0.058537 0.547383
117.36 184.296 36.82599 0.9006238 0.0008249998 0.4345988 0.057265 0.590319
120.066 406.99 31.39279 0.9005935 -0.001454001 0.4346601 0.058537 0.695062
113.272 396.403 45.43459 0.9005935 -0.001454001 0.4346601 0.055341 0.690083
118.031 368.26 35.47919 0.9005935 -0.001454001 0.4346601 0.05758 0.676846
120.066 406.99 31.39279 0.8951631 0 0.4457389 0.058537 0.695062
118.031 368.26 35.47919 0.8951631 0 0.4457389 0.05758 0.676846
120.066 93.0098 31.39269 0.8951631 0 0.4457389 0.058537 0.547383
117.36 184.296 36.82599 0.8951631 0 0.4457389 0.057265 0.590319
113.272 291.357 45.43459 0.9032918 0 0.4290268 0.055341 0.640675
113.272 262.788 45.43449 0.9032918 0 0.4290268 0.055341 0.627237
117.36 184.296 36.82599 0.9032918 0 0.4290268 0.057265 0.590319
386.728 412.365 45.43457 -0.6278533 -0.5754623 0.5240644 0.183961 0.697591
352.472 436.952 31.39277 -0.6278533 -0.5754623 0.5240644 0.167849 0.709155
379.934 406.99 31.39277 -0.6278533 -0.5754623 0.5240644 0.180765 0.695062
138.704 443.354 45.43459 0.583739 -0.5350249 0.6107349 0.067303 0.712166
120.066 406.99 31.39279 0.583739 -0.5350249 0.6107349 0.058537 0.695062
147.528 436.952 31.39279 0.583739 -0.5350249 0.6107349 0.071454 0.709155
357.83 500 45.43457 8.742278e-08 0 1 0.171519 0.988809
142.17 -5e-06 45.43449 8.742278e-08 0 1 0.068934 0.753636
142.17 49.3004 45.43449 8.742278e-08 0 1 0.068934 0.776824
-0.0002452448 2e-06 0 0 -1 0 0.002064 0.753636
142.17 -5e-06 45.43449 0 -1 0 0.068934 0.753636
2.72718e-06 -5e-06 45.4345 0 -1 0 0.002065 0.753636
500 500 5.531311e-05 -0.001825001 0.9999821 -0.005709 0.237238 0.988809
357.83 500 45.43457 -0.001825001 0.9999821 -0.005709 0.171519 0.988809
500 500.259 45.43456 -0.001825001 0.9999821 -0.005709 0.237238 0.988931
138.704 443.354 45.43459 0.9327729 -0.05707799 0.3559169 0.067303 0.712166
147.528 500 31.39279 0.9327729 -0.05707799 0.3559169 0.071454 0.738809
142.17 500 45.43459 0.9327729 -0.05707799 0.3559169 0.068934 0.738809
147.528 500 31.39279 8.742278e-08 0 1 0.071454 0.738809
357.83 443.354 45.43457 -0.9342908 0 0.356512 0.170369 0.712166
352.472 500 31.39277 -0.9342908 0 0.356512 0.167849 0.738809
352.472 436.952 31.39277 -0.9342908 0 0.356512 0.167849 0.709155
360.787 56.6463 45.43447 -0.9331818 0.04870799 0.356089 0.17176 0.53028
352.472 -3e-06 31.39267 -0.9331818 0.04870799 0.356089 0.167849 0.503636
357.83 -5e-06 45.43447 -0.9331818 0.04870799 0.356089 0.170369 0.503636
147.528 63.0475 31.39268 8.742278e-08 0 1 0.071454 0.53329
352.472 -3e-06 31.39267 8.742278e-08 0 1 0.167849 0.519979
147.528 63.0475 31.39268 0.9308082 0 0.365508 0.071454 0.53329
144.78 59.7649 38.38959 0.9308082 0 0.365508 0.070161 0.531746
147.528 -3e-06 31.39268 0.9308082 0 0.365508 0.071454 0.519639
147.528 -3e-06 31.39268 0.9342962 0 0.3564979 0.071454 0.519639
142.17 49.3004 45.43449 0.9342962 0 0.3564979 0.068934 0.529214
142.17 -5e-06 45.43449 0.9342962 0 0.3564979 0.068934 0.519639
113.272 412.365 45.43459 8.742278e-08 0 1 0.055341 0.947591
99.617 334.409 45.43459 8.742278e-08 0 1 0.048919 0.910924
102.302 377.821 45.43459 8.742278e-08 0 1 0.050182 0.931343
113.272 112.948 45.43449 8.742278e-08 0 1 0.055341 0.806761
105.743 196.854 45.43449 8.742278e-08 0 1 0.0518 0.846226
113.272 262.788 45.43449 8.742278e-08 0 1 0.055342 0.877237
113.272 396.403 45.43459 8.742278e-08 0 1 0.055341 0.940083
3.685788e-06 -7e-06 56.3997 8.742278e-08 0 1 0.002065 0.753636
85.7366 -7e-06 56.39969 8.742278e-08 0 1 0.04239 0.753636
83.4341 42.0905 56.39969 8.742278e-08 0 1 0.041307 0.773433
64.154 73.9942 56.3997 8.742278e-08 0 1 0.032239 0.788439
3.685788e-06 73.9942 56.3997 8.742278e-08 0 1 0.00447 0.788439
3.685788e-06 73.9942 56.3997 6.054317e-08 0.7213861 0.6925331 0.004415 0.538501
63.2234 84.5207 45.43449 6.054317e-08 0.7213861 0.6925331 0.031801 0.54339
2.72718e-06 84.5207 45.4345 6.054317e-08 0.7213861 0.6925331 0.002122 0.543361
500 500 5.531311e-05 0 1 0 0.237238 0.988809
147.528 500 31.39279 0 1 0 0.071454 0.988809
352.472 500 31.39277 0 1 0 0.167849 0.988809
147.528 -3e-06 31.39268 0 -1 0 0.071454 0.753636
414.477 -7e-06 56.39967 0 -1 0 0.197012 0.753636
500 -5e-06 45.43446 0 -1 0 0.237238 0.753636
500 -7e-06 56.39966 0 -1 0 0.237238 0.753636
85.7366 -7e-06 56.39969 0 -1 0 0.04239 0.753636
2.72718e-06 -5e-06 45.4345 0 -1 0 0.002065 0.753636
93.8409 -5e-06 45.43449 0 -1 0 0.046202 0.753636
-0.0002452448 500 9.918213e-05 -1 0 5.087423e-06 0.002064 0.988809
2.72718e-06 -5e-06 45.4345 -1 0 5.087423e-06 0.002065 0.753636
2.727189e-06 500.259 45.4346 -1 0 5.087423e-06 0.002065 0.988931
500 500 5.531311e-05 -8.742278e-08 0 -1 0.237238 0.988809
-0.0002452448 2e-06 0 -8.742278e-08 0 -1 0.002064 0.753636
-0.0002452448 500 9.918213e-05 -8.742278e-08 0 -1 0.002064 0.988809
500 500 5.531311e-05 1 0 -3.087423e-06 0.237238 0.988809
500 500.259 45.43456 1 0 -3.087423e-06 0.237238 0.988931
500 223.432 45.43446 1 0 -3.087423e-06 0.237238 0.858727
500 2e-06 -4.386902e-05 1 0 -3.087423e-06 0.237238 0.753636
500 73.9942 56.39966 1 0 -8.742278e-08 0.237238 0.788439
500 -5e-06 45.43446 1 0 -8.742278e-08 0.237238 0.753636
500 84.5207 45.43446 1 0 -8.742278e-08 0.237238 0.79339
102.302 377.821 45.43459 0.4096829 -0.2418669 0.8795797 0.054316 0.681343
118.031 368.26 35.47919 0.4096829 -0.2418669 0.8795797 0.05758 0.676846
113.272 396.403 45.43459 0.4096829 -0.2418669 0.8795797 0.055341 0.690083
113.272 291.357 45.43459 0.321501 0.10197 0.9414029 0.055341 0.640675
118.031 368.26 35.47919 0.321501 0.10197 0.9414029 0.05758 0.676846
99.617 334.409 45.43459 0.321501 0.10197 0.9414029 0.054065 0.660924
99.617 334.409 45.43459 0.5204794 -0.03218702 0.8532674 0.054065 0.660924
118.031 368.26 35.47919 0.5204794 -0.03218702 0.8532674 0.05758 0.676846
102.302 377.821 45.43459 0.5204794 -0.03218702 0.8532674 0.054316 0.681343
250 310.883 35.59008 0.1197821 -0.3533979 0.9277728 0.119651 0.649859
268.646 343.048 45.43458 0.1197821 -0.3533979 0.9277728 0.128421 0.664987
239.517 333.175 45.43458 0.1197821 -0.3533979 0.9277728 0.114721 0.660344
282.872 68.5674 45.43447 0.4546121 -0.182659 0.8717589 0.137082 0.535887
299.272 64.8848 36.11047 0.4546121 -0.182659 0.8717589 0.142826 0.534154
294.339 97.1058 45.43447 0.4546121 -0.182659 0.8717589 0.140506 0.54931
294.339 25.3038 45.43447 0.5125383 0.1358411 0.8478513 0.140506 0.515538
299.272 64.8848 36.11047 0.5125383 0.1358411 0.8478513 0.142826 0.534154
282.872 68.5674 45.43447 0.5125383 0.1358411 0.8478513 0.137082 0.535887
386.728 123.643 45.43446 -0.3784268 0.1870459 0.9065357 0.183961 0.811791
393.272 136.884 45.43446 -0.3784268 0.1870459 0.9065357 0.187039 0.818019
384.016 144.587 39.98117 -0.3784268 0.1870459 0.9065357 0.182685 0.821642
384.016 144.587 39.98117 -0.5775503 -0.1226201 0.8070936 0.182685 0.821642
393.272 136.884 45.43446 -0.5775503 -0.1226201 0.8070936 0.187039 0.818019
386.728 167.707 45.43446 -0.5775503 -0.1226201 0.8070936 0.183961 0.832517
144.78 59.7649 38.38959 0.5650021 0.359141 0.742826 0.070161 0.531746
127.504 72.373 45.43449 0.5650021 0.359141 0.742826 0.062036 0.537677
142.17 49.3004 45.43449 0.5650021 0.359141 0.742826 0.068934 0.529214
105.743 196.854 45.43449 0.549502 -0.06274998 0.8331327 0.054638 0.596226
117.36 184.296 36.82599 0.549502 -0.06274998 0.8331327 0.057265 0.590319
113.272 262.788 45.43449 0.549502 -0.06274998 0.8331327 0.055341 0.627237
113.272 112.948 45.43449 0.6333121 0.05683001 0.7718071 0.055341 0.556761
117.36 184.296 36.82599 0.6333121 0.05683001 0.7718071 0.057265 0.590319
105.743 196.854 45.43449 0.6333121 0.05683001 0.7718071 0.054638 0.596226
3.685788e-06 73.9942 56.3997 -1 0 8.742278e-08 0.00447 0.788439
2.72718e-06 -5e-06 45.4345 -1 0 8.742278e-08 0.002065 0.753636
3.685788e-06 -7e-06 56.3997 -1 0 8.742278e-08 0.002065 0.753636
386.728 298.615 45.43457 -0.3548619 -0.071444 0.932185 0.183961 0.64409
383.882 232.991 39.32167 -0.3548619 -0.071444 0.932185 0.182623 0.613223
398.358 240.851 45.43446 -0.3548619 -0.071444 0.932185 0.185048 0.61692
398.358 240.851 45.43446 -0.449515 0.141955 0.8819212 0.185048 0.61692
383.882 232.991 39.32167 -0.449515 0.141955 0.8819212 0.182623 0.613223
386.728 204.025 45.43446 -0.449515 0.141955 0.8819212 0.183962 0.599599
386.728 167.707 45.43446 8.742278e-08 0 1 0.183961 0.832517
398.358 240.851 45.43446 8.742278e-08 0 1 0.189431 0.86692
386.728 204.025 45.43446 8.742278e-08 0 1 0.183961 0.849599
205.662 374.122 45.43458 -0.7830171 0 0.6220002 0.098797 0.679603
194.507 368.533 31.39278 -0.7830171 0 0.6220002 0.09355 0.676975
305.493 455.201 31.39277 0.7830305 0 0.6219833 0.145752 0.717738
294.339 374.122 45.43457 0.7830305 0 0.6219833 0.140506 0.679603
305.493 368.533 31.39277 0.7830305 0 0.6219833 0.145752 0.676975
379.934 93.0098 31.39267 -0.8984452 -0.002011 0.4390812 0.180765 0.547383
386.728 123.643 45.43446 -0.8984452 -0.002011 0.4390812 0.183961 0.561793
384.016 144.587 39.98117 -0.8984452 -0.002011 0.4390812 0.182685 0.571643
379.934 93.0098 31.39267 -0.8951725 0 0.4457199 0.180765 0.547383
383.882 232.991 39.32167 -0.8951725 0 0.4457199 0.182623 0.613223
379.934 338.042 31.39277 -0.8951725 0 0.4457199 0.180765 0.662633
386.728 298.615 45.43457 -0.9015082 -0.001216 0.4327602 0.183961 0.64409
379.934 338.042 31.39277 -0.9015082 -0.001216 0.4327602 0.180765 0.662633
383.882 232.991 39.32167 -0.9015082 -0.001216 0.4327602 0.182623 0.613223
386.728 204.025 45.43446 -0.8953889 0 0.4452851 0.183962 0.599599
384.016 144.587 39.98117 -0.8953889 0 0.4452851 0.182685 0.571643
386.728 167.707 45.43446 -0.8953889 0 0.4452851 0.183961 0.582517
393.272 136.884 45.43446 8.742278e-08 0 1 0.187039 0.818019
386.728 298.615 45.43457 8.742278e-08 0 1 0.183961 0.894089
386.728 123.643 45.43446 8.742278e-08 0 1 0.183961 0.811791
379.934 338.042 31.39277 -0.7430046 0.1072529 0.6606368 0.180765 0.662633
386.728 298.615 45.43457 -0.7430046 0.1072529 0.6606368 0.183961 0.64409
390.173 322.478 45.43457 -0.7430046 0.1072529 0.6606368 0.184283 0.655314
206.561 101.156 45.43448 8.742278e-08 0 1 0.09922 0.801215
294.339 97.1058 45.43447 8.742278e-08 0 1 0.140506 0.799309
194.507 -3e-06 31.39268 -0.6992869 0 0.7148411 0.09355 0.519234
208.861 36.6167 45.43448 -0.6992869 0 0.7148411 0.099752 0.531853
194.507 131.985 31.39268 -0.6992869 0 0.7148411 0.09355 0.565715
194.507 131.985 31.39268 -0.5431801 0.1627921 0.8236833 0.09355 0.565715
206.561 101.156 45.43448 -0.5431801 0.1627921 0.8236833 0.099065 0.554305
198.747 129.861 34.60868 -0.5431801 0.1627921 0.8236833 0.095548 0.564716
469.382 427.697 45.43456 -0.8004258 0 0.5994319 0.222837 0.704802
477.594 464.605 56.39966 -0.8004258 0 0.5994319 0.226066 0.722162
469.382 469.334 45.43456 -0.8004258 0 0.5994319 0.222837 0.724386
500 401.193 56.39966 8.742278e-08 0 1 0.237238 0.942336
475.537 430.781 56.39966 8.742278e-08 0 1 0.225732 0.956253
500 401.193 56.39966 1 -1e-06 -8.742278e-08 0.237238 0.942336
500 500 45.43456 1 -1e-06 -8.742278e-08 0.237238 0.989052
500 500 56.39966 1 -1e-06 -8.742278e-08 0.237238 0.989053
379.934 338.042 31.39277 -0.9001741 0 0.4355302 0.180765 0.662633
386.728 412.365 45.43457 -0.9001741 0 0.4355302 0.183961 0.697591
379.934 406.99 31.39277 -0.9001741 0 0.4355302 0.180765 0.695062
228.639 154.187 45.43448 -0.471076 0.19612 0.8600142 0.109604 0.576158
198.747 129.861 34.60868 -0.471076 0.19612 0.8600142 0.095548 0.564716
206.561 101.156 45.43448 -0.471076 0.19612 0.8600142 0.099065 0.554305
0.0001256858 401.193 56.3997 8.742278e-08 0 1 0.002065 0.942336
30.6174 427.697 45.4346 0.5914933 -0.3917181 0.7047642 0.016465 0.704802
24.4636 438.133 56.3997 0.5914933 -0.3917181 0.7047642 0.013571 0.709711
0.0001256858 401.193 56.3997 0.5914933 -0.3917181 0.7047642 0.002065 0.692336
24.4636 500 56.3997 0.8720539 0 0.4894099 0.013571 0.739053
30.6174 500 45.4346 0 1 0 0.016465 0.989053
500 401.193 56.39966 -0.657431 -0.54357 0.5218391 0.237238 0.692336
475.537 430.781 56.39966 -0.657431 -0.54357 0.5218391 0.225732 0.706253
469.382 427.697 45.43456 -0.657431 -0.54357 0.5218391 0.222837 0.704802
469.382 469.334 45.43456 -0.8091669 -0.047038 0.5856931 0.222837 0.724386
477.594 464.605 56.39966 -0.8091669 -0.047038 0.5856931 0.226066 0.722162
475.537 500 56.39966 -0.8091669 -0.047038 0.5856931 0.225732 0.739053
500 500 56.39966 0 1 0 0.237238 0.739054
0.0001256858 401.193 56.3997 -1 1e-06 1.108742e-05 0.002065 0.942336
0.0002476858 500 56.3997 -1 1e-06 1.108742e-05 0.002065 0.989053
0.0001247272 500 45.4346 -1 1e-06 1.108742e-05 0.002065 0.989053
64.154 73.9942 56.3997 0.5852653 0.3536882 0.7296363 0.032239 0.538711
83.4341 42.0905 56.39969 0.5852653 0.3536882 0.7296363 0.041307 0.526452
93.8409 47.4901 45.43449 0.5852653 0.3536882 0.7296363 0.046202 0.525973
83.4341 42.0905 56.39969 0.8034122 0.043951 0.593799 0.041307 0.526452
85.7366 -7e-06 56.39969 0.8034122 0.043951 0.593799 0.042391 0.519796
93.8409 -5e-06 45.43449 0.8034122 0.043951 0.593799 0.046202 0.519639
239.517 333.175 45.43458 8.742278e-08 0 1 0.114721 0.910344
294.339 500 45.43457 8.742278e-08 0 1 0.140506 0.989053
268.646 343.048 45.43458 0.5963877 -0.5301877 0.6026796 0.128421 0.664987
250 310.883 35.59008 0.5963877 -0.5301877 0.6026796 0.119651 0.649859
305.493 368.533 31.39277 0.5963877 -0.5301877 0.6026796 0.145752 0.676975
194.507 368.533 31.39278 -0.607103 -0.5420811 0.5810112 0.09355 0.676975
250 310.883 35.59008 -0.607103 -0.5420811 0.5810112 0.119651 0.649859
239.517 333.175 45.43458 -0.607103 -0.5420811 0.5810112 0.114721 0.660344
194.507 417.243 31.39278 -0.7282422 -0.01808601 0.6850812 0.09355 0.699885
207.751 415.865 45.43458 -0.7282422 -0.01808601 0.6850812 0.099421 0.699237
205.662 500 45.43458 -0.7282422 -0.01808601 0.6850812 0.098797 0.739053
305.493 500 31.39277 0.7822907 -0.04346098 0.6213956 0.145752 0.739053
294.339 500 45.43457 0.7822907 -0.04346098 0.6213956 0.140506 0.739053
292.249 462.389 45.43457 0.7822907 -0.04346098 0.6213956 0.139882 0.721119
294.339 500 45.43457 0 1 0 0.140506 0.989053
294.339 -5e-06 45.43447 8.742278e-08 0 1 0.140506 0.753636
250 199.101 31.39268 -0.5826498 0.4817439 0.6545549 0.119651 0.597283
194.507 131.985 31.39268 -0.5826498 0.4817439 0.6545549 0.09355 0.565715
228.639 154.187 45.43448 -0.5826498 0.4817439 0.6545549 0.109604 0.576158
250 180.023 45.43448 0.5826452 0.4817382 0.6545631 0.119651 0.588309
294.339 126.397 45.43447 0.5826452 0.4817382 0.6545631 0.140506 0.563086
305.493 131.985 31.39267 0.5826452 0.4817382 0.6545631 0.145752 0.565715
305.493 131.985 31.39267 0.7884316 -0.02989498 0.6143956 0.145752 0.565715
294.339 126.397 45.43447 0.7884316 -0.02989498 0.6143956 0.140506 0.563086
299.272 64.8848 36.11047 0.7884316 -0.02989498 0.6143956 0.142826 0.534154
294.339 25.3038 45.43447 0.7830204 0 0.6219962 0.140506 0.515538
294.339 -5e-06 45.43447 0.7830204 0 0.6219962 0.140506 0.503636
305.493 -3e-06 31.39267 0.7830204 0 0.6219962 0.145752 0.503636
205.661 -5e-06 45.43448 0 -1 0 0.098797 0.753636
406.159 47.4901 45.43446 -0.627057 0.583539 0.5160251 0.1931 0.525973
412.313 44.4066 56.39967 -0.627057 0.583539 0.5160251 0.195995 0.524523
436.777 70.6944 56.39966 -0.627057 0.583539 0.5160251 0.207501 0.536887
406.159 -5e-06 45.43446 -0.7961271 -0.03878501 0.6038852 0.1931 0.503636
414.477 -7e-06 56.39967 -0.7961271 -0.03878501 0.6038852 0.196347 0.503636
412.313 44.4066 56.39967 -0.7961271 -0.03878501 0.6038852 0.195995 0.524523
500 73.9942 56.39966 6.054317e-08 0.7213861 0.6925331 0.237238 0.538439
500 84.5207 45.43446 6.054317e-08 0.7213861 0.6925331 0.237238 0.54339
436.777 84.5207 45.43446 6.054317e-08 0.7213861 0.6925331 0.207501 0.54339
142.17 500 45.43459 0 1 0 0.068934 0.988809
-0.0002452448 500 9.918213e-05 0 1 0 0.002064 0.988809
500 -5e-06 45.43446 0 -1 0 0.237238 0.753636
147.528 63.0475 31.39268 0.6314378 0.5787417 0.5160857 0.071454 0.53329
120.066 93.0098 31.39269 0.6314378 0.5787417 0.5160857 0.058537 0.547383
127.504 72.373 45.43449 0.6314378 0.5787417 0.5160857 0.062036 0.537677
360.787 56.6463 45.43447 -0.6526531 0.5463541 0.5249202 0.17176 0.53028
386.728 87.6345 45.43446 -0.6526531 0.5463541 0.5249202 0.183961 0.544855
379.934 93.0098 31.39267 -0.6526531 0.5463541 0.5249202 0.180765 0.547383
113.272 112.948 45.43449 0.9001651 0 0.4355489 0.055341 0.556761
113.272 87.6345 45.43449 0.9001651 0 0.4355489 0.055341 0.544855
120.066 93.0098 31.39269 0.9001651 0 0.4355489 0.058537 0.547383
120.066 406.99 31.39279 0.9001651 0 0.4355489 0.058537 0.695062
113.272 412.365 45.43459 0.9001651 0 0.4355489 0.055341 0.697591
113.272 396.403 45.43459 0.9001651 0 0.4355489 0.055341 0.690083
118.031 368.26 35.47919 0.9026188 -0.000139 0.4304408 0.05758 0.676846
113.272 291.357 45.43459 0.9026188 -0.000139 0.4304408 0.055341 0.640675
117.36 184.296 36.82599 0.9026188 -0.000139 0.4304408 0.057265 0.590319
386.728 412.365 45.43457 -0.6298908 -0.5873989 0.5081339 0.183961 0.697591
357.83 443.354 45.43457 -0.6298908 -0.5873989 0.5081339 0.170369 0.712166
352.472 436.952 31.39277 -0.6298908 -0.5873989 0.5081339 0.167849 0.709155
138.704 443.354 45.43459 0.6578971 -0.539934 0.525017 0.067303 0.712166
113.272 412.365 45.43459 0.6578971 -0.539934 0.525017 0.055341 0.697591
120.066 406.99 31.39279 0.6578971 -0.539934 0.525017 0.058537 0.695062
357.83 500 45.43457 0 1 0 0.171519 0.988809
138.704 443.354 45.43459 0.8466934 0 0.5320812 0.067303 0.712166
147.528 436.952 31.39279 0.8466934 0 0.5320812 0.071454 0.709155
147.528 500 31.39279 0.8466934 0 0.5320812 0.071454 0.738809
352.472 500 31.39277 8.742278e-08 0 1 0.167849 0.738809
357.83 443.354 45.43457 -0.9342961 -4e-06 0.3564981 0.170369 0.712166
357.83 500 45.43457 -0.9342961 -4e-06 0.3564981 0.170523 0.73881
352.472 500 31.39277 -0.9342961 -4e-06 0.3564981 0.167849 0.738809
360.787 56.6463 45.43447 -0.8604589 0 0.50952 0.17176 0.53028
352.472 63.0475 31.39267 -0.8604589 0 0.50952 0.167849 0.53329
352.472 -3e-06 31.39267 -0.8604589 0 0.50952 0.167849 0.503636
147.528 -3e-06 31.39268 8.742278e-08 0 1 0.071454 0.519979
147.528 -3e-06 31.39268 0.9366918 0.002067999 0.3501488 0.071454 0.519639
144.78 59.7649 38.38959 0.9366918 0.002067999 0.3501488 0.070161 0.531746
142.17 49.3004 45.43449 0.9366918 0.002067999 0.3501488 0.068934 0.529214
113.272 291.357 45.43459 8.742278e-08 0 1 0.055341 0.890675
64.154 73.9942 56.3997 6.054317e-08 0.7213861 0.6925331 0.032239 0.538711
406.159 -5e-06 45.43446 0 -1 0 0.1931 0.753636
3.685788e-06 -7e-06 56.3997 0 -1 0 0.002065 0.753636
-0.0002452448 2e-06 0 -1 0 5.087423e-06 0.002064 0.753636
500 2e-06 -4.386902e-05 -8.742278e-08 0 -1 0.237238 0.753636
500 -5e-06 45.43446 1 0 -3.087423e-06 0.237238 0.753636
500 -7e-06 56.39966 1 0 -8.742278e-08 0.237238 0.753636
2.72718e-06 84.5207 45.4345 -1 0 8.742278e-08 0.002115 0.79339
205.662 374.122 45.43458 -0.7252154 0.03630202 0.6875644 0.098797 0.679603
207.751 415.865 45.43458 -0.7252154 0.03630202 0.6875644 0.099421 0.699237
194.507 417.243 31.39278 -0.7252154 0.03630202 0.6875644 0.09355 0.699885
305.493 455.201 31.39277 0.7317911 0.017323 0.6813089 0.145752 0.717738
292.249 462.389 45.43457 0.7317911 0.017323 0.6813089 0.139882 0.721119
294.339 374.122 45.43457 0.7317911 0.017323 0.6813089 0.140506 0.679603
379.934 93.0098 31.39267 -0.9001741 0 0.4355302 0.180765 0.547383
386.728 87.6345 45.43446 -0.9001741 0 0.4355302 0.183961 0.544855
386.728 123.643 45.43446 -0.9001741 0 0.4355302 0.183961 0.561793
379.934 93.0098 31.39267 -0.9072472 0.001764001 0.4205942 0.180765 0.547383
384.016 144.587 39.98117 -0.9072472 0.001764001 0.4205942 0.182685 0.571643
383.882 232.991 39.32167 -0.9072472 0.001764001 0.4205942 0.182623 0.613223
386.728 204.025 45.43446 -0.9032138 0.001834 0.429187 0.183962 0.599599
383.882 232.991 39.32167 -0.9032138 0.001834 0.429187 0.182623 0.613223
384.016 144.587 39.98117 -0.9032138 0.001834 0.429187 0.182685 0.571643
194.507 131.985 31.39268 -0.7881367 -0.02809399 0.6148588 0.09355 0.565715
208.861 36.6167 45.43448 -0.7881367 -0.02809399 0.6148588 0.099752 0.531853
206.561 101.156 45.43448 -0.7881367 -0.02809399 0.6148588 0.099065 0.554305
469.382 427.697 45.43456 -0.8771282 0.05335502 0.4772833 0.222837 0.704802
475.537 430.781 56.39966 -0.8771282 0.05335502 0.4772833 0.225732 0.706253
477.594 464.605 56.39966 -0.8771282 0.05335502 0.4772833 0.226066 0.722162
500 401.193 56.39966 1 -1e-06 9.125772e-07 0.237238 0.942336
500 390.667 45.43456 1 -1e-06 9.125772e-07 0.237238 0.937385
500 500 45.43456 1 -1e-06 9.125772e-07 0.237238 0.989052
3 0 1 2 
3 3 4 5 
3 6 7 8 
3 9 10 11 
3 12 13 14 
3 15 16 17 
3 18 19 20 
3 21 22 23 
3 24 25 26 
3 27 28 29 
3 30 31 32 
3 33 34 35 
3 36 37 38 
3 39 40 41 
3 42 43 44 
3 45 46 47 
3 48 49 50 
3 51 52 53 
3 54 55 56 
3 57 58 59 
3 60 61 62 
3 63 64 65 
3 66 65 64 
3 67 68 69 
3 70 71 72 
3 73 74 75 
3 76 77 78 
3 79 80 81 
3 82 83 84 
3 85 86 87 
3 88 89 90 
3 91 92 93 
3 94 92 95 
3 96 97 98 
3 99 100 101 
3 102 103 104 
3 105 106 107 
3 108 109 110 
3 111 112 113 
3 114 115 116 
3 117 118 119 
3 120 121 122 
3 122 117 119 
3 121 123 124 
3 125 126 127 
3 114 128 115 
3 129 130 131 
3 129 132 133 
3 134 135 136 
3 137 138 139 
3 140 141 142 
3 143 144 145 
3 146 147 148 
3 149 150 151 
3 152 153 154 
3 153 155 154 
3 156 157 158 
3 159 160 161 
3 162 163 164 
3 129 165 132 
3 166 167 125 
3 168 169 170 
3 171 172 173 
3 174 175 176 
3 123 177 124 
3 178 179 180 
3 181 182 183 
3 184 185 118 
3 186 187 188 
3 189 190 191 
3 111 113 192 
3 113 193 194 
3 125 195 196 
3 197 193 125 
3 198 192 194 
3 197 125 196 
3 199 200 201 
3 199 202 203 
3 204 205 206 
3 207 208 209 
3 108 210 168 
3 211 212 213 
3 214 215 216 
3 217 218 219 
3 220 221 222 
3 223 224 225 
3 225 226 223 
3 227 228 229 
3 230 231 232 
3 233 234 235 
3 236 237 238 
3 239 240 241 
3 242 243 244 
3 245 246 247 
3 248 249 250 
3 251 252 253 
3 254 255 256 
3 257 258 259 
3 260 261 262 
3 263 264 265 
3 266 267 268 
3 269 270 271 
3 272 273 274 
3 275 51 276 
3 35 38 33 
3 277 278 279 
3 280 281 282 
3 283 284 285 
3 286 287 288 
3 289 290 291 
3 114 292 128 
3 131 293 273 
3 131 272 292 
3 292 294 128 
3 295 296 297 
3 298 63 299 
3 298 299 61 
3 300 301 302 
3 303 304 305 
3 306 307 308 
3 309 21 310 
3 311 312 313 
3 194 192 113 
3 314 315 316 
3 317 318 319 
3 0 320 1 
3 321 322 323 
3 6 324 7 
3 9 325 10 
3 326 327 328 
3 329 330 331 
3 18 332 19 
3 333 334 335 
3 336 337 338 
3 339 340 341 
3 33 342 34 
3 36 343 37 
3 344 345 346 
3 347 348 349 
3 350 351 352 
3 353 354 355 
3 57 356 58 
3 60 298 61 
3 66 357 65 
3 358 359 360 
3 361 362 363 
3 364 365 366 
3 367 368 369 
3 88 370 89 
3 91 95 92 
3 371 372 373 
3 374 375 376 
3 377 378 379 
3 380 208 381 
3 108 382 109 
3 117 184 118 
3 122 121 117 
3 121 120 123 
3 125 167 126 
3 129 133 130 
3 383 384 385 
3 386 387 388 
3 389 390 391 
3 392 393 394 
3 395 396 397 
3 398 399 400 
3 401 402 403 
3 168 210 169 
3 207 209 404 
3 405 406 407 
3 123 408 177 
3 409 410 411 
3 412 413 414 
3 184 415 185 
3 416 417 418 
3 113 125 193 
3 125 127 195 
3 197 419 193 
3 199 201 202 
3 204 420 205 
3 207 381 208 
3 108 110 210 
3 211 421 212 
3 214 422 215 
3 217 423 218 
3 220 424 221 
3 225 425 226 
3 227 426 228 
3 263 427 264 
3 428 429 430 
3 35 36 38 
3 431 432 433 
3 434 435 436 
3 437 438 439 
3 440 441 442 
3 114 131 292 
3 131 130 293 
3 131 273 272 
3 298 64 63 
3 443 444 445 
3 446 447 448 
3 309 22 21 
3 449 450 451 
